<?xml version="1.0" encoding="utf-8"?>
<!-- Generator: Adobe Illustrator 13.0.0, SVG Export Plug-In . SVG Version: 6.00 Build 14948)  -->
<!DOCTYPE svg PUBLIC "-//W3C//DTD SVG 1.1//EN" "http://www.w3.org/Graphics/SVG/1.1/DTD/svg11.dtd">
<svg version="1.1"
	 id="Oberösterreich-Bezirke" xmlns:rdf="http://www.w3.org/1999/02/22-rdf-syntax-ns#" xmlns:svg="http://www.w3.org/2000/svg" xmlns:sodipodi="http://sodipodi.sourceforge.net/DTD/sodipodi-0.dtd" xmlns:inkscape="http://www.inkscape.org/namespaces/inkscape" xmlns:dc="http://purl.org/dc/elements/1.1/" xmlns:cc="http://creativecommons.org/ns#" inkscape:version="0.47 r22583" sodipodi:docname="Karte A Ooe BR.svg"
	 xmlns="http://www.w3.org/2000/svg" xmlns:xlink="http://www.w3.org/1999/xlink" x="0px" y="0px" width="1050px" height="920px"
	 viewBox="0 0 1050 920" enable-background="new 0 0 1050 920" xml:space="preserve">
<g id="Bezirke" transform="translate(0, -132.362)" inkscape:groupmode="layer" inkscape:label="Ebene 1">
	
		<path id="Braunau" fill="#123456" stroke="#7B7979" stroke-width="4" stroke-linecap="round" stroke-linejoin="round" stroke-miterlimit="10" d="
		M228.524,492.738l1.165,2.33l23.3-5.825l-3.494,9.32l2.33,3.495l5.824-3.495l2.33,4.66l10.485,4.66l4.66,9.325l5.825-5.83
		l11.646,5.83l-1.165,5.825l-3.495,3.495l10.484,8.155l-2.329,4.66l-13.977,9.325l5.82,8.155l-1.165,25.636l-3.495,17.477
		l-4.654,8.153l8.149,6.995l-1.165,9.32l-15.141,26.801l11.649,2.33l-9.319,11.65l-5.825-1.166l-3.495,8.16l-30.29,10.484
		l-1.165,2.33l-5.825,3.495l-23.296-1.165l-2.33-6.99l4.66-5.824l-9.32,3.495h-3.494l1.165-4.66l-9.32-1.165l-11.649-4.665
		l-2.33-8.154l-5.824,2.329V650.04l-5.82,2.33v-6.989l-8.155,3.495l-6.99-2.33l-9.319,4.659l-8.155,3.495l-15.146-8.154
		l-2.329,1.164l-10.479,8.155l-8.155,19.811l-13.979-3.495l-11.65-20.976l-31.451-29.131l-5.824-18.646l4.659-17.476l11.65,2.33
		l2.33-5.825l3.49-10.489l12.814-3.495l8.155-10.485l11.65-22.14l37.274-4.66l27.961-31.46l20.966-9.32l33.785-8.16l24.461-8.155
		L228.524,492.738"/>
	
		<path id="Eferding" fill="#123456" stroke="#7B7979" stroke-width="4" stroke-linecap="round" stroke-linejoin="round" stroke-miterlimit="10" d="
		M545.385,371.556l3.495,18.646l8.153,11.65l4.66-10.485h9.32l1.165-1.165l9.314,3.495l13.98,27.96l-3.495,12.82l2.33,10.485
		l17.476,11.65l2.33,1.17l20.972,5.825l11.645-8.16v3.5l-2.33,15.145l5.825-1.165l4.66,11.65l-30.285,15.15l-6.99,4.66l-8.155-2.33
		l-3.494,4.66l-12.815-2.33l-2.33,4.66l-11.65,2.33h-10.479v-5.825h-16.311l-16.311-3.495l-5.825-17.48l11.65-3.495l1.165-6.99
		l-5.825-1.165l-18.641,3.495l-1.16-2.33l6.984-13.98l3.495,2.33l11.65-5.83l-2.33-4.66l5.825-8.155l-9.32-6.99l3.495-13.985
		l8.155-11.65l1.165-4.66l-12.815-5.825l-10.485-13.98l2.33-3.5l-8.149-11.65l13.976,2.33l8.155-5.825L545.385,371.556"/>
	
		<path id="Freistadt" fill="#123456" stroke="#7B7979" stroke-width="4" stroke-linecap="round" stroke-linejoin="round" stroke-miterlimit="10" d="
		M821.471,258.53l3.495,4.66l23.301-15.146l9.319,16.311l8.154-3.495l8.15,17.48l11.65-1.165l9.319,3.495l11.65,17.475l8.155-8.155
		l6.99,5.825l5.824-3.495l11.646,3.495l11.649,6.995l4.66,9.32l11.65,1.165l11.65,3.495l9.319,10.485l-1.165,4.665h-11.65
		l-1.164,8.155l-9.32,4.66l4.66,10.485l-1.165,5.825l10.485,3.5l5.824,10.485l8.15,6.99l1.165,8.155l-18.636,5.83l-17.477,22.136
		l-4.66-4.66l-2.33,9.32l-6.989-1.165l-11.65,19.811l-4.655-4.66l-6.988,1.165v5.825l-8.155-4.66l-3.495,5.825l-11.65-4.66
		l-13.979,18.645v1.165l-16.307-19.81l-4.659,1.165v16.315h-9.32l1.166,6.99l-8.155-1.165l-4.66,4.66l-4.659-4.66v-6.995
		l-4.66-3.495l-4.66-2.33l-15.141,5.825l-17.476-8.155l-8.155-15.146l-9.319-2.33l-3.495-6.995h5.825l-1.165-4.66l9.319-4.66
		l1.165-10.485l-15.146-11.65l-3.495-11.655h-5.825l-4.66-17.476l-1.165-15.15l-10.479-8.155l-1.165-24.47l-1.165-3.495l6.99-2.33
		l1.16,5.825l4.659-9.32h6.99l8.155,5.825v-5.825l-12.815-4.66L755.07,283l-3.49-9.32l18.637,2.33l5.825-10.49l5.824-13.98
		l-5.824-12.82l10.484-2.33l16.311,19.811L821.471,258.53"/>
	
		<path id="Gmunden" fill="#123456" stroke="#7B7979" stroke-width="4" stroke-linecap="round" stroke-linejoin="round" stroke-miterlimit="10" d="
		M524.413,648.876l6.99,11.65l3.495-5.825l8.155,1.165l-1.165-4.66l6.99-1.165l10.484-1.165l19.801,18.642v5.829l-12.811,5.824
		l-1.165,5.825l15.142,6.99l-4.655,6.995l2.325,4.66l3.494,3.495v10.484l-5.819,2.33l-1.165,6.99l6.984,23.305l38.445,11.655
		l3.495,9.32l5.825,1.165l-2.33,11.649l-13.98,2.33l-13.979,12.82l-13.979,3.495l5.824,15.145l10.485,2.335l-3.495,9.32
		l13.979,19.806l2.33,8.16l-15.146,3.495l-9.319,6.99L578,870.262l-13.977-8.155l-13.979,3.495l-11.65-8.155l-15.146-5.825
		l-4.659,8.155l-4.654-2.33l-20.971,3.495l-6.99-3.495l-12.815,20.97l-6.989,1.165l2.33,6.995l-13.977,5.825v5.825l-5.825,22.141
		l2.33,15.146l-2.33,13.983l18.636,2.33l9.32,16.312l1.165,4.665l-5.825,2.329l6.99,13.98l-4.66,12.819l-13.979,18.641l3.495,6.99
		h-26.791l-27.961-8.155l-8.149,1.165l-31.455-15.146l-18.641-22.141l2.33-22.141l-1.165-3.495l11.649-9.32l6.989-26.8l-2.329-6.99
		l-11.65,2.33l-2.329-8.16l6.989-17.476l8.155-4.66l6.989-4.66l8.155-20.975l-32.62-5.825l-18.637-10.49l3.495-22.136l9.315-9.325
		l22.136,9.325l9.319-3.5l8.154,1.17l3.495,6.99l6.99,2.33l12.811-8.155l8.155-22.14l6.99-5.825l-11.65-6.995l-3.495-1.165
		l6.99-12.814l-2.33-4.66h4.66l2.33-9.325l11.649-4.66l-2.33-10.485l8.155-13.983l9.319,2.335l5.825-12.82l1.165-1.165l13.976-8.154
		l2.33-12.82l-2.33-13.98l12.815-2.33l2.33-12.818l9.319,4.664v-6.994l6.99-12.815l10.485-12.814l5.824-5.83l12.811,11.655
		L524.413,648.876"/>
	
		<path id="Grießkirchen" fill="#123456" stroke="#7B7979" stroke-width="4" stroke-linecap="round" stroke-linejoin="round" stroke-miterlimit="10" d="
		M482.479,379.712l13.98,10.485l9.319-4.66l-2.33,5.825l8.155,2.335h4.66l5.82-6.995h1.164l10.484,13.985l12.815,5.825l-1.165,4.66
		l-8.154,11.65l-3.495,13.985l9.319,6.99l-5.824,8.155l2.33,4.66l-11.65,5.83l-3.494-2.33l-6.985,13.98l1.16,2.33l18.641-3.495
		l5.824,1.165l-1.164,6.99l-11.65,3.495l5.825,17.48l16.311,3.495h16.311v5.825h10.48l1.164,13.985l-10.479-3.495l-12.815,9.32
		l-4.659-3.495l-6.989-4.66l-2.33,1.165l-9.32,8.155l-19.801,1.165l-1.165,5.825l18.636,11.655l-5.825,5.825l1.165,4.66
		l-17.471-2.33l-3.495-4.66l-11.649,15.146l2.33,3.495l-5.825-5.825l-3.495,3.495l-4.66,15.149l-8.155,5.825l-3.495,5.825
		l-16.305-9.32l-11.65,1.165l-2.329-6.99l-5.825,3.495l-1.165,1.165l-6.99-5.825l-18.64,1.165l1.165-6.995l1.164-17.476
		l4.659-16.315l-4.659-5.825l-11.646-6.99l-1.165-8.155l-6.989-11.655l1.165-4.66l9.319-2.33l9.315,4.66l6.989-2.33l11.65-1.165
		l-2.33-8.155l2.33-13.985l4.66-2.33l3.495-10.485v-1.165l8.154,1.165l8.155-5.825l4.66-4.66l-3.495-8.16h1.165v-13.98l5.82-8.155
		l-4.655-8.16l-5.825-5.825l-8.155-13.98l5.825-6.99l-1.165-11.655l15.142-9.32l10.483,5.825L482.479,379.712"/>
	
		<path id="Kirchdorf" fill="#123456" stroke="#7B7979" stroke-width="4" stroke-linecap="round" stroke-linejoin="round" stroke-miterlimit="10" d="
		M649.063,609.258l5.825,11.65l12.814-1.165l-3.495,5.825l-12.814,4.66l5.825,8.155l11.649-5.825l-3.494,11.654l-4.66,4.66
		l1.165,4.66l-6.99-2.33v5.825l8.155,2.33l-4.66,9.325l5.825,1.165l2.33,1.165l5.824,13.979l9.32,3.495l4.659-2.33h17.472
		l4.659-16.31l6.99-3.5v11.654l10.484,13.979h-4.659l-4.66,13.985l5.825,9.319l-5.825,11.65l9.319,4.665l19.807-1.165l3.494,8.155
		l13.976,6.988l6.99,4.66l-9.32,34.956l10.485,15.15l3.495,5.825l8.154-2.33l-1.165,8.154l13.98,8.159l9.32,20.971l-3.495,11.655
		l-9.32,2.33l13.98,15.146l-1.165,8.153l-18.642,18.646l-11.649-1.165l-10.485,2.33l-2.33,11.649l-25.625,11.655l-3.495,6.99
		l-31.456-2.33l-15.141-19.811l4.66-5.825l-6.989,1.165l-5.825-2.33l-11.649,10.484h-15.146l-23.296,11.655l-18.642,2.33
		l-1.163-12.815l2.328-20.976l-20.97-22.14l9.32-6.99l15.146-3.495l-2.33-8.16l-13.979-19.806l3.495-9.32l-10.485-2.335
		l-5.825-15.145l13.98-3.495l13.979-12.82l13.979-2.33l2.33-11.649l-5.824-1.165l-3.495-9.32l-38.445-11.655l-6.985-23.305
		l1.165-6.99l5.82-2.33v-10.484l-3.495-3.495l-2.325-4.66l4.655-6.995l-15.142-6.99l1.165-5.825l12.812-5.824v-5.83l15.146-6.989
		l6.99-26.801l15.145,2.33l6.991-4.66l3.494-15.146l4.661,1.165l3.495-9.325l5.818,2.335l3.495-6.993l8.155-1.166L649.063,609.258"
		/>
	
		<path id="Linz_Land" fill="#123456" stroke="#7B7979" stroke-width="4" stroke-linecap="round" stroke-linejoin="round" stroke-miterlimit="10" d="
		M672.364,455.448l13.979,8.16l5.825-1.165l4.654,3.495l2.331,10.485l8.154,4.66l-1.164,19.81l-6.99,3.495l9.319,8.155l10.484,2.33
		l8.155,12.82l8.155-11.655l12.814-5.825l5.82,3.495l10.485-11.65l12.813,5.825l1.165-3.495l8.155,5.825l16.312-5.825l11.646,4.66
		l-2.325,2.33l-11.649,6.995l-3.495,15.146l1.165,15.15v4.66l-6.99,13.98l4.66,9.319l-3.495,9.325l10.485,8.155l-5.825,3.495
		l-11.65-4.66l-12.815,2.33l-4.659-4.66l3.495-5.825l-11.649-2.33v-3.494l-9.315,3.494l-5.824-4.665l-11.65,8.16l-3.495,6.99
		l-3.495,3.495l-12.814-4.66l-4.66,8.155l-13.977-1.165l1.16,5.824l-4.653,5.83l-13.98,8.154l-2.33-5.824l-6.99,6.989l-12.814,1.165
		l-5.825-11.649l3.495-6.995l-8.155,1.166l10.485-9.32l-19.802-6.99l5.82-16.314l8.155-2.33l9.32-16.311l-6.99-8.16v-20.971h-15.146
		l-12.811-9.325l6.991-8.155l-5.825-5.825l30.285-15.15l-4.66-11.65l-5.825,1.165l2.33-15.146l17.477-10.49L672.364,455.448"/>
	
		<path id="Linz_Stadt" fill="#123456" stroke="#7B7979" stroke-width="4" stroke-linecap="round" stroke-linejoin="round" stroke-miterlimit="10" d="
		M764.39,502.058l-10.485,11.65l-5.819-3.495l-12.815,5.825l-8.155,11.655l-8.155-12.82l-10.484-2.33l-9.319-8.155l6.99-3.495
		l1.165-19.81l-8.155-4.66l-2.331-10.485l-4.653-3.495l5.818-1.165l-1.165-9.325l-1.164-10.485l10.485-6.99l4.659-17.48h1.165
		l1.165,15.15l15.146,1.165l8.155,6.99l-3.495,6.99l9.32,4.66l-18.642,3.495l13.98,26.8l24.46,13.985l-2.329,3.495L764.39,502.058"
		/>
	
		<path id="Perg" fill="#123456" stroke="#7B7979" stroke-width="4" stroke-linecap="round" stroke-linejoin="round" stroke-miterlimit="10" d="
		M1002.034,387.867l-13.976,17.48l8.15-4.665l9.319,2.335l3.495,9.32l-6.99,30.295l-1.165,5.825l16.312-1.165l2.33,17.48
		l3.495,27.965l-9.32,6.99l2.33,6.99l-10.485,10.49l10.485,13.98l-6.99-4.66l-9.319-16.315l-19.801,2.33l-3.495-3.495l-12.814,5.825
		v8.16l-6.99,12.815l-31.451,10.485l-3.495,1.17l-9.319,3.495l-11.65-4.665l-3.494,10.49l-8.155,4.66l-19.801-12.815l-9.32-9.325
		l-16.31-20.97l-11.649-5.83l-17.477-3.495l-11.646-4.66l-16.311,5.825l-8.155-5.825l-1.165,3.495l-12.813-5.825l-4.66-2.33
		l2.33-3.495l1.165-22.141l6.989-4.66l-2.33-4.66l10.484,5.825l17.477-4.66v-6.99l-9.32,1.165l3.495-10.49l4.66-1.165l17.476,8.155
		l15.142-5.825l4.659,2.33l4.66,3.495v6.995l4.66,4.66l4.66-4.66l8.153,1.165l-1.164-6.99h9.319v-16.315l4.66-1.165l16.306,19.811
		v-1.165l13.98-18.646l11.648,4.66l3.495-5.825l8.155,4.66v-5.825l6.99-1.165l4.654,4.66l11.65-19.81l6.99,1.165l2.33-9.32
		l4.66,4.66l17.476-22.14l18.635-5.825l-1.165-8.155L1002.034,387.867"/>
	
		<path id="Ried" fill="#123456" stroke="#7B7979" stroke-width="4" stroke-linecap="round" stroke-linejoin="round" stroke-miterlimit="10" d="
		M326.381,440.302v4.66l4.66-2.33l13.975,5.825l10.484,3.495l4.66-2.33l11.65,4.66l3.495-4.66l12.814,2.33v10.49l3.495,2.33
		l12.812,9.32l4.659-2.33h5.824l2.33,5.825l-4.66,17.48l-11.645,6.99l-9.32,2.33l-1.165,4.66l6.99,11.655l1.165,8.155l11.645,6.99
		l4.66,5.825l-4.66,16.315l-1.164,17.477l-1.165,6.994l-10.479,11.65l-13.98-3.495l-10.484,3.495l-22.135,5.825h-8.155l-3.491,1.165
		l-12.813,12.818l-11.65,4.66l-2.33,12.815v3.495l-3.495,1.165l2.33-1.165l-3.495-2.33l-9.319,3.495l-2.33-2.33l-3.495-9.32h-6.99
		l1.165-9.32l-8.148-6.994l4.653-8.154l3.495-17.477l1.165-25.636l-5.818-8.155l13.975-9.325l2.33-4.66l-10.485-8.155l3.495-3.495
		l1.165-5.825l-11.645-5.83l-5.825,5.83l-4.66-9.325l-10.485-4.66l-2.33-4.66l-5.824,3.495l-2.33-3.495l3.495-9.32l-23.302,5.825
		l-1.165-2.33l-2.329-18.646l25.631,2.33l26.796-16.31l11.645-10.49l1.165-1.165l12.815-15.145l15.146-10.49l1.165,10.49
		l6.989,3.495L326.381,440.302"/>
	
		<path id="Rohrbach" fill="#123456" stroke="#7B7979" stroke-width="4" stroke-linecap="round" stroke-linejoin="round" stroke-miterlimit="10" d="
		M583.825,200.269l6.99,13.979l16.312,6.995l-1.165,9.32l-2.33,4.66l-11.65,1.165l-5.825,8.16l8.155,8.155l6.99-1.165l-2.33,10.485
		l5.825,5.825l6.989-2.33l-1.165,8.155l12.815-3.495v4.665l8.154,2.33l6.984-5.83l13.98,5.83l9.319-3.5l16.312,4.665l-15.146,6.99
		l1.165,16.31l-6.989,1.165l-1.165,11.655h9.319l1.165,5.825l2.33,19.81l-4.66,1.165l-4.659-6.995l-3.495,5.83l4.66,24.465
		l-8.155,4.665l-5.825,15.146l-2.33,1.165l-3.495-5.825l-6.985-6.99l-5.824,1.165l-10.484,17.476l-2.33,13.985l-10.484-1.165
		l1.164,8.155l-10.484,9.32l-13.98-27.965l-9.314-3.495l-1.165,1.165h-9.319l-4.66,10.49l-8.154-11.655l-3.495-18.641l-5.825-3.495
		l-8.155,5.825l-13.976-2.33l8.149,11.65l-2.33,3.495h-1.165l-33.78-26.8l-5.824-3.495l-22.136-26.8l9.319-11.65l-1.165-9.32
		l4.66-12.82l6.99,4.66l12.814-11.65V272.51l10.484-13.98l-3.495-26.8l-1.165-22.141h8.155l1.165-4.66l-9.32-1.165l-9.319-9.32
		l10.484-10.49l1.165-15.145l8.155-11.65l16.306,3.495l22.137,20.97l12.814,12.82L583.825,200.269"/>
	
		<path id="Schärding" fill="#123456" stroke="#7B7979" stroke-width="4" stroke-linecap="round" stroke-linejoin="round" stroke-miterlimit="10" d="
		M382.297,291.155l12.814,6.99l8.15-5.825l19.806,11.65l4.659,1.17l3.495,8.155l6.99,4.66l22.131,11.65l22.136,26.8l5.824,3.495
		l33.781,26.801l-5.82,6.99h-4.66l-8.155-2.33l2.33-5.825l-9.319,4.66l-13.979-10.485l-9.32-2.33l-10.484-5.825l-15.142,9.32
		l1.165,11.65l-5.825,6.995l8.155,13.98l5.825,5.825l4.655,8.16l-5.82,8.155v13.98h-1.165l3.495,8.16l-4.66,4.66l-8.155,5.825
		l-8.154-1.165v1.165l-3.495,10.485l-4.66,2.33l-2.33,13.985l2.33,8.155l-11.649,1.165l-6.99,2.33l-9.314-4.66l11.646-6.99
		l4.659-17.48l-2.329-5.825h-5.825l-4.661,2.33l-12.811-9.32l-3.494-2.33v-10.49l-12.815-2.33l-3.495,4.66l-11.65-4.66l-4.659,2.33
		l-10.485-3.495l-13.977-5.825l-4.658,2.33v-4.66l1.164-3.495l-6.989-3.495l-1.165-10.49l5.824-18.64l6.99-16.315l-1.166-12.815
		l-3.494-8.155l5.824-15.15l2.33-3.495l5.821-18.645l-5.821-9.32l2.331-5.825l-5.825-13.985l5.825-4.66l5.82,6.99l5.824-2.33
		l1.165-4.66l11.649-5.825l-2.33-5.825l5.825-5.825L382.297,291.155"/>
	
		<path id="Steyr_Land" fill="#123456" stroke="#7B7979" stroke-width="4" stroke-linecap="round" stroke-linejoin="round" stroke-miterlimit="10" d="
		M744.59,577.795l5.824,4.665l9.315-3.495v3.495l11.65,2.33l-3.495,5.825l4.66,4.66l12.813-2.33l11.65,4.66l-9.32,10.484
		l-5.825,6.994l-15.145,1.165l-10.485,11.65l-4.655,10.484l2.325,5.83l16.312,6.99l17.475-12.82L804,660.525v8.16l27.957,11.648
		l27.959,19.812l24.461,8.154l13.98,6.99l11.65-6.99l18.64,36.12l-2.33,5.825l-23.3,15.15l6.99,5.824l-6.99,13.98l10.484,12.82
		l-9.319,6.989l5.825,15.149l9.319,8.155l-3.495,3.495l-18.641-10.485l-10.484,15.146l-9.32,3.495l-1.165,8.155l-12.812-2.33
		l-17.476,8.16l-12.815-1.165l-11.648,8.155l1.165,8.155l-5.825,9.318h-11.646l1.165-8.153l-13.979-15.146l9.32-2.33l3.494-11.655
		l-9.319-20.971l-13.98-8.16l1.165-8.153l-8.154,2.329l-3.494-5.824l-10.485-15.15l9.32-34.956l-6.99-4.66l-13.976-6.99
		l-3.495-8.153l-19.807,1.165l-9.319-4.665l5.824-11.65l-5.824-9.319l4.659-13.985h4.66l-10.484-13.98V666.35l-6.99,3.5l-4.66,16.31
		h-17.47l-4.66,2.33l-9.32-3.495l-5.825-13.979l-2.329-1.166l-5.825-1.164l4.659-9.325l-8.154-2.33v-5.825l6.99,2.33l-1.165-4.66
		l4.659-4.66l3.495-11.654l-11.649,5.825l-5.825-8.155l12.814-4.66l3.495-5.825l6.99-6.99l2.33,5.825l13.979-8.154l4.654-5.83
		l-1.16-5.824l13.977,1.165l4.66-8.155l12.814,4.66l3.495-3.495l3.495-6.99L744.59,577.795"/>
	
		<path id="Steyr_Stadt" fill="#123456" stroke="#7B7979" stroke-width="4" stroke-linecap="round" stroke-linejoin="round" stroke-miterlimit="10" d="
		M787.69,638.385l-17.475,12.819l-16.312-6.989l-2.325-5.83l4.655-10.485l10.485-11.65l15.145-1.165l5.825-6.994l5.825,1.17
		l-6.99,4.659l2.33,4.66L787.69,638.385"/>
	
		<path id="Urfahr_Umgebung" fill="#123456" stroke="#7B7979" stroke-width="4" stroke-linecap="round" stroke-linejoin="round" stroke-miterlimit="10" d="
		M678.189,278.335l9.32,5.825l12.811-2.33l10.485,8.155l12.814,2.33l4.659,8.16l3.495-1.165l6.99-12.82l9.32,2.33l6.984-5.825
		l5.825,18.645l12.815,4.66v5.825l-8.155-5.825h-6.99l-4.66,9.32l-1.16-5.825l-6.989,2.33l1.165,3.495l1.165,24.47l10.479,8.155
		l1.165,15.15l4.66,17.476h5.825l3.494,11.655l15.146,11.65l-1.164,10.485l-9.32,4.66l1.165,4.66h-5.825l3.495,6.995l9.32,2.33
		l8.155,15.146l-4.66,1.165l-3.495,10.49l9.319-1.165v6.99l-17.476,4.66l-10.484-5.825l2.33,4.66l-6.99,4.66l-1.165,22.14
		L737.6,482.243l-13.979-26.8l18.641-3.495l-9.32-4.66l3.495-6.99l-8.154-6.99l-15.146-1.165l-1.165-15.15h-1.165l-4.66,17.48
		l-10.485,6.99l1.165,10.485l1.165,9.325l-11.646,2.33l-13.98-8.16l-8.154-6.99l-17.477,10.49v-3.5l-11.645,8.16l-20.972-5.825
		l-2.33-1.17l-17.476-11.65l-2.33-10.485l3.495-12.82l10.484-9.32l-1.164-8.155l10.484,1.165l2.33-13.98l10.485-17.48l5.825-1.165
		l6.984,6.99l3.494,5.83l2.33-1.165l5.825-15.15l8.155-4.66l-4.66-24.471l3.495-5.825l4.659,6.99l4.66-1.165l-2.33-19.81
		l-1.165-5.825h-9.319l1.165-11.65l6.989-1.165l-1.165-16.315L678.189,278.335"/>
	
		<path id="Vöcklabruck" fill="#123456" stroke="#7B7979" stroke-width="4" stroke-linecap="round" stroke-linejoin="round" stroke-miterlimit="10" d="
		M426.564,581.295l6.989,5.825l1.165-1.165l5.825-3.495l2.33,6.99l11.649-1.165l16.306,9.32l3.495-5.825l3.495,5.825l11.65,4.66
		l3.495-1.165l2.329,12.818l9.32,4.66h1.164l3.495,4.66l-4.659,11.65l5.824,4.665l-10.484,12.814l-6.989,12.815v6.994l-9.32-4.664
		l-2.33,12.818l-12.815,2.33l2.33,13.98l-2.33,12.819l-13.976,8.155l-1.165,1.165l-5.825,12.82l-9.319-2.335l-8.155,13.983
		l2.33,10.485l-11.649,4.66l-2.33,9.325h-4.66l2.33,4.659l-6.989,12.815l3.495,1.165l11.648,6.995l-6.99,5.825l-8.153,22.14
		l-12.812,8.155l-6.99-2.33l-3.494-6.99l-8.155-1.17l-3.495-13.979l-17.475,5.824l-3.495-8.154l-13.977-2.33l-23.301,4.659
		l-4.66,2.33l-16.31-10.484l-17.471-1.165l-1.165-6.995l-10.485-5.825l3.495-22.136l-10.485-17.48l4.66-9.318v-32.626l11.65-6.995
		l23.295,16.314l2.329-3.495l3.495-17.479l-31.449-16.31v-8.16l9.319-11.65l-11.649-2.33l15.141-26.801h6.99l3.494,9.32l2.33,2.33
		l9.319-3.495l3.495,2.33l-2.33,1.165l3.495-1.165v-3.495l2.33-12.815l11.649-4.66l12.815-12.818l3.49-1.165h8.155l22.135-5.825
		l10.484-3.495l13.98,3.495l10.48-11.65L426.564,581.295"/>
	
		<path id="Wels_Land" fill="#123456" stroke="#7B7979" stroke-width="4" stroke-linecap="round" stroke-linejoin="round" stroke-miterlimit="10" d="
		M624.603,499.728l5.825,5.825l-6.99,8.155l12.811,9.325h15.146v20.97l6.99,8.16l-9.32,16.311l-8.155,2.33l-5.819,16.314
		l19.801,6.99l-10.485,9.32l-3.495,6.993l-5.819-2.334l-3.495,9.324l-4.66-1.165l-3.495,15.146l-6.99,4.66l-15.146-2.33
		l-6.989,26.801l-15.146,6.99l-19.802-18.642l-10.484,1.165l-6.99,1.165l1.166,4.66l-8.155-1.165l-3.495,5.825l-6.989-11.65
		l4.659-3.495l-12.811-11.654l-5.825,5.83l-5.825-4.665l4.66-11.65l-3.495-4.66h-1.165l-9.319-4.66l-2.33-12.818l-3.495,1.164
		l-11.65-4.659l-3.495-5.825l8.155-5.825l4.66-15.149l3.495-3.495l5.825,5.824l-2.33-3.494l11.649-15.146l3.495,4.66l17.472,2.33
		l-1.165-4.66l5.824-5.825l-18.636-11.655l1.165-5.825l19.801-1.165l9.32-8.155l2.329-1.165l6.99,4.66l4.66,3.495l12.814-9.32
		l10.48,3.495l-1.165-13.985l11.649-2.33l2.33-4.66l12.814,2.33l3.495-4.66l8.154,2.33L624.603,499.728"/>
	
		<path id="Wels_Stadt" fill="#123456" stroke="#7B7979" stroke-width="4" stroke-linecap="round" stroke-linejoin="round" stroke-miterlimit="10" d="
		M598.972,528.859l-8.155,5.825l-9.319-2.33l-2.33,10.485l-12.811,5.83l6.989,12.815l-5.824,13.979l3.494,10.49l2.33-6.99l9.315-3.5
		l24.466-10.484l16.311-10.485l-8.155-16.315l-9.319,1.165l-2.33-8.155L598.972,528.859"/>
</g>
<g id="Beschreibungen">
	<text transform="matrix(1 0 0 1 34.0208 160.415)" font-family="'MyriadPro-Regular'" font-size="14.2709">--&gt; Eigene Visualisierung auf  </text>
	<text transform="matrix(1 0 0 1 34.0208 177.54)" font-family="'MyriadPro-Regular'" font-size="14.2709"> datenlandkarten.at erstellen</text>
	<text id="Titel2" transform="matrix(1 0 0 1 29.0208 119.7979)" font-family="'MyriadPro-Regular'" font-size="30">%titel2%</text>
	<text id="Titel1" transform="matrix(0.6758 0 0 1 24.9958 66.1836)" font-family="'ArialMT'" font-size="61.9146">%titel1%</text>
</g>
<g id="Skala">
	<rect id="rect4459" x="32.285" y="577.745" fill="#111101" width="19.682" height="23.016"/>
	<text transform="matrix(0.8552 0 0 1 61.9207 597.7275)" font-family="'ArialMT'" font-size="25.1085">%legende1%</text>
	<rect id="rect4459-1" x="32.285" y="609.457" fill="#111102" width="19.682" height="23.02"/>
	<text transform="matrix(0.8552 0 0 1 61.9207 629.4414)" font-family="'ArialMT'" font-size="25.1085">%legende2%</text>
	<rect id="rect4459-2" x="32.285" y="641.17" fill="#111103" width="19.682" height="23.02"/>
	<text transform="matrix(0.8552 0 0 1 61.9207 661.1533)" font-family="'ArialMT'" font-size="25.1085">%legende3%</text>
	<rect id="rect4459-6" x="32.285" y="672.888" fill="#111104" width="19.682" height="23.016"/>
	<text transform="matrix(0.8552 0 0 1 61.9207 692.8691)" font-family="'ArialMT'" font-size="25.1085">%legende4%</text>
	<rect id="rect4459-29" x="32.285" y="704.596" fill="#111105" width="19.682" height="23.021"/>
	<text transform="matrix(0.8552 0 0 1 61.9207 724.5811)" font-family="'ArialMT'" font-size="25.1085">%legende5%</text>
	<rect id="rect4459-3" x="32.285" y="736.311" fill="#111106" width="19.682" height="23.021"/>
	<text transform="matrix(0.8552 0 0 1 61.9207 756.2949)" font-family="'ArialMT'" font-size="25.1085">%legende6%</text>
	<rect id="rect4459-8" x="32.285" y="768.025" fill="#111107" width="19.682" height="23.018"/>
	<text transform="matrix(0.8552 0 0 1 61.9207 788.0088)" font-family="'ArialMT'" font-size="25.1085">%legende7%</text>
	<rect id="rect4459-9" x="32.285" y="799.736" fill="#111108" width="19.682" height="23.017"/>
	<text transform="matrix(0.8552 0 0 1 61.9207 819.7227)" font-family="'ArialMT'" font-size="25.1085">%legende8%</text>
	<rect id="rect4459-18" x="32.285" y="831.449" fill="#111109" width="19.682" height="23.02"/>
	<text transform="matrix(0.8552 0 0 1 61.9207 851.4346)" font-family="'ArialMT'" font-size="25.1085">%legende9%</text>
	<rect id="rect4459-18-6" x="32.285" y="863.163" fill="#111110" width="19.682" height="23.019"/>
	<text transform="matrix(0.8552 0 0 1 61.9207 883.1465)" font-family="'ArialMT'" font-size="25.1085">%legende10%</text>
</g>
<g id="Kreise">
	<g id="Kreis18" transform="translate(-1099.4425,-1468.408)">
		
			<path id="path3841-8-9-2-0-6-5-2_8_" sodipodi:type="arc" sodipodi:cx="328.29956" sodipodi:cy="1106.1483" sodipodi:rx="67.680222" sodipodi:ry="67.680222" fill="#FFFFFF" stroke="#000000" d="
			M1702.655,1887.611c0,6.187-5.021,11.206-11.212,11.206c-6.188,0-11.206-5.021-11.206-11.206c0-6.191,5.017-11.205,11.206-11.205
			C1697.636,1876.406,1702.655,1881.42,1702.655,1887.611z"/>
		<text transform="matrix(1 0 0 1 1683.1859 1892.5642)" font-family="'ArialMT'" font-size="13.7481">18</text>
	</g>
	<g id="Kreis17" transform="translate(-1099.4425,-1468.408)">
		
			<path id="path3841-8-9-2-0-6-5-2_9_" sodipodi:type="arc" sodipodi:cx="328.29956" sodipodi:cy="1106.1483" sodipodi:rx="67.680222" sodipodi:ry="67.680222" fill="#FFFFFF" stroke="#000000" d="
			M1665.441,1953.615c0,6.188-5.021,11.207-11.215,11.207c-6.188,0-11.206-5.021-11.206-11.207c0-6.189,5.021-11.209,11.206-11.209
			C1660.423,1942.41,1665.441,1947.426,1665.441,1953.615z"/>
		<text transform="matrix(1 0 0 1 1645.973 1958.5691)" font-family="'ArialMT'" font-size="13.7481">17</text>
	</g>
	<g id="Kreis16" transform="translate(-1099.4425,-1468.408)">
		
			<path id="path3841-8-9-2-0-6-5-2_10_" sodipodi:type="arc" sodipodi:cx="328.29956" sodipodi:cy="1106.1483" sodipodi:rx="67.680222" sodipodi:ry="67.680222" fill="#FFFFFF" stroke="#000000" d="
			M1484.003,2025.496c0,6.187-5.021,11.206-11.211,11.206c-6.188,0-11.206-5.021-11.206-11.206c0-6.191,5.019-11.206,11.206-11.206
			C1478.986,2014.291,1484.003,2019.304,1484.003,2025.496z"/>
		<text transform="matrix(1 0 0 1 1464.5345 2030.45)" font-family="'ArialMT'" font-size="13.7481">16</text>
	</g>
	<g id="Kreis15" transform="translate(-1099.4425,-1468.408)">
		
			<path id="path3841-8-9-2-0-6-5-2_11_" sodipodi:type="arc" sodipodi:cx="328.29956" sodipodi:cy="1106.1483" sodipodi:rx="67.680222" sodipodi:ry="67.680222" fill="#FFFFFF" stroke="#000000" d="
			M1815.546,1712.836c0,6.188-5.019,11.206-11.213,11.206c-6.188,0-11.206-5.021-11.206-11.206c0-6.188,5.021-11.204,11.206-11.204
			C1810.53,1701.632,1815.546,1706.645,1815.546,1712.836z"/>
		<text transform="matrix(1 0 0 1 1796.0785 1717.7888)" font-family="'ArialMT'" font-size="13.7481">15</text>
	</g>
	<g id="Kreis14" transform="translate(-1099.4425,-1468.408)">
		
			<path id="path3841-8-9-2-0-6-5-2_12_" sodipodi:type="arc" sodipodi:cx="328.29956" sodipodi:cy="1106.1483" sodipodi:rx="67.680222" sodipodi:ry="67.680222" fill="#FFFFFF" stroke="#000000" d="
			M1879.983,1970.165c0,6.188-5.017,11.208-11.211,11.208c-6.188,0-11.206-5.021-11.206-11.208c0-6.19,5.017-11.207,11.206-11.207
			C1874.964,1958.958,1879.983,1963.973,1879.983,1970.165z"/>
		<text transform="matrix(1 0 0 1 1860.514 1975.116)" font-family="'ArialMT'" font-size="13.7481">14</text>
	</g>
	<g id="Kreis13" transform="translate(-1099.4425,-1468.408)">
		
			<path id="path3841-8-9-2-0-6-5-2_13_" sodipodi:type="arc" sodipodi:cx="328.29956" sodipodi:cy="1106.1483" sodipodi:rx="67.680222" sodipodi:ry="67.680222" fill="#FFFFFF" stroke="#000000" d="
			M1943.436,2091.492c0,6.186-5.021,11.205-11.211,11.205c-6.188,0-11.206-5.021-11.206-11.205c0-6.191,5.017-11.207,11.206-11.207
			C1938.417,2080.285,1943.436,2085.301,1943.436,2091.492z"/>
		<text transform="matrix(1 0 0 1 1923.9681 2096.4421)" font-family="'ArialMT'" font-size="13.7481">13</text>
	</g>
	<g id="Kreis12" transform="translate(-1099.4425,-1468.408)">
		
			<path id="path3841-8-9-2-0-6-5-2_14_" sodipodi:type="arc" sodipodi:cx="328.29956" sodipodi:cy="1106.1483" sodipodi:rx="67.680222" sodipodi:ry="67.680222" fill="#FFFFFF" stroke="#000000" d="
			M1497.744,1714.809c0,6.186-5.021,11.205-11.213,11.205c-6.188,0-11.205-5.021-11.205-11.205c0-6.191,5.018-11.206,11.205-11.206
			C1492.723,1703.603,1497.744,1708.618,1497.744,1714.809z"/>
		<text transform="matrix(1 0 0 1 1478.2709 1719.7585)" font-family="'ArialMT'" font-size="13.7481">12</text>
	</g>
	<g id="Kreis11" transform="translate(-1099.4425,-1468.408)">
		
			<path id="path3841-8-9-2-0-6-5-2_3_" sodipodi:type="arc" sodipodi:cx="328.29956" sodipodi:cy="1106.1483" sodipodi:rx="67.680222" sodipodi:ry="67.680222" fill="#FFFFFF" stroke="#000000" d="
			M1671.931,1649.384c0,6.188-5.019,11.205-11.21,11.205c-6.188,0-11.208-5.02-11.208-11.205c0-6.188,5.018-11.209,11.208-11.209
			C1666.915,1638.175,1671.931,1643.193,1671.931,1649.384z"/>
		<text transform="matrix(1 0 0 1 1653.1674 1654.3357)" font-family="'ArialMT'" font-size="13.7481">11</text>
	</g>
	<g id="Kreis10" transform="translate(-1099.4425,-1468.408)">
		
			<path id="path3841-8-9-2-0-6-5-2_2_" sodipodi:type="arc" sodipodi:cx="328.29956" sodipodi:cy="1106.1483" sodipodi:rx="67.680222" sodipodi:ry="67.680222" fill="#FFFFFF" stroke="#000000" d="
			M1456.934,1862.603c0,6.186-5.019,11.206-11.21,11.206c-6.188,0-11.207-5.021-11.207-11.206c0-6.19,5.021-11.209,11.207-11.209
			C1451.919,1851.394,1456.934,1856.412,1456.934,1862.603z"/>
		<text transform="matrix(1 0 0 1 1437.8168 1867.5544)" font-family="'ArialMT'" font-size="13.7481">10</text>
	</g>
	<g id="Kreis09" transform="translate(-1099.4425,-1468.408)">
		
			<path id="path3841-8-9-2-0-6-5-2_23_" sodipodi:type="arc" sodipodi:cx="328.29956" sodipodi:cy="1106.1483" sodipodi:rx="67.680222" sodipodi:ry="67.680222" fill="#FFFFFF" stroke="#000000" d="
			M2027.323,1828.351c0,6.186-5.017,11.206-11.211,11.206c-6.188,0-11.206-5.021-11.206-11.206c0-6.191,5.018-11.206,11.206-11.206
			C2022.306,1817.145,2027.323,1822.16,2027.323,1828.351z"/>
		<text transform="matrix(1 0 0 1 2012.4291 1833.3025)" font-family="'ArialMT'" font-size="13.7481">9</text>
	</g>
	<g id="Kreis08" transform="translate(-1099.4425,-1468.408)">
		
			<path id="path3841-8-9-2-0-6-5-2_22_" sodipodi:type="arc" sodipodi:cx="328.29956" sodipodi:cy="1106.1483" sodipodi:rx="67.680222" sodipodi:ry="67.680222" fill="#FFFFFF" stroke="#000000" d="
			M1835.494,1829.914c0,6.188-5.018,11.205-11.211,11.205c-6.188,0-11.206-5.02-11.206-11.205c0-6.188,5.019-11.202,11.206-11.202
			C1830.48,1818.709,1835.494,1823.722,1835.494,1829.914z"/>
		<text transform="matrix(1 0 0 1 1820.6 1834.865)" font-family="'ArialMT'" font-size="13.7481">8</text>
	</g>
	<g id="Kreis07" transform="translate(-1099.4425,-1468.408)">
		
			<path id="path3841-8-9-2-0-6-5-2_21_" sodipodi:type="arc" sodipodi:cx="328.29956" sodipodi:cy="1106.1483" sodipodi:rx="67.680222" sodipodi:ry="67.680222" fill="#FFFFFF" stroke="#000000" d="
			M1804.716,1895.641c0,6.186-5.018,11.204-11.212,11.204c-6.188,0-11.206-5.021-11.206-11.204c0-6.191,5.021-11.207,11.206-11.207
			C1799.7,1884.435,1804.716,1889.449,1804.716,1895.641z"/>
		<text transform="matrix(1 0 0 1 1789.8226 1900.5916)" font-family="'ArialMT'" font-size="13.7481">7</text>
	</g>
	<g id="Kreis06" transform="translate(-1099.4425,-1468.408)">
		
			<path id="path3841-8-9-2-0-6-5-2_20_" sodipodi:type="arc" sodipodi:cx="328.29956" sodipodi:cy="1106.1483" sodipodi:rx="67.680222" sodipodi:ry="67.680222" fill="#FFFFFF" stroke="#000000" d="
			M1802.237,2137.467c0,6.188-5.018,11.207-11.212,11.207c-6.188,0-11.206-5.021-11.206-11.207c0-6.189,5.018-11.205,11.206-11.205
			C1797.219,2126.261,1802.237,2131.276,1802.237,2137.467z"/>
		<text transform="matrix(1 0 0 1 1787.3431 2142.4177)" font-family="'ArialMT'" font-size="13.7481">6</text>
	</g>
	<g id="Kreis05" transform="translate(-1099.4425,-1468.408)">
		
			<path id="path3841-8-9-2-0-6-5-2_19_" sodipodi:type="arc" sodipodi:cx="328.29956" sodipodi:cy="1106.1483" sodipodi:rx="67.680222" sodipodi:ry="67.680222" fill="#FFFFFF" stroke="#000000" d="
			M1585.474,1845.432c0,6.186-5.018,11.206-11.212,11.206c-6.188,0-11.206-5.021-11.206-11.206c0-6.191,5.018-11.206,11.206-11.206
			C1580.456,1834.226,1585.474,1839.241,1585.474,1845.432z"/>
		<text transform="matrix(1 0 0 1 1570.5804 1850.3835)" font-family="'ArialMT'" font-size="13.7481">5</text>
	</g>
	<g id="Kreis04" transform="translate(-1099.4425,-1468.408)">
		
			<path id="path3841-8-9-2-0-6-5-2_18_" sodipodi:type="arc" sodipodi:cx="328.29956" sodipodi:cy="1106.1483" sodipodi:rx="67.680222" sodipodi:ry="67.680222" fill="#FFFFFF" stroke="#000000" d="
			M1612.98,2114.784c0,6.187-5.018,11.207-11.211,11.207c-6.188,0-11.206-5.021-11.206-11.207c0-6.19,5.021-11.207,11.206-11.207
			C1607.962,2103.578,1612.98,2108.594,1612.98,2114.784z"/>
		<text transform="matrix(1 0 0 1 1598.0863 2119.3835)" font-family="'ArialMT'" font-size="13.7481">4</text>
	</g>
	<g id="Kreis03" transform="translate(-1099.4425,-1468.408)">
		
			<path id="path3841-8-9-2-0-6-5-2_15_" sodipodi:type="arc" sodipodi:cx="328.29956" sodipodi:cy="1106.1483" sodipodi:rx="67.680222" sodipodi:ry="67.680222" fill="#FFFFFF" stroke="#000000" d="
			M1969.271,1697.277c0,6.186-5.021,11.206-11.211,11.206c-6.188,0-11.206-5.021-11.206-11.206c0-6.189,5.018-11.206,11.206-11.206
			C1964.251,1686.071,1969.271,1691.087,1969.271,1697.277z"/>
		<text transform="matrix(1 0 0 1 1954.3763 1701.8767)" font-family="'ArialMT'" font-size="13.7481">3</text>
	</g>
	<g id="Kreis02" transform="translate(-1099.4425,-1468.408)">
		
			<path id="path3841-8-9-2-0-6-5-2_16_" sodipodi:type="arc" sodipodi:cx="328.29956" sodipodi:cy="1106.1483" sodipodi:rx="67.680222" sodipodi:ry="67.680222" fill="#FFFFFF" stroke="#000000" d="
			M1686.87,1801.567c0,6.188-5.021,11.206-11.212,11.206c-6.188,0-11.206-5.02-11.206-11.206c0-6.191,5.018-11.206,11.206-11.206
			C1681.851,1790.361,1686.87,1795.375,1686.87,1801.567z"/>
		<text transform="matrix(1 0 0 1 1671.975 1806.1658)" font-family="'ArialMT'" font-size="13.7481">2</text>
	</g>
	<g id="Kreis01" transform="translate(-1099.4425,-1468.408)">
		
			<path id="path3841-8-9-2-0-6-5-2_17_" sodipodi:type="arc" sodipodi:cx="328.29956" sodipodi:cy="1106.1483" sodipodi:rx="67.680222" sodipodi:ry="67.680222" fill="#FFFFFF" stroke="#000000" d="
			M1290.069,1921.376c0,6.187-5.017,11.206-11.211,11.206c-6.188,0-11.207-5.021-11.207-11.206c0-6.19,5.018-11.207,11.207-11.207
			C1285.052,1910.169,1290.069,1915.184,1290.069,1921.376z"/>
		<text transform="matrix(1 0 0 1 1274.8236 1926.6785)" font-family="'ArialMT'" font-size="13.7481">1</text>
	</g>
	<text transform="matrix(0.7878 0 0 1 940.0569 571.5801)" font-family="'MyriadPro-Regular'" font-size="15.6804">1. Braunau</text>
	<text transform="matrix(0.7878 0 0 1 940.0569 590.3965)" font-family="'MyriadPro-Regular'" font-size="15.6804">2. Eferding</text>
	<text transform="matrix(0.7878 0 0 1 940.0569 609.2129)" font-family="'MyriadPro-Regular'" font-size="15.6804">3. Freistadt</text>
	<text transform="matrix(0.7878 0 0 1 940.0569 628.0293)" font-family="'MyriadPro-Regular'" font-size="15.6804">4. Gmunden</text>
	<text transform="matrix(0.7878 0 0 1 940.0569 646.8457)" font-family="'MyriadPro-Regular'" font-size="15.6804">5. Grießkirchen</text>
	<text transform="matrix(0.7878 0 0 1 940.0569 665.6621)" font-family="'MyriadPro-Regular'" font-size="15.6804">6. Kirchdorf</text>
	<text transform="matrix(0.7878 0 0 1 940.0569 684.4785)" font-family="'MyriadPro-Regular'" font-size="15.6804">7. Linz Land</text>
	<text transform="matrix(0.7878 0 0 1 940.0569 703.2959)" font-family="'MyriadPro-Regular'" font-size="15.6804">8. Linz Stadt</text>
	<text transform="matrix(0.7878 0 0 1 940.0569 722.1123)" font-family="'MyriadPro-Regular'" font-size="15.6804">9. Perg</text>
	<text transform="matrix(0.7878 0 0 1 940.0569 740.9287)" font-family="'MyriadPro-Regular'" font-size="15.6804">10. Ried</text>
	<text transform="matrix(0.7878 0 0 1 940.0569 759.7451)" font-family="'MyriadPro-Regular'" font-size="15.6804">11. Rohrbach</text>
	<text transform="matrix(0.7878 0 0 1 940.0569 778.5615)" font-family="'MyriadPro-Regular'" font-size="15.6804">12. Schärding</text>
	<text transform="matrix(0.7878 0 0 1 940.0569 797.3779)" font-family="'MyriadPro-Regular'" font-size="15.6804">13. Steyr Land</text>
	<text transform="matrix(0.7878 0 0 1 940.0569 816.1943)" font-family="'MyriadPro-Regular'" font-size="15.6804">14. Steyr Stadt</text>
	<text transform="matrix(0.7878 0 0 1 940.0569 835.0107)" font-family="'MyriadPro-Regular'" font-size="15.6804">15. Urfahr Umg.</text>
	<text transform="matrix(0.7878 0 0 1 940.0569 853.8271)" font-family="'MyriadPro-Regular'" font-size="15.6804">16. Vöcklabruck</text>
	<text transform="matrix(0.7878 0 0 1 940.0569 872.6426)" font-family="'MyriadPro-Regular'" font-size="15.6804">17. Wels Land</text>
	<text transform="matrix(0.7878 0 0 1 940.0569 891.46)" font-family="'MyriadPro-Regular'" font-size="15.6804">18. Wels Stadt</text>
</g>
<path fill="#AAB2AB" d="M65.256,186.914l83.127,0.148c1.161,0,2.198-0.173,2.198,2.333l-0.102,27.552H63.158v-27.655
	C63.158,188.057,63.277,186.914,65.256,186.914z"/>
<path fill="#FFFFFF" d="M88.073,201.011c0.003,5.557-4.471,10.064-9.993,10.068c-5.522,0.004-10.001-4.5-10.005-10.057
	c0-0.004,0-0.008,0-0.012c-0.003-5.558,4.471-10.066,9.994-10.069c5.522-0.004,10.001,4.5,10.005,10.057
	C88.073,201.002,88.073,201.006,88.073,201.011z M109.221,189.868c4.349,0,7.875,3.548,7.875,7.925s-3.526,7.926-7.875,7.926
	c-4.35,0-7.875-3.548-7.875-7.926C101.345,193.416,104.871,189.868,109.221,189.868z M137.853,197.619
	c0.004,4.314-3.47,7.814-7.757,7.818c-4.286,0.003-7.765-3.492-7.769-7.806c0-0.004,0-0.008,0-0.012
	c-0.002-4.314,3.471-7.814,7.758-7.817c4.287-0.003,7.766,3.492,7.768,7.806C137.853,197.612,137.853,197.615,137.853,197.619z"/>
<path d="M86.203,192.814c2.217,2.232,3.326,4.964,3.326,8.197c0,3.232-1.089,5.936-3.269,8.109c-2.313,2.289-5.046,3.435-8.2,3.435
	c-3.116,0-5.802-1.136-8.057-3.405c-2.256-2.271-3.383-4.982-3.383-8.138c0-3.156,1.127-5.889,3.383-8.198
	c2.198-2.232,4.884-3.348,8.057-3.348C81.272,189.466,83.986,190.582,86.203,192.814z M71.496,194.315
	c-1.875,1.905-2.812,4.138-2.812,6.698c0,2.561,0.928,4.773,2.783,6.64c1.855,1.867,4.064,2.802,6.627,2.802s4.791-0.942,6.684-2.83
	c1.797-1.752,2.697-3.955,2.697-6.61c0-2.636-0.914-4.874-2.74-6.712c-1.826-1.838-4.04-2.757-6.641-2.757
	S73.293,192.468,71.496,194.315z M76.429,199.887c-0.287-0.628-0.715-0.942-1.287-0.942c-1.011,0-1.516,0.685-1.516,2.054
	c0,1.37,0.505,2.055,1.516,2.055c0.667,0,1.145-0.333,1.431-1.002l1.401,0.751c-0.668,1.194-1.67,1.792-3.006,1.792
	c-1.03,0-1.856-0.317-2.476-0.954c-0.621-0.636-0.931-1.512-0.931-2.629c0-1.099,0.32-1.97,0.959-2.616
	c0.639-0.646,1.436-0.968,2.39-0.968c1.413,0,2.424,0.56,3.035,1.679L76.429,199.887z M83.022,199.887
	c-0.287-0.628-0.707-0.942-1.261-0.942c-1.031,0-1.547,0.685-1.547,2.054c0,1.37,0.516,2.055,1.547,2.055
	c0.669,0,1.137-0.333,1.404-1.002l1.433,0.751c-0.667,1.194-1.667,1.792-3.001,1.792c-1.029,0-1.853-0.317-2.473-0.954
	c-0.619-0.636-0.928-1.512-0.928-2.629c0-1.099,0.314-1.97,0.943-2.616c0.628-0.646,1.428-0.968,2.4-0.968
	c1.41,0,2.42,0.56,3.029,1.679L83.022,199.887z M149.111,186.562H64.404c-0.908,0-1.647,0.744-1.647,1.658v28.967
	c0,0.207,0.167,0.375,0.372,0.375h87.256c0.205,0,0.372-0.168,0.372-0.375V188.22C150.757,187.306,150.019,186.562,149.111,186.562z
	 M64.404,187.311h84.705c0.498,0,0.903,0.408,0.903,0.909c0,0,0,11.676,0,20.109H89.471c-2.219,4.037-6.494,6.778-11.401,6.778
	c-4.908,0-9.183-2.737-11.4-6.778h-3.169c0-8.435,0-20.109,0-20.109C63.501,187.719,63.906,187.311,64.404,187.311z
	 M130.034,189.062c-2.355,0-4.35,0.827-5.98,2.481c-1.675,1.712-2.512,3.737-2.512,6.077c0,2.34,0.837,4.351,2.512,6.034
	c1.674,1.684,3.668,2.524,5.98,2.524c2.342,0,4.371-0.849,6.089-2.546c1.616-1.611,2.427-3.616,2.427-6.012
	s-0.824-4.422-2.471-6.077C134.435,189.889,132.419,189.062,130.034,189.062z M130.056,190.602c1.93,0,3.569,0.685,4.918,2.054
	c1.361,1.355,2.043,3.01,2.043,4.964c0,1.968-0.666,3.602-2.001,4.9c-1.405,1.397-3.058,2.097-4.96,2.097
	c-1.9,0-3.541-0.691-4.917-2.075c-1.376-1.384-2.063-3.024-2.063-4.921s0.695-3.552,2.086-4.964
	C126.493,191.286,128.126,190.602,130.056,190.602z M126.265,196.411c0.34-2.153,1.846-3.304,3.733-3.304
	c2.716,0,4.368,1.982,4.368,4.626c0,2.58-1.76,4.584-4.41,4.584c-1.824,0-3.457-1.13-3.756-3.347h2.144
	c0.063,1.151,0.806,1.556,1.866,1.556c1.209,0,1.994-1.13,1.994-2.857c0-1.812-0.68-2.771-1.951-2.771
	c-0.934,0-1.739,0.341-1.909,1.513l0.623-0.003l-1.687,1.697l-1.687-1.697L126.265,196.411z M111.5,195.5
	c0-0.306-0.246-0.553-0.55-0.553h-3.479c-0.303,0-0.55,0.247-0.55,0.553v3.5h0.972v4.145h2.635V199h0.972V195.5L111.5,195.5z
	 M109.212,192.092c0.656,0,1.189,0.536,1.189,1.197s-0.533,1.197-1.189,1.197c-0.657,0-1.189-0.536-1.189-1.197
	S108.555,192.092,109.212,192.092z M109.2,189.062c-2.355,0-4.349,0.827-5.981,2.481c-1.675,1.711-2.512,3.737-2.512,6.076
	c0,2.339,0.837,4.351,2.512,6.034c1.674,1.683,3.668,2.524,5.981,2.524c2.342,0,4.371-0.85,6.088-2.547
	c1.619-1.611,2.428-3.615,2.428-6.012s-0.822-4.421-2.471-6.076C113.601,189.888,111.585,189.062,109.2,189.062z M109.222,190.601
	c1.93,0,3.569,0.685,4.917,2.054c1.363,1.355,2.044,3.01,2.044,4.963c0,1.968-0.666,3.602-2.001,4.9
	c-1.405,1.397-3.058,2.096-4.96,2.096c-1.9,0-3.541-0.69-4.917-2.075c-1.377-1.383-2.065-3.023-2.065-4.921
	c0-1.896,0.695-3.551,2.086-4.963C105.66,191.286,107.292,190.601,109.222,190.601z"/>
<path fill="#FFFFFF" d="M132.034,210.733l1.816,4.888h-1.109l-0.367-1.089h-1.816l-0.381,1.089h-1.074l1.836-4.888H132.034z
	 M132.096,213.73l-0.612-1.793h-0.014l-0.633,1.793H132.096z M126.017,214.412c0.059,0.115,0.137,0.207,0.234,0.277
	c0.098,0.071,0.211,0.124,0.342,0.158c0.133,0.033,0.268,0.051,0.408,0.051c0.095,0,0.197-0.008,0.306-0.023
	c0.109-0.015,0.21-0.047,0.306-0.093c0.095-0.046,0.174-0.108,0.236-0.188c0.064-0.08,0.096-0.181,0.096-0.306
	c0-0.132-0.041-0.237-0.125-0.32s-0.194-0.15-0.33-0.206c-0.135-0.056-0.289-0.103-0.461-0.144s-0.348-0.088-0.522-0.138
	c-0.183-0.046-0.358-0.103-0.531-0.167c-0.171-0.066-0.325-0.152-0.461-0.258c-0.137-0.104-0.245-0.235-0.329-0.393
	c-0.084-0.158-0.125-0.35-0.125-0.572c0-0.252,0.053-0.469,0.159-0.654c0.104-0.184,0.246-0.338,0.418-0.462
	c0.173-0.123,0.366-0.214,0.584-0.274c0.218-0.059,0.437-0.088,0.652-0.088c0.254,0,0.497,0.028,0.729,0.086
	c0.232,0.057,0.44,0.149,0.621,0.277c0.182,0.127,0.326,0.291,0.432,0.49c0.107,0.197,0.16,0.438,0.16,0.723h-1.035
	c-0.01-0.146-0.041-0.268-0.092-0.363c-0.053-0.096-0.121-0.172-0.207-0.227s-0.184-0.094-0.295-0.115
	c-0.109-0.023-0.229-0.035-0.361-0.035c-0.086,0-0.172,0.01-0.258,0.027c-0.086,0.02-0.162,0.051-0.231,0.096
	c-0.07,0.047-0.129,0.104-0.175,0.172c-0.045,0.068-0.066,0.155-0.066,0.26c0,0.097,0.02,0.175,0.055,0.232
	c0.037,0.061,0.108,0.115,0.215,0.165c0.105,0.05,0.254,0.101,0.44,0.151c0.188,0.049,0.435,0.113,0.736,0.191
	c0.092,0.018,0.217,0.051,0.377,0.1c0.161,0.047,0.319,0.123,0.479,0.229c0.158,0.105,0.295,0.246,0.412,0.422
	c0.114,0.176,0.172,0.4,0.172,0.674c0,0.226-0.043,0.433-0.129,0.623c-0.087,0.192-0.215,0.357-0.385,0.496
	c-0.171,0.142-0.381,0.248-0.632,0.326c-0.252,0.078-0.544,0.116-0.874,0.116c-0.268,0-0.527-0.033-0.779-0.101
	c-0.251-0.064-0.474-0.17-0.667-0.312c-0.192-0.144-0.346-0.323-0.459-0.543c-0.112-0.219-0.168-0.479-0.163-0.78h1.036
	C125.929,214.16,125.958,214.298,126.017,214.412z M108.73,210.733h1.198l1.138,1.931l1.131-1.931h1.189l-1.803,3.013v1.875h-1.07
	v-1.902L108.73,210.733z M106.755,210.733c0.231,0,0.442,0.021,0.633,0.062c0.191,0.041,0.354,0.108,0.491,0.201
	c0.136,0.094,0.241,0.219,0.315,0.373c0.076,0.155,0.112,0.349,0.112,0.575c0,0.247-0.055,0.451-0.167,0.616
	c-0.109,0.164-0.275,0.298-0.492,0.402c0.299,0.088,0.522,0.238,0.672,0.455c0.147,0.219,0.223,0.479,0.223,0.785
	c0,0.245-0.049,0.459-0.145,0.641c-0.095,0.18-0.224,0.326-0.386,0.441c-0.161,0.113-0.346,0.198-0.552,0.254
	c-0.207,0.055-0.419,0.082-0.638,0.082h-2.358v-4.889L106.755,210.733L106.755,210.733z M106.618,212.708
	c0.191,0,0.347-0.045,0.47-0.136c0.123-0.092,0.185-0.239,0.185-0.444c0-0.113-0.021-0.207-0.062-0.279s-0.095-0.129-0.164-0.17
	s-0.146-0.07-0.235-0.086c-0.089-0.016-0.181-0.023-0.276-0.023h-1v1.141h1.082V212.708z M106.68,214.785
	c0.105,0,0.205-0.011,0.3-0.031c0.095-0.021,0.18-0.055,0.252-0.104c0.073-0.047,0.13-0.111,0.173-0.193
	c0.045-0.082,0.065-0.188,0.065-0.315c0-0.25-0.071-0.431-0.212-0.536c-0.141-0.107-0.328-0.161-0.559-0.161h-1.166v1.341H106.68
	L106.68,214.785z"/>
</svg>
