<?xml version="1.0" encoding="utf-8"?>
<!-- Generator: Adobe Illustrator 13.0.0, SVG Export Plug-In . SVG Version: 6.00 Build 14948)  -->
<!DOCTYPE svg PUBLIC "-//W3C//DTD SVG 1.1//EN" "http://www.w3.org/Graphics/SVG/1.1/DTD/svg11.dtd">
<svg version="1.1"
	 id="Niederösterreich_Bezirke" xmlns:rdf="http://www.w3.org/1999/02/22-rdf-syntax-ns#" xmlns:svg="http://www.w3.org/2000/svg" xmlns:sodipodi="http://sodipodi.sourceforge.net/DTD/sodipodi-0.dtd" xmlns:inkscape="http://www.inkscape.org/namespaces/inkscape" xmlns:dc="http://purl.org/dc/elements/1.1/" xmlns:cc="http://creativecommons.org/ns#" inkscape:version="0.48.0 r9654" sodipodi:docname="niederoesterreich_bezirke.svg"
	 xmlns="http://www.w3.org/2000/svg" xmlns:xlink="http://www.w3.org/1999/xlink" x="0px" y="0px" width="942.615px"
	 height="760.383px" viewBox="0 0 942.615 760.383" enable-background="new 0 0 942.615 760.383" xml:space="preserve">
<sodipodi:namedview  id="namedview3473" inkscape:window-maximized="1" gridtolerance="10" inkscape:cy="380.1915" objecttolerance="10" guidetolerance="10" inkscape:cx="471.30801" borderopacity="1" pagecolor="#ffffff" inkscape:zoom="0.38270188" showgrid="false" bordercolor="#666666" inkscape:pageopacity="0" inkscape:current-layer="Niederösterreich_Bezirke" inkscape:window-y="0" inkscape:window-x="0" inkscape:window-width="1366" inkscape:window-height="706" inkscape:pageshadow="2">
	</sodipodi:namedview>
<g id="Bezirke">
	
		<path id="Amstetten" fill="#123456" stroke="#7B7979" stroke-width="0.9" stroke-linecap="round" stroke-linejoin="round" stroke-miterlimit="10" d="
		M58.637,409.973l13.152,9.285l5.688-2.955l2.67-7.057l7.816,3.502l6.454-2.129l2.416-0.701l21.734-6.287l5.117-8.547l0.224-5.561
		l8.896-3.621l2.288,2.479l13.567-1.046l5.907,11.377l4.64,3.369l1.557,0.856l3.939,0.955l-3.178-0.129l-1.779,4.703l-5.562-0.224
		l3.716,6.519l-0.224,5.561l-1.684,2.318l3.812,4.132l0.188,15.125l11.249-2.73l-4.803,20.493l-5.561-0.223l-5.688,2.952
		l1.969,10.423l-13.601,1.841l-8.866,2.826l-0.223,5.561l-4.606-4.164l-7.245,2.097l-0.826,0.763l0.603,4.798l-5.527-1.019
		l-9.09,8.388l-18.462,4.031l0.695,2.414l-5.304-6.577l-8.611-3.528l-5.72,3.748l0.57,5.592l-9.691,3.592l3.049,3.307l-1.972,9.469
		l-4.798,0.603l-9.404-3.562L29.61,498.717l-18.744-8.71l0.223-5.561L0.574,468.908l1.337-13.473l-1.46-3.241l4.894-2.986
		l-3.939-0.953l6.643-6.894l4.068-2.225l-6.926-5.848l2.639-6.26l-2.921-6.482l5.148-9.34l0.128-3.182l-0.379-10.358l2.797-10.229
		l8.135-4.447l1.653-1.524l11.819,2.862l7.784,4.29l10.546,14.745L58.637,409.973 M130.559,501.184l10.263,2.004l9.532,0.384
		l-2.639,6.263l3.876,2.542l-3.689,12.582l2.319,1.685l1.716-3.113l11.153-0.348l4.447,8.137l-12.14,5.08l-1.018,5.528
		l-8.358,10.008l-2.446,1.492l4.446,8.135l-12.267,8.26l-1.813,5.497l-5.72,3.748l2.318,1.685l-14.554,5.78l2.857,8.07l6.259,2.639
		l-8.23,6.833l2.985,4.895l-5.688,2.953l-2.191-4.861l-3.972-0.159L91.769,615l-9.12-10.71l2.484-2.29l-6.134-5.819l-3.557-10.485
		l6.546-4.512l-6.797-9.023l5.148-9.341l-4.606-4.163l16.307-9.688l1.748-3.908l16.238-8.1l0.191-4.767l4.036-1.43l-4.16-15.283
		l3.592-10.198L130.559,501.184"/>
	
		<path id="Baden" fill="#123456" stroke="#7B7979" stroke-width="0.9" stroke-linecap="round" stroke-linejoin="round" stroke-miterlimit="10" d="
		M482.63,451.686l2.096,7.245l3.337-3.845l5.528,1.018l2.096,7.246l3.209-0.668l2.954,5.689l2.639-6.259l7.183-0.509l6.957,5.055
		l0.476,7.975l18.713,9.505l8.199-6.035l4.67,2.574l6.259,2.64l5.054-6.957l15.535,9.376l-0.096,2.383l10.071,6.771l6.419-1.334
		l0.697,2.416l14.074,6.135l4.229-6.194l7.501-8.45l3.272-2.256l16.139,14.175l-1.908,7.88l-3.368,4.64l-2.671,7.053l-4.1,3.018
		l-20.052,3.973l-8.262,7.624l-1.082,7.116l-4.164,4.606l2.353,0.89l-1.75,3.908l-3.271,2.255l-3.876-2.543l-2.794-9.659
		l-5.88,7.721l-20.24-11.16l-15.124,0.188l-3.05-3.306l-3.241,1.461l-1.114,7.912l-4.605-4.164l-3.177-0.128l-13.125,9.815
		l-0.826,0.764L503.423,548l3.018,4.1l-3.21,0.667l-6.988-4.26l-1.334-6.418l3.242-1.461l-24.816,3.776l-1.396-4.83l4.418-10.961
		l-1.523-1.653l-5.721,3.748l-3.082-2.511l2.64-6.26l-15.415,7.338l-0.412-9.564l-22.05-5.664l-0.919-16.745l2.479-2.286
		l12.581,3.688l8.834-2.031l-4.542-5.753l5.021-6.162l-4.734-0.986l0.384-9.531l-4.639-3.369l-4.862,2.19l-6.291-1.844l-2-9.628
		l12.173-5.876l-0.479-7.975l4.802-0.604l20.593-17.472l2.255,3.272l13.506,0.542l3.081,2.513l-5.721,3.748l-0.255,6.354
		l3.112,1.716L482.63,451.686"/>
	
		<path id="Bruck_an_der_Leitha" fill="#123456" stroke="#7B7979" stroke-width="0.9" stroke-linecap="round" stroke-linejoin="round" stroke-miterlimit="10" d="
		M759.358,415.864l2.256,3.272l4.83-1.396l6.925,5.848l10.803,8.392l7.213-1.303l3.621,8.897l-2.415,0.702l1.523,1.651l-0.954,3.939
		l-6.515,3.717l-1.908,7.88l-8.642-2.733l6.547-4.513l-3.082-2.51l-4.101,3.018l-2.19-4.86l-3.94-0.954l-4.193,5.4l8.45,7.5
		l5.368,4.989l-6.864,12.453l-2.735,8.644l-4.766-0.191l0.255-6.354l-16.426-7.025l0.953-3.939l-4.671-2.573l-7.975,0.475
		l-1.557-0.858l-12.49,13.82l2.224,4.067l-3.241,1.46l-0.795-0.031l-7.975,0.475l-13.824,7.401l-15.918,0.155l0.092,17.508
		l-0.954,3.938l-10.485,3.558l-1.524-1.652l-5.848,6.926l-2.607,5.469l-6.737,9.276l-3.336,3.844l-5.088,7.753l-2.414,0.697
		l-9.72-15.508l-6.732-10.617l4.099-3.018l2.671-7.053l3.368-4.64l1.908-7.88l-16.139-14.175l0.825-0.763l2.671-7.054l12.172-5.876
		l4.035-1.43l10.012-11.531l2.639-6.26l5.464,2.607l11.947-0.315l-8.514-5.912l1.972-9.468l1.461,3.241l4.83-1.397l7.085,1.876
		l15.349-5.748l3.081,2.512l0.698,2.415l10.263,2.003l8.136-4.445l3.082,2.51l7.276-2.89l-0.508-7.186l7.31-3.684l1.43,4.035
		l3.272-2.256l3.908,1.747l9.057-7.591l1.114-7.911L759.358,415.864"/>
	
		<path id="Gänserndorf" fill="#123456" stroke="#7B7979" stroke-width="0.9" stroke-linecap="round" stroke-linejoin="round" stroke-miterlimit="10" d="
		M749.487,206.209l-1.876,7.085l6.259,2.639l-1.082,7.118l0.918,16.745l5.178,9.755l-3.594,10.202l-6.449,2.128l-2.479,2.287
		l1.302,7.213l-6.322-1.05l-1.94,8.674l-2.414,0.699l-10.076,13.121l0.637,4.004l4.414,8.929l-4.163,4.606l-0.479,11.915
		l-4.797,0.603l2.794,9.66l0.604,4.798l8.737,0.351l-0.985,4.734l11.69,6.043l-4.228,6.195l2.128,6.451l5.907,11.376l10.993,3.625
		l-3.655,11.787l5.177,9.757l4.763,20.082l-4.83,1.396l-2.256-3.272l-5.592,0.571l-1.114,7.911l-9.057,7.592l-3.908-1.748
		l-3.273,2.256l-1.429-4.035l-7.31,3.684l0.508,7.186l-7.277,2.89l-3.082-2.51l-8.135,4.445l-10.263-2.002l-0.698-2.416
		l-3.081-2.512l-15.349,5.748l-7.085-1.876l-4.83,1.397l-1.461-3.241l-3.081-2.511l-18.873-5.536l-0.477-7.976l-6.354-0.256
		l-2.097-7.244l-3.24,1.459l5.152-29.229l-3.906-1.749l1.971-9.468l-7.149-0.288l-4.604-4.163l1.812-5.497l-3.907-1.748
		l7.884-17.983l5.497,1.813l0.922-3.146l7.054,2.67l9.34,5.149l14.555-5.78l3.368-4.638l-7.814-3.5l1.78-4.702l-13.089-10.869
		l-0.604-4.798l-7.497-11.44l2.479-2.287l-0.666-3.209l-6.324-1.05l-3.332-16.046l14.426-2.603l3.876,2.543l2.543-3.876l6.989,4.259
		l5.848-6.925l-7.783-4.291l0.128-3.178l10.012-11.532l3.24-1.461l7.245-2.096l-6.573-14.589l0.19-4.766l6.643-6.894l-1.142-11.185
		l-6.067-7.404l0.031-0.795l9.373,4.355l-0.891,2.351l5.4,4.195l3.24-1.461l-1.27-8.007l8.738,0.351l5.752-4.542l1.523,1.653
		l3.908,1.749l4.542,5.752l13.408,2.926l-2.922-6.482l3.37-4.638l14.17,3.752l2.733-8.642L749.487,206.209"/>
	
		<path id="Gmünd" fill="#123456" stroke="#7B7979" stroke-width="0.9" stroke-linecap="round" stroke-linejoin="round" stroke-miterlimit="10" d="
		M179.776,28.949l6.195,4.228l7.181-0.507l-0.256,6.354l12.646,2.1l8.039-2.064l7.021,3.465l-1.813,5.497l5.24,8.167l-2.766,9.437
		l-0.827,0.762l8.418,8.298l-2.227,15.824l2.223,4.067l-3.908-1.749l-3.369,4.639l2.129,6.451l-4.005,0.635l-3.496,7.815
		l6.701,11.409l-4.292,7.784l-2.317-1.685l-4.926,3.78l0.442,8.77l-5.021,6.163l8.546,5.118l-0.191,4.767l-1.018,5.528l4.702,1.781
		l-2.702,7.851l-3.465,7.021l-5.113-11.344l-6.419,1.333l4.383,9.724l-10.103-5.976l-4.895,2.986l-3.05-3.306l-18.238-1.529
		l0.604,4.798l-5.529-1.018l3.781,4.926l-4.164,4.606l12.263,11.631l-5.214,10.93l-3.813-4.132l-4.957,4.575l-5.433-3.401
		l-5.976,10.103l-9.31-5.944l-5.527-1.018l-4.895,2.985l-4.259,6.99l-6.292-1.844l-0.986,4.734l-5.465-2.606l-7.341,4.479
		l6.511,16.174l-7.848-2.703l-4.067,2.224l-4.608-4.163l-5.784,5.336l-7.464-12.234l-6.26-2.639l4.798-0.603l4.292-7.784
		l-1.333-6.419l1.972-9.468l-2.16-5.656l2.83-11.025l4.419-10.961l22.089-15.028l-2.128-6.451l3.497-7.816l-1.333-6.418l6.386-0.539
		l15.889,0.639l2.19,4.862l19.667,5.564l2.479-2.287l4.989-5.369l-7.688-6.674l5.405-15.696l0.318-7.943l3.972,0.159l-3.364-15.252
		l3.177,0.128l1.971-9.469l-2.565-35.114l5.911-8.515l1.019-5.528l-2.288-2.479L179.776,28.949"/>
	
		<path id="Hollabrunn" fill="#123456" stroke="#7B7979" stroke-width="0.9" stroke-linecap="round" stroke-linejoin="round" stroke-miterlimit="10" d="
		M425.25,97.696l2.19,4.862l-3.305,3.05l7.021,3.464l4.101-3.018l2.095,7.245l3.306-3.049l2.224,4.067l-3.146-0.922l0.634,4.004
		l9.564-0.412l-0.985,4.734l3.875,2.543l2.543-3.876l3.908,1.749l-2.735,8.642l6.195,4.227l7.66,7.472l21.031,11.189l7.021,3.465
		l3.939,0.954l14.268,1.369l1.685-2.319l20.558,3.213l-2.479,2.288l3.747,5.72l-1.112,7.912l-4.83,1.397l2.319,1.684l-5.438,16.49
		l1.334,6.419l8.929-4.415l7.911,1.114l0.571,5.592l-2.415,0.699l4.858,17.699l9.659-2.794l0.538,6.386l-4.066,2.227l-0.415,10.327
		l-1.813,5.496l-5.24-8.17l-9.597,1.209l-3.561,9.404l-8.897,3.62l-3.561,9.404l3.018,4.1l-0.318,7.943l-5.977,10.104l-4.639-3.369
		l-2.605,5.465l-5.625,1.365l-6.958-5.053l-1.778,4.702l-8.578-4.323l0.383-9.533l-13.602,1.84l-0.696-2.415l-11.059-2.035
		l-2.573,4.67l-12.807,1.872l-1.72,3.113l-3.146-0.922l-2.446,1.493l-1.301-7.213l-5.528-1.019l-9.564,0.411l-1.018,5.528
		l-3.875-2.542l-7.815-3.497l-2.543,3.876l-6.386,0.539l-15.185-18.114l0.256-6.354l8.007-1.27l-5.78-14.554l17.731-5.655
		l6.322,1.05l-1.302-7.209l7.213-1.305l11.121,0.447l8.675,1.943l1.784-24.596l8.993-6.003l-1.461-3.242L441.5,188.26l-20.525-4.008
		l-4.67-2.575l0.255-6.354l-5.56-0.223l7.341-4.479l0.159-3.971l-4.734-0.986l1.749-3.908l14.553-5.78l1.114-7.911l5.593-0.571
		l-1.333-6.418l2.447-1.493l-5.432-3.404l-11.948,0.315l1.685-2.319l-4.702-1.78l1.813-5.497l-5.528-1.018l-0.603-4.798
		l-13.535,0.251l-7.88-1.908l6.802-10.865l7.563-10.039l14.234,2.164L425.25,97.696"/>
	
		<path id="Horn" fill="#123456" stroke="#7B7979" stroke-width="0.9" stroke-linecap="round" stroke-linejoin="round" stroke-miterlimit="10" d="
		M368.883,94.635l10.642,12.362l5.656-2.159l13.376,3.72l-6.802,10.865l7.88,1.908l13.535-0.251l0.603,4.798l5.528,1.018
		l-1.813,5.497l4.702,1.78l-1.685,2.319l11.947-0.315l5.433,3.404l-2.447,1.493l1.333,6.418l-5.593,0.571l-1.114,7.911l-14.553,5.78
		l-1.749,3.908l4.735,0.986l-0.16,3.971l-7.342,4.479l5.561,0.223l-0.255,6.355l4.67,2.575l20.524,4.008l11.057,2.035l1.461,3.242
		l-8.993,6.003l-1.784,24.593l-8.675-1.94l-11.121-0.447l-7.213,1.302l1.302,7.213l-6.322-1.05l-17.731,5.655l1.748-3.908
		l-4.767-0.191l-7.181,0.507l-0.191,4.766l-4.035,1.429l-9.598,1.206l-9.308-5.944l-1.908,7.88l-6.861-7.437l-0.284-12.744
		l-7.054-2.671l1.813-5.497l-16.585-3.053l3.369-4.639l-4.67-2.575l-10.993-3.625l-4.164,4.606l-8.61-3.528l-6.035-8.199
		l1.716-3.113l4.701,1.78l3.37-4.639l-7.593-9.057l1.94-8.674l4.132-3.812l8.706,1.146l4.989-5.369l1.211-10.294l7.942,0.319
		l-7.688-6.674l6.546-4.511l-2.224-4.067l4.229-6.199l-3.813-4.131l6.451-2.127l-0.699-2.415l9.564-0.411l3.37-4.638l8.833-2.032
		l-1.366-5.625l-6.925-5.848l1.717-3.113l7.943,0.319l-7.752-5.086l0.985-4.734l7.976-0.475l4.542,5.752L368.883,94.635"/>
	
		<path id="Korneuburg" fill="#123456" stroke="#7B7979" stroke-width="0.9" stroke-linecap="round" stroke-linejoin="round" stroke-miterlimit="10" d="
		M582.127,232.898l7.848,2.702l-9.217,11.564l15.6,7.788l-0.032,0.794l-3.177-0.127l-0.352,8.738l7.181-0.507l3.717,6.515
		l-2.446,1.493l0.441,8.773l-7.627,11.628l0.57,5.592l8.834-2.032l-1.813,5.497l3.081,2.511l-2.702,7.848l-3.938-0.955l1.429,4.036
		l-2.766,9.437l6.227,3.433l1.271,8.007l6.26,2.639l-1.114,7.915l-13.505-0.543l3.749,5.72l-7.213,1.301l-2.287-2.479l-4.101,3.018
		l-1.273,11.883l-4.099,3.018l-8.734-20.242l-13.818-12.493l-2.352-0.89l-5.624,1.365l-7.117-1.082l-5.4-4.195l-0.224,5.561
		l-8.547-5.118l-7.976,0.475l0.698,2.415L514.332,336l-1.492-2.45l-4.133,3.815l2.288,2.479l-7.943-0.319l-6.861-7.439l-3.337,3.847
		l-5.337-5.787l1.685-2.319l-6.291-1.844l-15.887-0.639l3.277-22.146l6.481-2.922l-2.698-12.043l5.943-9.309l-1.366-5.625
		l13.603-1.843l-0.384,9.536l8.577,4.323l1.779-4.702l6.958,5.053l5.625-1.365l2.605-5.465l4.639,3.369l5.976-10.104l0.319-7.946
		l-3.017-4.1l3.56-9.405l8.897-3.62l3.562-9.404l9.596-1.206l5.24,8.167l1.813-5.497l6.387-0.539l1.209-10.294l1.653-1.525
		l6.034,8.199l0.385-9.532l5.592-0.571L582.127,232.898"/>
	
		<path id="Krems_Land" fill="#123456" stroke="#7B7979" stroke-width="0.9" stroke-linecap="round" stroke-linejoin="round" stroke-miterlimit="10" d="
		M351.096,220.429l0.284,12.741l6.861,7.437l1.908-7.88l9.31,5.944l9.596-1.206l4.035-1.429l0.191-4.766l7.182-0.507l4.766,0.192
		l-1.748,3.908l5.78,14.554l-8.007,1.27l-0.257,6.354l15.186,18.118l-0.858,1.554l-4.707,18.113l-3.24,1.461l2.063,8.04
		l-5.181,10.135l-3.21,0.667l-6.45,2.127l5.433,3.401l-2.479,2.287l-14.901-5.373l-0.506-7.181l-9.373-4.355l-1.174-10.391
		l2.511-3.081l0.096-2.383l-4.798,0.603l-4.989,5.369l-5.466-2.606l-5.751,4.542l-14.233-2.164l0.506,7.181l-2.511,3.082
		l2.287,2.479l7.911,1.114l0.507,7.181l13.695-4.223l8.803-1.237l-2.004,10.263l3.146,0.922l-3.338,3.844l8.834-2.032l3.049,3.306
		l1.142,11.188l-4.895,2.986l-8.167,5.241l-14.805-7.756l-8.834,2.032l-5.751,4.543l-7.149-0.288l-0.16,3.972l-12.773,1.078
		l-7.341,4.479l1.081-7.117l-4.733-0.986l-5.56-0.224l-2.229,15.824l-4.227,6.195l-2.447,1.493l-11.819-2.862l-8.865,2.827
		l-7.021-3.465l5.245-11.724l-2.352-0.89l1.876-7.085l6.451-2.127l3.497-7.816l-13.376-3.72l-6.003-8.997l5.688-2.954l0.954-3.94
		l8.865-2.826l1.43,4.035l3.209-0.667l0.224-5.56l3.843,3.336l7.438-6.862l-3.146-0.921l0.225-5.561l-3.813-4.132l-7.148-0.288
		l1.749-3.908l-5.94-10.582l-7.912-1.114l-1.968-10.422l12.966-5.847l-4.319-11.312l5.751-4.542l-5.557-20.114l4.926-3.78
		l-1.396-4.83l0.954-3.94l8.833-2.032l2.57,15.221l4.734,0.986l6.643-6.894l5.465,2.605l0.128-3.178l6.322,1.05l-2.986-4.894
		l2.639-6.259l8.738,0.352l7.623,8.263l1.749-3.908l3.813,4.131l-3.049-3.305l4.798-0.603l-3.716-6.514l3.368-4.638l3.94,0.954
		l16.585,3.053l-1.812,5.497L351.096,220.429"/>
	
		<path id="Krems_Stadt" fill="#123456" stroke="#7B7979" stroke-width="0.9" stroke-linecap="round" stroke-linejoin="round" stroke-miterlimit="10" d="
		M361.598,295.644l1.174,10.391l9.373,4.355l0.506,7.181l14.901,5.373l-0.922,3.146l-16.777,1.713l-3.049-3.306l-8.834,2.032
		l3.338-3.844l-3.146-0.922l2.003-10.263l-8.802,1.237l-13.694,4.223l-0.508-7.181l-7.91-1.114l-2.288-2.479l2.511-3.082
		l-0.506-7.181l14.233,2.164l5.751-4.542l5.465,2.606l4.99-5.369l4.798-0.603l-0.096,2.383L361.598,295.644"/>
	
		<path id="Lilienfeld" fill="#123456" stroke="#7B7979" stroke-width="0.9" stroke-linecap="round" stroke-linejoin="round" stroke-miterlimit="10" d="
		M384.538,457.291l3.845,3.337l9.596-1.206l3.844,3.337l11.249-2.729l2.415-0.699l7.624,8.264l8.994-6.004l2,9.628l6.291,1.844
		l4.862-2.19l4.639,3.369l-0.384,9.532l4.734,0.985l-5.021,6.162l4.542,5.753l-8.834,2.031l-12.581-3.688l-2.479,2.286l0.919,16.745
		l-4.196,5.405l-12.106,4.286l-6.387,0.539l-13.567,1.046l-5.054,6.958l-8.071,2.857l-7.628,11.627l-3.177-0.128l1.019-5.527
		l-3.907-1.748l-4.292,7.784l-8.931,4.415l1.206,9.596l-3.433,6.227l4.319,11.313l-9.09,8.387l5.242,8.167l-2.101,12.649
		l-25.547,2.154l-6.228-3.433l2.543-3.879l-3.082-2.511l-17.38-3.086l-3.652-8.104l-8.071,2.857l-1.872-12.807l-9.309-5.942
		l-4.003,0.635l-4.735-0.986l-14.426,2.604l-3.72,13.375l-21.353-3.244l0.16-3.972l4.132-3.813l-15.664-6.199l-5.177-9.755
		l19.479-9.562l9.532,0.384l1.813-5.496l2.318,1.684l20.114-5.557l19.288-4.794l-1.333-6.419l11.439-7.496l2.671-7.053l-2.225-4.068
		l4.83-1.396l6.354,0.256l9.121-9.186l0.255-6.354l10.584-5.94l0.096-2.383l-3.748-5.72l2.131-13.44l9.82-6.766l12.677,1.306
		l8.77-0.442l-1.461-3.241l11.313-4.319l8.77-0.443L384.538,457.291"/>
	
		<path id="Melk" fill="#123456" stroke="#7B7979" stroke-width="0.9" stroke-linecap="round" stroke-linejoin="round" stroke-miterlimit="10" d="
		M250.637,324.6l6.003,8.997l13.376,3.717l-3.497,7.819l-6.451,2.127l-1.876,7.085l2.352,0.89l-5.245,11.724l7.021,3.465
		l8.866-2.827l11.819,2.862l2.447-1.493l4.227-6.195l2.228-15.824l5.561,0.224l4.733,0.983l-1.081,7.121l7.341-4.479l12.773-1.078
		l0.635,4.003l7.118,1.079l-2.606,5.468l-1.019,5.528l-6.259-2.639l-2.543,3.876l3.018,4.099l-6.482,2.922l0.667,3.209l-9.628,2
		l3.019,4.101l-7.564,10.038l-4.195,5.4l4.542,5.752l-0.256,6.354l2.256,3.272l-1.02,5.528l5.434,3.404l3.843,3.337l-5.688,2.954
		l19.001,2.354l-3.273,2.256l3.081,2.512l-4.003,0.635l-0.16,3.971l-4.036,1.431l-13.76,5.813l-1.209,10.294l-9.152,9.977
		l-13.029,7.433l-6.643,6.894l-16.809,2.508l-4.958,4.573l-3.716-6.515l1.272-11.883l2.512-3.081l4.733,0.984l0.096-2.383
		l-2.096-7.245l-10.135-5.181l-1.493-2.447l-9.911-10.74l-6.387,0.537l0.288-7.148l3.908,1.749l-2.256-3.273l-10.613,6.734
		l-1.271-8.008l-5.337-5.783l-4.957,4.574l-2.288-2.479l-7.213,1.303l-5.527-1.019l-8.167,5.24l-2.416,0.699l-2.479,2.286
		l-4.862,2.191l-11.249,2.73l-0.188-15.125l-3.813-4.132l1.685-2.318l0.224-5.56l-3.716-6.52l5.562,0.224l1.779-4.702l3.177,0.129
		l-3.938-0.955l-1.557-0.857l-6.767-9.82l7.437-6.861l-1.397-4.829l6.547-4.511l-1.617-19.16l-1.108-11.979l-11.153,0.347
		l0.954-3.94l5.596-20.465l-0.255,6.358l4.989-5.369l3.114,1.713l2.478-2.288l4.606,4.167l10.93,5.213l0.064-1.592l1.492,2.447
		l10.96,4.422l1.686-2.319l-0.287,7.149l12.678,1.302l0.225-5.557l7.116,1.078l3.561-9.404l3.78,4.926l4.989-5.366l7.054,2.67
		l7.879,1.908l-2.858-8.075l5.593-0.571L250.637,324.6"/>
	
		<path id="Mistelbach" fill="#123456" stroke="#7B7979" stroke-width="0.9" stroke-linecap="round" stroke-linejoin="round" stroke-miterlimit="10" d="
		M634.131,126.78l6.766,9.819l8.578,4.323l21.447,0.862l3.717,6.515l-0.479,11.916l2.16,5.656l12.9-4.255l3.845,3.337l3.209-0.667
		l3.717,6.518l12.55,4.483l8.864-2.827l11.122,0.447l3.4-5.436l1.429,4.039l4.831-1.4l5.24,8.17l-2.768,9.437l4.64,3.368
		l-1.939,8.674l2.128,6.451l-3.082-2.511l-2.733,8.642l-14.171-3.752l-3.369,4.638l2.922,6.482l-13.408-2.926l-4.542-5.752
		l-3.908-1.749l-1.523-1.653l-5.753,4.542l-8.737-0.351l1.27,8.007l-3.241,1.461l-5.399-4.195l0.891-2.351l-9.373-4.355
		l-0.031,0.795l6.067,7.404l1.142,11.185l-6.643,6.894l-0.191,4.766l6.574,14.585l-7.245,2.096l-3.24,1.464l-10.013,11.532
		l-0.128,3.178l7.784,4.291l-5.848,6.925l-6.989-4.259l-2.543,3.876l-3.876-2.543l-14.426,2.603l3.332,16.046l6.323,1.05
		l0.666,3.209l-2.479,2.287l7.497,11.44l0.603,4.798l13.089,10.869l-1.779,4.702l7.814,3.5l-3.369,4.638l-14.554,5.78l-9.34-5.149
		l-7.055-2.67l-0.922,3.146l-5.497-1.813l-4.67-2.575l-3.844-3.337l-4.639-3.372l-6.387,0.539l-6.26-2.639l-1.27-8.007l-6.228-3.433
		l2.767-9.437l-1.43-4.036l3.939,0.955l2.702-7.848l-3.081-2.511l1.813-5.497l-8.834,2.032l-0.569-5.592l7.627-11.628l-0.442-8.77
		l2.447-1.493l-3.717-6.514l-7.183,0.507l0.354-8.741l3.177,0.127l0.032-0.794l-15.601-7.788l9.218-11.564l-7.849-2.702
		l-2.857-8.071l-5.592,0.571l-0.385,9.532l-6.035-8.199l-1.652,1.525l-1.209,10.294l-6.387,0.539l0.414-10.327l4.067-2.224
		l-0.538-6.386l-9.66,2.794l-4.857-17.699l2.415-0.699l-0.571-5.592l-7.911-1.114l-8.929,4.415l-1.334-6.419l5.438-16.49
		l-2.318-1.684l4.83-1.397l1.112-7.912l-3.748-5.724l2.479-2.287l14.33-0.22l17.315,4.677l4.26-6.993l4.446,8.139l5.562,0.223
		l9.818-6.769l5.911-8.514l1.653-1.525l7.152-19.604l18.109,4.707l4.229-6.195L634.131,126.78"/>
	
		<path id="Mödling" fill="#123456" stroke="#7B7979" stroke-width="0.9" stroke-linecap="round" stroke-linejoin="round" stroke-miterlimit="10" d="
		M542.114,436.573l-5.625,1.364l-0.095,2.384l15.315-4.953l9.373,4.354l3.875,2.542l3.528-8.609l12.55,4.481l7.085,1.877
		l-4.449,11.755l8.674,1.94l3.908,1.748l-4.163,4.605l0.314,11.947l3.876,2.543l-2.354,19l-6.419,1.334l-10.071-6.771l0.096-2.383
		l-15.535-9.376l-5.054,6.957l-6.259-2.64l-4.67-2.574l-8.199,6.035l-18.713-9.505l-0.476-7.975l-6.957-5.055l-7.183,0.509
		l-2.639,6.259l-2.954-5.689l-3.209,0.668l-2.096-7.246l-5.528-1.018l-3.337,3.845l-2.096-7.245l2.542-3.876l-3.112-1.716
		l0.255-6.354l5.721-3.748l6.322,1.05l4.195-5.401l6.163,5.021l10.772-10.709l1.845-6.291l8.009-1.271l5.271,7.373l7.117,1.082
		l-4.067,2.224L542.114,436.573"/>
	
		<path id="Neunkirchen" fill="#123456" stroke="#7B7979" stroke-width="0.9" stroke-linecap="round" stroke-linejoin="round" stroke-miterlimit="10" d="
		M371.047,555.41l5.4,4.195l6.451-2.128l7.053,2.669l4.352,10.521l8.103-3.653l5.4,4.195l-1.656,21.416l4.734,0.985l2.639-6.26
		l10.455-2.763l1.844-6.29l14.49-4.19l4.446,8.135l13-6.639l2.063,8.039l9.69-3.589l0.795,0.032l4.703,1.78l3.336-3.845l6.132,5.815
		l11.819,2.862l-0.064,1.589l12.075-3.493l15.344,14.144l-9.883,8.354l3.018,4.101l5.594-0.571l4.193-5.4l2.225,4.067l2.891,7.28
		l-8.167,5.24l-6.354-0.256l2.286,2.479l6.482-2.922l7.054,2.67l-0.985,4.733l3.907,1.748l-4.354,9.372l-0.861,21.448l-3.434,6.227
		l-2.446,1.493l-1.748,3.908l3.524,11.28l-1.307,12.678l7.594,9.057l-6.388,0.539l-2.923-6.48l-1.907,7.879l-1.968-10.423
		l-7.148-0.287l1.396,4.83l5.396,24.089l-2.067,11.852l-6.451,2.128l-6.926-5.849l2.26-16.617l-3.272,2.256l-1.271-8.007
		l-3.177-0.128l-3.497,7.815l-2.543,3.876l-3.908-1.748l-0.286,7.147l-3.21,0.667l-9.814-13.125l-6.323-1.05l-13.503-0.543
		l-10.929-5.213l-2.352-0.891l-2.954-5.69l0.288-7.149l-5.34-5.783l-12.773,1.076l-0.475-7.976l5.309-13.312l-6.322-1.051
		l-5.209-8.961l-12.646-2.101l-11.313,4.319l-0.636-4.005l-5.464-2.605l-1.233-28.691l-7.085-1.877l-5.816,6.132l-2.191-4.861
		l-11.024-2.83l-6.542-15.38l2.101-12.649l-5.241-8.167l9.089-8.387l-4.319-11.313l3.433-6.227L371.047,555.41"/>
	
		<path id="Scheibbs" fill="#123456" stroke="#7B7979" stroke-width="0.9" stroke-linecap="round" stroke-linejoin="round" stroke-miterlimit="10" d="
		M209.151,426.372l5.337,5.783l1.271,8.008l10.613-6.734l2.256,3.273l-3.908-1.749l-0.288,7.148l6.387-0.537l9.911,10.74
		l1.493,2.447l10.135,5.181l2.097,7.245l-0.097,2.383l-4.733-0.984l-2.512,3.081l-1.272,11.883l3.716,6.515l-2.479,2.288
		l1.046,13.567l3.844,3.337l-3.401,5.436l3.846,3.337l2.19,4.862l8.738,0.353l3.173,20.018l-20.114,5.557l-2.318-1.684l-1.813,5.496
		l-9.532-0.384l-19.479,9.562l5.177,9.755l15.664,6.199l-4.132,3.813l-0.16,3.972l-5.564,19.67l-18.174-3.117l-3.4,5.433
		l-12.042,2.698l-10.328-0.415l-6.163-5.021l-12.139,5.082l-7.087-1.876l-14.077,13.755l-8.009,1.27l-7.848-2.702l-5.113-11.345
		l-2.985-4.895l8.23-6.833l-6.259-2.639l-2.857-8.07l14.554-5.78l-2.318-1.685l5.72-3.748l1.813-5.497l12.267-8.26l-4.446-8.135
		l2.446-1.492l8.358-10.008l1.018-5.528l12.14-5.08l-4.447-8.137l-11.153,0.348l-1.716,3.113l-2.319-1.685l3.689-12.582
		l-3.876-2.542l2.639-6.263l-9.532-0.384l4.132-3.813l-7.943-0.319l-7.721-5.88l6.609-6.099l-7.976,0.475l-5.305-6.578l7.246-2.097
		l4.605,4.164l0.223-5.561l8.866-2.826l13.601-1.841l-1.969-10.423l5.688-2.952l5.561,0.223l4.803-20.493l4.861-2.191l2.479-2.286
		l2.416-0.699l8.167-5.24l5.527,1.018l7.214-1.302l2.287,2.479L209.151,426.372"/>
	
		<path id="St._Pölten_Land" fill="#123456" stroke="#7B7979" stroke-width="0.9" stroke-linecap="round" stroke-linejoin="round" stroke-miterlimit="10" d="
		M401.818,324.312l2.986,4.894l3.209-0.666l1.365,5.627l13.76-5.815l-3.434,6.23l-7.181,0.507l-0.096,2.383l4.767,0.191
		l-0.224,5.561l-8.039,2.064l-3.876-2.543l-7.564,10.039l11.884,1.273l-2.447,1.493l1.43,4.036l9.627-2l-7.468,7.656l9.532,0.383
		l3.813,4.131l-8.423,11.596l7.149,0.287l-0.384,9.532l13.536-0.252l1.337-13.472l0.794,0.032l7.977-0.475l5.436,3.401l2.54-3.876
		l3.117,1.717l2.188,4.861l-4.159,4.605l8.674,1.94l-0.989,4.733l8.391,9.09l-4.133,3.812l-0.03,0.794l1.396,4.83l6.355,0.256
		l-9.28,13.153l3.843,3.34l-20.593,17.472l-4.802,0.604l0.479,7.975l-12.173,5.876l-8.994,6.004l-7.624-8.264l-2.415,0.699
		l-11.249,2.729l-3.844-3.337l-9.596,1.206l-3.844-3.337l-8.675-1.94l-8.77,0.443l-11.313,4.319l1.462,3.241l-8.771,0.442
		l-12.677-1.306l-9.82,6.766l-2.131,13.44l3.748,5.72l-0.096,2.383l-10.584,5.94l-0.255,6.354l-9.12,9.186l-6.355-0.256l-4.83,1.396
		l2.225,4.068l-2.671,7.053l-11.439,7.496l1.333,6.419l-19.288,4.794l-3.173-20.018l-8.738-0.353l-2.19-4.862l-3.846-3.337
		l3.401-5.436l-3.844-3.337l-1.046-13.567l7.437-6.861l16.81-2.508l6.642-6.894l13.03-7.434l9.151-9.976l1.209-10.294l13.76-5.813
		l4.036-1.431l0.16-3.971l4.003-0.635l-3.081-2.512l3.273-2.256l-19.001-2.354l5.688-2.954l-3.843-3.337l-5.433-3.404l1.019-5.528
		l-2.256-3.272l0.256-6.354l-4.542-5.753l4.195-5.399l7.564-10.038l-3.019-4.101l9.628-2l-0.667-3.209l6.483-2.922l-3.019-4.099
		l2.543-3.876l6.259,2.639l1.019-5.528l2.606-5.465l-7.117-1.082l-0.636-4.003l0.16-3.972l7.149,0.288l5.751-4.543l8.834-2.032
		l14.805,7.756l8.167-5.245l4.895-2.982l-1.143-11.188l16.777-1.713l0.922-3.146l2.479-2.287l6.42-1.333L401.818,324.312"/>
	
		<path id="St._Pölten_Stadt" fill="#123456" stroke="#7B7979" stroke-width="0.9" stroke-linecap="round" stroke-linejoin="round" stroke-miterlimit="10" d="
		M370.287,376.355l-1.939,8.672l-7.879-1.906l-6.515,3.716l-4.895,2.985l-6.419,1.334l-1.081,7.117l-0.416,10.326l-5.72,3.748
		l0.507,7.182l10.327,0.414l0.506,7.185l-4.862,2.192l2.097,7.244l18.968,3.149l1.337-13.473l-2.922-6.486l7.437-6.86l1.114-7.912
		l7.117,1.082l0.954-3.939l7.214-1.301l4.163-4.607l-1.744-15.982l2.446-1.493l-1.461-3.241l-6.291-1.845l-4.101,3.019
		L370.287,376.355"/>
	
		<path id="Tulln" fill="#123456" stroke="#7B7979" stroke-width="0.9" stroke-linecap="round" stroke-linejoin="round" stroke-miterlimit="10" d="
		M480.027,278.922l-5.944,9.309l2.699,12.043l-6.481,2.922l-3.277,22.149l15.887,0.639l6.291,1.844l-1.685,2.319l5.337,5.784
		l3.337-3.844l6.861,7.437l7.943,0.319l-2.287-2.479l4.132-3.812l1.492,2.447l7.244-2.096l-0.697-2.415l7.976-0.475l8.546,5.117
		l0.224-5.56l5.4,4.195l7.118,1.082l0.188,15.125l-9.403-3.561l1.333,6.418l-3.306,3.05l4.702,1.78l-5.784,5.337l-1.113,7.912
		l-4.895,2.986l-7.688-6.674l-5.625,1.365l1.333,6.418l-6.957-5.053l0.507,7.181l-3.241,1.461l-4.766-0.192l1.301,7.213
		l-8.738-0.353l0.924-3.146l-4.671-2.574l1.396,4.83l-5.497-1.813l1.365,5.623l-4.83,1.397l-4.228,6.194l-8.674-1.939l0.666,3.209
		l9.373,4.355l-9.756,5.178l-3.018-4.1l-8.391-9.091l0.989-4.733l-8.674-1.939l4.159-4.605l-2.188-4.861l-3.117-1.717l-2.54,3.876
		l-5.436-3.401l-7.977,0.475l-0.794-0.032l-1.337,13.472l-13.536,0.252l0.384-9.532l-7.149-0.287l8.423-11.596l-3.813-4.131
		l-9.532-0.383l7.468-7.656l-9.627,2l-1.43-4.036l2.446-1.493l-11.883-1.273l7.564-10.039l3.876,2.543l8.039-2.064l0.224-5.561
		l-4.767-0.191l0.096-2.383l7.181-0.507l3.433-6.227l-13.76,5.812l-1.364-5.624l-3.21,0.667l-2.985-4.894l-5.369-4.99l-6.419,1.333
		l-5.433-3.401l6.45-2.127l3.21-0.67l5.181-10.135l-2.063-8.04l3.24-1.461l4.707-18.11l0.858-1.557l6.386-0.539l2.543-3.876
		l7.815,3.497l3.875,2.542l1.018-5.528l9.564-0.411l5.527,1.018l1.302,7.213l2.446-1.493l3.146,0.922l1.72-3.113l12.806-1.872
		l2.574-4.67l11.059,2.035l0.696,2.415L480.027,278.922"/>
	
		<path id="Waidhofen_an_der_Ybbs" fill="#123456" stroke="#7B7979" stroke-width="0.9" stroke-linecap="round" stroke-linejoin="round" stroke-miterlimit="10" d="
		M122.619,480.974l5.305,6.578l7.976-0.475l-6.609,6.099l7.721,5.88l7.943,0.319l-4.132,3.813l-10.263-2.004l-16.873,4.1
		l-3.592,10.198l4.16,15.283l-4.036,1.43l-0.191,4.767l-16.238,8.1l-11.724-25.136l-8.135,4.446l-9.341-5.149l-7.053-2.67
		l4.798-0.603l1.972-9.469l-3.049-3.307l9.692-3.592l-0.571-5.592l5.72-3.748l8.611,3.528l5.304,6.577l-0.695-2.414l18.462-4.031
		l9.09-8.388l5.527,1.019l-0.603-4.798L122.619,480.974"/>
	
		<path id="Wien_Umgebung" fill="#123456" stroke="#7B7979" stroke-width="0.9" stroke-linecap="round" stroke-linejoin="round" stroke-miterlimit="10" d="
		M626.158,424.036l18.649,11.096l0.16-3.975l18.873,5.536l3.081,2.511l-1.973,9.468l8.515,5.912l-11.947,0.315l-5.464-2.607
		l-2.64,6.26l-10.011,11.531l-4.036,1.43l-12.171,5.876l-2.671,7.054l-0.825,0.763l-3.272,2.256l-7.501,8.45l-4.229,6.194
		l-14.074-6.135l-0.697-2.416l2.354-19l-3.876-2.543l-0.314-11.946l4.162-4.606l-3.907-1.748l-8.675-1.939l4.45-11.756l7.055,2.671
		l7.182-0.508l0.351-8.736l5.562,0.223l6.706-8.485L626.158,424.036 M630.051,347.016l-7.884,17.983l-6.29-1.844l1.333,6.418
		l-3.273,2.255l-10.039-7.564l-0.348-11.152l-3.907-1.749l-3.749-5.72l13.505,0.543l1.114-7.915l6.386-0.539l4.639,3.372
		l3.845,3.337L630.051,347.016 M571.936,347.862l8.734,20.242l-2.384-0.096l-2.255-3.273l-9.852,7.561l-7.183,0.506l-1.845,6.291
		l-6.418,1.333l-2.671,7.053l-4.798,0.604l0.19-4.767l-10.07-6.77l-3.433,6.227l0.41,9.564l-4.065,2.223l3.971,0.16l2.795,9.66
		l-7.724,14.01l-8.009,1.271l-1.845,6.291l-10.772,10.709l-6.163-5.021l-4.195,5.401l-6.322-1.05l-3.082-2.512l-13.505-0.542
		l-2.255-3.273l-3.843-3.34l9.28-13.153l-6.355-0.256l-1.396-4.83l0.03-0.794l4.133-3.813l3.018,4.101l9.756-5.179l-9.373-4.354
		l-0.666-3.209l8.674,1.94l4.228-6.195l4.83-1.396l-1.365-5.625l5.497,1.813l-1.397-4.83l4.671,2.574l-0.923,3.146l8.738,0.353
		l-1.301-7.213l4.766,0.192l3.241-1.461l-0.507-7.181l6.957,5.053l-1.333-6.418l5.625-1.365l7.688,6.674l4.895-2.986l1.113-7.912
		l5.784-5.337l-4.702-1.78l3.306-3.05l-1.333-6.418l9.403,3.561l-0.188-15.128l5.624-1.365l2.352,0.89L571.936,347.862"/>
	
		<path id="Wiener_Neustadt" fill="#123456" stroke="#7B7979" stroke-width="0.9" stroke-linecap="round" stroke-linejoin="round" stroke-miterlimit="10" d="
		M562.069,593.323l-1.242,11.089l-1.146,8.705l-0.479,11.919l4.383,9.724l-0.128,3.178l4.702,1.78l10.264,2.004l-1.748,3.908
		l5.844,12.964l-0.352,8.738l-6.482,2.922l1.461,3.241l-2.511,3.082l-4.862,2.19l0.635,4.005l-6.007,10.896l0.379,10.358l0.795,0.03
		l7.496,11.444l-5.976,10.104l-3.434,6.227l-4.035,1.43l2.224,4.067l-7.405,6.067l-8.07,2.857l-14.777,11.341l-10.358,0.379
		l-9.244-7.531l-2.922-6.482l1.748-3.908l6.451-2.128l2.067-11.852l-5.396-24.089l-1.396-4.83l7.148,0.287l1.968,10.423l1.907-7.879
		l2.923,6.48l6.388-0.539l-7.594-9.057l1.307-12.678l-3.524-11.28l1.748-3.908l2.446-1.493l3.434-6.227l0.861-21.448l4.354-9.372
		l-3.907-1.748l0.985-4.734l-7.054-2.67l-6.482,2.923l-2.286-2.479l6.354,0.256l8.167-5.241l-2.891-7.279l6.387-0.539l2.83-11.025
		l4.734,0.986l1.146-8.706l7.116,1.082L562.069,593.323 M452.84,519.711l0.412,9.564l15.414-7.337l-2.639,6.259l3.082,2.511
		l5.72-3.748l1.524,1.653l-4.418,10.961l1.396,4.83l24.817-3.776l-3.242,1.461l1.334,6.418l6.988,4.261l3.21-0.668l-3.018-4.1
		l11.089,1.242l0.826-0.763l13.125-9.816l3.177,0.128l4.605,4.164l1.114-7.912l3.241-1.461l3.05,3.307l15.124-0.188l20.238,11.157
		l5.88-7.721l2.794,9.659L586,552.115l-10.519,4.352l8.481,6.706l3.779,4.925l-4.957,4.575l1.525,1.652l-4.068,2.224l-2.414,0.698
		l-2.702,7.848l-9.915,9.149l-2.256-3.273l2.639-6.259l-8.643-2.733l-1.396-4.83l-4.639-3.369l4.958-4.574l-3.718-6.515
		l-0.158,3.973l-15.062-1.401l0.479-11.914l-5.688,2.952l2.19,4.862l-5.783,5.337l-0.986,4.733l4.606,4.164l-4.323,8.578
		l-1.337,13.472l-0.891,2.352l-1.558-0.857l-15.344-14.144l-12.075,3.493l0.064-1.589l-11.819-2.862l-6.132-5.815l-3.336,3.845
		l-4.703-1.78l-0.795-0.032l-9.69,3.59l-2.063-8.04l-13,6.639l-4.446-8.135l-14.49,4.19l-1.844,6.29l-10.455,2.764l-2.639,6.259
		l-4.734-0.985l1.656-21.416l-5.4-4.195l-8.103,3.653l-4.352-10.52l-7.053-2.669l-6.451,2.127l-5.4-4.195l-15.35,5.748l-1.206-9.596
		l8.931-4.415l4.292-7.784l3.908,1.748l-1.02,5.527l3.177,0.128l7.628-11.627l8.071-2.857l5.054-6.958l13.567-1.046l6.387-0.539
		l12.106-4.286l4.195-5.405L452.84,519.711"/>
	
		<path id="Wiener_Neustadt_Stadt" fill="#123456" stroke="#7B7979" stroke-width="0.9" stroke-linecap="round" stroke-linejoin="round" stroke-miterlimit="10" d="
		M536.941,565.261l15.062,1.401l0.158-3.973l3.717,6.515l-4.957,4.574l4.639,3.368l1.396,4.83l-5.943,9.31l-7.116-1.082
		l-1.146,8.706l-4.733-0.986l-2.83,11.025l-6.387,0.539l-2.225-4.067l-4.193,5.4l-5.594,0.57l-3.018-4.1l9.883-8.354l1.557,0.857
		l0.892-2.352l1.337-13.473l4.323-8.577l-4.606-4.164l0.986-4.733l5.783-5.337l-2.19-4.862l5.688-2.953L536.941,565.261"/>
	
		<path id="Waidhofen_an_der_Thaya" fill="#123456" stroke="#7B7979" stroke-width="0.9" stroke-linecap="round" stroke-linejoin="round" stroke-miterlimit="10" d="
		M262.512,48.983l7.085,1.876l3.337-3.844l10.263,2.003l18.554,13.476l7.849,2.703l4.066-2.224l10.071,6.77l2.764,10.454
		l21.953,8.043l-0.985,4.734l7.752,5.089l-7.943-0.319l-1.717,3.113l6.925,5.848l1.366,5.625l-8.833,2.032l-3.37,4.638l-9.563,0.411
		l0.698,2.415l-6.45,2.127l3.813,4.131l-4.229,6.195l2.224,4.067l-6.546,4.511l7.688,6.674l-7.942-0.319l-1.21,10.294l-4.989,5.369
		l-8.706-1.146l-4.131,3.812l-3.941-0.954l0.16-3.972l7.246-2.095l-0.699-2.415l-7.848-2.703l-1.365-5.624l4.767,0.191l-7.624-8.263
		l-4.83,1.397l-3.401,5.433l-5.369-4.989l-7.117-1.082l-4.42,10.961l-6.449,2.128l-6.862-7.437l-3.434,6.227l-7.91-1.113
		l-5.021,6.163l-8.896,3.62l-7.721-5.88l-1.876,7.085l4.512,6.546l-2.575,4.67l-5.496-1.813l2.702-7.847l-4.702-1.781l1.018-5.528
		l0.191-4.767l-8.546-5.118l5.021-6.163l-0.442-8.77l4.926-3.78l2.317,1.685l4.292-7.784l-6.701-11.409l3.497-7.815l4.004-0.635
		l-2.128-6.451l3.368-4.639l3.908,1.749l-2.223-4.071l2.227-15.823l-8.418-8.295l0.827-0.762l4.862-2.191l3.908,1.748l10.645-7.528
		l10.994,3.625l6.039-11.692l-1.301-7.213L262.512,48.983"/>
	
		<path id="Zwettl" fill="#123456" stroke="#7B7979" stroke-width="0.9" stroke-linecap="round" stroke-linejoin="round" stroke-miterlimit="10" d="
		M292.997,141.709l7.624,8.263l-4.767-0.191l1.365,5.624l7.848,2.703l0.699,2.415l-7.246,2.095l-0.16,3.972l3.941,0.954
		l-1.941,8.674l7.593,9.057l-3.369,4.642l-4.702-1.78l-1.716,3.113l6.035,8.199l8.61,3.528l4.164-4.606l10.993,3.625l4.67,2.575
		l-3.369,4.639l-3.94-0.954l-3.368,4.638l3.716,6.514l-4.798,0.603l3.049,3.305l-3.813-4.131l-1.749,3.908l-7.624-8.263
		l-8.737-0.352l-2.639,6.259l2.986,4.894l-6.323-1.05l-0.128,3.178l-5.464-2.606l-6.643,6.894l-4.734-0.986l-2.57-15.221
		l-8.833,2.032l-0.954,3.94l1.396,4.83l-4.926,3.78l5.557,20.114l-5.751,4.542l4.319,11.312l-12.965,5.844l1.967,10.425l7.912,1.114
		l5.939,10.582l-1.749,3.908l7.149,0.288l3.813,4.132l-0.225,5.561l3.146,0.921l-7.438,6.862l-3.843-3.336l-0.224,5.56l-3.209,0.667
		l-1.43-4.035l-8.866,2.826l-0.953,3.94l-5.688,2.954l-3.146-0.922l-5.594,0.571l2.858,8.075l-7.879-1.908l-7.053-2.67l-4.99,5.366
		l-3.78-4.926l-3.561,9.408l-7.117-1.082l-0.225,5.56l-12.678-1.305l0.287-7.149l-1.685,2.319l-10.96-4.422l-1.493-2.447
		l-0.064,1.592l-10.93-5.213l-4.606-4.167l-2.478,2.288l-3.114-1.713l-4.989,5.369l0.255-6.358l-2.127-6.451l-6.292-1.844
		l-5.688,2.954l10.012-11.532l-6.195-4.227l-5.368-4.989l-3.686-7.309l-7.053-2.67l0.954-3.94l-2.89-7.28l6.481-2.922l1.019-5.528
		l7.942,0.319l0.922-3.146l-6.066-7.404l-7.849-2.703l-7.912-1.114l-2.921-6.482l-7.752-5.085l-6.511-16.174l7.341-4.479
		l5.465,2.606l0.986-4.734l6.292,1.844l4.259-6.99l4.895-2.985l5.527,1.018l9.31,5.944l5.976-10.103l5.434,3.401l4.957-4.575
		l3.812,4.132l5.214-10.93l-12.263-11.631l4.164-4.61l-3.78-4.926l5.528,1.018l-0.604-4.798l18.239,1.529l3.049,3.305l4.895-2.986
		l10.103,5.976l-4.383-9.724l6.419-1.333l5.113,11.345l3.465-7.022l5.496,1.813l2.575-4.67l-4.512-6.546l1.876-7.085l7.721,5.88
		l8.896-3.62l5.021-6.163l7.911,1.113l3.433-6.227l6.862,7.437l6.449-2.128l4.421-10.961l7.116,1.082l5.369,4.989l3.401-5.433
		L292.997,141.709"/>
</g>
<g id="Legende_2_">
	<text transform="matrix(1.3612 0 0 1 625.8958 581.9648)" font-family="'MyriadPro-Regular'" font-size="12.0421">1. Amstetten</text>
	<text transform="matrix(1.3612 0 0 1 625.8958 596.415)" font-family="'MyriadPro-Regular'" font-size="12.0421">2. Baden</text>
	<text transform="matrix(1.3612 0 0 1 625.8958 610.8662)" font-family="'MyriadPro-Regular'" font-size="12.0421">3. Bruck a.d. L.</text>
	<text transform="matrix(1.3612 0 0 1 625.8958 625.3174)" font-family="'MyriadPro-Regular'" font-size="12.0421">4. Gänserndorf</text>
	<text transform="matrix(1.3612 0 0 1 625.8958 639.7686)" font-family="'MyriadPro-Regular'" font-size="12.0421">5. Gmünd</text>
	<text transform="matrix(1.3612 0 0 1 625.8958 654.2188)" font-family="'MyriadPro-Regular'" font-size="12.0421">6. Hollabrunn</text>
	<text transform="matrix(1.3612 0 0 1 625.8958 668.668)" font-family="'MyriadPro-Regular'" font-size="12.0421">7. Horn</text>
	<text transform="matrix(1.3612 0 0 1 625.8958 683.1191)" font-family="'MyriadPro-Regular'" font-size="12.0421">8. Korneuburg</text>
	<text transform="matrix(1.3612 0 0 1 625.8958 697.5693)" font-family="'MyriadPro-Regular'" font-size="12.0421">9. Krems Land</text>
	<text transform="matrix(1.3612 0 0 1 625.8958 712.0215)" font-family="'MyriadPro-Regular'" font-size="12.0421">10. Krems Stadt</text>
	<text transform="matrix(1.3612 0 0 1 625.8958 726.4717)" font-family="'MyriadPro-Regular'" font-size="12.0421">11. Lilienfeld</text>
	<text transform="matrix(1.3612 0 0 1 625.8958 740.9209)" font-family="'MyriadPro-Regular'" font-size="12.0421">12. Melk</text>
	<text transform="matrix(1.3612 0 0 1 625.8958 755.3721)" font-family="'MyriadPro-Regular'" font-size="12.0421">13. Mistelbach</text>
	<text transform="matrix(1.3612 0 0 1 766.8762 583.9648)" font-family="'MyriadPro-Regular'" font-size="12.0421">14. Mödling</text>
	<text transform="matrix(1.3612 0 0 1 766.8762 598.415)" font-family="'MyriadPro-Regular'" font-size="12.0421">15. Neunkirchen</text>
	<text transform="matrix(1.3612 0 0 1 766.8762 612.8662)" font-family="'MyriadPro-Regular'" font-size="12.0421">16. Scheibbs</text>
	<text transform="matrix(1.3612 0 0 1 766.8762 627.3174)" font-family="'MyriadPro-Regular'" font-size="12.0421">17. St. Pölten Land</text>
	<text transform="matrix(1.3612 0 0 1 766.8762 641.7686)" font-family="'MyriadPro-Regular'" font-size="12.0421">18. St. Pölten Stadt</text>
	<text transform="matrix(1.3612 0 0 1 766.8762 656.2188)" font-family="'MyriadPro-Regular'" font-size="12.0421">19. Tulln</text>
	<text transform="matrix(1.3612 0 0 1 766.8762 670.668)" font-family="'MyriadPro-Regular'" font-size="12.0421">20. Waidhofen a.d.Y.</text>
	<text transform="matrix(1.3612 0 0 1 766.8762 685.1191)" font-family="'MyriadPro-Regular'" font-size="12.0421">21. Wien Umgebung</text>
	<text transform="matrix(1.3612 0 0 1 766.8762 699.5693)" font-family="'MyriadPro-Regular'" font-size="12.0421">22. Wiener Neustadt</text>
	<text transform="matrix(1.3612 0 0 1 766.8762 714.0215)" font-family="'MyriadPro-Regular'" font-size="12.0421">23. Wiener Neustadt  </text>
	<text transform="matrix(1.3612 0 0 1 766.8762 728.4717)" font-family="'MyriadPro-Regular'" font-size="12.0421">      Stadt</text>
	<text transform="matrix(1.3612 0 0 1 766.8762 742.9209)" font-family="'MyriadPro-Regular'" font-size="12.0421">24. Waidhofen a.d. T.</text>
	<text transform="matrix(1.3612 0 0 1 766.8762 757.3721)" font-family="'MyriadPro-Regular'" font-size="12.0421">25. Zwettl</text>
</g>
<g id="Skala">
	<rect id="rect4459" x="787.979" y="105.325" fill="#111101" width="18.104" height="17.232"/>
	<text id="text3316" transform="matrix(1.0506 0 0 1 815.2366 120.2861)" font-family="'ArialMT'" font-size="18.7986">%legende1%</text>
	<rect id="rect4459-1" x="787.979" y="129.067" fill="#111102" width="18.104" height="17.235"/>
	<text id="text3319" transform="matrix(1.0506 0 0 1 815.2366 144.0303)" font-family="'ArialMT'" font-size="18.7986">%legende2%</text>
	<rect id="rect4459-2" x="787.979" y="152.811" fill="#111103" width="18.104" height="17.234"/>
	<text id="text3322" transform="matrix(1.0506 0 0 1 815.2366 167.7734)" font-family="'ArialMT'" font-size="18.7986">%legende3%</text>
	<rect id="rect4459-6" x="787.979" y="176.557" fill="#111104" width="18.104" height="17.231"/>
	<text id="text3325" transform="matrix(1.0506 0 0 1 815.2366 191.5186)" font-family="'ArialMT'" font-size="18.7986">%legende4%</text>
	<rect id="rect4459-29" x="787.979" y="200.297" fill="#111105" width="18.104" height="17.236"/>
	<text id="text3328" transform="matrix(1.0506 0 0 1 815.2366 215.2617)" font-family="'ArialMT'" font-size="18.7986">%legende5%</text>
	<rect id="rect4459-3" x="787.979" y="224.042" fill="#111106" width="18.104" height="17.234"/>
	<text id="text3331" transform="matrix(1.0506 0 0 1 815.2366 239.0059)" font-family="'ArialMT'" font-size="18.7986">%legende6%</text>
	<rect id="rect4459-8" x="787.979" y="247.787" fill="#111107" width="18.104" height="17.233"/>
	<text id="text3334" transform="matrix(1.0506 0 0 1 815.2366 262.75)" font-family="'ArialMT'" font-size="18.7986">%legende7%</text>
	<rect id="rect4459-9" x="787.979" y="271.528" fill="#111108" width="18.104" height="17.232"/>
	<text id="text3337" transform="matrix(1.0506 0 0 1 815.2366 286.4932)" font-family="'ArialMT'" font-size="18.7986">%legende8%</text>
	<rect id="rect4459-18" x="787.979" y="295.271" fill="#111109" width="18.104" height="17.235"/>
	<text id="text3340" transform="matrix(1.0506 0 0 1 815.2366 310.2354)" font-family="'ArialMT'" font-size="18.7986">%legende9%</text>
	<rect id="rect4459-18-6" x="787.979" y="319.016" fill="#111110" width="18.104" height="17.233"/>
	<text id="text3343" transform="matrix(1.0506 0 0 1 815.2366 333.9785)" font-family="'ArialMT'" font-size="18.7986">%legende10%</text>
</g>
<g id="Beschriftungen">
	<text id="text3346" transform="matrix(1 0 0 1 15.7942 728.3359)" font-family="'MyriadPro-Regular'" font-size="14.2709">--&gt; Eigene Visualisierung auf  </text>
	<text id="text3348" transform="matrix(1 0 0 1 15.7942 745.4609)" font-family="'MyriadPro-Regular'" font-size="14.2709"> datenlandkarten.at erstellen</text>
	<text id="Titel2" transform="matrix(1 0 0 1 362.7737 87.248)" font-family="'MyriadPro-Regular'" font-size="30">%titel2%</text>
	<text id="Titel1" transform="matrix(0.6758 0 0 1 361.2483 53.1328)" font-family="'ArialMT'" font-size="61.9146">%titel1%</text>
</g>
<g id="Kreise">
	<g id="Kreis23" transform="translate(-1099.4425,-1468.408)">
		<path id="path3841-8-9-2-0-6-5-2_1_" fill="#FFFFFF" stroke="#000000" d="M1649.433,2046.33c0,6.186-5.021,11.205-11.21,11.205
			c-6.189,0-11.208-5.021-11.208-11.205c0-6.191,5.018-11.209,11.208-11.209C1644.414,2035.121,1649.433,2040.139,1649.433,2046.33z
			"/>
		<text id="text3355" transform="matrix(1 0 0 1 1630.6683 2051.281)" font-family="'ArialMT'" font-size="13.7481">23</text>
	</g>
	<g id="Kreis22" transform="translate(-1099.4425,-1468.408)">
		<path id="path3841-8-9-2-0-6-5-2_4_" fill="#FFFFFF" stroke="#000000" d="M1552.805,2021.409c0,6.187-5.019,11.206-11.212,11.206
			c-6.188,0-11.206-5.021-11.206-11.206c0-6.19,5.021-11.209,11.206-11.209C1547.787,2010.2,1552.805,2015.219,1552.805,2021.409z"
			/>
		<text id="text3359" transform="matrix(1 0 0 1 1534.0404 2026.3611)" font-family="'ArialMT'" font-size="13.7481">22</text>
	</g>
	<g id="Kreis21" transform="translate(-1099.4425,-1468.408)">
		<path id="path3841-8-9-2-0-6-5-2_5_" fill="#FFFFFF" stroke="#000000" d="M1669.417,1826.576c0,6.186-5.018,11.206-11.212,11.206
			c-6.188,0-11.206-5.02-11.206-11.206c0-6.191,5.021-11.206,11.206-11.206C1664.401,1815.37,1669.417,1820.385,1669.417,1826.576z"
			/>
		<text id="text3363" transform="matrix(1 0 0 1 1650.6547 1831.531)" font-family="'ArialMT'" font-size="13.7481">21</text>
	</g>
	<g id="Kreis20" transform="translate(-1099.4425,-1468.408)">
		<path id="path3841-8-9-2-0-6-5-2_6_" fill="#FFFFFF" stroke="#000000" d="M1205.614,1983.128c0,6.188-5.017,11.206-11.211,11.206
			c-6.188,0-11.206-5.021-11.206-11.206c0-6.19,5.021-11.206,11.206-11.206C1200.597,1971.922,1205.614,1976.937,1205.614,1983.128z
			"/>
		<text id="text3367" transform="matrix(1 0 0 1 1186.85 1988.0818)" font-family="'ArialMT'" font-size="13.7481">20</text>
	</g>
	<g id="Kreis19" transform="translate(-1099.4425,-1468.408)">
		<path id="path3841-8-9-2-0-6-5-2_7_" fill="#FFFFFF" stroke="#000000" d="M1569.503,1818.764c0,6.186-5.018,11.206-11.212,11.206
			c-6.188,0-11.206-5.021-11.206-11.206c0-6.191,5.019-11.206,11.206-11.206C1564.486,1807.558,1569.503,1812.573,1569.503,1818.764
			z"/>
		<text id="text3371" transform="matrix(1 0 0 1 1550.7386 1823.7185)" font-family="'ArialMT'" font-size="13.7481">19</text>
	</g>
	<g id="Kreis18" transform="translate(-1099.4425,-1468.408)">
		<path id="path3841-8-9-2-0-6-5-2_8_" fill="#FFFFFF" stroke="#000000" d="M1466.555,1868.826c0,6.188-5.021,11.206-11.212,11.206
			c-6.188,0-11.206-5.021-11.206-11.206c0-6.191,5.017-11.205,11.206-11.205C1461.536,1857.621,1466.555,1862.635,1466.555,1868.826
			z"/>
		<text id="text3375" transform="matrix(1 0 0 1 1447.0863 1873.7791)" font-family="'ArialMT'" font-size="13.7481">18</text>
	</g>
	<g id="Kreis17" transform="translate(-1099.4425,-1468.408)">
		<path id="path3841-8-9-2-0-6-5-2_9_" fill="#FFFFFF" stroke="#000000" d="M1521.764,1890.806c0,6.187-5.021,11.207-11.215,11.207
			c-6.188,0-11.206-5.021-11.206-11.207c0-6.19,5.021-11.209,11.206-11.209C1516.746,1879.601,1521.764,1884.616,1521.764,1890.806z
			"/>
		<text id="text3379" transform="matrix(1 0 0 1 1502.2963 1895.7595)" font-family="'ArialMT'" font-size="13.7481">17</text>
	</g>
	<g id="Kreis16" transform="translate(-1099.4425,-1468.408)">
		<path id="path3841-8-9-2-0-6-5-2_10_" fill="#FFFFFF" stroke="#000000" d="M1313.788,1991.451c0,6.187-5.021,11.206-11.211,11.206
			c-6.188,0-11.206-5.021-11.206-11.206c0-6.191,5.019-11.206,11.206-11.206C1308.771,1980.246,1313.788,1985.26,1313.788,1991.451z
			"/>
		<text id="text3383" transform="matrix(1 0 0 1 1294.3197 1996.406)" font-family="'ArialMT'" font-size="13.7481">16</text>
	</g>
	<g id="Kreis15" transform="translate(-1099.4425,-1468.408)">
		<path id="path3841-8-9-2-0-6-5-2_11_" fill="#FFFFFF" stroke="#000000" d="M1568.581,2108.824c0,6.188-5.018,11.206-11.212,11.206
			c-6.188,0-11.206-5.021-11.206-11.206c0-6.188,5.021-11.204,11.206-11.204C1563.565,2097.62,1568.581,2102.635,1568.581,2108.824z
			"/>
		<text id="text3387" transform="matrix(1 0 0 1 1549.1136 2113.7771)" font-family="'ArialMT'" font-size="13.7481">15</text>
	</g>
	<g id="Kreis14" transform="translate(-1099.4425,-1468.408)">
		<path id="path3841-8-9-2-0-6-5-2_12_" fill="#FFFFFF" stroke="#000000" d="M1651.85,1926.644c0,6.188-5.018,11.208-11.211,11.208
			c-6.188,0-11.206-5.021-11.206-11.208c0-6.191,5.017-11.207,11.206-11.207C1646.831,1915.437,1651.85,1920.452,1651.85,1926.644z"
			/>
		<text id="text3391" transform="matrix(1 0 0 1 1632.3812 1931.5955)" font-family="'ArialMT'" font-size="13.7481">14</text>
	</g>
	<g id="Kreis13" transform="translate(-1099.4425,-1468.408)">
		<path id="path3841-8-9-2-0-6-5-2_13_" fill="#FFFFFF" stroke="#000000" d="M1741.284,1677.331c0,6.187-5.021,11.205-11.211,11.205
			c-6.188,0-11.206-5.021-11.206-11.205c0-6.191,5.018-11.207,11.206-11.207C1736.267,1666.124,1741.284,1671.139,1741.284,1677.331
			z"/>
		<text id="text3395" transform="matrix(1 0 0 1 1721.8168 1682.281)" font-family="'ArialMT'" font-size="13.7481">13</text>
	</g>
	<g id="Kreis12" transform="translate(-1099.4425,-1468.408)">
		<path id="path3841-8-9-2-0-6-5-2_14_" fill="#FFFFFF" stroke="#000000" d="M1338.526,1863.95c0,6.187-5.021,11.205-11.213,11.205
			c-6.188,0-11.205-5.021-11.205-11.205c0-6.19,5.018-11.206,11.205-11.206C1333.505,1852.744,1338.526,1857.76,1338.526,1863.95z"
			/>
		<text id="text3399" transform="matrix(1 0 0 1 1319.0531 1868.9001)" font-family="'ArialMT'" font-size="13.7481">12</text>
	</g>
	<g id="Kreis11" transform="translate(-1099.4425,-1468.408)">
		<path id="path3841-8-9-2-0-6-5-2_3_" fill="#FFFFFF" stroke="#000000" d="M1473.893,1971.444c0,6.188-5.019,11.205-11.21,11.205
			c-6.188,0-11.208-5.021-11.208-11.205c0-6.188,5.018-11.209,11.208-11.209C1468.878,1960.235,1473.893,1965.252,1473.893,1971.444
			z"/>
		<text id="text3403" transform="matrix(1 0 0 1 1455.1293 1976.3962)" font-family="'ArialMT'" font-size="13.7481">11</text>
	</g>
	<g id="Kreis10" transform="translate(-1099.4425,-1468.408)">
		<path id="path3841-8-9-2-0-6-5-2_2_" fill="#FFFFFF" stroke="#000000" d="M1458.866,1772.881c0,6.186-5.018,11.206-11.21,11.206
			c-6.188,0-11.207-5.021-11.207-11.206c0-6.19,5.021-11.209,11.207-11.209C1453.852,1761.672,1458.866,1766.691,1458.866,1772.881z
			"/>
		<text id="text3407" transform="matrix(1 0 0 1 1439.7489 1777.8337)" font-family="'ArialMT'" font-size="13.7481">10</text>
	</g>
	<g id="Kreis09" transform="translate(-1099.4425,-1468.408)">
		<path id="path3841-8-9-2-0-6-5-2_23_" fill="#FFFFFF" stroke="#000000" d="M1422.628,1732.403c0,6.186-5.017,11.206-11.211,11.206
			c-6.188,0-11.206-5.021-11.206-11.206c0-6.191,5.019-11.206,11.206-11.206C1417.612,1721.197,1422.628,1726.212,1422.628,1732.403
			z"/>
		<text id="text3411" transform="matrix(1 0 0 1 1407.7347 1737.3542)" font-family="'ArialMT'" font-size="13.7481">9</text>
	</g>
	<g id="Kreis08" transform="translate(-1099.4425,-1468.408)">
		<path id="path3841-8-9-2-0-6-5-2_22_" fill="#FFFFFF" stroke="#000000" d="M1664.398,1768.832c0,6.188-5.018,11.205-11.211,11.205
			c-6.188,0-11.206-5.02-11.206-11.205c0-6.188,5.018-11.202,11.206-11.202C1659.384,1757.627,1664.398,1762.64,1664.398,1768.832z"
			/>
		<text id="text3415" transform="matrix(1 0 0 1 1649.5043 1773.783)" font-family="'ArialMT'" font-size="13.7481">8</text>
	</g>
	<g id="Kreis07" transform="translate(-1099.4425,-1468.408)">
		<path id="path3841-8-9-2-0-6-5-2_21_" fill="#FFFFFF" stroke="#000000" d="M1477.537,1641.034c0,6.186-5.017,11.205-11.211,11.205
			c-6.188,0-11.206-5.021-11.206-11.205c0-6.191,5.021-11.206,11.206-11.206C1472.522,1629.828,1477.537,1634.843,1477.537,1641.034
			z"/>
		<text id="text3419" transform="matrix(1 0 0 1 1462.6444 1645.9841)" font-family="'ArialMT'" font-size="13.7481">7</text>
	</g>
	<g id="Kreis06" transform="translate(-1099.4425,-1468.408)">
		<path id="path3841-8-9-2-0-6-5-2_20_" fill="#FFFFFF" stroke="#000000" d="M1600.117,1693.017c0,6.187-5.018,11.207-11.212,11.207
			c-6.188,0-11.206-5.021-11.206-11.207c0-6.19,5.018-11.205,11.206-11.205C1595.1,1681.812,1600.117,1686.827,1600.117,1693.017z"
			/>
		<text id="text3423" transform="matrix(1 0 0 1 1585.223 1697.9685)" font-family="'ArialMT'" font-size="13.7481">6</text>
	</g>
	<g id="Kreis05" transform="translate(-1099.4425,-1468.408)">
		<path id="path3841-8-9-2-0-6-5-2_19_" fill="#FFFFFF" stroke="#000000" d="M1245.072,1644.109c0,6.186-5.017,11.206-11.212,11.206
			c-6.188,0-11.206-5.021-11.206-11.206c0-6.191,5.019-11.206,11.206-11.206C1240.056,1632.903,1245.072,1637.917,1245.072,1644.109
			z"/>
		<text id="text3427" transform="matrix(1 0 0 1 1230.1796 1649.0603)" font-family="'ArialMT'" font-size="13.7481">5</text>
	</g>
	<g id="Kreis04" transform="translate(-1099.4425,-1468.408)">
		<path id="path3841-8-9-2-0-6-5-2_18_" fill="#FFFFFF" stroke="#000000" d="M1805.447,1853.686c0,6.187-5.018,11.207-11.211,11.207
			c-6.188,0-11.206-5.021-11.206-11.207c0-6.19,5.021-11.207,11.206-11.207C1800.43,1842.48,1805.447,1847.495,1805.447,1853.686z"
			/>
		<text id="text3431" transform="matrix(1 0 0 1 1790.5531 1858.2849)" font-family="'ArialMT'" font-size="13.7481">4</text>
	</g>
	<g id="Kreis03" transform="translate(-1099.4425,-1468.408)">
		<path id="path3841-8-9-2-0-6-5-2_15_" fill="#FFFFFF" stroke="#000000" d="M1801.227,1934.764c0,6.186-5.021,11.206-11.211,11.206
			c-6.188,0-11.206-5.021-11.206-11.206c0-6.189,5.018-11.206,11.206-11.206C1796.207,1923.558,1801.227,1928.573,1801.227,1934.764
			z"/>
		<text id="text3435" transform="matrix(1 0 0 1 1786.3324 1939.363)" font-family="'ArialMT'" font-size="13.7481">3</text>
	</g>
	<g id="Kreis02" transform="translate(-1099.4425,-1468.408)">
		<path id="path3841-8-9-2-0-6-5-2_16_" fill="#FFFFFF" stroke="#000000" d="M1620.415,1976.667c0,6.188-5.021,11.206-11.212,11.206
			c-6.188,0-11.206-5.02-11.206-11.206c0-6.19,5.019-11.206,11.206-11.206C1615.396,1965.461,1620.415,1970.476,1620.415,1976.667z"
			/>
		<text id="text3439" transform="matrix(1 0 0 1 1605.5199 1981.2654)" font-family="'ArialMT'" font-size="13.7481">2</text>
	</g>
	<g id="Kreis01-2" transform="translate(-1099.4425,-1468.408)">
		<path id="path3841-8-9-2-0-6-5-2_26_" fill="#FFFFFF" stroke="#000000" d="M1223.062,2027.702c0,6.187-5.016,11.206-11.211,11.206
			c-6.188,0-11.207-5.021-11.207-11.206c0-6.19,5.018-11.207,11.207-11.207C1218.047,2016.495,1223.062,2021.511,1223.062,2027.702z
			"/>
		<text id="text3443" transform="matrix(1 0 0 1 1207.8173 2033.0056)" font-family="'ArialMT'" font-size="13.7481">1</text>
	</g>
	<g id="Kreis01" transform="translate(-1099.4425,-1468.408)">
		<path id="path3841-8-9-2-0-6-5-2_17_" fill="#FFFFFF" stroke="#000000" d="M1197.483,1921.966c0,6.187-5.017,11.206-11.211,11.206
			c-6.188,0-11.207-5.021-11.207-11.206c0-6.19,5.018-11.207,11.207-11.207C1192.466,1910.76,1197.483,1915.775,1197.483,1921.966z"
			/>
		<text id="text3447" transform="matrix(1 0 0 1 1182.2377 1927.2693)" font-family="'ArialMT'" font-size="13.7481">1</text>
	</g>
	<g id="Kreis24" transform="translate(-1099.4425,-1468.408)">
		<path id="path3841-8-9-2-0-6-5-2_24_" fill="#FFFFFF" stroke="#000000" d="M1387.907,1574.962c0,6.186-5.021,11.205-11.21,11.205
			c-6.188,0-11.208-5.021-11.208-11.205c0-6.191,5.019-11.209,11.208-11.209C1382.89,1563.753,1387.907,1568.77,1387.907,1574.962z"
			/>
		<text id="text3451" transform="matrix(1 0 0 1 1369.1425 1579.9128)" font-family="'ArialMT'" font-size="13.7481">24</text>
	</g>
	<g id="Kreis25" transform="translate(-1099.4425,-1468.408)">
		<path id="path3841-8-9-2-0-6-5-2_25_" fill="#FFFFFF" stroke="#000000" d="M1312.906,1721.593c0,6.186-5.021,11.205-11.21,11.205
			c-6.188,0-11.208-5.021-11.208-11.205c0-6.191,5.019-11.209,11.208-11.209C1307.888,1710.384,1312.906,1715.402,1312.906,1721.593
			z"/>
		<text id="text3455" transform="matrix(1 0 0 1 1294.141 1726.5447)" font-family="'ArialMT'" font-size="13.7481">25</text>
	</g>
	<g id="Kreis21_1_" transform="translate(-1099.4425,-1468.408)">
		<path id="path3841-8-9-2-0-6-5-2_27_" fill="#FFFFFF" stroke="#000000" d="M1732.365,1920.786c0,6.187-5.018,11.206-11.212,11.206
			c-6.188,0-11.206-5.021-11.206-11.206c0-6.19,5.021-11.206,11.206-11.206C1727.348,1909.58,1732.365,1914.595,1732.365,1920.786z"
			/>
		<text id="text3459" transform="matrix(1 0 0 1 1713.6019 1925.74)" font-family="'ArialMT'" font-size="13.7481">21</text>
	</g>
	<g id="Kreis21_2_" transform="translate(-1099.4425,-1468.408)">
		<path id="path3841-8-9-2-0-6-5-2_28_" fill="#FFFFFF" stroke="#000000" d="M1724.471,1822.102c0,6.186-5.019,11.206-11.212,11.206
			c-6.188,0-11.207-5.021-11.207-11.206c0-6.191,5.021-11.206,11.207-11.206C1719.453,1810.896,1724.471,1815.911,1724.471,1822.102
			z"/>
		<text id="text3463" transform="matrix(1 0 0 1 1705.7074 1827.0564)" font-family="'ArialMT'" font-size="13.7481">21</text>
	</g>
	<g id="Kreis21_3_" transform="translate(-1099.4425,-1468.408)">
		<path id="path3841-8-9-2-0-6-5-2_29_" fill="#FFFFFF" stroke="#000000" d="M1613.944,1874.735c0,6.187-5.018,11.206-11.212,11.206
			c-6.188,0-11.206-5.021-11.206-11.206c0-6.191,5.021-11.206,11.206-11.206C1608.927,1863.529,1613.944,1868.543,1613.944,1874.735
			z"/>
		<text id="text3467" transform="matrix(1 0 0 1 1595.1801 1879.6892)" font-family="'ArialMT'" font-size="13.7481">21</text>
	</g>
	<g id="Kreis22_1_" transform="translate(-1099.4425,-1468.408)">
		<path id="path3841-8-9-2-0-6-5-2_30_" fill="#FFFFFF" stroke="#000000" d="M1662.173,2138.988c0,6.186-5.018,11.206-11.211,11.206
			c-6.188,0-11.207-5.021-11.207-11.206c0-6.191,5.021-11.209,11.207-11.209C1657.156,2127.779,1662.173,2132.796,1662.173,2138.988
			z"/>
		<text id="text3471" transform="matrix(1 0 0 1 1643.4105 2143.9392)" font-family="'ArialMT'" font-size="13.7481">22</text>
	</g>
</g>
<path fill="#AAB2AB" d="M62.868,678.593l83.127,0.148c1.161,0,2.198-0.173,2.198,2.333l-0.102,27.552H60.77v-27.654
	C60.77,679.736,60.889,678.593,62.868,678.593z"/>
<path fill="#FFFFFF" d="M85.685,692.69c0.003,5.557-4.471,10.064-9.993,10.068c-5.522,0.004-10.001-4.5-10.005-10.057
	c0-0.004,0-0.008,0-0.012c-0.003-5.559,4.471-10.066,9.994-10.069c5.522-0.004,10.001,4.5,10.005,10.058
	C85.685,692.681,85.685,692.685,85.685,692.69z M106.833,681.548c4.349,0,7.875,3.547,7.875,7.924s-3.526,7.927-7.875,7.927
	c-4.35,0-7.875-3.548-7.875-7.927C98.957,685.095,102.483,681.548,106.833,681.548z M135.465,689.298
	c0.004,4.314-3.47,7.814-7.757,7.818c-4.286,0.003-7.765-3.492-7.769-7.807c0-0.004,0-0.008,0-0.012
	c-0.002-4.313,3.471-7.813,7.758-7.816c4.287-0.004,7.766,3.492,7.768,7.806C135.465,689.291,135.465,689.294,135.465,689.298z"/>
<path d="M83.815,684.493c2.217,2.232,3.326,4.964,3.326,8.197c0,3.232-1.089,5.936-3.269,8.109c-2.313,2.289-5.046,3.435-8.2,3.435
	c-3.116,0-5.802-1.136-8.057-3.405c-2.256-2.271-3.383-4.982-3.383-8.138c0-3.156,1.127-5.89,3.383-8.198
	c2.198-2.232,4.884-3.348,8.057-3.348C78.884,681.146,81.598,682.261,83.815,684.493z M69.108,685.994
	c-1.875,1.905-2.812,4.138-2.812,6.698s0.928,4.773,2.783,6.64c1.855,1.867,4.064,2.802,6.627,2.802s4.791-0.942,6.684-2.83
	c1.797-1.752,2.697-3.955,2.697-6.61c0-2.636-0.914-4.874-2.74-6.712s-4.04-2.758-6.641-2.758S70.905,684.147,69.108,685.994z
	 M74.041,691.566c-0.287-0.628-0.715-0.942-1.287-0.942c-1.011,0-1.516,0.686-1.516,2.055s0.505,2.055,1.516,2.055
	c0.667,0,1.145-0.333,1.431-1.002l1.401,0.751c-0.668,1.194-1.67,1.792-3.006,1.792c-1.03,0-1.856-0.317-2.476-0.954
	c-0.621-0.636-0.931-1.513-0.931-2.629c0-1.099,0.32-1.97,0.959-2.616c0.639-0.646,1.436-0.968,2.39-0.968
	c1.413,0,2.424,0.56,3.035,1.679L74.041,691.566z M80.634,691.566c-0.287-0.628-0.707-0.942-1.261-0.942
	c-1.031,0-1.547,0.686-1.547,2.055s0.516,2.055,1.547,2.055c0.669,0,1.137-0.333,1.404-1.002l1.433,0.751
	c-0.667,1.194-1.667,1.792-3.001,1.792c-1.029,0-1.853-0.317-2.473-0.954c-0.619-0.636-0.928-1.513-0.928-2.629
	c0-1.099,0.314-1.97,0.943-2.616c0.628-0.646,1.428-0.968,2.4-0.968c1.41,0,2.42,0.56,3.029,1.679L80.634,691.566z M146.722,678.241
	H62.016c-0.908,0-1.647,0.744-1.647,1.658v28.967c0,0.207,0.167,0.375,0.372,0.375h87.256c0.205,0,0.372-0.168,0.372-0.375v-28.967
	C148.369,678.985,147.631,678.241,146.722,678.241z M62.016,678.99h84.705c0.498,0,0.903,0.408,0.903,0.909c0,0,0,11.676,0,20.109
	H87.083c-2.219,4.037-6.494,6.778-11.401,6.778c-4.908,0-9.183-2.737-11.4-6.778h-3.169c0-8.435,0-20.109,0-20.109
	C61.113,679.398,61.518,678.99,62.016,678.99z M127.646,680.741c-2.355,0-4.35,0.827-5.98,2.48
	c-1.675,1.713-2.512,3.737-2.512,6.078c0,2.34,0.837,4.351,2.512,6.033c1.674,1.684,3.668,2.524,5.98,2.524
	c2.342,0,4.371-0.849,6.089-2.546c1.616-1.611,2.427-3.616,2.427-6.012c0-2.396-0.824-4.423-2.471-6.078
	C132.047,681.568,130.031,680.741,127.646,680.741z M127.668,682.281c1.93,0,3.569,0.685,4.918,2.054
	c1.361,1.355,2.043,3.01,2.043,4.965c0,1.967-0.666,3.602-2.001,4.899c-1.405,1.397-3.058,2.097-4.96,2.097
	c-1.9,0-3.541-0.691-4.917-2.074c-1.376-1.385-2.063-3.024-2.063-4.922c0-1.896,0.695-3.552,2.086-4.963
	C124.105,682.966,125.738,682.281,127.668,682.281z M123.877,688.091c0.34-2.154,1.846-3.305,3.733-3.305
	c2.716,0,4.368,1.982,4.368,4.626c0,2.58-1.76,4.584-4.41,4.584c-1.824,0-3.457-1.13-3.756-3.347h2.144
	c0.063,1.15,0.806,1.556,1.866,1.556c1.209,0,1.994-1.13,1.994-2.856c0-1.813-0.68-2.771-1.951-2.771
	c-0.934,0-1.739,0.341-1.909,1.514l0.623-0.004l-1.687,1.697l-1.687-1.697L123.877,688.091z M109.112,687.179
	c0-0.306-0.246-0.553-0.55-0.553h-3.479c-0.303,0-0.55,0.247-0.55,0.553v3.5h0.972v4.146h2.635v-4.146h0.972V687.179
	L109.112,687.179z M106.824,683.771c0.656,0,1.189,0.536,1.189,1.196c0,0.662-0.533,1.197-1.189,1.197
	c-0.657,0-1.189-0.535-1.189-1.197C105.635,684.308,106.167,683.771,106.824,683.771z M106.812,680.741
	c-2.355,0-4.349,0.827-5.981,2.48c-1.675,1.711-2.512,3.737-2.512,6.076c0,2.34,0.837,4.352,2.512,6.034
	c1.674,1.683,3.668,2.524,5.981,2.524c2.342,0,4.371-0.85,6.088-2.547c1.619-1.611,2.428-3.615,2.428-6.012
	c0-2.397-0.822-4.422-2.471-6.076C111.213,681.567,109.197,680.741,106.812,680.741z M106.834,682.28
	c1.93,0,3.569,0.686,4.917,2.054c1.363,1.355,2.044,3.011,2.044,4.964c0,1.967-0.666,3.602-2.001,4.899
	c-1.405,1.397-3.058,2.096-4.96,2.096c-1.9,0-3.541-0.69-4.917-2.075c-1.377-1.383-2.065-3.022-2.065-4.92
	c0-1.896,0.695-3.552,2.086-4.964C103.272,682.966,104.904,682.28,106.834,682.28z"/>
<path fill="#FFFFFF" d="M129.646,702.412l1.816,4.888h-1.109l-0.367-1.089h-1.816l-0.381,1.089h-1.074l1.836-4.888H129.646z
	 M129.708,705.409l-0.612-1.793h-0.014l-0.633,1.793H129.708z M123.629,706.091c0.059,0.115,0.137,0.207,0.234,0.277
	c0.098,0.071,0.211,0.124,0.342,0.158c0.133,0.033,0.268,0.051,0.408,0.051c0.095,0,0.197-0.008,0.306-0.023
	c0.109-0.015,0.21-0.047,0.306-0.093c0.095-0.046,0.174-0.108,0.236-0.188c0.064-0.08,0.096-0.181,0.096-0.306
	c0-0.132-0.041-0.237-0.125-0.32s-0.194-0.15-0.33-0.206c-0.135-0.056-0.289-0.103-0.461-0.144s-0.348-0.088-0.522-0.138
	c-0.183-0.046-0.358-0.103-0.531-0.167c-0.171-0.066-0.325-0.152-0.461-0.258c-0.137-0.104-0.245-0.235-0.329-0.393
	c-0.084-0.158-0.125-0.35-0.125-0.572c0-0.252,0.053-0.469,0.159-0.654c0.104-0.184,0.246-0.338,0.418-0.462
	c0.173-0.123,0.366-0.214,0.584-0.274c0.218-0.059,0.437-0.088,0.652-0.088c0.254,0,0.497,0.028,0.729,0.086
	c0.232,0.057,0.44,0.149,0.621,0.277c0.182,0.127,0.326,0.291,0.432,0.49c0.107,0.197,0.16,0.438,0.16,0.723h-1.035
	c-0.01-0.146-0.041-0.268-0.092-0.363c-0.053-0.096-0.121-0.172-0.207-0.227s-0.184-0.094-0.295-0.115
	c-0.109-0.023-0.229-0.035-0.361-0.035c-0.086,0-0.172,0.01-0.258,0.027c-0.086,0.02-0.162,0.051-0.231,0.096
	c-0.07,0.047-0.129,0.104-0.175,0.172c-0.045,0.068-0.066,0.155-0.066,0.26c0,0.097,0.02,0.175,0.055,0.232
	c0.037,0.061,0.108,0.115,0.215,0.165c0.105,0.05,0.254,0.101,0.44,0.151c0.188,0.049,0.435,0.113,0.736,0.191
	c0.092,0.018,0.217,0.051,0.377,0.1c0.161,0.047,0.319,0.123,0.479,0.229c0.158,0.105,0.295,0.246,0.412,0.422
	c0.114,0.176,0.172,0.4,0.172,0.674c0,0.226-0.043,0.433-0.129,0.623c-0.087,0.192-0.215,0.357-0.385,0.496
	c-0.171,0.142-0.381,0.248-0.632,0.326c-0.252,0.078-0.544,0.116-0.874,0.116c-0.268,0-0.527-0.033-0.779-0.101
	c-0.251-0.064-0.474-0.17-0.667-0.312c-0.192-0.144-0.346-0.323-0.459-0.543c-0.112-0.219-0.168-0.479-0.163-0.78h1.036
	C123.541,705.839,123.57,705.978,123.629,706.091z M106.342,702.412h1.198l1.138,1.931l1.131-1.931h1.189l-1.803,3.013v1.875h-1.07
	v-1.902L106.342,702.412z M104.367,702.412c0.231,0,0.442,0.021,0.633,0.062c0.191,0.041,0.354,0.108,0.491,0.201
	c0.136,0.094,0.241,0.219,0.315,0.373c0.076,0.155,0.112,0.349,0.112,0.575c0,0.247-0.055,0.451-0.167,0.616
	c-0.109,0.164-0.275,0.298-0.492,0.402c0.299,0.088,0.522,0.238,0.672,0.455c0.147,0.219,0.223,0.479,0.223,0.785
	c0,0.245-0.049,0.459-0.145,0.641c-0.095,0.18-0.224,0.326-0.386,0.441c-0.161,0.113-0.346,0.198-0.552,0.254
	c-0.207,0.055-0.419,0.082-0.638,0.082h-2.358v-4.889L104.367,702.412L104.367,702.412z M104.23,704.388
	c0.191,0,0.347-0.045,0.47-0.136c0.123-0.092,0.185-0.239,0.185-0.444c0-0.113-0.021-0.207-0.062-0.279s-0.095-0.129-0.164-0.17
	s-0.146-0.07-0.235-0.086c-0.089-0.016-0.181-0.023-0.276-0.023h-1v1.141h1.082V704.388z M104.292,706.464
	c0.105,0,0.205-0.011,0.3-0.031c0.095-0.021,0.18-0.055,0.252-0.104c0.073-0.047,0.13-0.111,0.173-0.193
	c0.045-0.082,0.065-0.188,0.065-0.315c0-0.25-0.071-0.431-0.212-0.536c-0.141-0.107-0.328-0.161-0.559-0.161h-1.166v1.341H104.292
	L104.292,706.464z"/>
</svg>
