<?xml version="1.0" encoding="utf-8"?>
<!-- Generator: Adobe Illustrator 13.0.2, SVG Export Plug-In . SVG Version: 6.00 Build 14948)  -->
<!DOCTYPE svg PUBLIC "-//W3C//DTD SVG 1.1//EN" "http://www.w3.org/Graphics/SVG/1.1/DTD/svg11.dtd">
<svg version="1.1"
	 id="Niederösterreich_Bezirke" xmlns:dc="http://purl.org/dc/elements/1.1/" xmlns:cc="http://creativecommons.org/ns#" xmlns:rdf="http://www.w3.org/1999/02/22-rdf-syntax-ns#" xmlns:svg="http://www.w3.org/2000/svg" xmlns:sodipodi="http://sodipodi.sourceforge.net/DTD/sodipodi-0.dtd" xmlns:inkscape="http://www.inkscape.org/namespaces/inkscape" sodipodi:docname="niederoesterreich_bezirke.svg" inkscape:version="0.48.0 r9654"
	 xmlns="http://www.w3.org/2000/svg" xmlns:xlink="http://www.w3.org/1999/xlink" x="0px" y="0px" width="942.615px"
	 height="760.383px" viewBox="0 0 942.615 760.383" enable-background="new 0 0 942.615 760.383" xml:space="preserve">
<sodipodi:namedview  id="namedview3473" guidetolerance="10" pagecolor="#ffffff" bordercolor="#666666" inkscape:cy="380.1915" inkscape:cx="471.30801" showgrid="false" borderopacity="1" objecttolerance="10" gridtolerance="10" inkscape:zoom="0.38270188" inkscape:pageshadow="2" inkscape:window-x="0" inkscape:window-y="0" inkscape:window-width="1366" inkscape:window-height="706" inkscape:current-layer="Niederösterreich_Bezirke" inkscape:pageopacity="0" inkscape:window-maximized="1">
	</sodipodi:namedview>
<g id="Bezirke">
	
		<path id="Amstetten" fill="#123456" stroke="#7B7979" stroke-width="0.9" stroke-linecap="round" stroke-linejoin="round" stroke-miterlimit="10" d="
		M58.637,409.973l13.15,9.285l5.688-2.955l2.67-7.057l7.814,3.502l6.454-2.129l2.416-0.701l21.734-6.287l5.117-8.547l0.224-5.561
		l8.896-3.621l2.286,2.479l13.567-1.046l5.907,11.377l4.64,3.369l1.559,0.856l3.938,0.955l-3.178-0.129l-1.779,4.701l-5.562-0.224
		l3.716,6.521l-0.226,5.561l-1.684,2.316l3.813,4.134l0.188,15.125l11.249-2.73l-4.803,20.493l-5.563-0.223l-5.688,2.95
		l1.969,10.425l-13.601,1.841l-8.866,2.825l-0.225,5.562l-4.604-4.164l-7.245,2.097l-0.826,0.765l0.604,4.798l-5.527-1.021
		l-9.09,8.39l-18.462,4.029l0.693,2.414l-5.304-6.575l-8.611-3.528l-5.72,3.748l0.57,5.592l-9.691,3.592l3.049,3.309l-1.972,9.469
		l-4.798,0.603l-9.404-3.562L29.61,498.717l-18.744-8.71l0.223-5.561L0.574,468.908l1.337-13.475l-1.46-3.239l4.896-2.986
		l-3.939-0.953l6.643-6.894l4.068-2.227l-6.926-5.848l2.639-6.26l-2.921-6.482l5.148-9.34l0.128-3.184l-0.379-10.356l2.797-10.229
		l8.135-4.447l1.653-1.523l11.817,2.862l7.784,4.29l10.546,14.744L58.637,409.973 M130.559,501.184l10.263,2.004l9.532,0.386
		l-2.641,6.263l3.876,2.542l-3.688,12.582l2.319,1.685l1.716-3.111l11.151-0.35l4.447,8.139l-12.14,5.08l-1.02,5.526l-8.356,10.008
		l-2.446,1.492l4.446,8.136l-12.269,8.261l-1.813,5.497l-5.72,3.748l2.316,1.685l-14.554,5.78l2.855,8.07l6.261,2.639l-8.23,6.833
		l2.985,4.895l-5.688,2.953l-2.189-4.859l-3.974-0.159L91.769,615l-9.12-10.71l2.482-2.29l-6.134-5.819l-3.557-10.483l6.546-4.514
		l-6.797-9.021l5.146-9.341l-4.604-4.163l16.307-9.688l1.748-3.907l16.238-8.101l0.189-4.767l4.036-1.432l-4.159-15.283
		l3.593-10.196L130.559,501.184"/>
	
		<path id="Baden" fill="#123456" stroke="#7B7979" stroke-width="0.9" stroke-linecap="round" stroke-linejoin="round" stroke-miterlimit="10" d="
		M482.632,451.686l2.096,7.245l3.337-3.845l5.528,1.018l2.096,7.246l3.209-0.668l2.954,5.689l2.639-6.259l7.185-0.511l6.957,5.057
		l0.476,7.975l18.713,9.505l8.199-6.035l4.67,2.574l6.259,2.642l5.056-6.957l15.533,9.376l-0.096,2.383l10.071,6.771l6.419-1.334
		l0.696,2.416l14.073,6.137l4.229-6.194l7.501-8.45l3.271-2.256l16.141,14.175l-1.908,7.88l-3.368,4.642l-2.671,7.053l-4.102,3.018
		l-20.052,3.975l-8.262,7.624l-1.082,7.114l-4.164,4.606l2.353,0.89l-1.75,3.908l-3.271,2.255l-3.876-2.543l-2.794-9.659
		l-5.88,7.723l-20.24-11.16l-15.124,0.188l-3.05-3.307l-3.241,1.461l-1.114,7.912l-4.604-4.164l-3.177-0.128l-13.125,9.815
		l-0.826,0.764L503.425,548l3.018,4.1l-3.21,0.667l-6.988-4.26l-1.334-6.418l3.242-1.461l-24.815,3.776l-1.396-4.83l4.418-10.961
		l-1.521-1.653l-5.723,3.748l-3.082-2.511l2.642-6.262l-15.415,7.34l-0.412-9.564l-22.05-5.664l-0.919-16.745l2.479-2.286
		l12.581,3.688l8.834-2.031l-4.542-5.753l5.021-6.162l-4.733-0.986l0.384-9.529l-4.639-3.369l-4.862,2.188l-6.291-1.844l-2-9.628
		l12.173-5.876l-0.479-7.975l4.802-0.604l20.593-17.472l2.255,3.271l13.507,0.542l3.08,2.515l-5.721,3.748l-0.255,6.354l3.112,1.716
		L482.632,451.686"/>
	
		<path id="Bruck_an_der_Leitha" fill="#123456" stroke="#7B7979" stroke-width="0.9" stroke-linecap="round" stroke-linejoin="round" stroke-miterlimit="10" d="
		M759.358,415.864l2.256,3.272l4.83-1.396l6.925,5.848l10.805,8.394l7.213-1.305l3.621,8.897l-2.415,0.702l1.521,1.649l-0.954,3.939
		l-6.515,3.717l-1.908,7.88l-8.642-2.731l6.547-4.515l-3.082-2.51l-4.103,3.018l-2.188-4.858l-3.94-0.954l-4.191,5.398l8.449,7.5
		l5.367,4.989l-6.862,12.453l-2.735,8.646l-4.766-0.191l0.255-6.354l-16.427-7.023l0.952-3.939l-4.671-2.571l-7.975,0.475
		l-1.559-0.858l-12.488,13.82l2.224,4.067l-3.241,1.46l-0.795-0.031l-7.975,0.475l-13.824,7.401l-15.918,0.155l0.092,17.508
		l-0.954,3.938l-10.483,3.56l-1.524-1.652l-5.848,6.927l-2.607,5.47l-6.735,9.274l-3.338,3.846l-5.088,7.753l-2.414,0.695
		l-9.72-15.508l-6.73-10.617l4.099-3.018l2.671-7.053l3.368-4.642l1.908-7.88l-16.141-14.175l0.825-0.763l2.671-7.056l12.172-5.876
		l4.035-1.43l10.014-11.531l2.639-6.26l5.464,2.607l11.947-0.315l-8.516-5.912l1.974-9.468l1.461,3.241l4.83-1.397l7.085,1.876
		l15.349-5.748l3.081,2.514l0.698,2.415l10.263,2.003l8.136-4.445l3.082,2.51l7.276-2.89l-0.508-7.188l7.31-3.684l1.432,4.035
		l3.271-2.256l3.908,1.747l9.057-7.593l1.114-7.911L759.358,415.864"/>
	
		<path id="Gänserndorf" fill="#123456" stroke="#7B7979" stroke-width="0.9" stroke-linecap="round" stroke-linejoin="round" stroke-miterlimit="10" d="
		M749.487,206.209l-1.876,7.085l6.259,2.639l-1.082,7.118l0.918,16.745l5.18,9.755l-3.595,10.202l-6.448,2.128l-2.479,2.287
		l1.304,7.213l-6.322-1.05l-1.94,8.674l-2.414,0.699l-10.075,13.121l0.638,4.004l4.414,8.929l-4.163,4.606l-0.479,11.915
		l-4.797,0.603l2.794,9.66l0.604,4.798l8.735,0.351l-0.983,4.734l11.688,6.043l-4.228,6.195l2.128,6.451l5.907,11.376l10.991,3.625
		l-3.653,11.787l5.177,9.757l4.763,20.082l-4.83,1.396l-2.256-3.271l-5.592,0.569l-1.114,7.911l-9.057,7.594l-3.908-1.748
		l-3.272,2.256l-1.43-4.035l-7.31,3.684l0.508,7.188l-7.277,2.89l-3.082-2.51l-8.135,4.445l-10.263-2.002l-0.698-2.416l-3.081-2.514
		l-15.349,5.748l-7.085-1.876l-4.83,1.397l-1.461-3.241l-3.081-2.511l-18.873-5.536l-0.479-7.978l-6.354-0.256l-2.097-7.244
		l-3.24,1.459l5.151-29.229l-3.905-1.749l1.971-9.468l-7.149-0.288l-4.604-4.163l1.813-5.497l-3.906-1.748l7.884-17.983l5.497,1.813
		l0.922-3.146l7.054,2.67l9.341,5.149l14.556-5.78l3.368-4.638l-7.814-3.5l1.78-4.702l-13.089-10.869l-0.604-4.798l-7.497-11.44
		l2.479-2.287l-0.666-3.209l-6.324-1.05l-3.332-16.046l14.426-2.603l3.876,2.543l2.543-3.876l6.989,4.259l5.849-6.925l-7.782-4.291
		l0.128-3.178l10.012-11.532l3.24-1.461l7.245-2.096l-6.573-14.589l0.189-4.766l6.644-6.894l-1.143-11.185l-6.066-7.404l0.031-0.795
		l9.372,4.355l-0.892,2.351l5.4,4.195l3.24-1.461l-1.271-8.007l8.738,0.351l5.752-4.542l1.522,1.653l3.907,1.749l4.542,5.752
		l13.408,2.926l-2.922-6.482l3.37-4.638l14.17,3.752l2.731-8.642L749.487,206.209"/>
	
		<path id="Gmünd" fill="#123456" stroke="#7B7979" stroke-width="0.9" stroke-linecap="round" stroke-linejoin="round" stroke-miterlimit="10" d="
		M179.776,28.949l6.195,4.228l7.181-0.507l-0.256,6.354l12.646,2.1l8.039-2.064l7.021,3.465l-1.813,5.497l5.24,8.167l-2.766,9.437
		l-0.827,0.762l8.418,8.298l-2.229,15.824l2.225,4.067l-3.908-1.749l-3.369,4.639l2.129,6.451l-4.005,0.635l-3.496,7.815
		l6.701,11.409l-4.292,7.784l-2.317-1.685l-4.926,3.78l0.442,8.77l-5.021,6.163l8.546,5.118l-0.189,4.767l-1.02,5.528l4.702,1.781
		l-2.702,7.851l-3.465,7.021l-5.113-11.344l-6.419,1.333l4.385,9.724l-10.104-5.976l-4.895,2.986l-3.052-3.306l-18.236-1.529
		l0.604,4.798l-5.529-1.018l3.781,4.926l-4.164,4.606l12.265,11.631l-5.216,10.93l-3.813-4.132l-4.957,4.575l-5.433-3.401
		l-5.978,10.103l-9.31-5.944l-5.527-1.018l-4.895,2.985l-4.261,6.99l-6.292-1.844l-0.984,4.734l-5.465-2.606l-7.343,4.479
		l6.513,16.174l-7.85-2.703l-4.065,2.224l-4.608-4.163l-5.784,5.336l-7.464-12.234l-6.26-2.639l4.798-0.603l4.292-7.784
		l-1.333-6.419l1.972-9.468l-2.158-5.656l2.828-11.025l4.419-10.961l22.091-15.028l-2.128-6.451l3.495-7.816l-1.333-6.418
		l6.388-0.539l15.889,0.639l2.19,4.862l19.667,5.564l2.479-2.287l4.989-5.369l-7.688-6.674l5.405-15.696l0.318-7.943l3.972,0.159
		l-3.364-15.252l3.179,0.128l1.971-9.469l-2.565-35.114l5.911-8.515l1.021-5.528l-2.288-2.479L179.776,28.949"/>
	
		<path id="Hollabrunn" fill="#123456" stroke="#7B7979" stroke-width="0.9" stroke-linecap="round" stroke-linejoin="round" stroke-miterlimit="10" d="
		M425.251,97.696l2.189,4.862l-3.305,3.05l7.021,3.464l4.103-3.018l2.095,7.245l3.306-3.049l2.226,4.067l-3.146-0.922l0.634,4.004
		l9.564-0.412l-0.985,4.734l3.875,2.543l2.543-3.876l3.908,1.749l-2.735,8.642l6.195,4.227l7.66,7.472l21.031,11.189l7.021,3.465
		l3.939,0.954l14.268,1.369l1.687-2.319l20.558,3.213l-2.479,2.288l3.745,5.72l-1.11,7.912l-4.83,1.397l2.317,1.684l-5.438,16.49
		l1.334,6.419l8.929-4.415l7.911,1.114l0.571,5.592l-2.415,0.699l4.856,17.699l9.659-2.794l0.538,6.386l-4.064,2.227l-0.415,10.327
		l-1.813,5.496l-5.239-8.17l-9.598,1.209l-3.561,9.404l-8.897,3.62l-3.561,9.404l3.018,4.1l-0.317,7.943l-5.978,10.104l-4.639-3.369
		l-2.605,5.465l-5.625,1.365l-6.958-5.053l-1.777,4.702l-8.577-4.323l0.383-9.533l-13.603,1.84l-0.695-2.415l-11.061-2.035
		l-2.572,4.67l-12.808,1.872l-1.72,3.113l-3.146-0.922l-2.444,1.493l-1.302-7.213l-5.527-1.021l-9.564,0.411l-1.018,5.528
		l-3.875-2.542l-7.815-3.497l-2.543,3.876l-6.386,0.539l-15.186-18.114l0.257-6.354l8.007-1.27l-5.78-14.554l17.731-5.655l6.32,1.05
		l-1.302-7.209l7.213-1.305l11.121,0.447l8.675,1.943l1.784-24.596l8.993-6.003l-1.461-3.242l-11.057-2.035l-20.525-4.008
		l-4.67-2.575l0.255-6.354l-5.56-0.223l7.341-4.479l0.159-3.971l-4.734-0.986l1.749-3.908l14.553-5.78l1.114-7.911l5.593-0.571
		l-1.333-6.418l2.447-1.493l-5.434-3.404l-11.946,0.315l1.685-2.319l-4.702-1.78l1.813-5.497l-5.528-1.018l-0.603-4.798
		l-13.535,0.251l-7.88-1.908l6.802-10.865l7.563-10.039l14.234,2.164L425.251,97.696"/>
	
		<path id="Horn" fill="#123456" stroke="#7B7979" stroke-width="0.9" stroke-linecap="round" stroke-linejoin="round" stroke-miterlimit="10" d="
		M368.885,94.635l10.642,12.362l5.656-2.159l13.376,3.72l-6.802,10.865l7.88,1.908l13.535-0.251l0.603,4.798l5.528,1.018
		l-1.813,5.497l4.702,1.78l-1.685,2.319l11.945-0.315l5.435,3.404l-2.447,1.493l1.333,6.418l-5.593,0.571l-1.114,7.911l-14.553,5.78
		l-1.749,3.908l4.733,0.986l-0.158,3.971l-7.344,4.479l5.563,0.223l-0.255,6.355l4.67,2.575l20.522,4.008l11.059,2.035l1.461,3.242
		l-8.993,6.003l-1.784,24.593l-8.675-1.94l-11.121-0.447l-7.213,1.302l1.302,7.213l-6.32-1.05l-17.731,5.655l1.748-3.908
		l-4.767-0.191l-7.183,0.507l-0.189,4.766l-4.035,1.429l-9.6,1.206l-9.308-5.944l-1.908,7.88l-6.859-7.437l-0.284-12.744
		l-7.056-2.671l1.813-5.497l-16.585-3.053l3.369-4.639l-4.67-2.575l-10.993-3.625l-4.164,4.606l-8.61-3.528l-6.035-8.199
		l1.718-3.113l4.7,1.78l3.369-4.639l-7.593-9.057l1.94-8.674l4.132-3.812l8.706,1.146l4.989-5.369l1.211-10.294l7.94,0.319
		l-7.688-6.674l6.546-4.511l-2.226-4.067l4.229-6.199l-3.813-4.131l6.451-2.127l-0.699-2.415l9.564-0.411l3.37-4.638l8.833-2.032
		l-1.366-5.625l-6.925-5.848l1.717-3.113l7.943,0.319l-7.752-5.086l0.983-4.734l7.978-0.475l4.542,5.752L368.885,94.635"/>
	
		<path id="Korneuburg" fill="#123456" stroke="#7B7979" stroke-width="0.9" stroke-linecap="round" stroke-linejoin="round" stroke-miterlimit="10" d="
		M582.129,232.898l7.848,2.702l-9.217,11.564l15.6,7.788l-0.032,0.794l-3.177-0.127l-0.352,8.738l7.181-0.507l3.717,6.515
		l-2.444,1.493l0.439,8.773l-7.627,11.628l0.57,5.592l8.834-2.032l-1.813,5.497l3.081,2.511l-2.702,7.848l-3.938-0.955l1.429,4.036
		l-2.766,9.437l6.227,3.433l1.271,8.007l6.26,2.639l-1.114,7.915l-13.505-0.543l3.749,5.72l-7.213,1.301l-2.287-2.479l-4.101,3.018
		l-1.273,11.883l-4.099,3.018l-8.734-20.242l-13.818-12.493l-2.352-0.89l-5.624,1.365l-7.117-1.082l-5.398-4.195l-0.226,5.561
		l-8.547-5.118l-7.976,0.475l0.696,2.415L514.332,336l-1.49-2.45l-4.135,3.815l2.288,2.479l-7.941-0.319l-6.861-7.439l-3.337,3.847
		l-5.337-5.787l1.685-2.319l-6.291-1.844l-15.887-0.639l3.277-22.146l6.479-2.922l-2.697-12.043l5.942-9.309l-1.366-5.625
		l13.604-1.843l-0.384,9.536l8.575,4.323l1.779-4.702l6.958,5.053l5.625-1.365l2.605-5.465l4.639,3.369l5.976-10.104l0.319-7.946
		l-3.017-4.1l3.56-9.405l8.896-3.62l3.563-9.404l9.596-1.206l5.24,8.167l1.813-5.497l6.387-0.539l1.209-10.294l1.653-1.525
		l6.032,8.199l0.387-9.532l5.592-0.571L582.129,232.898"/>
	
		<path id="Krems_Land" fill="#123456" stroke="#7B7979" stroke-width="0.9" stroke-linecap="round" stroke-linejoin="round" stroke-miterlimit="10" d="
		M351.096,220.429l0.284,12.741l6.859,7.437l1.908-7.88l9.312,5.944l9.596-1.206l4.035-1.429l0.189-4.766l7.184-0.507l4.766,0.192
		l-1.748,3.908l5.78,14.554l-8.007,1.27l-0.259,6.354l15.188,18.118l-0.858,1.554l-4.707,18.113l-3.238,1.461l2.063,8.04
		l-5.181,10.135l-3.21,0.667l-6.45,2.127l5.433,3.401l-2.479,2.287l-14.901-5.373l-0.506-7.181l-9.373-4.355l-1.174-10.391
		l2.511-3.081l0.098-2.383l-4.8,0.603l-4.987,5.369l-5.468-2.606l-5.751,4.542l-14.231-2.164l0.506,7.181l-2.511,3.082l2.287,2.479
		l7.909,1.114l0.509,7.181l13.693-4.223l8.805-1.237l-2.005,10.263l3.146,0.922l-3.338,3.844l8.834-2.032l3.049,3.306l1.142,11.188
		l-4.895,2.986l-8.167,5.241l-14.805-7.756l-8.834,2.032l-5.751,4.543l-7.149-0.288l-0.16,3.972l-12.771,1.078l-7.343,4.479
		l1.081-7.117l-4.731-0.986l-5.562-0.224l-2.229,15.824l-4.229,6.195l-2.446,1.493l-11.818-2.862l-8.865,2.827l-7.021-3.465
		l5.243-11.724l-2.352-0.89l1.876-7.085l6.451-2.127l3.497-7.816l-13.376-3.72l-6.003-8.997l5.688-2.954l0.954-3.94l8.865-2.826
		l1.43,4.035l3.209-0.667l0.226-5.56l3.843,3.336l7.438-6.862l-3.146-0.921l0.225-5.561l-3.813-4.132l-7.148-0.288l1.749-3.908
		l-5.938-10.582l-7.912-1.114l-1.97-10.422l12.968-5.847l-4.319-11.312l5.751-4.542l-5.557-20.114l4.926-3.78l-1.396-4.83
		l0.954-3.94l8.833-2.032l2.57,15.221l4.734,0.986l6.643-6.894l5.465,2.604l0.128-3.178l6.322,1.05l-2.985-4.894l2.64-6.259
		l8.738,0.352l7.622,8.263l1.75-3.908l3.813,4.131l-3.049-3.305l4.798-0.603l-3.716-6.514l3.368-4.638l3.938,0.954l16.585,3.053
		l-1.812,5.497L351.096,220.429"/>
	
		<path id="Krems_Stadt" fill="#123456" stroke="#7B7979" stroke-width="0.9" stroke-linecap="round" stroke-linejoin="round" stroke-miterlimit="10" d="
		M361.598,295.644l1.174,10.391l9.373,4.355l0.506,7.181l14.901,5.373l-0.922,3.146l-16.777,1.713l-3.049-3.306l-8.834,2.032
		l3.338-3.844l-3.146-0.922l2.003-10.263l-8.802,1.237l-13.694,4.223l-0.508-7.181l-7.91-1.114l-2.286-2.479l2.511-3.082
		l-0.506-7.181l14.231,2.164l5.751-4.542l5.465,2.606l4.99-5.369l4.798-0.603l-0.096,2.383L361.598,295.644"/>
	
		<path id="Lilienfeld" fill="#123456" stroke="#7B7979" stroke-width="0.9" stroke-linecap="round" stroke-linejoin="round" stroke-miterlimit="10" d="
		M384.538,457.291l3.847,3.337l9.596-1.206l3.844,3.337l11.249-2.729l2.415-0.699l7.624,8.264l8.994-6.004l2,9.628l6.291,1.844
		l4.862-2.188l4.639,3.369l-0.384,9.532l4.732,0.983l-5.021,6.162l4.542,5.753l-8.834,2.031l-12.581-3.688l-2.479,2.286l0.92,16.745
		l-4.195,5.405l-12.106,4.286l-6.387,0.539l-13.567,1.046l-5.054,6.958l-8.071,2.855l-7.628,11.628l-3.177-0.129l1.02-5.525
		l-3.906-1.748l-4.292,7.784l-8.933,4.415l1.206,9.596l-3.433,6.227l4.319,11.313l-9.092,8.387l5.242,8.167l-2.101,12.649
		l-25.547,2.152l-6.229-3.433l2.543-3.879l-3.082-2.511l-17.38-3.086l-3.652-8.104l-8.069,2.857l-1.872-12.809l-9.311-5.94
		l-4.003,0.635l-4.734-0.986l-14.427,2.604l-3.72,13.375l-21.354-3.244l0.159-3.972l4.133-3.813l-15.663-6.199l-5.179-9.755
		l19.479-9.562l9.532,0.384l1.813-5.496l2.318,1.685l20.113-5.558l19.287-4.794l-1.333-6.419l11.439-7.496l2.671-7.053l-2.225-4.068
		l4.83-1.396l6.354,0.256l9.121-9.188l0.255-6.354l10.584-5.94l0.097-2.383l-3.747-5.72l2.131-13.44l9.818-6.766l12.679,1.306
		l8.77-0.44l-1.461-3.241l11.313-4.319l8.77-0.442L384.538,457.291"/>
	
		<path id="Melk" fill="#123456" stroke="#7B7979" stroke-width="0.9" stroke-linecap="round" stroke-linejoin="round" stroke-miterlimit="10" d="
		M250.637,324.6l6.003,8.997l13.376,3.717l-3.497,7.819l-6.451,2.127l-1.876,7.085l2.352,0.89l-5.245,11.724l7.021,3.465
		l8.866-2.827l11.817,2.862l2.447-1.493l4.229-6.195l2.228-15.824l5.561,0.224l4.733,0.983l-1.081,7.121l7.343-4.479l12.771-1.078
		l0.635,4.003l7.118,1.079l-2.604,5.468l-1.021,5.528l-6.259-2.639l-2.543,3.876l3.018,4.099l-6.48,2.922l0.667,3.209l-9.628,2
		l3.019,4.101l-7.563,10.038l-4.195,5.4l4.542,5.752l-0.256,6.354l2.256,3.271l-1.02,5.527l5.434,3.404l3.843,3.337l-5.688,2.954
		l19.001,2.354l-3.273,2.256l3.081,2.514l-4.003,0.635l-0.16,3.971l-4.036,1.433l-13.76,5.813l-1.209,10.294l-9.152,9.979
		l-13.029,7.433l-6.643,6.894l-16.809,2.51l-4.958,4.571l-3.718-6.515l1.272-11.883l2.512-3.081l4.733,0.984l0.096-2.385
		l-2.096-7.245l-10.135-5.181l-1.493-2.447l-9.911-10.738l-6.387,0.537l0.288-7.148l3.906,1.749l-2.256-3.273l-10.613,6.734
		l-1.271-8.008l-5.337-5.783l-4.957,4.574l-2.288-2.479l-7.213,1.305l-5.527-1.021l-8.167,5.24l-2.416,0.699l-2.479,2.286
		l-4.862,2.189l-11.249,2.73l-0.188-15.125l-3.813-4.134l1.686-2.316l0.225-5.561l-3.716-6.521l5.562,0.224l1.779-4.701l3.177,0.129
		l-3.938-0.955l-1.559-0.856l-6.767-9.819l7.437-6.86l-1.396-4.829l6.547-4.511l-1.617-19.16l-1.107-11.979l-11.152,0.347
		l0.954-3.94l5.596-20.465l-0.255,6.358l4.989-5.369l3.112,1.713l2.479-2.288l4.604,4.167l10.932,5.213l0.063-1.592l1.492,2.447
		l10.96,4.422l1.688-2.319l-0.287,7.149l12.678,1.302l0.225-5.557l7.116,1.078l3.563-9.404l3.778,4.926l4.989-5.366l7.054,2.67
		l7.88,1.908l-2.857-8.075l5.593-0.571L250.637,324.6"/>
	
		<path id="Mistelbach" fill="#123456" stroke="#7B7979" stroke-width="0.9" stroke-linecap="round" stroke-linejoin="round" stroke-miterlimit="10" d="
		M634.133,126.78l6.766,9.819l8.578,4.323l21.447,0.862l3.717,6.515l-0.479,11.916l2.16,5.656l12.9-4.255l3.845,3.337l3.209-0.667
		l3.717,6.518l12.55,4.483l8.864-2.827l11.122,0.447l3.4-5.436l1.429,4.039l4.831-1.4l5.24,8.17l-2.77,9.437l4.642,3.368
		l-1.939,8.674l2.128,6.451l-3.082-2.511l-2.731,8.642l-14.171-3.752l-3.369,4.638l2.922,6.482l-13.408-2.926l-4.542-5.752
		l-3.908-1.749l-1.521-1.653l-5.754,4.542l-8.736-0.351l1.27,8.007l-3.239,1.461l-5.399-4.195l0.891-2.351l-9.372-4.355l-0.03,0.795
		l6.065,7.404l1.144,11.185l-6.645,6.894l-0.189,4.766l6.573,14.585l-7.244,2.096l-3.24,1.464l-10.013,11.532l-0.13,3.178
		l7.784,4.291l-5.848,6.925l-6.989-4.259l-2.543,3.876l-3.876-2.543l-14.426,2.603l3.332,16.046l6.323,1.05l0.666,3.209
		l-2.479,2.287l7.497,11.44l0.603,4.798l13.091,10.869l-1.779,4.702l7.813,3.5l-3.367,4.638l-14.556,5.78l-9.34-5.149l-7.055-2.67
		l-0.922,3.146l-5.497-1.813l-4.67-2.575l-3.846-3.337l-4.639-3.372l-6.387,0.539l-6.261-2.639l-1.271-8.007l-6.229-3.433
		l2.768-9.437l-1.43-4.036l3.938,0.955l2.702-7.848l-3.081-2.511l1.813-5.497l-8.834,2.032l-0.569-5.592l7.627-11.628l-0.442-8.77
		l2.447-1.493l-3.717-6.514l-7.183,0.507l0.354-8.741l3.177,0.127l0.032-0.794l-15.601-7.788l9.218-11.564l-7.849-2.702
		l-2.857-8.071l-5.592,0.571l-0.385,9.532l-6.035-8.199l-1.652,1.525l-1.209,10.294l-6.387,0.539l0.414-10.327l4.065-2.224
		l-0.538-6.386l-9.658,2.794l-4.857-17.699l2.415-0.699l-0.571-5.592l-7.911-1.114l-8.929,4.415l-1.334-6.419l5.438-16.49
		l-2.318-1.684l4.83-1.397l1.112-7.912l-3.748-5.724l2.479-2.287l14.33-0.22l17.315,4.677l4.26-6.993l4.446,8.139l5.562,0.223
		l9.818-6.769l5.911-8.514l1.651-1.525l7.152-19.604l18.108,4.707l4.229-6.195L634.133,126.78"/>
	
		<path id="Mödling" fill="#123456" stroke="#7B7979" stroke-width="0.9" stroke-linecap="round" stroke-linejoin="round" stroke-miterlimit="10" d="
		M542.114,436.573l-5.625,1.364l-0.095,2.384l15.315-4.953l9.373,4.354l3.875,2.542l3.526-8.607l12.55,4.479l7.085,1.877
		l-4.447,11.755l8.674,1.94l3.908,1.748l-4.163,4.604l0.313,11.947l3.876,2.543l-2.354,19l-6.419,1.334l-10.071-6.771l0.096-2.383
		l-15.534-9.376l-5.055,6.956l-6.259-2.641l-4.67-2.574l-8.199,6.035l-18.713-9.505l-0.476-7.975l-6.957-5.057l-7.185,0.511
		l-2.639,6.259l-2.954-5.689l-3.209,0.668l-2.096-7.246l-5.528-1.018l-3.337,3.845l-2.096-7.245l2.541-3.876l-3.111-1.716
		l0.255-6.354l5.721-3.748l6.322,1.05l4.195-5.401l6.163,5.021l10.771-10.709l1.846-6.291l8.01-1.271l5.271,7.371l7.117,1.082
		l-4.067,2.226L542.114,436.573"/>
	
		<path id="Neunkirchen" fill="#123456" stroke="#7B7979" stroke-width="0.9" stroke-linecap="round" stroke-linejoin="round" stroke-miterlimit="10" d="
		M371.049,555.41l5.398,4.195l6.451-2.13l7.053,2.67l4.354,10.521l8.103-3.653l5.4,4.195l-1.656,21.416l4.734,0.985l2.639-6.262
		l10.455-2.763l1.844-6.29l14.49-4.188l4.446,8.135l13-6.64l2.063,8.038l9.69-3.589l0.795,0.032l4.703,1.78l3.336-3.845l6.132,5.813
		l11.819,2.862l-0.064,1.589l12.075-3.493l15.344,14.146l-9.883,8.354l3.018,4.103l5.596-0.571l4.191-5.4l2.227,4.067l2.891,7.28
		l-8.167,5.238l-6.354-0.256l2.284,2.479l6.482-2.922l7.054,2.67l-0.983,4.731l3.905,1.748l-4.354,9.372l-0.861,21.448l-3.434,6.227
		L524.817,669l-1.748,3.908l3.524,11.28l-1.309,12.678l7.596,9.057l-6.39,0.539l-2.923-6.479l-1.907,7.879l-1.968-10.423
		l-7.146-0.287l1.396,4.83l5.396,24.089l-2.067,11.852l-6.451,2.128l-6.926-5.849l2.26-16.617l-3.271,2.256l-1.271-8.007
		l-3.177-0.128l-3.497,7.815l-2.543,3.876l-3.908-1.748l-0.286,7.146l-3.21,0.667l-9.813-13.125l-6.323-1.05l-13.503-0.543
		l-10.929-5.213l-2.354-0.893l-2.954-5.688l0.288-7.149l-5.34-5.783l-12.772,1.076l-0.476-7.976l5.31-13.313l-6.321-1.051
		l-5.209-8.961l-12.646-2.102l-11.313,4.318L390,658.005l-5.465-2.604l-1.231-28.69l-7.085-1.877l-5.816,6.132l-2.189-4.86
		l-11.024-2.829l-6.542-15.382l2.102-12.647l-5.24-8.167l9.089-8.388l-4.319-11.313l3.434-6.227L371.049,555.41"/>
	
		<path id="Scheibbs" fill="#123456" stroke="#7B7979" stroke-width="0.9" stroke-linecap="round" stroke-linejoin="round" stroke-miterlimit="10" d="
		M209.151,426.372l5.337,5.783l1.271,8.008l10.613-6.734l2.256,3.273l-3.906-1.749l-0.288,7.146l6.387-0.535l9.911,10.738
		l1.493,2.447l10.135,5.181l2.097,7.245l-0.097,2.383l-4.733-0.982l-2.512,3.081l-1.272,11.883l3.718,6.515l-2.479,2.288
		l1.046,13.567l3.845,3.337l-3.4,5.436l3.846,3.337l2.19,4.862l8.736,0.354l3.175,20.018L246.4,548.81l-2.318-1.684l-1.813,5.496
		l-9.532-0.384l-19.479,9.562l5.179,9.755l15.664,6.199l-4.134,3.813l-0.158,3.972l-5.564,19.67l-18.174-3.117l-3.4,5.435
		l-12.042,2.696l-10.328-0.415l-6.161-5.021l-12.141,5.082l-7.087-1.876l-14.077,13.755l-8.009,1.27l-7.848-2.7l-5.113-11.347
		l-2.985-4.895l8.23-6.833l-6.259-2.641l-2.857-8.068l14.554-5.78l-2.316-1.685l5.72-3.748l1.813-5.497l12.267-8.262l-4.446-8.135
		l2.446-1.492l8.358-10.008l1.018-5.527l12.14-5.079l-4.445-8.139l-11.153,0.35l-1.716,3.111l-2.319-1.685l3.689-12.582
		l-3.876-2.542l2.639-6.263l-9.532-0.386l4.132-3.813l-7.941-0.319l-7.723-5.88l6.609-6.099l-7.976,0.475l-5.307-6.578l7.246-2.097
		l4.605,4.164l0.223-5.563l8.866-2.824l13.601-1.843l-1.969-10.423l5.688-2.952l5.562,0.225l4.803-20.493l4.861-2.191l2.479-2.286
		l2.416-0.697l8.167-5.24l5.527,1.018l7.214-1.302l2.287,2.479L209.151,426.372"/>
	
		<path id="St._Pölten_Land" fill="#123456" stroke="#7B7979" stroke-width="0.9" stroke-linecap="round" stroke-linejoin="round" stroke-miterlimit="10" d="
		M401.818,324.312l2.986,4.894l3.209-0.666l1.365,5.627l13.76-5.815l-3.436,6.23l-7.181,0.507l-0.096,2.383l4.767,0.191
		l-0.224,5.561l-8.039,2.064l-3.876-2.543l-7.564,10.039l11.886,1.273l-2.447,1.493l1.43,4.036l9.627-2l-7.468,7.656l9.532,0.383
		l3.813,4.131l-8.423,11.596l7.149,0.287l-0.386,9.532l13.536-0.252l1.337-13.472l0.794,0.032l7.979-0.475l5.436,3.401l2.54-3.876
		l3.117,1.717l2.188,4.861l-4.159,4.604l8.674,1.939l-0.989,4.732l8.393,9.09l-4.135,3.813l-0.028,0.794l1.396,4.83l6.355,0.256
		l-9.28,13.153l3.843,3.34l-20.593,17.472l-4.802,0.604l0.479,7.975l-12.173,5.876l-8.994,6.004l-7.624-8.264l-2.415,0.699
		l-11.249,2.729l-3.844-3.337l-9.596,1.206l-3.844-3.337l-8.677-1.94l-8.77,0.443l-11.313,4.319l1.463,3.24l-8.771,0.441
		l-12.677-1.306l-9.82,6.766l-2.131,13.44l3.748,5.72l-0.097,2.383l-10.584,5.94l-0.256,6.354l-9.119,9.188l-6.354-0.256
		l-4.83,1.396l2.225,4.068l-2.671,7.053l-11.438,7.496l1.333,6.419l-19.288,4.794l-3.173-20.02l-8.738-0.353l-2.19-4.862
		l-3.846-3.337l3.401-5.436l-3.846-3.337l-1.046-13.567l7.438-6.861l16.81-2.508l6.644-6.894L291,468.635l9.151-9.976l1.209-10.294
		l13.761-5.813l4.035-1.431l0.16-3.971l4.003-0.637l-3.081-2.512l3.273-2.256l-19.001-2.354l5.688-2.954l-3.843-3.337l-5.433-3.404
		l1.019-5.528l-2.256-3.272l0.256-6.354l-4.542-5.753l4.195-5.399l7.563-10.037l-3.019-4.102l9.628-2l-0.667-3.209l6.483-2.922
		l-3.021-4.099l2.543-3.876l6.259,2.639l1.021-5.528l2.604-5.465l-7.116-1.082l-0.637-4.003l0.16-3.972l7.149,0.288l5.751-4.543
		l8.834-2.032l14.805,7.756l8.167-5.245l4.896-2.982l-1.144-11.188l16.777-1.713l0.922-3.146l2.479-2.287l6.42-1.333
		L401.818,324.312"/>
	
		<path id="St._Pölten_Stadt" fill="#123456" stroke="#7B7979" stroke-width="0.9" stroke-linecap="round" stroke-linejoin="round" stroke-miterlimit="10" d="
		M370.287,376.355l-1.938,8.672l-7.879-1.906l-6.517,3.716l-4.895,2.985l-6.419,1.334l-1.081,7.117l-0.416,10.326l-5.72,3.748
		l0.507,7.182l10.327,0.414l0.506,7.185l-4.862,2.192l2.098,7.244l18.969,3.147l1.337-13.473l-2.922-6.486l7.437-6.858l1.114-7.912
		l7.117,1.082l0.954-3.939l7.214-1.301l4.163-4.607l-1.744-15.982l2.446-1.493l-1.462-3.241l-6.291-1.845l-4.102,3.019
		L370.287,376.355"/>
	
		<path id="Tulln" fill="#123456" stroke="#7B7979" stroke-width="0.9" stroke-linecap="round" stroke-linejoin="round" stroke-miterlimit="10" d="
		M480.027,278.922l-5.944,9.309l2.699,12.043l-6.479,2.922l-3.277,22.149l15.887,0.639l6.291,1.844l-1.685,2.319l5.337,5.784
		l3.337-3.844l6.861,7.437l7.941,0.319l-2.287-2.479l4.134-3.812l1.491,2.447l7.243-2.096l-0.695-2.415l7.976-0.475l8.546,5.117
		l0.226-5.56l5.398,4.195l7.118,1.082l0.188,15.125l-9.401-3.561l1.333,6.418l-3.308,3.05l4.702,1.78l-5.782,5.337l-1.113,7.912
		l-4.896,2.986l-7.688-6.674l-5.625,1.365l1.333,6.418l-6.957-5.053l0.507,7.181l-3.241,1.461l-4.766-0.192l1.301,7.213
		l-8.738-0.354l0.926-3.146l-4.671-2.573l1.396,4.83l-5.497-1.813l1.365,5.623l-4.83,1.397l-4.229,6.194l-8.674-1.939l0.666,3.209
		l9.373,4.355l-9.756,5.178l-3.019-4.1l-8.392-9.093l0.989-4.731l-8.674-1.939l4.158-4.605l-2.188-4.859l-3.117-1.717l-2.54,3.876
		l-5.436-3.401l-7.979,0.475l-0.794-0.032l-1.337,13.472l-13.536,0.252l0.385-9.532l-7.148-0.285l8.423-11.598l-3.813-4.131
		l-9.532-0.383l7.468-7.656l-9.627,2l-1.43-4.036l2.444-1.493l-11.883-1.273l7.564-10.039l3.876,2.543l8.039-2.064l0.224-5.561
		l-4.767-0.191l0.096-2.383l7.181-0.507l3.435-6.227l-13.762,5.812l-1.362-5.624l-3.21,0.667l-2.985-4.894l-5.369-4.99l-6.419,1.333
		l-5.433-3.401l6.45-2.127l3.21-0.67l5.181-10.135l-2.063-8.04l3.24-1.461l4.707-18.11l0.858-1.557l6.386-0.539l2.543-3.876
		l7.815,3.497l3.875,2.542l1.018-5.528l9.564-0.411l5.525,1.018l1.304,7.213l2.444-1.493l3.146,0.922l1.72-3.113l12.806-1.872
		l2.574-4.67l11.06,2.035l0.695,2.415L480.027,278.922"/>
	
		<path id="Waidhofen_an_der_Ybbs" fill="#123456" stroke="#7B7979" stroke-width="0.9" stroke-linecap="round" stroke-linejoin="round" stroke-miterlimit="10" d="
		M122.619,480.974l5.305,6.578l7.978-0.475l-6.609,6.099l7.723,5.88l7.941,0.319l-4.132,3.813l-10.263-2.004l-16.873,4.102
		l-3.592,10.198l4.158,15.281l-4.034,1.432l-0.191,4.767l-16.238,8.102l-11.724-25.138l-8.135,4.446l-9.343-5.149l-7.053-2.67
		l4.798-0.603l1.974-9.469l-3.051-3.309l9.692-3.592l-0.571-5.592l5.722-3.748l8.609,3.527l5.306,6.576l-0.695-2.414l18.462-4.029
		l9.09-8.39l5.527,1.021l-0.604-4.798L122.619,480.974"/>
	
		<path id="Wien_Umgebung" fill="#123456" stroke="#7B7979" stroke-width="0.9" stroke-linecap="round" stroke-linejoin="round" stroke-miterlimit="10" d="
		M626.158,424.036l18.649,11.096l0.16-3.975l18.873,5.536l3.081,2.511l-1.975,9.468l8.517,5.912l-11.947,0.315l-5.464-2.607
		l-2.642,6.26L643.4,470.083l-4.036,1.43l-12.171,5.876l-2.671,7.056l-0.825,0.763l-3.271,2.256l-7.501,8.45l-4.229,6.194
		l-14.074-6.137l-0.695-2.416l2.354-19l-3.876-2.543l-0.313-11.944l4.161-4.606l-3.906-1.748l-8.676-1.938l4.449-11.757l7.057,2.672
		l7.182-0.51l0.352-8.734l5.563,0.223l6.706-8.484L626.158,424.036 M630.052,347.016l-7.884,17.983l-6.29-1.844l1.333,6.418
		l-3.273,2.255l-10.039-7.564l-0.348-11.152l-3.907-1.749l-3.749-5.72l13.505,0.543l1.114-7.915l6.386-0.539l4.639,3.372
		l3.847,3.337L630.052,347.016 M571.936,347.862l8.734,20.242l-2.386-0.096l-2.255-3.273l-9.852,7.561l-7.185,0.506l-1.845,6.291
		l-6.418,1.333l-2.671,7.053l-4.798,0.604l0.188-4.767l-10.068-6.771l-3.435,6.229l0.41,9.563l-4.064,2.225l3.972,0.16l2.795,9.658
		l-7.725,14.012l-8.01,1.271l-1.845,6.291l-10.771,10.709l-6.162-5.021l-4.195,5.401l-6.322-1.05l-3.082-2.513l-13.505-0.542
		l-2.255-3.272l-3.843-3.34l9.279-13.153l-6.354-0.256l-1.396-4.83l0.029-0.794l4.134-3.813l3.019,4.101l9.756-5.179l-9.373-4.354
		l-0.666-3.209l8.674,1.94l4.229-6.195l4.83-1.396l-1.365-5.625l5.497,1.813l-1.397-4.83l4.672,2.574l-0.924,3.146l8.738,0.354
		l-1.301-7.213l4.766,0.192l3.241-1.461l-0.507-7.181l6.957,5.053l-1.333-6.418l5.625-1.365l7.688,6.674l4.896-2.986l1.111-7.912
		l5.784-5.337l-4.702-1.78l3.308-3.05l-1.333-6.418l9.401,3.561l-0.188-15.128l5.624-1.365l2.352,0.89L571.936,347.862"/>
	
		<path id="Wiener_Neustadt" fill="#123456" stroke="#7B7979" stroke-width="0.9" stroke-linecap="round" stroke-linejoin="round" stroke-miterlimit="10" d="
		M562.069,593.323l-1.242,11.089l-1.146,8.705l-0.479,11.919l4.383,9.724l-0.128,3.178l4.702,1.78l10.266,2.004l-1.748,3.908
		l5.844,12.964l-0.354,8.738l-6.48,2.922l1.461,3.241l-2.511,3.082l-4.862,2.188l0.635,4.007l-6.007,10.896l0.379,10.358
		l0.795,0.028l7.496,11.444l-5.976,10.104l-3.436,6.228l-4.035,1.43l2.226,4.067l-7.405,6.066l-8.07,2.856L531.6,757.592
		l-10.358,0.379l-9.244-7.529l-2.922-6.482l1.748-3.908l6.451-2.128l2.067-11.852l-5.396-24.089l-1.396-4.83l7.146,0.287
		l1.969,10.423l1.906-7.879l2.923,6.479l6.39-0.539l-7.596-9.057l1.309-12.679l-3.524-11.279l1.748-3.908l2.446-1.493l3.434-6.227
		l0.861-21.448l4.354-9.372l-3.906-1.748l0.983-4.734l-7.054-2.67l-6.482,2.925l-2.284-2.479l6.354,0.256l8.167-5.241l-2.891-7.277
		l6.387-0.539l2.83-11.025l4.734,0.986l1.146-8.706l7.116,1.082L562.069,593.323 M452.842,519.711l0.412,9.564l15.413-7.337
		l-2.64,6.259l3.082,2.511l5.72-3.748l1.524,1.653l-4.418,10.961l1.396,4.83l24.817-3.776l-3.242,1.461l1.334,6.418l6.988,4.261
		l3.21-0.668l-3.018-4.1l11.089,1.242l0.825-0.763l13.125-9.816l3.178,0.128l4.604,4.164l1.114-7.912l3.241-1.461l3.05,3.307
		l15.124-0.188l20.238,11.157l5.88-7.723l2.794,9.659l-1.684,2.319l-10.52,4.352l8.481,6.706l3.777,4.925l-4.957,4.575l1.525,1.652
		l-4.068,2.224l-2.414,0.698l-2.7,7.848l-9.915,9.149l-2.258-3.273l2.641-6.259l-8.645-2.732l-1.396-4.829l-4.639-3.369l4.958-4.574
		l-3.72-6.515l-0.158,3.973l-15.062-1.401l0.479-11.913l-5.688,2.951l2.19,4.862l-5.783,5.337l-0.986,4.733l4.606,4.163
		l-4.323,8.578l-1.337,13.473l-0.893,2.352l-1.558-0.855l-15.344-14.146l-12.075,3.493l0.063-1.589l-11.818-2.862l-6.132-5.813
		l-3.336,3.845l-4.703-1.78l-0.795-0.032l-9.69,3.592l-2.063-8.04l-13,6.639l-4.446-8.135l-14.49,4.188l-1.844,6.29l-10.455,2.765
		l-2.639,6.26l-4.734-0.985l1.656-21.416l-5.4-4.194l-8.103,3.652l-4.354-10.52l-7.053-2.67l-6.451,2.127l-5.398-4.194
		l-15.352,5.748l-1.206-9.597l8.933-4.414l4.291-7.784l3.907,1.748l-1.02,5.526l3.177,0.128l7.628-11.628l8.071-2.855l5.054-6.958
		l13.567-1.046l6.387-0.539l12.106-4.286l4.193-5.405L452.842,519.711"/>
	
		<path id="Wiener_Neustadt_Stadt" fill="#123456" stroke="#7B7979" stroke-width="0.9" stroke-linecap="round" stroke-linejoin="round" stroke-miterlimit="10" d="
		M536.941,565.261l15.063,1.401l0.156-3.973l3.719,6.515l-4.957,4.574l4.639,3.366l1.396,4.83l-5.941,9.312l-7.116-1.082
		l-1.146,8.706l-4.731-0.986l-2.83,11.025l-6.387,0.539l-2.227-4.067l-4.191,5.4l-5.596,0.568l-3.018-4.1l9.883-8.354l1.558,0.856
		l0.893-2.352l1.337-13.475l4.323-8.577l-4.606-4.164l0.986-4.731l5.783-5.337l-2.19-4.862l5.688-2.953L536.941,565.261"/>
	
		<path id="Waidhofen_an_der_Thaya" fill="#123456" stroke="#7B7979" stroke-width="0.9" stroke-linecap="round" stroke-linejoin="round" stroke-miterlimit="10" d="
		M262.512,48.983l7.085,1.876l3.337-3.844l10.263,2.003l18.554,13.476l7.851,2.703l4.065-2.224l10.07,6.77l2.764,10.454
		l21.953,8.043l-0.983,4.734l7.752,5.089l-7.943-0.319l-1.717,3.113l6.925,5.848l1.366,5.625l-8.833,2.032L341.65,119l-9.563,0.411
		l0.696,2.415l-6.449,2.127l3.813,4.131l-4.229,6.195l2.225,4.067l-6.546,4.511l7.688,6.674l-7.94-0.319l-1.21,10.294l-4.989,5.369
		l-8.706-1.146l-4.131,3.812l-3.941-0.954l0.16-3.972l7.246-2.095l-0.699-2.415l-7.848-2.703l-1.365-5.624l4.769,0.191l-7.626-8.263
		l-4.83,1.397l-3.399,5.433l-5.369-4.989l-7.117-1.082l-4.42,10.961l-6.449,2.128l-6.86-7.437l-3.436,6.227l-7.91-1.113
		l-5.021,6.163l-8.896,3.62l-7.721-5.88l-1.876,7.085l4.512,6.546l-2.574,4.67l-5.495-1.813l2.7-7.847l-4.7-1.781l1.018-5.528
		l0.191-4.767l-8.547-5.118l5.021-6.163l-0.442-8.77l4.928-3.78l2.315,1.685l4.292-7.784l-6.701-11.409l3.497-7.815l4.004-0.635
		l-2.128-6.451l3.368-4.639l3.908,1.749l-2.223-4.071l2.227-15.823l-8.418-8.295l0.827-0.762l4.862-2.191l3.906,1.748l10.646-7.528
		l10.994,3.625l6.039-11.692l-1.303-7.213L262.512,48.983"/>
	
		<path id="Zwettl" fill="#123456" stroke="#7B7979" stroke-width="0.9" stroke-linecap="round" stroke-linejoin="round" stroke-miterlimit="10" d="
		M292.997,141.709l7.624,8.263l-4.767-0.191l1.365,5.624l7.848,2.703l0.699,2.415l-7.246,2.095l-0.16,3.972l3.941,0.954
		l-1.941,8.674l7.593,9.057l-3.368,4.642l-4.701-1.78l-1.718,3.113l6.035,8.199l8.61,3.528l4.164-4.606l10.993,3.625l4.67,2.575
		l-3.369,4.639l-3.94-0.954l-3.366,4.638l3.716,6.514l-4.798,0.603l3.049,3.305l-3.813-4.131l-1.749,3.908l-7.624-8.263
		l-8.735-0.352l-2.641,6.259l2.986,4.894l-6.323-1.05l-0.128,3.178l-5.464-2.606l-6.645,6.894l-4.732-0.986l-2.57-15.221
		l-8.833,2.032l-0.954,3.94l1.396,4.83l-4.928,3.78l5.559,20.114l-5.751,4.542l4.317,11.312l-12.965,5.844l1.967,10.425l7.912,1.114
		l5.939,10.582l-1.749,3.908l7.147,0.288l3.813,4.132l-0.225,5.561l3.146,0.921l-7.438,6.862l-3.845-3.336l-0.224,5.56l-3.209,0.667
		l-1.43-4.035l-8.866,2.826l-0.953,3.94l-5.688,2.954l-3.146-0.922l-5.594,0.571l2.856,8.075l-7.879-1.908l-7.053-2.67l-4.99,5.366
		l-3.78-4.926l-3.561,9.408l-7.117-1.082l-0.225,5.56l-12.679-1.305l0.286-7.149l-1.685,2.319l-10.96-4.422l-1.493-2.447
		l-0.063,1.592l-10.931-5.213l-4.604-4.167l-2.479,2.288l-3.114-1.713l-4.987,5.369l0.255-6.358l-2.127-6.451l-6.292-1.844
		l-5.688,2.954l10.014-11.532l-6.195-4.227l-5.368-4.989l-3.686-7.309l-7.055-2.67l0.954-3.94l-2.89-7.28l6.479-2.922l1.021-5.528
		l7.94,0.319l0.923-3.146l-6.065-7.404l-7.849-2.703l-7.912-1.114l-2.921-6.482l-7.753-5.085l-6.512-16.174l7.342-4.479l5.466,2.606
		l0.984-4.734l6.292,1.844l4.26-6.99l4.896-2.985l5.527,1.018l9.31,5.944l5.977-10.103l5.435,3.401l4.957-4.575l3.812,4.132
		l5.216-10.93l-12.265-11.631l4.164-4.61l-3.779-4.926l5.527,1.018l-0.604-4.798l18.237,1.529l3.05,3.305l4.896-2.986l10.104,5.976
		l-4.384-9.724l6.419-1.333l5.113,11.345l3.465-7.022l5.496,1.813l2.575-4.67l-4.512-6.546l1.876-7.085l7.721,5.88l8.896-3.62
		l5.021-6.163l7.911,1.113l3.433-6.227l6.862,7.437l6.449-2.128l4.421-10.961l7.116,1.082l5.367,4.989l3.401-5.433L292.997,141.709"
		/>
</g>
<g id="Legende_2_">
	<text transform="matrix(1.3612 0 0 1 625.8962 581.9648)" font-family="'MyriadPro-Regular'" font-size="12.0421">1. Amstetten</text>
	<text transform="matrix(1.3612 0 0 1 625.8962 596.415)" font-family="'MyriadPro-Regular'" font-size="12.0421">2. Baden</text>
	<text transform="matrix(1.3612 0 0 1 625.8962 610.8662)" font-family="'MyriadPro-Regular'" font-size="12.0421">3. Bruck a.d. L.</text>
	<text transform="matrix(1.3612 0 0 1 625.8962 625.3174)" font-family="'MyriadPro-Regular'" font-size="12.0421">4. Gänserndorf</text>
	<text transform="matrix(1.3612 0 0 1 625.8962 639.7686)" font-family="'MyriadPro-Regular'" font-size="12.0421">5. Gmünd</text>
	<text transform="matrix(1.3612 0 0 1 625.8962 654.2188)" font-family="'MyriadPro-Regular'" font-size="12.0421">6. Hollabrunn</text>
	<text transform="matrix(1.3612 0 0 1 625.8962 668.668)" font-family="'MyriadPro-Regular'" font-size="12.0421">7. Horn</text>
	<text transform="matrix(1.3612 0 0 1 625.8962 683.1191)" font-family="'MyriadPro-Regular'" font-size="12.0421">8. Korneuburg</text>
	<text transform="matrix(1.3612 0 0 1 625.8962 697.5693)" font-family="'MyriadPro-Regular'" font-size="12.0421">9. Krems Land</text>
	<text transform="matrix(1.3612 0 0 1 625.8962 712.0215)" font-family="'MyriadPro-Regular'" font-size="12.0421">10. Krems Stadt</text>
	<text transform="matrix(1.3612 0 0 1 625.8962 726.4717)" font-family="'MyriadPro-Regular'" font-size="12.0421">11. Lilienfeld</text>
	<text transform="matrix(1.3612 0 0 1 625.8962 740.9209)" font-family="'MyriadPro-Regular'" font-size="12.0421">12. Melk</text>
	<text transform="matrix(1.3612 0 0 1 625.8962 755.3721)" font-family="'MyriadPro-Regular'" font-size="12.0421">13. Mistelbach</text>
	<text transform="matrix(1.3612 0 0 1 766.8767 583.9648)" font-family="'MyriadPro-Regular'" font-size="12.0421">14. Mödling</text>
	<text transform="matrix(1.3612 0 0 1 766.8767 598.415)" font-family="'MyriadPro-Regular'" font-size="12.0421">15. Neunkirchen</text>
	<text transform="matrix(1.3612 0 0 1 766.8767 612.8662)" font-family="'MyriadPro-Regular'" font-size="12.0421">16. Scheibbs</text>
	<text transform="matrix(1.3612 0 0 1 766.8767 627.3174)" font-family="'MyriadPro-Regular'" font-size="12.0421">17. St. Pölten Land</text>
	<text transform="matrix(1.3612 0 0 1 766.8767 641.7686)" font-family="'MyriadPro-Regular'" font-size="12.0421">18. St. Pölten Stadt</text>
	<text transform="matrix(1.3612 0 0 1 766.8767 656.2188)" font-family="'MyriadPro-Regular'" font-size="12.0421">19. Tulln</text>
	<text transform="matrix(1.3612 0 0 1 766.8767 670.668)" font-family="'MyriadPro-Regular'" font-size="12.0421">20. Waidhofen a.d.Y.</text>
	<text transform="matrix(1.3612 0 0 1 766.8767 685.1191)" font-family="'MyriadPro-Regular'" font-size="12.0421">21. Wien Umgebung</text>
	<text transform="matrix(1.3612 0 0 1 766.8767 699.5693)" font-family="'MyriadPro-Regular'" font-size="12.0421">22. Wiener Neustadt</text>
	<text transform="matrix(1.3612 0 0 1 766.8767 714.0215)" font-family="'MyriadPro-Regular'" font-size="12.0421">23. Wiener Neustadt  </text>
	<text transform="matrix(1.3612 0 0 1 766.8767 728.4717)" font-family="'MyriadPro-Regular'" font-size="12.0421">      Stadt</text>
	<text transform="matrix(1.3612 0 0 1 766.8767 742.9209)" font-family="'MyriadPro-Regular'" font-size="12.0421">24. Waidhofen a.d. T.</text>
	<text transform="matrix(1.3612 0 0 1 766.8767 757.3721)" font-family="'MyriadPro-Regular'" font-size="12.0421">25. Zwettl</text>
</g>
<g id="Skala">
	<rect id="rect4459" x="787.979" y="105.325" fill="#111101" width="18.104" height="17.232"/>
	<text id="text3316" transform="matrix(1.0506 0 0 1 815.2371 120.2861)" font-family="'ArialMT'" font-size="18.7986">%legende1%</text>
	<rect id="rect4459-1" x="787.979" y="129.067" fill="#111102" width="18.104" height="17.235"/>
	<text id="text3319" transform="matrix(1.0506 0 0 1 815.2371 144.0303)" font-family="'ArialMT'" font-size="18.7986">%legende2%</text>
	<rect id="rect4459-2" x="787.979" y="152.811" fill="#111103" width="18.104" height="17.234"/>
	<text id="text3322" transform="matrix(1.0506 0 0 1 815.2371 167.7734)" font-family="'ArialMT'" font-size="18.7986">%legende3%</text>
	<rect id="rect4459-6" x="787.979" y="176.557" fill="#111104" width="18.104" height="17.231"/>
	<text id="text3325" transform="matrix(1.0506 0 0 1 815.2371 191.5186)" font-family="'ArialMT'" font-size="18.7986">%legende4%</text>
	<rect id="rect4459-29" x="787.979" y="200.297" fill="#111105" width="18.104" height="17.236"/>
	<text id="text3328" transform="matrix(1.0506 0 0 1 815.2371 215.2617)" font-family="'ArialMT'" font-size="18.7986">%legende5%</text>
	<rect id="rect4459-3" x="787.979" y="224.042" fill="#111106" width="18.104" height="17.234"/>
	<text id="text3331" transform="matrix(1.0506 0 0 1 815.2371 239.0059)" font-family="'ArialMT'" font-size="18.7986">%legende6%</text>
	<rect id="rect4459-8" x="787.979" y="247.787" fill="#111107" width="18.104" height="17.233"/>
	<text id="text3334" transform="matrix(1.0506 0 0 1 815.2371 262.75)" font-family="'ArialMT'" font-size="18.7986">%legende7%</text>
	<rect id="rect4459-9" x="787.979" y="271.528" fill="#111108" width="18.104" height="17.232"/>
	<text id="text3337" transform="matrix(1.0506 0 0 1 815.2371 286.4932)" font-family="'ArialMT'" font-size="18.7986">%legende8%</text>
	<rect id="rect4459-18" x="787.979" y="295.271" fill="#111109" width="18.104" height="17.235"/>
	<text id="text3340" transform="matrix(1.0506 0 0 1 815.2371 310.2354)" font-family="'ArialMT'" font-size="18.7986">%legende9%</text>
	<rect id="rect4459-18-6" x="787.979" y="319.016" fill="#111110" width="18.104" height="17.233"/>
	<text id="text3343" transform="matrix(1.0506 0 0 1 815.2371 333.9785)" font-family="'ArialMT'" font-size="18.7986">%legende10%</text>
</g>
<g id="Beschriftungen">
	<text id="Titel2" transform="matrix(1 0 0 1 362.7742 87.248)" font-family="'MyriadPro-Regular'" font-size="30">%titel2%</text>
	<text id="Titel1" transform="matrix(0.6758 0 0 1 361.2488 53.1328)" font-family="'ArialMT'" font-size="61.9146">%titel1%</text>
</g>
<g id="Kreise">
	<g id="Kreis23" transform="translate(-1099.4425,-1468.408)">
		<path id="path3841-8-9-2-0-6-5-2_1_" fill="#FFFFFF" stroke="#000000" d="M1649.433,2046.33c0,6.186-5.021,11.205-11.21,11.205
			c-6.189,0-11.208-5.021-11.208-11.205c0-6.191,5.018-11.209,11.208-11.209C1644.413,2035.121,1649.433,2040.139,1649.433,2046.33z
			"/>
		<text id="text3355" transform="matrix(1 0 0 1 1630.6688 2051.281)" font-family="'ArialMT'" font-size="13.7481">23</text>
	</g>
	<g id="Kreis22" transform="translate(-1099.4425,-1468.408)">
		<path id="path3841-8-9-2-0-6-5-2_4_" fill="#FFFFFF" stroke="#000000" d="M1552.807,2021.409c0,6.188-5.021,11.206-11.212,11.206
			c-6.188,0-11.206-5.021-11.206-11.206c0-6.188,5.021-11.209,11.206-11.209C1547.787,2010.2,1552.807,2015.219,1552.807,2021.409z"
			/>
		<text id="text3359" transform="matrix(1 0 0 1 1534.0409 2026.3611)" font-family="'ArialMT'" font-size="13.7481">22</text>
	</g>
	<g id="Kreis21" transform="translate(-1099.4425,-1468.408)">
		<path id="path3841-8-9-2-0-6-5-2_5_" fill="#FFFFFF" stroke="#000000" d="M1669.417,1826.576c0,6.186-5.018,11.206-11.212,11.206
			c-6.188,0-11.206-5.02-11.206-11.206c0-6.191,5.021-11.206,11.206-11.206C1664.401,1815.37,1669.417,1820.385,1669.417,1826.576z"
			/>
		<text id="text3363" transform="matrix(1 0 0 1 1650.6552 1831.531)" font-family="'ArialMT'" font-size="13.7481">21</text>
	</g>
	<g id="Kreis20" transform="translate(-1099.4425,-1468.408)">
		<path id="path3841-8-9-2-0-6-5-2_6_" fill="#FFFFFF" stroke="#000000" d="M1205.614,1983.128c0,6.188-5.017,11.206-11.211,11.206
			c-6.188,0-11.206-5.021-11.206-11.206c0-6.188,5.021-11.206,11.206-11.206C1200.599,1971.922,1205.614,1976.937,1205.614,1983.128
			z"/>
		<text id="text3367" transform="matrix(1 0 0 1 1186.8505 1988.0818)" font-family="'ArialMT'" font-size="13.7481">20</text>
	</g>
	<g id="Kreis19" transform="translate(-1099.4425,-1468.408)">
		<path id="path3841-8-9-2-0-6-5-2_7_" fill="#FFFFFF" stroke="#000000" d="M1569.504,1818.764c0,6.186-5.019,11.206-11.213,11.206
			c-6.188,0-11.206-5.021-11.206-11.206c0-6.191,5.021-11.206,11.206-11.206C1564.486,1807.558,1569.504,1812.573,1569.504,1818.764
			z"/>
		<text id="text3371" transform="matrix(1 0 0 1 1550.7391 1823.7185)" font-family="'ArialMT'" font-size="13.7481">19</text>
	</g>
	<g id="Kreis18" transform="translate(-1099.4425,-1468.408)">
		<path id="path3841-8-9-2-0-6-5-2_8_" fill="#FFFFFF" stroke="#000000" d="M1466.557,1868.826c0,6.188-5.021,11.206-11.212,11.206
			c-6.188,0-11.206-5.021-11.206-11.206c0-6.191,5.017-11.205,11.206-11.205C1461.536,1857.621,1466.557,1862.635,1466.557,1868.826
			z"/>
		<text id="text3375" transform="matrix(1 0 0 1 1447.0868 1873.7791)" font-family="'ArialMT'" font-size="13.7481">18</text>
	</g>
	<g id="Kreis17" transform="translate(-1099.4425,-1468.408)">
		<path id="path3841-8-9-2-0-6-5-2_9_" fill="#FFFFFF" stroke="#000000" d="M1521.766,1890.806c0,6.187-5.021,11.207-11.215,11.207
			c-6.188,0-11.206-5.021-11.206-11.207c0-6.19,5.021-11.209,11.206-11.209C1516.746,1879.601,1521.766,1884.616,1521.766,1890.806z
			"/>
		<text id="text3379" transform="matrix(1 0 0 1 1502.2968 1895.7595)" font-family="'ArialMT'" font-size="13.7481">17</text>
	</g>
	<g id="Kreis16" transform="translate(-1099.4425,-1468.408)">
		<path id="path3841-8-9-2-0-6-5-2_10_" fill="#FFFFFF" stroke="#000000" d="M1313.788,1991.451c0,6.188-5.021,11.206-11.211,11.206
			c-6.188,0-11.206-5.021-11.206-11.206c0-6.191,5.019-11.206,11.206-11.206C1308.771,1980.246,1313.788,1985.26,1313.788,1991.451z
			"/>
		<text id="text3383" transform="matrix(1 0 0 1 1294.3202 1996.406)" font-family="'ArialMT'" font-size="13.7481">16</text>
	</g>
	<g id="Kreis15" transform="translate(-1099.4425,-1468.408)">
		<path id="path3841-8-9-2-0-6-5-2_11_" fill="#FFFFFF" stroke="#000000" d="M1568.581,2108.824c0,6.188-5.018,11.206-11.212,11.206
			c-6.188,0-11.206-5.021-11.206-11.206c0-6.188,5.021-11.204,11.206-11.204C1563.565,2097.62,1568.581,2102.635,1568.581,2108.824z
			"/>
		<text id="text3387" transform="matrix(1 0 0 1 1549.1141 2113.7771)" font-family="'ArialMT'" font-size="13.7481">15</text>
	</g>
	<g id="Kreis14" transform="translate(-1099.4425,-1468.408)">
		<path id="path3841-8-9-2-0-6-5-2_12_" fill="#FFFFFF" stroke="#000000" d="M1651.85,1926.644c0,6.188-5.02,11.208-11.211,11.208
			c-6.188,0-11.206-5.021-11.206-11.208c0-6.191,5.017-11.207,11.206-11.207C1646.831,1915.437,1651.85,1920.452,1651.85,1926.644z"
			/>
		<text id="text3391" transform="matrix(1 0 0 1 1632.3817 1931.5955)" font-family="'ArialMT'" font-size="13.7481">14</text>
	</g>
	<g id="Kreis13" transform="translate(-1099.4425,-1468.408)">
		<path id="path3841-8-9-2-0-6-5-2_13_" fill="#FFFFFF" stroke="#000000" d="M1741.284,1677.331c0,6.188-5.021,11.205-11.211,11.205
			c-6.188,0-11.206-5.021-11.206-11.205c0-6.191,5.018-11.207,11.206-11.207C1736.267,1666.124,1741.284,1671.139,1741.284,1677.331
			z"/>
		<text id="text3395" transform="matrix(1 0 0 1 1721.8173 1682.281)" font-family="'ArialMT'" font-size="13.7481">13</text>
	</g>
	<g id="Kreis12" transform="translate(-1099.4425,-1468.408)">
		<path id="path3841-8-9-2-0-6-5-2_14_" fill="#FFFFFF" stroke="#000000" d="M1338.526,1863.95c0,6.187-5.021,11.205-11.213,11.205
			c-6.188,0-11.205-5.021-11.205-11.205c0-6.19,5.018-11.206,11.205-11.206C1333.505,1852.744,1338.526,1857.76,1338.526,1863.95z"
			/>
		<text id="text3399" transform="matrix(1 0 0 1 1319.0536 1868.9001)" font-family="'ArialMT'" font-size="13.7481">12</text>
	</g>
	<g id="Kreis11" transform="translate(-1099.4425,-1468.408)">
		<path id="path3841-8-9-2-0-6-5-2_3_" fill="#FFFFFF" stroke="#000000" d="M1473.893,1971.444c0,6.188-5.021,11.205-11.21,11.205
			c-6.188,0-11.208-5.021-11.208-11.205c0-6.188,5.018-11.209,11.208-11.209C1468.879,1960.235,1473.893,1965.252,1473.893,1971.444
			z"/>
		<text id="text3403" transform="matrix(1 0 0 1 1455.1298 1976.3962)" font-family="'ArialMT'" font-size="13.7481">11</text>
	</g>
	<g id="Kreis10" transform="translate(-1099.4425,-1468.408)">
		<path id="path3841-8-9-2-0-6-5-2_2_" fill="#FFFFFF" stroke="#000000" d="M1458.866,1772.881c0,6.186-5.018,11.206-11.21,11.206
			c-6.188,0-11.207-5.021-11.207-11.206c0-6.19,5.021-11.209,11.207-11.209C1453.852,1761.672,1458.866,1766.691,1458.866,1772.881z
			"/>
		<text id="text3407" transform="matrix(1 0 0 1 1439.7489 1777.8337)" font-family="'ArialMT'" font-size="13.7481">10</text>
	</g>
	<g id="Kreis09" transform="translate(-1099.4425,-1468.408)">
		<path id="path3841-8-9-2-0-6-5-2_23_" fill="#FFFFFF" stroke="#000000" d="M1422.629,1732.403c0,6.186-5.018,11.206-11.212,11.206
			c-6.188,0-11.206-5.021-11.206-11.206c0-6.191,5.021-11.206,11.206-11.206C1417.612,1721.197,1422.629,1726.212,1422.629,1732.403
			z"/>
		<text id="text3411" transform="matrix(1 0 0 1 1407.7352 1737.3542)" font-family="'ArialMT'" font-size="13.7481">9</text>
	</g>
	<g id="Kreis08" transform="translate(-1099.4425,-1468.408)">
		<path id="path3841-8-9-2-0-6-5-2_22_" fill="#FFFFFF" stroke="#000000" d="M1664.398,1768.832c0,6.188-5.018,11.205-11.211,11.205
			c-6.188,0-11.206-5.02-11.206-11.205c0-6.188,5.018-11.202,11.206-11.202C1659.386,1757.627,1664.398,1762.64,1664.398,1768.832z"
			/>
		<text id="text3415" transform="matrix(1 0 0 1 1649.5048 1773.783)" font-family="'ArialMT'" font-size="13.7481">8</text>
	</g>
	<g id="Kreis07" transform="translate(-1099.4425,-1468.408)">
		<path id="path3841-8-9-2-0-6-5-2_21_" fill="#FFFFFF" stroke="#000000" d="M1477.537,1641.034c0,6.186-5.017,11.205-11.211,11.205
			c-6.188,0-11.206-5.021-11.206-11.205c0-6.191,5.021-11.206,11.206-11.206C1472.522,1629.828,1477.537,1634.843,1477.537,1641.034
			z"/>
		<text id="text3419" transform="matrix(1 0 0 1 1462.6444 1645.9841)" font-family="'ArialMT'" font-size="13.7481">7</text>
	</g>
	<g id="Kreis06" transform="translate(-1099.4425,-1468.408)">
		<path id="path3841-8-9-2-0-6-5-2_20_" fill="#FFFFFF" stroke="#000000" d="M1600.117,1693.017c0,6.187-5.018,11.207-11.212,11.207
			c-6.188,0-11.206-5.021-11.206-11.207c0-6.19,5.018-11.205,11.206-11.205C1595.1,1681.812,1600.117,1686.827,1600.117,1693.017z"
			/>
		<text id="text3423" transform="matrix(1 0 0 1 1585.2235 1697.9685)" font-family="'ArialMT'" font-size="13.7481">6</text>
	</g>
	<g id="Kreis05" transform="translate(-1099.4425,-1468.408)">
		<path id="path3841-8-9-2-0-6-5-2_19_" fill="#FFFFFF" stroke="#000000" d="M1245.072,1644.109c0,6.186-5.017,11.206-11.212,11.206
			c-6.188,0-11.206-5.021-11.206-11.206c0-6.191,5.019-11.206,11.206-11.206C1240.057,1632.903,1245.072,1637.917,1245.072,1644.109
			z"/>
		<text id="text3427" transform="matrix(1 0 0 1 1230.1796 1649.0603)" font-family="'ArialMT'" font-size="13.7481">5</text>
	</g>
	<g id="Kreis04" transform="translate(-1099.4425,-1468.408)">
		<path id="path3841-8-9-2-0-6-5-2_18_" fill="#FFFFFF" stroke="#000000" d="M1805.447,1853.686c0,6.187-5.018,11.207-11.211,11.207
			c-6.188,0-11.206-5.021-11.206-11.207c0-6.19,5.021-11.207,11.206-11.207C1800.432,1842.48,1805.447,1847.495,1805.447,1853.686z"
			/>
		<text id="text3431" transform="matrix(1 0 0 1 1790.5536 1858.2849)" font-family="'ArialMT'" font-size="13.7481">4</text>
	</g>
	<g id="Kreis03" transform="translate(-1099.4425,-1468.408)">
		<path id="path3841-8-9-2-0-6-5-2_15_" fill="#FFFFFF" stroke="#000000" d="M1801.227,1934.764c0,6.186-5.021,11.206-11.211,11.206
			c-6.188,0-11.206-5.021-11.206-11.206c0-6.189,5.018-11.206,11.206-11.206C1796.207,1923.558,1801.227,1928.573,1801.227,1934.764
			z"/>
		<text id="text3435" transform="matrix(1 0 0 1 1786.3329 1939.363)" font-family="'ArialMT'" font-size="13.7481">3</text>
	</g>
	<g id="Kreis02" transform="translate(-1099.4425,-1468.408)">
		<path id="path3841-8-9-2-0-6-5-2_16_" fill="#FFFFFF" stroke="#000000" d="M1620.415,1976.667c0,6.188-5.021,11.206-11.212,11.206
			c-6.188,0-11.206-5.02-11.206-11.206c0-6.188,5.021-11.206,11.206-11.206C1615.396,1965.461,1620.415,1970.476,1620.415,1976.667z
			"/>
		<text id="text3439" transform="matrix(1 0 0 1 1605.5204 1981.2654)" font-family="'ArialMT'" font-size="13.7481">2</text>
	</g>
	<g id="Kreis01-2" transform="translate(-1099.4425,-1468.408)">
		<path id="path3841-8-9-2-0-6-5-2_26_" fill="#FFFFFF" stroke="#000000" d="M1223.062,2027.702c0,6.188-5.018,11.206-11.211,11.206
			c-6.188,0-11.207-5.021-11.207-11.206c0-6.188,5.018-11.207,11.207-11.207C1218.047,2016.495,1223.062,2021.511,1223.062,2027.702
			z"/>
		<text id="text3443" transform="matrix(1 0 0 1 1207.8173 2033.0056)" font-family="'ArialMT'" font-size="13.7481">1</text>
	</g>
	<g id="Kreis01" transform="translate(-1099.4425,-1468.408)">
		<path id="path3841-8-9-2-0-6-5-2_17_" fill="#FFFFFF" stroke="#000000" d="M1197.483,1921.966c0,6.188-5.019,11.206-11.211,11.206
			c-6.188,0-11.207-5.021-11.207-11.206c0-6.188,5.018-11.207,11.207-11.207C1192.466,1910.76,1197.483,1915.775,1197.483,1921.966z
			"/>
		<text id="text3447" transform="matrix(1 0 0 1 1182.2382 1927.2693)" font-family="'ArialMT'" font-size="13.7481">1</text>
	</g>
	<g id="Kreis24" transform="translate(-1099.4425,-1468.408)">
		<path id="path3841-8-9-2-0-6-5-2_24_" fill="#FFFFFF" stroke="#000000" d="M1387.907,1574.962c0,6.186-5.021,11.205-11.21,11.205
			c-6.189,0-11.208-5.021-11.208-11.205c0-6.191,5.019-11.209,11.208-11.209C1382.891,1563.753,1387.907,1568.77,1387.907,1574.962z
			"/>
		<text id="text3451" transform="matrix(1 0 0 1 1369.1425 1579.9128)" font-family="'ArialMT'" font-size="13.7481">24</text>
	</g>
	<g id="Kreis25" transform="translate(-1099.4425,-1468.408)">
		<path id="path3841-8-9-2-0-6-5-2_25_" fill="#FFFFFF" stroke="#000000" d="M1312.906,1721.593c0,6.186-5.021,11.205-11.21,11.205
			c-6.189,0-11.208-5.021-11.208-11.205c0-6.191,5.019-11.209,11.208-11.209C1307.888,1710.384,1312.906,1715.402,1312.906,1721.593
			z"/>
		<text id="text3455" transform="matrix(1 0 0 1 1294.1415 1726.5447)" font-family="'ArialMT'" font-size="13.7481">25</text>
	</g>
	<g id="Kreis21_1_" transform="translate(-1099.4425,-1468.408)">
		<path id="path3841-8-9-2-0-6-5-2_27_" fill="#FFFFFF" stroke="#000000" d="M1732.365,1920.786c0,6.188-5.018,11.206-11.212,11.206
			c-6.188,0-11.206-5.021-11.206-11.206c0-6.188,5.021-11.206,11.206-11.206C1727.349,1909.58,1732.365,1914.595,1732.365,1920.786z
			"/>
		<text id="text3459" transform="matrix(1 0 0 1 1713.6024 1925.74)" font-family="'ArialMT'" font-size="13.7481">21</text>
	</g>
	<g id="Kreis21_2_" transform="translate(-1099.4425,-1468.408)">
		<path id="path3841-8-9-2-0-6-5-2_28_" fill="#FFFFFF" stroke="#000000" d="M1724.473,1822.102c0,6.186-5.021,11.206-11.212,11.206
			c-6.188,0-11.207-5.021-11.207-11.206c0-6.191,5.021-11.206,11.207-11.206C1719.453,1810.896,1724.473,1815.911,1724.473,1822.102
			z"/>
		<text id="text3463" transform="matrix(1 0 0 1 1705.7079 1827.0564)" font-family="'ArialMT'" font-size="13.7481">21</text>
	</g>
	<g id="Kreis21_3_" transform="translate(-1099.4425,-1468.408)">
		<path id="path3841-8-9-2-0-6-5-2_29_" fill="#FFFFFF" stroke="#000000" d="M1613.944,1874.735c0,6.187-5.018,11.206-11.212,11.206
			c-6.188,0-11.206-5.021-11.206-11.206c0-6.191,5.021-11.206,11.206-11.206C1608.929,1863.529,1613.944,1868.543,1613.944,1874.735
			z"/>
		<text id="text3467" transform="matrix(1 0 0 1 1595.1805 1879.6892)" font-family="'ArialMT'" font-size="13.7481">21</text>
	</g>
	<g id="Kreis22_1_" transform="translate(-1099.4425,-1468.408)">
		<path id="path3841-8-9-2-0-6-5-2_30_" fill="#FFFFFF" stroke="#000000" d="M1662.174,2138.988c0,6.186-5.019,11.206-11.212,11.206
			c-6.188,0-11.207-5.021-11.207-11.206c0-6.191,5.021-11.209,11.207-11.209C1657.156,2127.779,1662.174,2132.796,1662.174,2138.988
			z"/>
		<text id="text3471" transform="matrix(1 0 0 1 1643.411 2143.9392)" font-family="'ArialMT'" font-size="13.7481">22</text>
	</g>
</g>
<text transform="matrix(1 0 0 1 0.9197 671.2041)" font-family="'MyriadPro-Regular'" font-size="14.2709">Visualisierung erstellt mit</text>
<text transform="matrix(1 0 0 1 37.7097 688.3291)" font-family="'MyriadPro-Regular'" font-size="14.2709">DataMaps.eu</text>
<text transform="matrix(1 0 0 1 12.8147 705.4541)" font-family="'MyriadPro-Regular'" font-size="14.2709">provided by open3.at</text>
<g id="open3-logo">
	<path fill="#007CC1" d="M90.511,735.392c0-3.04-1.449-4.772-3.251-5.729c1.661-0.884,2.897-2.438,2.897-5.16
		c0-4.235-3.221-7.211-7.668-7.211c-4.241,0-7.604,2.688-7.704,7.178h4.594c0.106-1.905,1.378-3.036,3.11-3.036
		c1.656,0,3.069,1.095,3.069,3.216c0,1.767-0.954,3.145-3.181,3.145h-0.671v3.994h0.671c2.262,0,3.535,1.378,3.535,3.464
		c0,2.265-1.414,3.498-3.396,3.498c-1.802,0-3.354-1.021-3.428-3.286H74.5c0.07,5.271,3.922,7.421,8.021,7.421
		C86.838,742.883,90.511,740.41,90.511,735.392z"/>
	<path fill="#9C9D9F" d="M8.451,730.548c0,5.833-2.326,9.688-6.076,9.688c-3.611,0-6.284-3.854-6.284-10.381
		c0-5.694,2.152-9.548,6.076-9.548C5.985,720.305,8.451,724.194,8.451,730.548z M12.965,730.271c0-7.813-4.479-12.644-10.729-12.644
		s-10.692,4.829-10.692,12.644c0,8.332,4.756,12.915,10.689,12.915C8.174,743.186,12.965,738.603,12.965,730.271z"/>
	<path fill="#9C9D9F" d="M28.081,733.395c0,4.375-1.84,7.321-4.757,7.321c-1.354,0-2.152-0.416-2.708-0.862v-11.527
		c0-1.251,0.863-1.91,2.604-1.91C25.616,726.416,28.081,728.639,28.081,733.395z M32.108,733.187c0-4.86-2.356-8.958-8.779-8.958
		c-2.188,0-4.409,0.556-5.352,1.181c-0.972,0.66-1.314,1.284-1.314,2.535v20.106c0,0.417,0.208,0.596,0.625,0.596h2.738
		c0.417,0,0.595-0.179,0.595-0.596v-5.904c0.446,0.313,1.667,0.937,3.398,0.937C29.469,743.081,32.108,738.014,32.108,733.187z"/>
	<path fill="#9C9D9F" d="M46.302,730.617l-7.534,1.285c0.144-2.709,1.319-5.486,4.102-5.486
		C45.331,726.416,46.199,728.465,46.302,730.617z M50.191,737.249c0-0.451-0.347-0.868-0.798-0.868
		c-0.417,0-0.729,0.313-0.898,0.625c-0.729,1.284-2.188,2.951-4.409,2.951c-3.333,0-4.936-2.813-5.144-6.076l10.104-1.666
		c0.729-0.104,1.042-0.348,1.042-1.106c0-3.509-2.465-6.875-6.805-6.875c-4.137,0-7.951,2.882-7.951,9.34
		c0,6.806,3.75,9.549,7.951,9.549C47.725,743.117,50.191,739.332,50.191,737.249z"/>
	<path fill="#9C9D9F" d="M68.689,742.075v-12.5c0-4.166-3.75-5.347-7.43-5.347c-2.569,0-4.687,0.481-5.833,1.042
		c-1.042,0.521-1.389,1.007-1.389,2.147v14.652c0,0.416,0.208,0.59,0.625,0.59h2.743c0.416,0,0.625-0.174,0.625-0.59v-13.4
		c0-1.106,0.273-2.291,3.09-2.291c2.773,0,3.605,1.666,3.605,3.367v12.326c0,0.416,0.179,0.59,0.595,0.59h2.773
		C68.515,742.665,68.689,742.491,68.689,742.075z"/>
	<path fill="#007CC1" d="M96.66,741.102c0-2.474-3.481-2.002-3.481-3.611c0-0.688,0.455-1.104,1.169-1.104
		c0.702,0,1,0.48,1.169,0.857c0.091,0.195,0.247,0.363,0.481,0.363c0.286,0,0.494-0.156,0.494-0.479
		c0-0.438-0.642-1.378-2.117-1.378c-1.299,0-2.234,0.688-2.234,1.871c0,2.246,3.442,1.779,3.442,3.597
		c0,0.624-0.416,1.131-1.221,1.131c-0.758,0-1.174-0.624-1.343-1.063c-0.073-0.222-0.229-0.39-0.519-0.39
		c-0.313,0-0.521,0.189-0.521,0.519c0,0.546,0.849,1.638,2.343,1.638C95.829,743.05,96.66,742.218,96.66,741.102z"/>
	<path fill="#007CC1" d="M103.23,739.452c0,1.701-0.714,2.87-1.936,2.87c-1.169,0-2.026-1.169-2.026-3.092
		c0-1.649,0.702-2.811,1.961-2.811C102.452,736.425,103.23,737.595,103.23,739.452z M104.374,739.36
		c0-2.222-1.273-3.611-3.117-3.611c-1.845,0-3.131,1.39-3.131,3.611c0,2.377,1.377,3.688,3.131,3.688
		S104.374,741.737,104.374,739.36z"/>
	<path fill="#007CC1" d="M111.359,741.723c0-0.172-0.09-0.271-0.242-0.271c-0.095,0-0.168,0.052-0.265,0.129
		c-0.286,0.286-0.766,0.676-1.605,0.676c-1.325,0-2.208-1.299-2.208-3.104c0-1.754,0.793-2.753,1.923-2.753
		c0.948,0,1.271,0.597,1.428,0.922c0.091,0.182,0.234,0.364,0.481,0.364c0.286,0,0.488-0.17,0.488-0.481
		c0-0.468-0.752-1.455-2.338-1.455c-1.982,0-3.112,1.649-3.112,3.586c0,2.018,1.04,3.715,3.19,3.715
		C110.464,743.05,111.359,742.127,111.359,741.723z"/>
	<path fill="#007CC1" d="M114.115,742.751v-6.702c0-0.104-0.057-0.151-0.156-0.151h-0.779c-0.104,0-0.156,0.052-0.156,0.151v6.702
		c0,0.104,0.057,0.156,0.156,0.156h0.779C114.062,742.907,114.115,742.854,114.115,742.751z"/>
	<path fill="#007CC1" d="M120.139,742.751v-0.403c0-0.104-0.052-0.151-0.156-0.151h-2.606v-2.585h2.222
		c0.104,0,0.156-0.055,0.156-0.154v-0.377c0-0.104-0.052-0.156-0.156-0.156h-2.222v-2.313h2.606c0.104,0,0.156-0.055,0.156-0.155
		v-0.405c0-0.104-0.052-0.151-0.156-0.151h-3.546c-0.104,0-0.151,0.052-0.151,0.151v6.702c0,0.104,0.052,0.156,0.151,0.156h3.546
		C120.088,742.907,120.139,742.854,120.139,742.751z"/>
	<path fill="#007CC1" d="M125.957,736.451v-0.402c0-0.104-0.065-0.151-0.169-0.151h-4.481c-0.104,0-0.168,0.052-0.168,0.151v0.402
		c0,0.104,0.064,0.155,0.168,0.155h1.701v6.131c0,0.116,0.052,0.17,0.169,0.17h0.753c0.117,0,0.169-0.054,0.169-0.17v-6.131h1.688
		C125.891,736.606,125.957,736.555,125.957,736.451z"/>
	<path fill="#007CC1" d="M131.916,736.049c0-0.104-0.065-0.151-0.168-0.151h-0.585c-0.117,0-0.169,0.039-0.234,0.143l-1.559,2.779
		h-0.026l-1.52-2.779c-0.065-0.104-0.118-0.143-0.234-0.143h-0.792c-0.104,0-0.156,0.052-0.156,0.151
		c0,0.038,0.018,0.096,0.039,0.146l2.053,3.455v3.104c0,0.104,0.057,0.156,0.156,0.156h0.779c0.104,0,0.156-0.054,0.156-0.156
		v-3.104l2.052-3.455C131.903,736.152,131.916,736.087,131.916,736.049z"/>
	<path fill="#007CC1" d="M96.841,730.02c0,1.806-0.792,2.924-2.571,2.924c-0.338,0-0.637-0.04-0.806-0.066v-5.715
		c0.13-0.026,0.455-0.052,0.806-0.052C95.984,727.11,96.841,728.214,96.841,730.02z M97.971,730.032
		c0-2.155-1.182-3.572-3.767-3.572c-0.811,0-1.507,0.092-1.676,0.146c-0.135,0.038-0.155,0.104-0.155,0.22v6.442
		c0,0.112,0.021,0.183,0.155,0.221c0.182,0.053,1.001,0.143,1.676,0.143C96.79,733.63,97.971,732.293,97.971,730.032z"/>
	<path fill="#007CC1" d="M103.218,730.695h-2.234l0.779-2.195c0.208-0.585,0.324-1.271,0.324-1.271h0.026
		c0,0,0.13,0.688,0.338,1.271L103.218,730.695z M105.283,733.41c0-0.04-0.026-0.117-0.039-0.156l-2.521-6.559
		c-0.039-0.104-0.078-0.156-0.19-0.156h-0.719c-0.13,0-0.169,0.052-0.208,0.156l-2.507,6.559c-0.021,0.053-0.039,0.116-0.039,0.156
		c0,0.091,0.057,0.143,0.156,0.143h0.61c0.111,0,0.168-0.052,0.208-0.15l0.735-2.079h2.649l0.728,2.079
		c0.039,0.104,0.096,0.15,0.195,0.15h0.778C105.23,733.553,105.283,733.501,105.283,733.41z"/>
	<path fill="#007CC1" d="M110.398,727.098v-0.402c0-0.104-0.063-0.156-0.169-0.156h-4.479c-0.104,0-0.169,0.052-0.169,0.156v0.402
		c0,0.104,0.063,0.15,0.169,0.15h1.701v6.131c0,0.117,0.052,0.169,0.169,0.169h0.753c0.117,0,0.169-0.052,0.169-0.169v-6.13h1.688
		C110.334,727.253,110.398,727.201,110.398,727.098z"/>
	<path fill="#007CC1" d="M114.851,730.695h-2.229l0.774-2.195c0.208-0.585,0.325-1.271,0.325-1.271h0.026
		c0,0,0.13,0.688,0.338,1.271L114.851,730.695z M116.917,733.41c0-0.04-0.026-0.117-0.039-0.156l-2.521-6.559
		c-0.04-0.104-0.074-0.156-0.191-0.156h-0.714c-0.135,0-0.169,0.052-0.208,0.156l-2.512,6.559c-0.021,0.053-0.039,0.116-0.039,0.156
		c0,0.091,0.057,0.143,0.156,0.143h0.61c0.117,0,0.169-0.052,0.208-0.15l0.74-2.079h2.646l0.729,2.079
		c0.039,0.104,0.091,0.15,0.19,0.15h0.779C116.865,733.553,116.917,733.501,116.917,733.41z"/>
	<path fill="#007CC1" d="M97.868,723.303v-2.624c0-0.104-0.078-0.151-0.187-0.151h-2.14c-0.104,0-0.155,0.053-0.155,0.151v0.354
		c0,0.104,0.051,0.168,0.155,0.168h1.299v1.715c0,0.416-0.624,0.701-1.467,0.701c-1.221,0-2.146-1.26-2.146-3.117
		c0-1.688,0.753-2.806,2.079-2.806c1.026,0,1.402,0.605,1.563,0.922c0.091,0.196,0.221,0.352,0.479,0.352
		c0.313,0,0.481-0.183,0.481-0.479c0-0.43-0.65-1.442-2.434-1.442c-2.021,0-3.312,1.469-3.312,3.611
		c0,2.312,1.376,3.688,3.337,3.688C96.815,724.342,97.868,723.81,97.868,723.303z"/>
	<path fill="#007CC1" d="M104.749,720.744c0,1.701-0.714,2.87-1.938,2.87c-1.169,0-2.021-1.169-2.021-3.092
		c0-1.649,0.701-2.81,1.961-2.81C103.969,717.718,104.749,718.887,104.749,720.744z M105.891,720.653
		c0-2.221-1.271-3.611-3.118-3.611c-1.844,0-3.13,1.396-3.13,3.611c0,2.377,1.376,3.688,3.13,3.688
		C104.528,724.342,105.891,723.03,105.891,720.653z"/>
	<path fill="#007CC1" d="M112.826,717.341c0-0.104-0.064-0.15-0.168-0.15h-0.663c-0.117,0-0.169,0.052-0.208,0.15l-1.642,4.729
		c-0.143,0.43-0.242,0.948-0.242,0.948h-0.026c0,0-0.078-0.521-0.221-0.948l-1.61-4.729c-0.04-0.104-0.104-0.15-0.208-0.15h-0.832
		c-0.104,0-0.156,0.052-0.156,0.15c0,0.039,0.019,0.104,0.04,0.156l2.455,6.546c0.039,0.104,0.091,0.156,0.208,0.156h0.545
		c0.13,0,0.187-0.052,0.227-0.156l2.467-6.546C112.813,717.445,112.826,717.38,112.826,717.341z"/>
	<path fill="#007CC1" d="M118.058,724.043v-0.397c0-0.104-0.052-0.155-0.151-0.155h-2.611v-2.586h2.221
		c0.104,0,0.156-0.053,0.156-0.155v-0.377c0-0.104-0.052-0.156-0.156-0.156h-2.221v-2.312h2.61c0.104,0,0.152-0.057,0.152-0.156
		v-0.402c0-0.104-0.052-0.15-0.152-0.15h-3.549c-0.104,0-0.151,0.052-0.151,0.15v6.702c0,0.104,0.052,0.156,0.151,0.156h3.549
		C118.007,724.199,118.058,724.147,118.058,724.043z"/>
	<path fill="#007CC1" d="M123.2,719.186c0,0.854-0.624,1.429-1.792,1.429c-0.265,0-0.473,0-0.585-0.013v-2.831
		c0.169-0.027,0.416-0.065,0.832-0.065C122.732,717.705,123.2,718.225,123.2,719.186z M124.577,724.043
		c0-0.038-0.026-0.09-0.056-0.143l-1.144-2.092c-0.208-0.394-0.558-0.739-0.805-0.856v-0.025c0.832-0.191,1.7-0.793,1.7-1.814
		c0-1.187-0.738-2-2.608-2c-0.845,0-1.546,0.091-1.741,0.143c-0.13,0.039-0.156,0.091-0.156,0.208v6.585
		c0,0.104,0.057,0.156,0.156,0.156h0.74c0.104,0,0.156-0.052,0.156-0.156v-2.922h0.468c0.467,0,0.792,0.416,0.974,0.779l1.092,2.17
		c0.039,0.077,0.135,0.129,0.265,0.129h0.805C124.525,724.199,124.577,724.147,124.577,724.043z"/>
	<path fill="#007CC1" d="M131.899,724.043v-6.702c0-0.104-0.052-0.15-0.151-0.15h-0.563c-0.104,0-0.151,0.052-0.151,0.15v4.248
		c0,0.584,0.073,1.272,0.073,1.272h-0.038c0,0-0.3-0.642-0.638-1.13l-3-4.396c-0.063-0.104-0.117-0.15-0.229-0.15h-0.85
		c-0.104,0-0.151,0.052-0.151,0.15v6.702c0,0.104,0.053,0.156,0.151,0.156h0.571c0.104,0,0.156-0.052,0.156-0.156v-4.585
		c0-0.521-0.065-1.208-0.065-1.208h0.026c0,0,0.299,0.637,0.605,1.104l3.195,4.688c0.065,0.104,0.104,0.156,0.234,0.156h0.662
		C131.847,724.199,131.899,724.147,131.899,724.043z"/>
	<path fill="#007CC1" d="M141.43,724.07c0-0.04-0.675-6.729-0.675-6.729c-0.013-0.104-0.052-0.15-0.155-0.15h-0.845
		c-0.104,0-0.156,0.063-0.195,0.15l-1.701,4.521c-0.169,0.456-0.271,1.015-0.271,1.015h-0.026c0,0-0.114-0.559-0.286-1.015
		l-1.688-4.521c-0.039-0.091-0.091-0.15-0.195-0.15h-0.854c-0.104,0-0.146,0.052-0.156,0.15c0,0-0.675,6.689-0.675,6.729
		c0,0.09,0.063,0.129,0.154,0.129h0.638c0.104,0,0.143-0.052,0.154-0.156l0.36-4.546c0.04-0.559,0.04-1.338,0.04-1.338h0.026
		c0,0,0.182,0.779,0.39,1.338l1.688,4.563c0.039,0.104,0.078,0.143,0.19,0.143h0.325c0.117,0,0.156-0.039,0.194-0.143l1.688-4.563
		c0.208-0.571,0.395-1.338,0.395-1.338h0.021c0,0,0,0.779,0.039,1.338l0.364,4.546c0.013,0.104,0.052,0.156,0.156,0.156h0.754
		C141.392,724.199,141.43,724.16,141.43,724.07z"/>
	<path fill="#007CC1" d="M147.094,724.043v-0.397c0-0.104-0.052-0.155-0.156-0.155h-2.606v-2.586h2.221
		c0.104,0,0.156-0.053,0.156-0.155v-0.377c0-0.104-0.052-0.156-0.156-0.156h-2.221v-2.312h2.606c0.104,0,0.156-0.057,0.156-0.156
		v-0.402c0-0.104-0.052-0.15-0.156-0.15h-3.547c-0.104,0-0.156,0.052-0.156,0.15v6.702c0,0.104,0.057,0.156,0.156,0.156h3.547
		C147.043,724.199,147.094,724.147,147.094,724.043z"/>
	<path fill="#007CC1" d="M154.483,724.043v-6.702c0-0.104-0.052-0.15-0.151-0.15h-0.563c-0.104,0-0.151,0.052-0.151,0.15v4.248
		c0,0.584,0.073,1.272,0.073,1.272h-0.038c0,0-0.3-0.642-0.637-1.13l-3-4.396c-0.063-0.104-0.117-0.15-0.229-0.15h-0.849
		c-0.104,0-0.151,0.052-0.151,0.15v6.702c0,0.104,0.052,0.156,0.151,0.156h0.572c0.104,0,0.155-0.052,0.155-0.156v-4.585
		c0-0.521-0.065-1.208-0.065-1.208h0.026c0,0,0.299,0.637,0.61,1.104l3.19,4.688c0.065,0.104,0.104,0.156,0.234,0.156h0.663
		C154.43,724.199,154.483,724.147,154.483,724.043z"/>
	<path fill="#007CC1" d="M160.716,717.743v-0.402c0-0.104-0.065-0.15-0.169-0.15h-4.481c-0.104,0-0.169,0.052-0.169,0.15v0.402
		c0,0.104,0.065,0.156,0.169,0.156h1.702v6.131c0,0.117,0.057,0.169,0.168,0.169h0.753c0.117,0,0.169-0.052,0.169-0.169v-6.131
		h1.688C160.65,717.899,160.716,717.848,160.716,717.743z"/>
</g>
</svg>
