<?xml version="1.0" encoding="utf-8"?>
<!-- Generator: Adobe Illustrator 13.0.2, SVG Export Plug-In . SVG Version: 6.00 Build 14948)  -->
<!DOCTYPE svg PUBLIC "-//W3C//DTD SVG 1.1//EN" "http://www.w3.org/Graphics/SVG/1.1/DTD/svg11.dtd">
<svg version="1.1"
	 id="Bundesländer_1_" xmlns:dc="http://purl.org/dc/elements/1.1/" xmlns:cc="http://creativecommons.org/ns#" xmlns:rdf="http://www.w3.org/1999/02/22-rdf-syntax-ns#" xmlns:svg="http://www.w3.org/2000/svg" xmlns:sodipodi="http://sodipodi.sourceforge.net/DTD/sodipodi-0.dtd" xmlns:inkscape="http://www.inkscape.org/namespaces/inkscape" sodipodi:docname="kaernten.svg" inkscape:version="0.48.0 r9654"
	 xmlns="http://www.w3.org/2000/svg" xmlns:xlink="http://www.w3.org/1999/xlink" x="0px" y="0px" width="1307.33px"
	 height="787.48px" viewBox="0 200.48 1307.33 787.48" enable-background="new 0 200.48 1307.33 787.48" xml:space="preserve">
<g id="Bezirke" transform="matrix(1.7317682,0,0,1.7317682,-36.457818,191.00902)">
	
		<path id="Feldkirchen" inkscape:connector-curvature="0" fill="#123456" stroke="#7B7979" stroke-width="1.7378" stroke-linecap="round" stroke-linejoin="round" stroke-miterlimit="10" d="
		M435.405,179.153l1.527,19.088l4.581,3.818l6.109,3.817l4.581-1.527l11.454,3.054l4.581,5.345l9.162-9.163h0.764l-3.818,4.581
		l2.291,1.528l-1.528,4.581l-5.344,7.635l8.399,2.291l2.291-3.054l9.162,6.108l-3.818,2.291v3.818l6.109,3.054l4.581-3.818
		l3.818,3.054v5.345l-7.635,4.581l1.527,3.055l4.581-1.527l-0.764,5.345h17.562l0.763,3.82l-3.817,1.528l-4.581,11.452h-13.744
		l-6.872,9.926l-6.871-3.817l-3.818,5.344h-4.581l-7.636-0.762l-10.69,6.871l-11.452-1.526l-13.744,5.344l-12.217,3.055l5.345-2.291
		l2.291-5.345v-0.763l2.291-4.582l-12.216-8.399l12.216-9.162l-6.108-16.801l-4.581-0.764l-3.818-6.108l-9.926,4.581l-6.872-8.399
		l-8.399-0.765l4.582-6.871l0.763-14.507l-3.817-2.29l1.527-5.345l-8.399-2.291l1.527-6.108l-8.399-5.345l1.527-13.743l3.818-3.054
		h2.291l9.926,3.818l3.054-3.054l6.872-0.764l5.345-6.872l10.69-4.585l3.817,1.527l-0.763,9.166l11.452,0.764L435.405,179.153"/>
	
		<path id="Hermagor" inkscape:connector-curvature="0" fill="#123456" stroke="#7B7979" stroke-width="1.7378" stroke-linecap="round" stroke-linejoin="round" stroke-miterlimit="10" d="
		M81.888,246.343l0.764,3.054h8.399l0.763,3.054l9.927,2.29l-2.291,4.585l6.108,3.817l2.29-4.581l4.581,3.054l16.034-2.29
		l9.162,6.871l19.852,4.581h6.108l5.344,6.873h5.345l3.818,0.763l16.797-4.581h5.345l6.872-7.637h6.872l10.689,9.164l7.636-3.055
		l4.581,6.108l9.926,4.581l6.109,0.765l7.635,6.871l7.636-0.763l9.926,0.763v-3.054l4.581-3.055l7.635,6.873l19.855-1.527
		l0.763,6.871l-6.111,4.582l-3.054-1.527v5.344l6.111,9.162l-2.294,4.582l-3.054,5.344l-12.98,5.346l-9.162,3.817l-15.27-0.764
		l-4.582-0.762v-4.582l-10.689-3.818v5.344l-7.635-0.764l-7.636,6.872l-15.27-3.054l-9.163,3.054l-6.108-7.635l-7.635-0.764
		l-7.636-6.871L164.35,314.3l-3.818,0.764h-25.96l-17.562-5.344l-11.452,1.527l-16.034-0.764v-8.399l-8.399-1.527l-9.926-6.871
		h-6.108l-7.635,5.344l-4.581-6.872l-6.872-3.053l0.764-19.852h8.398l-3.817-5.344l0.764-9.166l11.452-4.581l13.743-3.818
		L81.888,246.343"/>
	
		<path id="Klagenfurt" inkscape:connector-curvature="0" fill="#123456" stroke="#7B7979" stroke-width="1.7378" stroke-linecap="round" stroke-linejoin="round" stroke-miterlimit="10" d="
		M527.793,278.414l-1.527,5.346l17.561-4.582v6.109l3.818,1.526l3.054,2.291v6.108l5.344-2.291l6.108,1.527l-0.763,5.345
		l-6.108,0.762l0.764,3.818l-10.69,0.764l-4.581,7.635l-6.108,1.527l0.763,3.055l-1.526,5.344l-9.162,0.764l-0.763-3.055
		l-10.69,2.291l-3.818-3.818l0.764-8.399l3.817-3.054l-3.054-3.817l-5.345-9.163l6.108-4.581h-6.871l-3.055-7.636l6.109-11.454
		l12.215-4.581l9.163-0.764l0.763,4.582l-3.054,0.762l-3.818,4.582L527.793,278.414"/>
	
		<path id="Klagenfurt_Land" inkscape:connector-curvature="0" fill="#123456" stroke="#7B7979" stroke-width="1.7378" stroke-linecap="round" stroke-linejoin="round" stroke-miterlimit="10" d="
		M565.968,253.978l3.054,5.348l2.291-3.055l0.764,3.818l5.345,1.527l-4.581,2.291l6.108,3.818l-0.764,6.108l9.163,0.762
		l13.743,12.981l-10.689,3.054l6.872,9.163l-0.764,9.162l-2.291,3.054l-9.162,16.034l-3.817,1.528l-3.055-3.055l-2.29,1.527
		l3.818,8.399l-5.345,11.457l10.689,5.344l-6.108,5.345l-0.764,15.271l-7.634,6.871l-10.689-0.762l-27.488,6.871l-7.635-6.108
		l-14.507,5.344l-5.344-4.58h-8.399l-4.581,3.818l-6.109-0.764l-9.925-17.561l-3.054-0.765l3.054-24.434l-5.345-2.291l-3.054,1.527
		l-3.055-5.344l2.291-4.582l-13.744-13.743l9.162-3.818l-3.054-6.872l0.764-3.054l-4.582-1.528l-1.527-15.27l10.69-6.871
		l7.636,0.762h4.581l3.818-5.344l6.871,3.817l6.872-9.926h13.744v1.527l-6.109,11.454l3.055,7.636h6.871l-6.108,4.581l5.345,9.163
		l3.054,3.817l-3.817,3.054l-0.764,8.399l3.818,3.818l10.689-2.291l0.764,3.055l9.162-0.764l1.526-5.344l-0.763-3.055l6.108-1.526
		l4.581-7.635l10.69-0.764l-0.764-3.818l6.108-0.762l0.762-5.345l-6.108-1.527l-5.344,2.291v-6.108l-3.054-2.291l-3.818-1.526
		v-6.109l-17.561,4.582l1.526-5.346l-4.582-3.054l3.818-4.582l1.527,1.528l9.927-6.108l2.29,3.054l4.581-4.581v-6.108l5.345,3.054
		l2.289-3.817l2.291,3.817l8.399-6.875L565.968,253.978"/>
	
		<path id="Spittal_a.d._Drau" inkscape:connector-curvature="0" fill="#123456" stroke="#7B7979" stroke-width="1.7378" stroke-linecap="round" stroke-linejoin="round" stroke-miterlimit="10" d="
		M58.982,82.945l3.054,13.744l9.162-0.764l3.818,3.818l10.69-2.291l5.344,6.108l9.162-1.527l19.852,4.581l5.345,12.216l9.163,6.108
		l5.344-3.817l5.345,2.29v3.818l15.271,7.635l2.29-6.109h13.744l4.581-3.817l32.068-6.872l-2.291-9.162l3.054-6.872l7.635-3.054
		l8.399,3.818l14.506-4.581l7.636,2.29l0.764,4.581l6.872,5.344l6.872-5.344l9.162,0.763l35.886,11.453l4.584-1.527l12.98,0.763
		l3.054,6.872l11.452-0.763l2.291,1.527l-1.527,9.926l3.054,4.581l6.108,4.581l11.453,1.527l7.635,19.855l9.162,10.689h-2.291
		l-3.818,3.054l-1.527,13.743l8.399,5.345l-1.527,6.108l8.399,2.291l-1.527,5.345l3.817,2.29l-0.763,14.507l-4.582,6.871h-1.526
		l-14.507-4.581l-5.344,3.054l-22.142-3.054l-9.926,11.453l-9.162-4.581l-4.581,5.345l3.817,3.053l-7.636,3.055l-0.763,3.055
		l-14.51-5.345l-9.926,4.581l-3.818-3.817l-9.162-0.764l-2.29-6.108l-8.399,9.926l3.054,5.348l-4.581,3.054l6.107,11.454
		l-8.398-1.528l-1.528,3.818l8.399,6.872l-2.291,2.291l0.764,8.399l-7.636,0.763l-7.635-6.871l-6.109-0.765l-9.926-4.581
		l-4.581-6.108l-7.636,3.055l-10.689-9.163h-6.872l-6.872,7.637h-5.345l-16.797,4.581l-3.818-0.763h-5.345l-5.344-6.873h-6.108
		l-19.852-4.581l-9.162-6.871l-16.034,2.29l-4.581-3.054l-2.29,4.581l-6.108-3.817l2.291-4.585l-9.927-2.29l-0.763-3.054
		l4.581-4.581l12.98-7.636l9.926,5.345l9.926-9.927l-0.763-4.581L110.9,217.328h-0.764l-2.291-1.527l-3.054-6.872l-13.743-8.399
		l0.763-13.743l-3.054-3.818l1.527-3.817l-4.581-3.054l-3.818-2.29l-4.581-2.291l-2.291-5.344l-7.635-6.875l-4.581-2.29
		l-0.764-3.818l-3.818-12.217l8.399-16.034l4.581-2.292l-3.817-3.054l-12.217,1.527l-5.344-12.98l-12.98-12.217l5.344-3.817
		l-2.29-6.109l11.453,0.764L58.982,82.945"/>
	
		<path id="St._Veit_a.d._Glan" inkscape:connector-curvature="0" fill="#123456" stroke="#7B7979" stroke-width="1.7378" stroke-linecap="round" stroke-linejoin="round" stroke-miterlimit="10" d="
		M497.251,105.85l9.925,22.143l0.765-1.527l3.054-3.054l4.581,3.818l19.851-1.527l9.926,2.29l5.345,4.581l-1.528,8.399l3.054,6.108
		l12.98-9.163l6.872,2.291l1.527-7.636l3.818,2.291l1.526-5.345l8.399-3.054l3.817,6.872l20.615-1.527l2.291,4.581l6.108,1.527
		l6.108,9.163l15.271,9.162v1.527l-3.819,3.054l1.528,10.693l-9.162,14.507l-1.526,6.872l3.054,12.98l0.763,6.872l1.527,4.581
		l-3.054,6.108l-3.818,9.926l0.763,12.98l-12.216-5.345l3.055,9.162l-8.399,3.818l-2.291,6.111l-9.162-9.929l-4.582,9.929
		l2.291,3.054l-5.345,3.818l-3.817,7.635l-9.163-0.762l0.764-6.108l-6.108-3.818l4.581-2.291l-5.345-1.527l-0.764-3.818
		l-2.291,3.055l-3.054-5.348l-2.29,0.763l-8.399,6.875l-2.291-3.817l-2.289,3.817l-5.345-3.054v6.108l-4.581,4.581l-2.29-3.054
		l-9.927,6.108l-1.527-1.528l3.054-0.762l-0.763-4.582l-9.163,0.764l-12.215,4.581v-1.527l4.581-11.452l3.817-1.528l-0.763-3.82
		h-17.562l0.764-5.345l-4.581,1.527l-1.527-3.055l7.635-4.581v-5.345l-3.818-3.054l-4.581,3.818l-6.109-3.054v-3.818l3.818-2.291
		l-9.162-6.108l-2.291,3.054l-8.399-2.291l5.344-7.635l1.528-4.581l-2.291-1.528l3.818-4.581h-0.764l-9.162,9.163l-4.581-5.345
		l-11.454-3.054l-4.581,1.527l-6.109-3.817l-4.581-3.818l-1.527-19.088l-3.055-3.818l-11.452-0.764l0.763-9.166l0.764-7.635
		l5.345-2.291l9.927-3.817l4.581-6.872l-0.764-6.872H452.2l15.271-15.27l6.108-2.291l3.054-8.399l8.399,4.581L497.251,105.85"/>
	
		<path id="Villach" inkscape:connector-curvature="0" fill="#123456" stroke="#7B7979" stroke-width="1.7378" stroke-linecap="round" stroke-linejoin="round" stroke-miterlimit="10" d="
		M394.175,292.922h7.635l22.143-7.635v0.763l-2.291,5.345l-5.345,2.291v14.506l9.164,8.399h6.871l-5.344,4.582l-3.818-0.764
		l-2.289,3.818l-19.09-3.818l-10.689,3.055v3.054l-13.744,1.527l-6.108,3.819l-7.636-1.528l-1.527-11.452l-9.163-0.764l-6.108-6.871
		l10.689-2.291l-0.763-3.818l10.689-6.108l8.399,0.764l5.345-15.272L394.175,292.922"/>
	
		<path id="Villach_Land" inkscape:connector-curvature="0" fill="#123456" stroke="#7B7979" stroke-width="1.7378" stroke-linecap="round" stroke-linejoin="round" stroke-miterlimit="10" d="
		M370.505,230.309l14.507,4.581h1.526l8.399,0.764l6.872,8.399l9.926-4.581l3.818,6.108l4.581,0.764l6.108,16.801l-12.216,9.162
		l12.216,8.399l-2.291,4.582l-22.143,7.635h-7.635l-12.98-8.399l-5.345,15.272l-8.399-0.764l-10.689,6.108l0.763,3.818
		l-10.689,2.291l6.108,6.871l9.163,0.764l1.527,11.452l7.636,1.528l6.108-3.819l13.744-1.527v-3.054l10.689-3.055l19.089,3.818
		l2.29-3.818l3.818,0.764l5.344-4.582h-6.871l-9.164-8.399v-14.506l12.217-3.055l13.744-5.344l11.452,1.526l1.527,15.27l4.582,1.528
		l-0.764,3.054l3.054,6.872l-9.162,3.818l13.744,13.743l-2.291,4.582l3.055,5.344l3.054-1.527l5.345,2.291l-3.054,24.434
		l-21.379-6.108l-10.689,5.345l-9.162-6.872L412.5,348.66l-16.798,3.055l-7.635-2.29l-4.582,5.344h-5.344l-6.872-4.582
		l-30.542-2.289l-15.271-8.402l-9.162-1.528l-4.583,3.819l-3.815-6.108l-15.274,0.762l-3.054-6.871l12.98-5.346l3.054-5.344
		l2.294-4.582l-6.111-9.162v-5.344l3.054,1.527l6.111-4.582l-0.763-6.871l-19.855,1.527l-7.635-6.873l-4.581,3.055v3.054
		l-9.926-0.764l-0.764-8.399l2.291-2.291l-8.399-6.872l1.528-3.818l8.398,1.528l-6.107-11.454l4.581-3.054l-3.054-5.348l8.399-9.926
		l2.29,6.108l9.162,0.764l3.818,3.817l9.926-4.581l14.51,5.345l0.763-3.055l7.636-3.055l-3.817-3.053l4.581-5.345l9.162,4.581
		l9.927-11.453l22.143,3.054L370.505,230.309"/>
	
		<path id="Völkermarkt" inkscape:connector-curvature="0" fill="#123456" stroke="#7B7979" stroke-width="1.7378" stroke-linecap="round" stroke-linejoin="round" stroke-miterlimit="10" d="
		M663.703,240.998l0.763,13.743l4.581,6.112l9.163,9.925l1.527,6.873l16.034-1.528l-1.527,4.581l9.162,8.399l10.689-3.055
		l11.453,9.162l-7.635,7.635l-2.29-2.291l-1.528,7.635l-11.452-3.054l-11.453,16.798l-5.344,16.797l-0.765,11.455l-9.925,4.582
		l-7.635-2.291h-6.108l-3.054,6.109l-4.585-3.818l-3.817,16.034l-5.345-2.291l-6.872,10.69l-19.087,3.818l-3.818,7.635v16.034
		l-5.344,4.581l-12.98-22.905l-12.98,5.345l-0.763-3.055l-9.927-1.527l-3.818-5.344l1.528-3.055l7.634-6.871l0.764-15.271
		l6.108-5.345l-10.689-5.344l5.345-11.457l-3.818-8.399l2.29-1.527l3.055,3.055l3.817-1.528l9.162-16.034l2.291-3.054l0.764-9.162
		l-6.872-9.163l10.689-3.054l-13.743-12.981l3.817-7.635l5.345-3.818l-2.291-3.054l4.582-9.929l9.162,9.929l2.291-6.111l8.399-3.818
		l-3.055-9.162l12.216,5.345l-0.763-12.98l3.818-9.926l3.054-6.108l-1.527-4.581l11.452,7.635l15.274,19.851L663.703,240.998"/>
	
		<path id="Wolfsberg" inkscape:connector-curvature="0" fill="#123456" stroke="#7B7979" stroke-width="1.7378" stroke-linecap="round" stroke-linejoin="round" stroke-miterlimit="10" d="
		M688.136,115.013l0.765,6.872l11.452,9.162l6.872,4.581l12.217,3.054l6.108,4.581l7.635,19.088l10.689,11.456v2.29l-3.053,10.689
		l-2.291,0.763l0.764,9.926l3.054,5.345l-1.526,5.344l-5.345,2.291l-2.291,7.636l-3.054,10.689l6.108,1.527l9.926,4.581
		l0.763,10.689l3.818,5.345l-2.291,2.291l1.526,3.057l-5.344,22.143l3.817,2.291l4.581-2.291l4.581,7.635l-6.872,0.764l-7.636,4.582
		l-10.689,16.797l-2.291-9.162l-4.581-3.818l-11.453-9.162l-10.689,3.055l-9.162-8.399l1.526-4.581l-16.034,1.528l-1.526-6.873
		l-9.164-9.925l-4.581-6.112l-0.763-13.743l-4.581-0.764l-15.274-19.851l-11.452-7.635l-0.764-6.872l-3.054-12.98l1.526-6.872
		l9.162-14.507l-1.528-10.693l3.819-3.054v-1.527l-15.271-9.162l-6.108-9.163l3.818-6.872l29.018-3.054l1.526-2.292l12.217-6.108
		h9.927l6.871-4.581h4.582"/>
</g>
<g id="Skala" transform="translate(0,202)">
	<rect id="rect4459" x="29.573" y="558.727" fill="#111101" width="16.976" height="16.16"/>
	<text id="text16" transform="matrix(1.0506 0 0 1 55.1384 572.7578)" font-family="'ArialMT'" font-size="17.6301">%legende1%</text>
	<rect id="rect4459-1" x="29.573" y="580.991" fill="#111102" width="16.976" height="16.163"/>
	<text id="text19" transform="matrix(1.0506 0 0 1 55.1384 595.0254)" font-family="'ArialMT'" font-size="17.6301">%legende2%</text>
	<rect id="rect4459-2" x="29.573" y="603.259" fill="#111103" width="16.976" height="16.162"/>
	<text id="text22" transform="matrix(1.0506 0 0 1 55.1384 617.292)" font-family="'ArialMT'" font-size="17.6301">%legende3%</text>
	<rect id="rect4459-6" x="29.573" y="625.529" fill="#111104" width="16.976" height="16.161"/>
	<text id="text25" transform="matrix(1.0506 0 0 1 55.1384 639.5605)" font-family="'ArialMT'" font-size="17.6301">%legende4%</text>
	<rect id="rect4459-29" x="29.573" y="647.794" fill="#111105" width="16.976" height="16.163"/>
	<text id="text28" transform="matrix(1.0506 0 0 1 55.1384 661.8291)" font-family="'ArialMT'" font-size="17.6301">%legende5%</text>
	<rect id="rect4459-3" x="29.573" y="670.063" fill="#111106" width="16.976" height="16.164"/>
	<text id="text31" transform="matrix(1.0506 0 0 1 55.1384 684.0967)" font-family="'ArialMT'" font-size="17.6301">%legende6%</text>
	<rect id="rect4459-8" x="29.573" y="692.333" fill="#111107" width="16.976" height="16.16"/>
	<text id="text34" transform="matrix(1.0506 0 0 1 55.1384 706.3633)" font-family="'ArialMT'" font-size="17.6301">%legende7%</text>
	<rect id="rect4459-9" x="29.573" y="714.598" fill="#111108" width="16.976" height="16.163"/>
	<text id="text37" transform="matrix(1.0506 0 0 1 55.1384 728.6309)" font-family="'ArialMT'" font-size="17.6301">%legende8%</text>
	<rect id="rect4459-18" x="29.573" y="736.865" fill="#111109" width="16.976" height="16.162"/>
	<text id="text40" transform="matrix(1.0506 0 0 1 55.1384 750.8994)" font-family="'ArialMT'" font-size="17.6301">%legende9%</text>
	<rect id="rect4459-18-6" x="29.573" y="759.134" fill="#111110" width="16.976" height="16.163"/>
	<text id="text43" transform="matrix(1.0506 0 0 1 55.1384 773.1641)" font-family="'ArialMT'" font-size="17.6301">%legende10%</text>
</g>
<g id="Kreise">
	<g id="Kreis10" transform="translate(-1099.4425,-1468.408)">
		
			<path id="path3841-8-9-2-0-6-5-2_2_" sodipodi:ry="67.680222" sodipodi:rx="67.680222" sodipodi:cy="1106.1483" sodipodi:cx="328.29956" sodipodi:type="arc" fill="#FFFFFF" stroke="#000000" d="
			M2259.901,2002.937c0,6.186-5.021,11.206-11.21,11.206c-6.189,0-11.207-5.021-11.207-11.206c0-6.19,5.021-11.209,11.207-11.209
			C2254.892,1991.728,2259.901,1996.747,2259.901,2002.937z"/>
		<text transform="matrix(1 0 0 1 2240.7852 2007.8894)" font-family="'ArialMT'" font-size="13.7481">10</text>
	</g>
	<g id="Kreis09" transform="translate(-1099.4425,-1468.408)">
		
			<path id="path3841-8-9-2-0-6-5-2_23_" sodipodi:ry="67.680222" sodipodi:rx="67.680222" sodipodi:cy="1106.1483" sodipodi:cx="328.29956" sodipodi:type="arc" fill="#FFFFFF" stroke="#000000" d="
			M2182.322,2205.674c0,6.188-5.018,11.207-11.211,11.207c-6.188,0-11.207-5.021-11.207-11.207c0-6.188,5.021-11.205,11.207-11.205
			C2177.31,2194.469,2182.322,2199.482,2182.322,2205.674z"/>
		<text transform="matrix(1 0 0 1 2167.4277 2210.6248)" font-family="'ArialMT'" font-size="13.7481">9</text>
	</g>
	<g id="Kreis08" transform="translate(-1099.4425,-1468.408)">
		
			<path id="path3841-8-9-2-0-6-5-2_22_" sodipodi:ry="67.680222" sodipodi:rx="67.680222" sodipodi:cy="1106.1483" sodipodi:cx="328.29956" sodipodi:type="arc" fill="#FFFFFF" stroke="#000000" d="
			M1666.307,2136.22c0,6.188-5.021,11.2-11.213,11.2c-6.188,0-11.204-5.02-11.204-11.2c0-6.188,5.018-11.201,11.204-11.201
			C1661.289,2125.015,1666.307,2130.029,1666.307,2136.22z"/>
		<text transform="matrix(1 0 0 1 1651.41 2141.1716)" font-family="'ArialMT'" font-size="13.7481">8</text>
	</g>
	<g id="Kreis07" transform="translate(-1099.4425,-1468.408)">
		
			<path id="path3841-8-9-2-0-6-5-2_21_" sodipodi:ry="67.680222" sodipodi:rx="67.680222" sodipodi:cy="1106.1483" sodipodi:cx="328.29956" sodipodi:type="arc" fill="#FFFFFF" stroke="#000000" d="
			M1743.725,2196.467c0,6.188-5.021,11.205-11.211,11.205c-6.188,0-11.206-5.021-11.206-11.205c0-6.188,5.021-11.201,11.206-11.201
			C1738.709,2185.26,1743.725,2190.275,1743.725,2196.467z"/>
		<text transform="matrix(1 0 0 1 1728.8319 2201.4167)" font-family="'ArialMT'" font-size="13.7481">7</text>
	</g>
	<g id="Kreis06" transform="translate(-1099.4425,-1468.408)">
		
			<path id="path3841-8-9-2-0-6-5-2_20_" sodipodi:ry="67.680222" sodipodi:rx="67.680222" sodipodi:cy="1106.1483" sodipodi:cx="328.29956" sodipodi:type="arc" fill="#FFFFFF" stroke="#000000" d="
			M2017.266,1997.047c0,6.188-5.021,11.207-11.213,11.207c-6.188,0-11.207-5.021-11.207-11.207c0-6.188,5.02-11.205,11.207-11.205
			C2012.244,1985.842,2017.266,1990.856,2017.266,1997.047z"/>
		<text transform="matrix(1 0 0 1 2002.368 2001.9978)" font-family="'ArialMT'" font-size="13.7481">6</text>
	</g>
	<g id="Kreis05" transform="translate(-1099.4425,-1468.408)">
		
			<path id="path3841-8-9-2-0-6-5-2_19_" sodipodi:ry="67.680222" sodipodi:rx="67.680222" sodipodi:cy="1106.1483" sodipodi:cx="328.29956" sodipodi:type="arc" fill="#FFFFFF" stroke="#000000" d="
			M1451.789,1988.819c0,6.187-5.017,11.206-11.212,11.206c-6.188,0-11.206-5.021-11.206-11.206c0-6.191,5.018-11.206,11.206-11.206
			C1446.772,1977.613,1451.789,1982.627,1451.789,1988.819z"/>
		<text transform="matrix(1 0 0 1 1436.8964 1993.7693)" font-family="'ArialMT'" font-size="13.7481">5</text>
	</g>
	<g id="Kreis04" transform="translate(-1099.4425,-1468.408)">
		
			<path id="path3841-8-9-2-0-6-5-2_18_" sodipodi:ry="67.680222" sodipodi:rx="67.680222" sodipodi:cy="1106.1483" sodipodi:cx="328.29956" sodipodi:type="arc" fill="#FFFFFF" stroke="#000000" d="
			M1977.973,2274.617c0,6.188-5.021,11.207-11.214,11.207c-6.188,0-11.207-5.021-11.207-11.207c0-6.189,5.021-11.207,11.207-11.207
			C1972.95,2263.411,1977.973,2268.427,1977.973,2274.617z"/>
		<text transform="matrix(1 0 0 1 1963.0741 2279.2166)" font-family="'ArialMT'" font-size="13.7481">4</text>
	</g>
	<g id="Kreis03" transform="translate(-1099.4425,-1468.408)">
		
			<path id="path3841-8-9-2-0-6-5-2_15_" sodipodi:ry="67.680222" sodipodi:rx="67.680222" sodipodi:cy="1106.1483" sodipodi:cx="328.29956" sodipodi:type="arc" fill="#FFFFFF" stroke="#000000" d="
			M1988.021,2176.842c0,6.188-5.021,11.205-11.211,11.205c-6.188,0-11.206-5.021-11.206-11.205c0-6.188,5.018-11.207,11.206-11.207
			C1983.004,2165.635,1988.021,2170.65,1988.021,2176.842z"/>
		<text transform="matrix(1 0 0 1 1973.1268 2181.4402)" font-family="'ArialMT'" font-size="13.7481">3</text>
	</g>
	<g id="Kreis02" transform="translate(-1099.4425,-1468.408)">
		
			<path id="path3841-8-9-2-0-6-5-2_16_" sodipodi:ry="67.680222" sodipodi:rx="67.680222" sodipodi:cy="1106.1483" sodipodi:cx="328.29956" sodipodi:type="arc" fill="#FFFFFF" stroke="#000000" d="
			M1370.115,2175.635c0,6.188-5.021,11.205-11.212,11.205c-6.188,0-11.206-5.02-11.206-11.205c0-6.188,5.018-11.207,11.206-11.207
			C1365.094,2164.427,1370.115,2169.442,1370.115,2175.635z"/>
		<text transform="matrix(1 0 0 1 1355.2186 2180.2322)" font-family="'ArialMT'" font-size="13.7481">2</text>
	</g>
	<g id="Kreis01" transform="translate(-1099.4425,-1468.408)">
		
			<path id="path3841-8-9-2-0-6-5-2_17_" sodipodi:ry="67.680222" sodipodi:rx="67.680222" sodipodi:cy="1106.1483" sodipodi:cx="328.29956" sodipodi:type="arc" fill="#FFFFFF" stroke="#000000" d="
			M1833.94,2056.435c0,6.186-5.017,11.206-11.211,11.206c-6.188,0-11.207-5.021-11.207-11.206c0-6.191,5.018-11.207,11.207-11.207
			C1828.924,2045.228,1833.94,2050.244,1833.94,2056.435z"/>
		<text transform="matrix(1 0 0 1 1818.6952 2061.738)" font-family="'ArialMT'" font-size="13.7481">1</text>
	</g>
</g>
<g id="Legende">
	<text id="text45" transform="matrix(1.3612 0 0 1 390.241 976.709)" font-family="'MyriadPro-Regular'" font-size="14.5682">10. Wolfsberg</text>
	<text id="text47" transform="matrix(1.3612 0 0 1 390.241 959.2266)" font-family="'MyriadPro-Regular'" font-size="14.5682">9. Völkermarkt</text>
	<text id="text49" transform="matrix(1.3612 0 0 1 390.241 941.7451)" font-family="'MyriadPro-Regular'" font-size="14.5682">8. Villach-Stadt</text>
	<text id="text51" transform="matrix(1.3612 0 0 1 390.241 924.2637)" font-family="'MyriadPro-Regular'" font-size="14.5682">7. Villach</text>
	<text id="text53" transform="matrix(1.3612 0 0 1 390.241 906.7832)" font-family="'MyriadPro-Regular'" font-size="14.5682">6. St. Veit a.d. Glan</text>
	<text id="text55" transform="matrix(1.3612 0 0 1 390.241 889.3018)" font-family="'MyriadPro-Regular'" font-size="14.5682">5. Spittal a.d. Drau</text>
	<text id="text57" transform="matrix(1.3612 0 0 1 390.241 871.8193)" font-family="'MyriadPro-Regular'" font-size="14.5682">4. Klagenfurt-Land</text>
	<text id="text59" transform="matrix(1.3612 0 0 1 390.241 854.3369)" font-family="'MyriadPro-Regular'" font-size="14.5682">3. Klagenfurt</text>
	<text id="text61" transform="matrix(1.3612 0 0 1 390.241 836.8555)" font-family="'MyriadPro-Regular'" font-size="14.5682">2. Hermagor</text>
	<text id="text63" transform="matrix(1.3612 0 0 1 390.241 819.374)" font-family="'MyriadPro-Regular'" font-size="14.5682">1. Feldkirchen</text>
	<text id="Titel2" transform="matrix(1 0 0 1 30.6638 303.2686)" font-family="'MyriadPro-Regular'" font-size="30">%titel2%</text>
	<text id="Titel1" transform="matrix(0.6758 0 0 1 26.6399 263.6543)" font-family="'ArialMT'" font-size="61.9146">%titel1%</text>
</g>
<text transform="matrix(1 0 0 1 1089.2771 904.7529)" font-family="'MyriadPro-Regular'" font-size="14.2709">Visualisierung erstellt mit</text>
<text transform="matrix(1 0 0 1 1126.0671 921.8779)" font-family="'MyriadPro-Regular'" font-size="14.2709">DataMaps.eu</text>
<text transform="matrix(1 0 0 1 1101.1726 939.0029)" font-family="'MyriadPro-Regular'" font-size="14.2709">provided by open3.at</text>
<g id="open3-logo">
	<path fill="#007CC1" d="M1178.869,968.94c0-3.04-1.449-4.772-3.251-5.729c1.661-0.884,2.897-2.438,2.897-5.16
		c0-4.235-3.221-7.211-7.668-7.211c-4.241,0-7.604,2.688-7.704,7.178h4.594c0.106-1.905,1.378-3.036,3.11-3.036
		c1.656,0,3.069,1.095,3.069,3.216c0,1.767-0.954,3.145-3.181,3.145h-0.671v3.994h0.671c2.262,0,3.535,1.378,3.535,3.464
		c0,2.265-1.414,3.498-3.396,3.498c-1.802,0-3.354-1.021-3.428-3.286h-4.59c0.07,5.271,3.922,7.421,8.021,7.421
		C1175.195,976.432,1178.869,973.959,1178.869,968.94z"/>
	<path fill="#9C9D9F" d="M1096.808,964.097c0,5.833-2.326,9.688-6.076,9.688c-3.611,0-6.284-3.854-6.284-10.381
		c0-5.694,2.152-9.548,6.076-9.548C1094.343,953.854,1096.808,957.743,1096.808,964.097z M1101.322,963.819
		c0-7.813-4.479-12.644-10.729-12.644s-10.692,4.829-10.692,12.644c0,8.332,4.756,12.915,10.689,12.915
		C1096.531,976.734,1101.322,972.151,1101.322,963.819z"/>
	<path fill="#9C9D9F" d="M1116.438,966.943c0,4.375-1.84,7.321-4.757,7.321c-1.354,0-2.152-0.416-2.708-0.862v-11.527
		c0-1.251,0.863-1.91,2.604-1.91C1113.973,959.965,1116.438,962.188,1116.438,966.943z M1120.466,966.735
		c0-4.86-2.356-8.958-8.779-8.958c-2.188,0-4.409,0.556-5.352,1.181c-0.972,0.66-1.314,1.284-1.314,2.535V981.6
		c0,0.417,0.208,0.596,0.625,0.596h2.738c0.417,0,0.595-0.179,0.595-0.596v-5.904c0.446,0.313,1.667,0.937,3.398,0.937
		C1117.827,976.63,1120.466,971.563,1120.466,966.735z"/>
	<path fill="#9C9D9F" d="M1134.66,964.166l-7.534,1.285c0.144-2.709,1.319-5.486,4.102-5.486
		C1133.688,959.965,1134.556,962.014,1134.66,964.166z M1138.549,970.798c0-0.451-0.347-0.868-0.798-0.868
		c-0.417,0-0.729,0.313-0.898,0.625c-0.729,1.284-2.188,2.951-4.409,2.951c-3.333,0-4.936-2.813-5.144-6.076l10.104-1.666
		c0.729-0.104,1.042-0.348,1.042-1.106c0-3.509-2.465-6.875-6.805-6.875c-4.137,0-7.951,2.882-7.951,9.34
		c0,6.806,3.75,9.549,7.951,9.549C1136.083,976.666,1138.549,972.881,1138.549,970.798z"/>
	<path fill="#9C9D9F" d="M1157.047,975.624v-12.5c0-4.166-3.75-5.347-7.43-5.347c-2.569,0-4.687,0.481-5.833,1.042
		c-1.042,0.521-1.389,1.007-1.389,2.147v14.652c0,0.416,0.208,0.59,0.625,0.59h2.743c0.416,0,0.625-0.174,0.625-0.59v-13.4
		c0-1.106,0.273-2.291,3.09-2.291c2.773,0,3.605,1.666,3.605,3.367v12.326c0,0.416,0.179,0.59,0.595,0.59h2.773
		C1156.873,976.214,1157.047,976.04,1157.047,975.624z"/>
	<path fill="#007CC1" d="M1185.017,974.65c0-2.474-3.481-2.002-3.481-3.611c0-0.688,0.455-1.104,1.169-1.104
		c0.702,0,1,0.48,1.169,0.857c0.091,0.195,0.247,0.363,0.481,0.363c0.286,0,0.494-0.156,0.494-0.479
		c0-0.438-0.642-1.378-2.117-1.378c-1.299,0-2.234,0.688-2.234,1.871c0,2.246,3.442,1.779,3.442,3.597
		c0,0.624-0.416,1.131-1.221,1.131c-0.758,0-1.174-0.624-1.343-1.063c-0.073-0.222-0.229-0.39-0.519-0.39
		c-0.313,0-0.521,0.189-0.521,0.519c0,0.546,0.849,1.638,2.343,1.638C1184.186,976.599,1185.017,975.767,1185.017,974.65z"/>
	<path fill="#007CC1" d="M1191.588,973.001c0,1.701-0.714,2.87-1.936,2.87c-1.169,0-2.026-1.169-2.026-3.092
		c0-1.649,0.702-2.811,1.961-2.811C1190.809,969.974,1191.588,971.144,1191.588,973.001z M1192.731,972.909
		c0-2.222-1.273-3.611-3.117-3.611c-1.845,0-3.131,1.39-3.131,3.611c0,2.377,1.377,3.688,3.131,3.688
		S1192.731,975.286,1192.731,972.909z"/>
	<path fill="#007CC1" d="M1199.717,975.271c0-0.172-0.09-0.271-0.242-0.271c-0.095,0-0.168,0.052-0.265,0.129
		c-0.286,0.286-0.766,0.676-1.605,0.676c-1.325,0-2.208-1.299-2.208-3.104c0-1.754,0.793-2.753,1.923-2.753
		c0.948,0,1.271,0.597,1.428,0.922c0.091,0.182,0.234,0.364,0.481,0.364c0.286,0,0.488-0.17,0.488-0.481
		c0-0.468-0.752-1.455-2.338-1.455c-1.982,0-3.112,1.649-3.112,3.586c0,2.018,1.04,3.715,3.19,3.715
		C1198.821,976.599,1199.717,975.676,1199.717,975.271z"/>
	<path fill="#007CC1" d="M1202.472,976.3v-6.702c0-0.104-0.057-0.151-0.156-0.151h-0.779c-0.104,0-0.156,0.052-0.156,0.151v6.702
		c0,0.104,0.057,0.156,0.156,0.156h0.779C1202.42,976.456,1202.472,976.402,1202.472,976.3z"/>
	<path fill="#007CC1" d="M1208.497,976.3v-0.403c0-0.104-0.052-0.151-0.156-0.151h-2.606v-2.585h2.222
		c0.104,0,0.156-0.055,0.156-0.154v-0.377c0-0.104-0.052-0.156-0.156-0.156h-2.222v-2.313h2.606c0.104,0,0.156-0.055,0.156-0.155
		V969.6c0-0.104-0.052-0.151-0.156-0.151h-3.546c-0.104,0-0.151,0.052-0.151,0.151v6.702c0,0.104,0.052,0.156,0.151,0.156h3.546
		C1208.445,976.456,1208.497,976.402,1208.497,976.3z"/>
	<path fill="#007CC1" d="M1214.314,970v-0.402c0-0.104-0.065-0.151-0.169-0.151h-4.481c-0.104,0-0.168,0.052-0.168,0.151V970
		c0,0.104,0.064,0.155,0.168,0.155h1.701v6.131c0,0.116,0.052,0.17,0.169,0.17h0.753c0.117,0,0.169-0.054,0.169-0.17v-6.131h1.688
		C1214.249,970.155,1214.314,970.104,1214.314,970z"/>
	<path fill="#007CC1" d="M1220.273,969.598c0-0.104-0.065-0.151-0.168-0.151h-0.585c-0.117,0-0.169,0.039-0.234,0.143l-1.559,2.779
		h-0.026l-1.52-2.779c-0.065-0.104-0.118-0.143-0.234-0.143h-0.792c-0.104,0-0.156,0.052-0.156,0.151
		c0,0.038,0.018,0.096,0.039,0.146l2.053,3.455v3.104c0,0.104,0.057,0.156,0.156,0.156h0.779c0.104,0,0.156-0.054,0.156-0.156
		v-3.104l2.052-3.455C1220.26,969.701,1220.273,969.636,1220.273,969.598z"/>
	<path fill="#007CC1" d="M1185.198,963.568c0,1.806-0.792,2.924-2.571,2.924c-0.338,0-0.637-0.04-0.806-0.066v-5.715
		c0.13-0.026,0.455-0.052,0.806-0.052C1184.342,960.659,1185.198,961.763,1185.198,963.568z M1186.329,963.581
		c0-2.155-1.182-3.572-3.767-3.572c-0.811,0-1.507,0.092-1.676,0.146c-0.135,0.038-0.155,0.104-0.155,0.22v6.442
		c0,0.112,0.021,0.183,0.155,0.221c0.182,0.053,1.001,0.143,1.676,0.143C1185.147,967.179,1186.329,965.842,1186.329,963.581z"/>
	<path fill="#007CC1" d="M1191.575,964.244h-2.234l0.779-2.195c0.208-0.585,0.324-1.271,0.324-1.271h0.026
		c0,0,0.13,0.688,0.338,1.271L1191.575,964.244z M1193.64,966.959c0-0.04-0.026-0.117-0.039-0.156l-2.521-6.559
		c-0.039-0.104-0.078-0.156-0.19-0.156h-0.719c-0.13,0-0.169,0.052-0.208,0.156l-2.507,6.559c-0.021,0.053-0.039,0.116-0.039,0.156
		c0,0.091,0.057,0.143,0.156,0.143h0.61c0.111,0,0.168-0.052,0.208-0.15l0.735-2.079h2.649l0.728,2.079
		c0.039,0.104,0.096,0.15,0.195,0.15h0.778C1193.588,967.102,1193.64,967.05,1193.64,966.959z"/>
	<path fill="#007CC1" d="M1198.756,960.646v-0.402c0-0.104-0.063-0.156-0.169-0.156h-4.479c-0.104,0-0.169,0.052-0.169,0.156v0.402
		c0,0.104,0.063,0.15,0.169,0.15h1.701v6.131c0,0.117,0.052,0.169,0.169,0.169h0.753c0.117,0,0.169-0.052,0.169-0.169v-6.13h1.688
		C1198.691,960.802,1198.756,960.75,1198.756,960.646z"/>
	<path fill="#007CC1" d="M1203.209,964.244h-2.229l0.774-2.195c0.208-0.585,0.325-1.271,0.325-1.271h0.026
		c0,0,0.13,0.688,0.338,1.271L1203.209,964.244z M1205.274,966.959c0-0.04-0.026-0.117-0.039-0.156l-2.521-6.559
		c-0.04-0.104-0.074-0.156-0.191-0.156h-0.714c-0.135,0-0.169,0.052-0.208,0.156l-2.512,6.559c-0.021,0.053-0.039,0.116-0.039,0.156
		c0,0.091,0.057,0.143,0.156,0.143h0.61c0.117,0,0.169-0.052,0.208-0.15l0.74-2.079h2.646l0.729,2.079
		c0.039,0.104,0.091,0.15,0.19,0.15h0.779C1205.222,967.102,1205.274,967.05,1205.274,966.959z"/>
	<path fill="#007CC1" d="M1186.225,956.852v-2.624c0-0.104-0.078-0.151-0.187-0.151h-2.14c-0.104,0-0.155,0.053-0.155,0.151v0.354
		c0,0.104,0.051,0.168,0.155,0.168h1.299v1.715c0,0.416-0.624,0.701-1.467,0.701c-1.221,0-2.146-1.26-2.146-3.117
		c0-1.688,0.753-2.806,2.079-2.806c1.026,0,1.402,0.605,1.563,0.922c0.091,0.196,0.221,0.352,0.479,0.352
		c0.313,0,0.481-0.183,0.481-0.479c0-0.43-0.65-1.442-2.434-1.442c-2.021,0-3.312,1.469-3.312,3.611
		c0,2.312,1.376,3.688,3.337,3.688C1185.173,957.891,1186.225,957.358,1186.225,956.852z"/>
	<path fill="#007CC1" d="M1193.106,954.293c0,1.701-0.714,2.87-1.938,2.87c-1.169,0-2.021-1.169-2.021-3.092
		c0-1.649,0.701-2.81,1.961-2.81C1192.327,951.267,1193.106,952.436,1193.106,954.293z M1194.249,954.202
		c0-2.221-1.271-3.611-3.118-3.611c-1.844,0-3.13,1.396-3.13,3.611c0,2.377,1.376,3.688,3.13,3.688
		C1192.885,957.891,1194.249,956.579,1194.249,954.202z"/>
	<path fill="#007CC1" d="M1201.183,950.89c0-0.104-0.064-0.15-0.168-0.15h-0.663c-0.117,0-0.169,0.052-0.208,0.15l-1.642,4.729
		c-0.143,0.43-0.242,0.948-0.242,0.948h-0.026c0,0-0.078-0.521-0.221-0.948l-1.61-4.729c-0.04-0.104-0.104-0.15-0.208-0.15h-0.832
		c-0.104,0-0.156,0.052-0.156,0.15c0,0.039,0.019,0.104,0.04,0.156l2.455,6.546c0.039,0.104,0.091,0.156,0.208,0.156h0.545
		c0.13,0,0.187-0.052,0.227-0.156l2.467-6.546C1201.171,950.994,1201.183,950.929,1201.183,950.89z"/>
	<path fill="#007CC1" d="M1206.416,957.592v-0.397c0-0.104-0.052-0.155-0.151-0.155h-2.611v-2.586h2.221
		c0.104,0,0.156-0.053,0.156-0.155v-0.377c0-0.104-0.052-0.156-0.156-0.156h-2.221v-2.312h2.61c0.104,0,0.152-0.057,0.152-0.156
		v-0.402c0-0.104-0.052-0.15-0.152-0.15h-3.549c-0.104,0-0.151,0.052-0.151,0.15v6.702c0,0.104,0.052,0.156,0.151,0.156h3.549
		C1206.364,957.748,1206.416,957.696,1206.416,957.592z"/>
	<path fill="#007CC1" d="M1211.557,952.734c0,0.854-0.624,1.429-1.792,1.429c-0.265,0-0.473,0-0.585-0.013v-2.831
		c0.169-0.027,0.416-0.065,0.832-0.065C1211.09,951.254,1211.557,951.773,1211.557,952.734z M1212.934,957.592
		c0-0.038-0.026-0.09-0.056-0.143l-1.144-2.092c-0.208-0.394-0.558-0.739-0.805-0.856v-0.025c0.832-0.191,1.7-0.793,1.7-1.814
		c0-1.187-0.738-2-2.608-2c-0.845,0-1.546,0.091-1.741,0.143c-0.13,0.039-0.156,0.091-0.156,0.208v6.585
		c0,0.104,0.057,0.156,0.156,0.156h0.74c0.104,0,0.156-0.052,0.156-0.156v-2.922h0.468c0.467,0,0.792,0.416,0.974,0.779l1.092,2.17
		c0.039,0.077,0.135,0.129,0.265,0.129h0.805C1212.883,957.748,1212.934,957.696,1212.934,957.592z"/>
	<path fill="#007CC1" d="M1220.257,957.592v-6.702c0-0.104-0.052-0.15-0.151-0.15h-0.563c-0.104,0-0.151,0.052-0.151,0.15v4.248
		c0,0.584,0.073,1.272,0.073,1.272h-0.038c0,0-0.3-0.642-0.638-1.13l-3-4.396c-0.063-0.104-0.117-0.15-0.229-0.15h-0.85
		c-0.104,0-0.151,0.052-0.151,0.15v6.702c0,0.104,0.053,0.156,0.151,0.156h0.571c0.104,0,0.156-0.052,0.156-0.156v-4.585
		c0-0.521-0.065-1.208-0.065-1.208h0.026c0,0,0.299,0.637,0.605,1.104l3.195,4.688c0.065,0.104,0.104,0.156,0.234,0.156h0.662
		C1220.205,957.748,1220.257,957.696,1220.257,957.592z"/>
	<path fill="#007CC1" d="M1229.788,957.619c0-0.04-0.675-6.729-0.675-6.729c-0.013-0.104-0.052-0.15-0.155-0.15h-0.845
		c-0.104,0-0.156,0.063-0.195,0.15l-1.701,4.521c-0.169,0.456-0.271,1.015-0.271,1.015h-0.026c0,0-0.114-0.559-0.286-1.015
		l-1.688-4.521c-0.039-0.091-0.091-0.15-0.195-0.15h-0.854c-0.104,0-0.146,0.052-0.156,0.15c0,0-0.675,6.689-0.675,6.729
		c0,0.09,0.063,0.129,0.154,0.129h0.638c0.104,0,0.143-0.052,0.154-0.156l0.36-4.546c0.04-0.559,0.04-1.338,0.04-1.338h0.026
		c0,0,0.182,0.779,0.39,1.338l1.688,4.563c0.039,0.104,0.078,0.143,0.19,0.143h0.325c0.117,0,0.156-0.039,0.194-0.143l1.688-4.563
		c0.208-0.571,0.395-1.338,0.395-1.338h0.021c0,0,0,0.779,0.039,1.338l0.364,4.546c0.013,0.104,0.052,0.156,0.156,0.156h0.754
		C1229.75,957.748,1229.788,957.709,1229.788,957.619z"/>
	<path fill="#007CC1" d="M1235.452,957.592v-0.397c0-0.104-0.052-0.155-0.156-0.155h-2.606v-2.586h2.221
		c0.104,0,0.156-0.053,0.156-0.155v-0.377c0-0.104-0.052-0.156-0.156-0.156h-2.221v-2.312h2.606c0.104,0,0.156-0.057,0.156-0.156
		v-0.402c0-0.104-0.052-0.15-0.156-0.15h-3.547c-0.104,0-0.156,0.052-0.156,0.15v6.702c0,0.104,0.057,0.156,0.156,0.156h3.547
		C1235.4,957.748,1235.452,957.696,1235.452,957.592z"/>
	<path fill="#007CC1" d="M1242.841,957.592v-6.702c0-0.104-0.052-0.15-0.151-0.15h-0.563c-0.104,0-0.151,0.052-0.151,0.15v4.248
		c0,0.584,0.073,1.272,0.073,1.272h-0.038c0,0-0.3-0.642-0.637-1.13l-3-4.396c-0.063-0.104-0.117-0.15-0.229-0.15h-0.849
		c-0.104,0-0.151,0.052-0.151,0.15v6.702c0,0.104,0.052,0.156,0.151,0.156h0.572c0.104,0,0.155-0.052,0.155-0.156v-4.585
		c0-0.521-0.065-1.208-0.065-1.208h0.026c0,0,0.299,0.637,0.61,1.104l3.19,4.688c0.065,0.104,0.104,0.156,0.234,0.156h0.663
		C1242.788,957.748,1242.841,957.696,1242.841,957.592z"/>
	<path fill="#007CC1" d="M1249.073,951.292v-0.402c0-0.104-0.065-0.15-0.169-0.15h-4.481c-0.104,0-0.169,0.052-0.169,0.15v0.402
		c0,0.104,0.065,0.156,0.169,0.156h1.702v6.131c0,0.117,0.057,0.169,0.168,0.169h0.753c0.117,0,0.169-0.052,0.169-0.169v-6.131
		h1.688C1249.008,951.448,1249.073,951.396,1249.073,951.292z"/>
</g>
</svg>
