<?xml version="1.0" encoding="utf-8"?>
<!-- Generator: Adobe Illustrator 13.0.2, SVG Export Plug-In . SVG Version: 6.00 Build 14948)  -->
<!DOCTYPE svg PUBLIC "-//W3C//DTD SVG 1.1//EN" "http://www.w3.org/Graphics/SVG/1.1/DTD/svg11.dtd">
<svg version="1.1"
	 id="Oberösterreich-Bezirke" xmlns:svg="http://www.w3.org/2000/svg" xmlns:sodipodi="http://sodipodi.sourceforge.net/DTD/sodipodi-0.dtd" xmlns:inkscape="http://www.inkscape.org/namespaces/inkscape" xmlns:dc="http://purl.org/dc/elements/1.1/" xmlns:cc="http://creativecommons.org/ns#" xmlns:rdf="http://www.w3.org/1999/02/22-rdf-syntax-ns#" inkscape:version="0.47 r22583" sodipodi:docname="Karte A Ooe BR.svg"
	 xmlns="http://www.w3.org/2000/svg" xmlns:xlink="http://www.w3.org/1999/xlink" x="0px" y="0px" width="1050px" height="920px"
	 viewBox="0 0 1050 920" enable-background="new 0 0 1050 920" xml:space="preserve">
<g id="Bezirke" transform="translate(0, -132.362)" inkscape:label="Ebene 1" inkscape:groupmode="layer">
	
		<path id="Braunau" fill="#123456" stroke="#7B7979" stroke-width="4" stroke-linecap="round" stroke-linejoin="round" stroke-miterlimit="10" d="
		M228.524,492.738l1.165,2.33l23.3-5.825l-3.492,9.32l2.33,3.495l5.822-3.495l2.33,4.66l10.485,4.66l4.66,9.325l5.823-5.83
		l11.646,5.83l-1.165,5.825l-3.495,3.495l10.484,8.155l-2.329,4.66l-13.979,9.325l5.82,8.155l-1.165,25.636l-3.495,17.479
		l-4.652,8.151l8.147,6.995l-1.165,9.32l-15.141,26.801l11.647,2.33l-9.317,11.65l-5.825-1.166l-3.495,8.16l-30.29,10.482
		l-1.165,2.33l-5.825,3.495l-23.296-1.165l-2.33-6.99l4.66-5.822l-9.32,3.495h-3.492l1.165-4.66l-9.32-1.165l-11.649-4.665
		l-2.33-8.154l-5.822,2.329V650.04l-5.82,2.33v-6.989l-8.155,3.495l-6.99-2.33l-9.317,4.659l-8.155,3.495l-15.146-8.154
		l-2.328,1.164l-10.479,8.155l-8.155,19.813l-13.979-3.495l-11.65-20.978l-31.45-29.131l-5.823-18.646l4.659-17.478l11.648,2.33
		l2.33-5.825l3.49-10.488l12.813-3.494l8.155-10.485l11.65-22.14l37.272-4.66l27.961-31.46l20.967-9.32l33.784-8.16l24.461-8.155
		L228.524,492.738"/>
	
		<path id="Eferding" fill="#123456" stroke="#7B7979" stroke-width="4" stroke-linecap="round" stroke-linejoin="round" stroke-miterlimit="10" d="
		M545.385,371.556l3.495,18.646l8.151,11.65l4.66-10.485h9.32l1.165-1.165l9.313,3.495l13.98,27.96l-3.495,12.82l2.33,10.485
		l17.476,11.65l2.33,1.17l20.974,5.825l11.645-8.16v3.5l-2.33,15.145l5.825-1.165l4.66,11.65l-30.285,15.15l-6.99,4.66l-8.155-2.33
		l-3.492,4.66l-12.815-2.33l-2.33,4.66l-11.65,2.33h-10.479v-5.825h-16.313l-16.311-3.495l-5.825-17.48l11.65-3.495l1.165-6.99
		l-5.825-1.165l-18.641,3.495l-1.16-2.33l6.982-13.98l3.495,2.33l11.65-5.83l-2.33-4.66l5.825-8.155l-9.32-6.99l3.495-13.985
		l8.155-11.65l1.165-4.66l-12.815-5.825l-10.484-13.98l2.329-3.5l-8.147-11.65l13.976,2.33l8.155-5.825L545.385,371.556"/>
	
		<path id="Freistadt" fill="#123456" stroke="#7B7979" stroke-width="4" stroke-linecap="round" stroke-linejoin="round" stroke-miterlimit="10" d="
		M821.471,258.53l3.495,4.66l23.301-15.146l9.319,16.311l8.152-3.495l8.15,17.48l11.648-1.165l9.319,3.495l11.65,17.475l8.155-8.155
		l6.988,5.825l5.824-3.495l11.646,3.495l11.647,6.995l4.66,9.32l11.649,1.165l11.649,3.495l9.319,10.485l-1.165,4.665h-11.65
		l-1.164,8.155l-9.318,4.66l4.659,10.485l-1.164,5.825l10.483,3.5l5.824,10.485l8.149,6.99l1.164,8.155l-18.636,5.83l-17.477,22.136
		l-4.66-4.66l-2.33,9.32l-6.989-1.165l-11.648,19.811l-4.655-4.66l-6.988,1.165v5.825l-8.153-4.66l-3.495,5.825l-11.65-4.66
		l-13.979,18.645v1.165l-16.307-19.81l-4.659,1.165v16.315h-9.318l1.166,6.99l-8.155-1.165l-4.66,4.66l-4.659-4.66v-6.995
		l-4.659-3.495l-4.659-2.33l-15.143,5.825l-17.476-8.155l-8.155-15.146l-9.319-2.33l-3.494-6.995h5.824l-1.164-4.66l9.318-4.66
		l1.165-10.485l-15.146-11.65l-3.494-11.655h-5.825l-4.66-17.476l-1.165-15.15l-10.479-8.155l-1.165-24.47l-1.165-3.495l6.988-2.33
		l1.16,5.825l4.659-9.32h6.99l8.154,5.825v-5.825l-12.814-4.66L755.07,283l-3.49-9.32l18.639,2.33l5.825-10.49l5.822-13.98
		l-5.822-12.82l10.482-2.33l16.313,19.811L821.471,258.53"/>
	
		<path id="Gmunden" fill="#123456" stroke="#7B7979" stroke-width="4" stroke-linecap="round" stroke-linejoin="round" stroke-miterlimit="10" d="
		M524.411,648.876l6.99,11.65l3.495-5.825l8.155,1.165l-1.165-4.66l6.99-1.165l10.482-1.165l19.801,18.644v5.829l-12.811,5.822
		l-1.165,5.825l15.143,6.99l-4.654,6.995l2.325,4.66l3.492,3.495v10.482l-5.817,2.33l-1.165,6.99l6.983,23.305l38.444,11.655
		l3.495,9.32l5.825,1.164l-2.33,11.648l-13.98,2.33l-13.979,12.82l-13.979,3.495l5.823,15.145l10.485,2.335l-3.495,9.32
		l13.979,19.806l2.329,8.16l-15.146,3.495l-9.319,6.99L578,870.262l-13.979-8.155l-13.979,3.495l-11.65-8.155l-15.146-5.825
		l-4.657,8.155l-4.654-2.33l-20.971,3.495l-6.99-3.495l-12.815,20.97l-6.988,1.165l2.33,6.995l-13.978,5.825v5.825l-5.825,22.141
		l2.33,15.146l-2.33,13.981l18.637,2.33l9.319,16.313l1.165,4.664l-5.825,2.328l6.99,13.98l-4.66,12.819l-13.979,18.641l3.495,6.99
		h-26.791l-27.961-8.155l-8.149,1.165l-31.455-15.146l-18.641-22.141l2.33-22.141l-1.165-3.495l11.647-9.32l6.989-26.8l-2.329-6.99
		l-11.65,2.33l-2.327-8.16l6.987-17.476l8.155-4.66l6.989-4.66l8.153-20.975l-32.618-5.825l-18.639-10.49l3.495-22.136l9.315-9.325
		l22.136,9.325l9.319-3.5l8.152,1.17l3.495,6.99l6.99,2.33l12.812-8.155l8.154-22.14l6.99-5.825l-11.65-6.995l-3.494-1.165
		l6.989-12.814l-2.33-4.658h4.66l2.33-9.325l11.648-4.66l-2.329-10.485l8.153-13.981l9.319,2.335l5.825-12.82l1.165-1.165
		l13.976-8.152l2.33-12.82l-2.33-13.98l12.815-2.33l2.33-12.816l9.317,4.664v-6.994l6.99-12.815l10.485-12.813l5.823-5.83
		l12.812,11.655L524.411,648.876"/>
	
		<path id="Grießkirchen" fill="#123456" stroke="#7B7979" stroke-width="4" stroke-linecap="round" stroke-linejoin="round" stroke-miterlimit="10" d="
		M482.479,379.712l13.98,10.485l9.317-4.66l-2.33,5.825l8.155,2.335h4.66l5.818-6.995h1.164l10.484,13.985l12.815,5.825l-1.165,4.66
		l-8.154,11.65l-3.495,13.985l9.319,6.99l-5.824,8.155l2.33,4.66l-11.65,5.83l-3.494-2.33l-6.983,13.98l1.16,2.33l18.641-3.495
		l5.824,1.165l-1.164,6.99l-11.65,3.495l5.825,17.48l16.311,3.495h16.313v5.825h10.479l1.164,13.985l-10.479-3.495l-12.815,9.32
		l-4.659-3.495l-6.987-4.66l-2.33,1.165l-9.32,8.155l-19.801,1.165l-1.165,5.825l18.636,11.655l-5.825,5.825l1.165,4.66
		l-17.471-2.33l-3.495-4.66l-11.647,15.146l2.329,3.495l-5.824-5.825l-3.495,3.495l-4.66,15.147l-8.155,5.825l-3.495,5.825
		l-16.305-9.32l-11.649,1.165l-2.328-6.99l-5.825,3.495l-1.165,1.165l-6.99-5.825l-18.64,1.165l1.165-6.995l1.164-17.476
		l4.657-16.315l-4.657-5.825l-11.646-6.99l-1.165-8.155l-6.989-11.655l1.165-4.66l9.319-2.33l9.314,4.66l6.988-2.33l11.65-1.165
		l-2.33-8.155l2.33-13.985l4.66-2.33l3.495-10.485V467.1l8.152,1.165l8.155-5.825l4.66-4.66l-3.495-8.16h1.165v-13.98l5.82-8.155
		l-4.655-8.16l-5.825-5.825l-8.155-13.979l5.825-6.99l-1.165-11.655l15.143-9.32l10.482,5.825L482.479,379.712"/>
	
		<path id="Kirchdorf" fill="#123456" stroke="#7B7979" stroke-width="4" stroke-linecap="round" stroke-linejoin="round" stroke-miterlimit="10" d="
		M649.063,609.258l5.825,11.648l12.813-1.165l-3.494,5.825l-12.813,4.66l5.825,8.154l11.647-5.824l-3.494,11.652l-4.658,4.66
		l1.164,4.66l-6.989-2.33v5.825l8.155,2.33l-4.66,9.325l5.824,1.165l2.329,1.165l5.824,13.979l9.32,3.495l4.659-2.33h17.472
		l4.659-16.31l6.99-3.5V678l10.482,13.979h-4.659l-4.659,13.983l5.824,9.319l-5.824,11.65l9.318,4.665l19.808-1.165l3.493,8.153
		l13.978,6.988l6.989,4.66l-9.319,34.956l10.484,15.149l3.495,5.824l8.153-2.33l-1.165,8.154l13.98,8.159l9.318,20.971
		l-3.494,11.655l-9.319,2.33l13.979,15.146l-1.165,8.153l-18.642,18.646l-11.649-1.164l-10.484,2.329l-2.329,11.648l-25.625,11.655
		l-3.495,6.99l-31.456-2.33l-15.142-19.813l4.659-5.825l-6.987,1.165l-5.825-2.33l-11.649,10.484H651.39l-23.296,11.655
		l-18.644,2.33l-1.163-12.815l2.328-20.976l-20.97-22.142l9.32-6.989l15.146-3.494l-2.33-8.16l-13.979-19.807l3.495-9.319
		l-10.485-2.335l-5.825-15.146l13.98-3.495l13.979-12.818l13.979-2.33l2.33-11.649l-5.824-1.165l-3.495-9.318l-38.445-11.655
		l-6.983-23.306l1.165-6.989l5.818-2.33v-10.484l-3.495-3.495l-2.323-4.658l4.653-6.995l-15.142-6.99l1.165-5.825l12.812-5.824
		v-5.83l15.146-6.987l6.99-26.803l15.145,2.33l6.991-4.658l3.494-15.146l4.661,1.165l3.495-9.325l5.816,2.335l3.495-6.993
		l8.155-1.166L649.063,609.258"/>
	
		<path id="Linz_Land" fill="#123456" stroke="#7B7979" stroke-width="4" stroke-linecap="round" stroke-linejoin="round" stroke-miterlimit="10" d="
		M672.364,455.448l13.979,8.16l5.825-1.165l4.652,3.495l2.331,10.485l8.154,4.66l-1.164,19.81l-6.99,3.495l9.319,8.155l10.482,2.33
		l8.155,12.82l8.155-11.655l12.814-5.825l5.818,3.495l10.485-11.65l12.813,5.825l1.165-3.495l8.155,5.825l16.313-5.825l11.646,4.66
		l-2.325,2.33l-11.647,6.995l-3.495,15.146l1.165,15.15v4.66l-6.99,13.98l4.66,9.317l-3.495,9.325l10.484,8.155l-5.824,3.495
		l-11.65-4.66l-12.814,2.33l-4.658-4.66l3.494-5.825l-11.648-2.33v-3.494l-9.314,3.494l-5.823-4.665l-11.65,8.16l-3.495,6.99
		l-3.495,3.495l-12.813-4.66l-4.66,8.155l-13.978-1.165l1.159,5.824l-4.651,5.829l-13.98,8.153l-2.33-5.824l-6.99,6.989
		l-12.813,1.165l-5.825-11.647l3.495-6.995l-8.155,1.166l10.485-9.32l-19.802-6.99l5.818-16.313l8.155-2.33l9.32-16.311l-6.99-8.16
		v-20.971H636.25l-12.811-9.325l6.991-8.155l-5.825-5.825l30.285-15.15l-4.66-11.65l-5.825,1.165l2.33-15.146l17.479-10.49
		L672.364,455.448"/>
	
		<path id="Linz_Stadt" fill="#123456" stroke="#7B7979" stroke-width="4" stroke-linecap="round" stroke-linejoin="round" stroke-miterlimit="10" d="
		M764.39,502.058l-10.485,11.65l-5.817-3.495l-12.815,5.825l-8.155,11.655l-8.153-12.82l-10.484-2.33l-9.319-8.155l6.99-3.495
		l1.165-19.81l-8.155-4.66l-2.331-10.485l-4.651-3.495l5.816-1.165l-1.165-9.325l-1.164-10.485l10.485-6.99l4.659-17.48h1.165
		l1.165,15.15l15.146,1.165l8.155,6.99l-3.495,6.99l9.32,4.66l-18.644,3.495l13.98,26.8l24.46,13.985l-2.329,3.495L764.39,502.058"
		/>
	
		<path id="Perg" fill="#123456" stroke="#7B7979" stroke-width="4" stroke-linecap="round" stroke-linejoin="round" stroke-miterlimit="10" d="
		M1002.032,387.867l-13.976,17.48l8.148-4.665l9.319,2.335l3.495,9.32l-6.99,30.295l-1.165,5.825l16.313-1.165l2.33,17.48
		l3.495,27.965l-9.32,6.99l2.33,6.99l-10.485,10.49l10.485,13.98l-6.99-4.66l-9.317-16.315l-19.803,2.33l-3.495-3.495l-12.813,5.825
		v8.16l-6.99,12.815l-31.451,10.485l-3.495,1.17l-9.317,3.495l-11.65-4.665l-3.494,10.49l-8.153,4.66l-19.803-12.815l-9.318-9.325
		l-16.312-20.97l-11.647-5.83l-17.479-3.495l-11.646-4.66l-16.313,5.825l-8.155-5.825l-1.163,3.495l-12.813-5.825l-4.66-2.33
		l2.33-3.495l1.165-22.141l6.989-4.66l-2.33-4.66l10.482,5.825l17.479-4.66v-6.99l-9.32,1.165l3.495-10.49l4.66-1.165l17.476,8.155
		l15.144-5.825l4.659,2.33l4.66,3.495v6.995l4.658,4.66l4.66-4.66l8.153,1.165l-1.164-6.99h9.317v-16.315l4.66-1.165l16.308,19.811
		v-1.165l13.979-18.646l11.648,4.66l3.495-5.825l8.153,4.66v-5.825l6.99-1.165l4.654,4.66l11.648-19.81l6.99,1.165l2.33-9.32
		l4.66,4.66l17.476-22.14l18.635-5.825l-1.164-8.155L1002.032,387.867"/>
	
		<path id="Ried" fill="#123456" stroke="#7B7979" stroke-width="4" stroke-linecap="round" stroke-linejoin="round" stroke-miterlimit="10" d="
		M326.381,440.302v4.66l4.66-2.33l13.975,5.825l10.484,3.495l4.658-2.33l11.65,4.66l3.495-4.66l12.813,2.33v10.49l3.495,2.33
		l12.813,9.32l4.659-2.33h5.822l2.33,5.825l-4.66,17.48l-11.645,6.99l-9.32,2.33l-1.165,4.66l6.99,11.655l1.165,8.155l11.645,6.99
		l4.66,5.825l-4.66,16.315l-1.164,17.477l-1.164,6.994l-10.479,11.65l-13.979-3.495l-10.484,3.495l-22.135,5.825h-8.155
		l-3.491,1.165l-12.813,12.816l-11.65,4.66l-2.33,12.815v3.495l-3.495,1.165l2.33-1.165l-3.495-2.33l-9.317,3.495l-2.33-2.33
		l-3.495-9.32h-6.99l1.165-9.32l-8.146-6.994l4.651-8.152l3.495-17.479l1.165-25.636l-5.816-8.155l13.975-9.325l2.33-4.66
		l-10.485-8.155l3.495-3.495l1.165-5.825l-11.645-5.83l-5.825,5.83l-4.66-9.325l-10.485-4.66l-2.328-4.66l-5.824,3.495l-2.33-3.495
		l3.495-9.32l-23.304,5.825l-1.164-2.33l-2.328-18.646l25.631,2.33l26.796-16.31l11.645-10.49l1.165-1.165l12.815-15.145
		l15.146-10.49l1.165,10.49l6.989,3.495L326.381,440.302"/>
	
		<path id="Rohrbach" fill="#123456" stroke="#7B7979" stroke-width="4" stroke-linecap="round" stroke-linejoin="round" stroke-miterlimit="10" d="
		M583.823,200.269l6.99,13.979l16.313,6.995l-1.165,9.32l-2.33,4.66l-11.65,1.165l-5.825,8.16l8.155,8.155l6.99-1.165l-2.33,10.485
		l5.825,5.825l6.987-2.33l-1.165,8.155l12.815-3.495v4.665l8.154,2.33l6.982-5.83l13.98,5.83l9.318-3.5l16.313,4.665l-15.146,6.99
		l1.164,16.31l-6.987,1.165l-1.165,11.655h9.317l1.165,5.825l2.33,19.81l-4.66,1.165l-4.658-6.995l-3.494,5.83l4.659,24.465
		l-8.154,4.665l-5.825,15.146l-2.33,1.165l-3.495-5.825l-6.984-6.99l-5.823,1.165l-10.484,17.476l-2.33,13.985l-10.483-1.165
		l1.164,8.155l-10.483,9.32l-13.98-27.965l-9.313-3.495l-1.165,1.165H561.7l-4.66,10.49l-8.152-11.655l-3.495-18.641l-5.825-3.495
		l-8.155,5.825l-13.976-2.33l8.147,11.65l-2.328,3.495h-1.165l-33.78-26.8l-5.824-3.495l-22.136-26.8l9.319-11.65l-1.166-9.32
		l4.659-12.82l6.99,4.66l12.814-11.65V272.51l10.482-13.98l-3.495-26.8l-1.165-22.141h8.155l1.165-4.66l-9.32-1.165l-9.317-9.32
		l10.482-10.49l1.165-15.145l8.155-11.65l16.306,3.495l22.139,20.97l12.813,12.82L583.823,200.269"/>
	
		<path id="Schärding" fill="#123456" stroke="#7B7979" stroke-width="4" stroke-linecap="round" stroke-linejoin="round" stroke-miterlimit="10" d="
		M382.297,291.155l12.813,6.99l8.15-5.825l19.806,11.65l4.659,1.17l3.495,8.155l6.989,4.66l22.132,11.65l22.136,26.8l5.824,3.495
		l33.779,26.801l-5.818,6.99h-4.66l-8.155-2.33l2.33-5.825l-9.319,4.66l-13.979-10.485l-9.32-2.33l-10.482-5.825l-15.144,9.32
		l1.165,11.65l-5.825,6.995l8.155,13.98l5.825,5.825l4.655,8.16l-5.82,8.155v13.98h-1.165l3.495,8.16l-4.66,4.66l-8.155,5.825
		l-8.152-1.165v1.165l-3.495,10.485l-4.66,2.33l-2.33,13.985l2.33,8.155l-11.649,1.165l-6.988,2.33l-9.314-4.66l11.646-6.99
		l4.657-17.48l-2.329-5.825h-5.823l-4.661,2.33l-12.813-9.32l-3.494-2.33v-10.49l-12.813-2.33l-3.495,4.66l-11.65-4.66l-4.657,2.33
		l-10.485-3.495l-13.978-5.825l-4.657,2.33v-4.66l1.164-3.495l-6.989-3.495l-1.165-10.49l5.824-18.64l6.989-16.315l-1.166-12.815
		l-3.493-8.155l5.823-15.15l2.329-3.495l5.821-18.645l-5.821-9.32l2.331-5.825l-5.824-13.985l5.824-4.66l5.82,6.99l5.824-2.33
		l1.165-4.66l11.647-5.825l-2.33-5.825l5.825-5.825L382.297,291.155"/>
	
		<path id="Steyr_Land" fill="#123456" stroke="#7B7979" stroke-width="4" stroke-linecap="round" stroke-linejoin="round" stroke-miterlimit="10" d="
		M744.59,577.795l5.822,4.665l9.315-3.495v3.495l11.65,2.33l-3.495,5.825l4.66,4.66l12.813-2.33l11.65,4.66l-9.32,10.482
		l-5.825,6.994l-15.145,1.165l-10.485,11.65l-4.655,10.482l2.325,5.83l16.313,6.99l17.475-12.82L804,660.525v8.16l27.957,11.646
		l27.959,19.813l24.461,8.153l13.979,6.989l11.65-6.989l18.64,36.119l-2.33,5.825l-23.3,15.15l6.99,5.824l-6.99,13.979l10.482,12.82
		l-9.317,6.987l5.825,15.149l9.317,8.155l-3.495,3.495l-18.641-10.485l-10.484,15.146l-9.318,3.494l-1.165,8.155l-12.813-2.33
		l-17.476,8.16l-12.815-1.165l-11.646,8.155l1.165,8.155l-5.825,9.316h-11.646l1.165-8.152l-13.979-15.146l9.32-2.33l3.492-11.655
		l-9.317-20.971l-13.98-8.16l1.165-8.151l-8.153,2.327l-3.493-5.822l-10.485-15.15l9.32-34.956l-6.99-4.66l-13.977-6.988
		l-3.494-8.153l-19.809,1.165l-9.317-4.665l5.822-11.65l-5.822-9.317l4.657-13.985h4.66l-10.482-13.98V666.35l-6.99,3.5l-4.66,16.31
		h-17.47l-4.66,2.33l-9.32-3.495l-5.824-13.979l-2.328-1.166l-5.825-1.164l4.659-9.325l-8.154-2.33v-5.825l6.99,2.33l-1.165-4.66
		l4.659-4.66l3.494-11.652l-11.648,5.825l-5.825-8.155l12.814-4.66l3.495-5.825l6.988-6.989l2.33,5.824l13.979-8.152l4.652-5.83
		l-1.158-5.824l13.977,1.165l4.66-8.155l12.813,4.66l3.495-3.495l3.495-6.99L744.59,577.795"/>
	
		<path id="Steyr_Stadt" fill="#123456" stroke="#7B7979" stroke-width="4" stroke-linecap="round" stroke-linejoin="round" stroke-miterlimit="10" d="
		M787.69,638.385l-17.475,12.817l-16.313-6.989l-2.325-5.828l4.655-10.485l10.485-11.65l15.145-1.165l5.825-6.994l5.825,1.171
		l-6.99,4.658l2.33,4.66L787.69,638.385"/>
	
		<path id="Urfahr_Umgebung" fill="#123456" stroke="#7B7979" stroke-width="4" stroke-linecap="round" stroke-linejoin="round" stroke-miterlimit="10" d="
		M678.189,278.335l9.32,5.825l12.811-2.33l10.485,8.155l12.813,2.33l4.659,8.16l3.495-1.165l6.99-12.82l9.318,2.33l6.984-5.825
		l5.825,18.645l12.814,4.66v5.825l-8.154-5.825h-6.99l-4.66,9.32l-1.16-5.825l-6.987,2.33l1.164,3.495l1.164,24.47l10.479,8.155
		l1.165,15.15l4.66,17.476h5.824l3.493,11.655l15.146,11.65l-1.164,10.485l-9.32,4.66l1.165,4.66h-5.825l3.495,6.995l9.32,2.33
		l8.155,15.146l-4.66,1.165l-3.495,10.49l9.319-1.165v6.99l-17.478,4.66l-10.482-5.825l2.33,4.66l-6.99,4.66l-1.165,22.14
		L737.6,482.243l-13.979-26.8l18.643-3.495l-9.32-4.66l3.495-6.99l-8.154-6.99l-15.146-1.165l-1.165-15.15h-1.165l-4.66,17.48
		l-10.485,6.99l1.165,10.485l1.165,9.325l-11.646,2.33l-13.98-8.16l-8.152-6.99l-17.479,10.49v-3.5l-11.645,8.16l-20.974-5.825
		l-2.33-1.17l-17.476-11.65l-2.33-10.485l3.495-12.82l10.484-9.32l-1.164-8.155l10.482,1.165l2.33-13.98l10.485-17.48l5.825-1.165
		l6.982,6.99l3.494,5.83l2.33-1.165l5.825-15.15l8.154-4.66l-4.659-24.471l3.494-5.825l4.659,6.99l4.659-1.165l-2.33-19.81
		l-1.165-5.825h-9.317l1.165-11.65l6.987-1.165l-1.165-16.315L678.189,278.335"/>
	
		<path id="Vöcklabruck" fill="#123456" stroke="#7B7979" stroke-width="4" stroke-linecap="round" stroke-linejoin="round" stroke-miterlimit="10" d="
		M426.564,581.295l6.989,5.825l1.165-1.165l5.825-3.495l2.33,6.99l11.647-1.165l16.306,9.32l3.495-5.825l3.495,5.825l11.65,4.66
		l3.495-1.165l2.327,12.816l9.32,4.66h1.164l3.495,4.66l-4.659,11.65l5.824,4.665l-10.484,12.813l-6.987,12.815v6.994l-9.32-4.664
		l-2.33,12.816l-12.815,2.33l2.33,13.98l-2.33,12.817l-13.976,8.155l-1.165,1.165l-5.825,12.82l-9.317-2.335l-8.155,13.981
		l2.33,10.485l-11.649,4.66l-2.33,9.323h-4.66l2.33,4.659l-6.987,12.815l3.493,1.165l11.648,6.994l-6.99,5.824l-8.151,22.142
		l-12.813,8.154l-6.99-2.33l-3.493-6.989l-8.154-1.17l-3.495-13.979l-17.476,5.824l-3.494-8.154l-13.979-2.33l-23.301,4.659
		l-4.66,2.33l-16.31-10.483l-17.471-1.165l-1.165-6.994l-10.485-5.825l3.495-22.136l-10.485-17.48l4.66-9.317v-32.626l11.65-6.994
		l23.295,16.313l2.328-3.495l3.494-17.479l-31.447-16.312v-8.159l9.317-11.649l-11.647-2.33l15.141-26.801h6.99l3.494,9.318
		l2.33,2.33l9.317-3.494l3.495,2.33l-2.33,1.164l3.495-1.164v-3.495l2.33-12.814l11.647-4.66l12.815-12.817l3.49-1.164h8.155
		l22.135-5.825l10.482-3.495l13.98,3.495l10.479-11.65L426.564,581.295"/>
	
		<path id="Wels_Land" fill="#123456" stroke="#7B7979" stroke-width="4" stroke-linecap="round" stroke-linejoin="round" stroke-miterlimit="10" d="
		M624.603,499.728l5.825,5.825l-6.99,8.155l12.811,9.325h15.146v20.97l6.99,8.16l-9.32,16.313l-8.155,2.33l-5.817,16.313
		l19.801,6.99l-10.485,9.32l-3.495,6.991l-5.817-2.334l-3.495,9.324l-4.66-1.165l-3.495,15.146l-6.989,4.658l-15.146-2.328
		l-6.989,26.801l-15.146,6.99l-19.804-18.644l-10.482,1.165l-6.99,1.165l1.166,4.66l-8.155-1.165l-3.493,5.825l-6.989-11.65
		l4.659-3.495l-12.813-11.653l-5.825,5.829l-5.823-4.663l4.658-11.65l-3.494-4.66h-1.164l-9.319-4.66l-2.33-12.816l-3.495,1.164
		l-11.65-4.659l-3.493-5.825l8.153-5.825l4.66-15.147l3.495-3.495l5.825,5.822l-2.33-3.492l11.648-15.146l3.494,4.66l17.474,2.33
		l-1.165-4.66l5.824-5.825l-18.638-11.655l1.165-5.825l19.801-1.165l9.32-8.155l2.329-1.165l6.99,4.66l4.66,3.495l12.813-9.32
		l10.48,3.495l-1.165-13.985l11.647-2.33l2.33-4.66l12.814,2.33l3.495-4.66l8.152,2.33L624.603,499.728"/>
	
		<path id="Wels_Stadt" fill="#123456" stroke="#7B7979" stroke-width="4" stroke-linecap="round" stroke-linejoin="round" stroke-miterlimit="10" d="
		M598.972,528.859l-8.155,5.825l-9.319-2.33l-2.33,10.485l-12.811,5.83l6.989,12.815l-5.824,13.979l3.494,10.49l2.33-6.99l9.313-3.5
		l24.468-10.482l16.311-10.485l-8.155-16.315l-9.317,1.165l-2.33-8.155L598.972,528.859"/>
</g>
<g id="Beschreibungen">
	<text id="Titel2" transform="matrix(1 0 0 1 29.0208 119.7979)" font-family="'MyriadPro-Regular'" font-size="30">%titel2%</text>
	<text id="Titel1" transform="matrix(0.6758 0 0 1 24.9954 66.1836)" font-family="'ArialMT'" font-size="61.9146">%titel1%</text>
</g>
<g id="Skala">
	<rect id="rect4459" x="32.285" y="577.745" fill="#111101" width="19.682" height="23.016"/>
	<text transform="matrix(0.8552 0 0 1 61.9202 597.7275)" font-family="'ArialMT'" font-size="25.1085">%legende1%</text>
	<rect id="rect4459-1" x="32.285" y="609.457" fill="#111102" width="19.682" height="23.02"/>
	<text transform="matrix(0.8552 0 0 1 61.9202 629.4414)" font-family="'ArialMT'" font-size="25.1085">%legende2%</text>
	<rect id="rect4459-2" x="32.285" y="641.17" fill="#111103" width="19.682" height="23.021"/>
	<text transform="matrix(0.8552 0 0 1 61.9202 661.1533)" font-family="'ArialMT'" font-size="25.1085">%legende3%</text>
	<rect id="rect4459-6" x="32.285" y="672.888" fill="#111104" width="19.682" height="23.018"/>
	<text transform="matrix(0.8552 0 0 1 61.9202 692.8691)" font-family="'ArialMT'" font-size="25.1085">%legende4%</text>
	<rect id="rect4459-29" x="32.285" y="704.596" fill="#111105" width="19.682" height="23.021"/>
	<text transform="matrix(0.8552 0 0 1 61.9202 724.5811)" font-family="'ArialMT'" font-size="25.1085">%legende5%</text>
	<rect id="rect4459-3" x="32.285" y="736.311" fill="#111106" width="19.682" height="23.021"/>
	<text transform="matrix(0.8552 0 0 1 61.9202 756.2949)" font-family="'ArialMT'" font-size="25.1085">%legende6%</text>
	<rect id="rect4459-8" x="32.285" y="768.025" fill="#111107" width="19.682" height="23.018"/>
	<text transform="matrix(0.8552 0 0 1 61.9202 788.0088)" font-family="'ArialMT'" font-size="25.1085">%legende7%</text>
	<rect id="rect4459-9" x="32.285" y="799.736" fill="#111108" width="19.682" height="23.017"/>
	<text transform="matrix(0.8552 0 0 1 61.9202 819.7227)" font-family="'ArialMT'" font-size="25.1085">%legende8%</text>
	<rect id="rect4459-18" x="32.285" y="831.449" fill="#111109" width="19.682" height="23.02"/>
	<text transform="matrix(0.8552 0 0 1 61.9202 851.4346)" font-family="'ArialMT'" font-size="25.1085">%legende9%</text>
	<rect id="rect4459-18-6" x="32.285" y="863.163" fill="#111110" width="19.682" height="23.019"/>
	<text transform="matrix(0.8552 0 0 1 61.9202 883.1465)" font-family="'ArialMT'" font-size="25.1085">%legende10%</text>
</g>
<g id="Kreise">
	<g id="Kreis18" transform="translate(-1099.4425,-1468.408)">
		
			<path id="path3841-8-9-2-0-6-5-2_8_" sodipodi:ry="67.680222" sodipodi:rx="67.680222" sodipodi:cy="1106.1483" sodipodi:cx="328.29956" sodipodi:type="arc" fill="#FFFFFF" stroke="#000000" d="
			M1702.655,1887.611c0,6.187-5.021,11.206-11.212,11.206c-6.188,0-11.206-5.021-11.206-11.206c0-6.191,5.017-11.205,11.206-11.205
			C1697.636,1876.406,1702.655,1881.42,1702.655,1887.611z"/>
		<text transform="matrix(1 0 0 1 1683.1859 1892.5642)" font-family="'ArialMT'" font-size="13.7481">18</text>
	</g>
	<g id="Kreis17" transform="translate(-1099.4425,-1468.408)">
		
			<path id="path3841-8-9-2-0-6-5-2_9_" sodipodi:ry="67.680222" sodipodi:rx="67.680222" sodipodi:cy="1106.1483" sodipodi:cx="328.29956" sodipodi:type="arc" fill="#FFFFFF" stroke="#000000" d="
			M1665.441,1953.615c0,6.188-5.021,11.207-11.215,11.207c-6.188,0-11.206-5.021-11.206-11.207c0-6.189,5.021-11.209,11.206-11.209
			C1660.423,1942.41,1665.441,1947.426,1665.441,1953.615z"/>
		<text transform="matrix(1 0 0 1 1645.973 1958.5691)" font-family="'ArialMT'" font-size="13.7481">17</text>
	</g>
	<g id="Kreis16" transform="translate(-1099.4425,-1468.408)">
		
			<path id="path3841-8-9-2-0-6-5-2_10_" sodipodi:ry="67.680222" sodipodi:rx="67.680222" sodipodi:cy="1106.1483" sodipodi:cx="328.29956" sodipodi:type="arc" fill="#FFFFFF" stroke="#000000" d="
			M1484.003,2025.496c0,6.188-5.021,11.206-11.213,11.206c-6.188,0-11.206-5.021-11.206-11.206c0-6.191,5.021-11.206,11.206-11.206
			C1478.986,2014.291,1484.003,2019.304,1484.003,2025.496z"/>
		<text transform="matrix(1 0 0 1 1464.5345 2030.45)" font-family="'ArialMT'" font-size="13.7481">16</text>
	</g>
	<g id="Kreis15" transform="translate(-1099.4425,-1468.408)">
		
			<path id="path3841-8-9-2-0-6-5-2_11_" sodipodi:ry="67.680222" sodipodi:rx="67.680222" sodipodi:cy="1106.1483" sodipodi:cx="328.29956" sodipodi:type="arc" fill="#FFFFFF" stroke="#000000" d="
			M1815.546,1712.836c0,6.188-5.021,11.206-11.215,11.206c-6.188,0-11.206-5.021-11.206-11.206c0-6.188,5.021-11.204,11.206-11.204
			C1810.53,1701.632,1815.546,1706.645,1815.546,1712.836z"/>
		<text transform="matrix(1 0 0 1 1796.0785 1717.7888)" font-family="'ArialMT'" font-size="13.7481">15</text>
	</g>
	<g id="Kreis14" transform="translate(-1099.4425,-1468.408)">
		
			<path id="path3841-8-9-2-0-6-5-2_12_" sodipodi:ry="67.680222" sodipodi:rx="67.680222" sodipodi:cy="1106.1483" sodipodi:cx="328.29956" sodipodi:type="arc" fill="#FFFFFF" stroke="#000000" d="
			M1879.983,1970.165c0,6.188-5.017,11.208-11.211,11.208c-6.188,0-11.206-5.021-11.206-11.208c0-6.188,5.017-11.207,11.206-11.207
			C1874.964,1958.958,1879.983,1963.973,1879.983,1970.165z"/>
		<text transform="matrix(1 0 0 1 1860.514 1975.116)" font-family="'ArialMT'" font-size="13.7481">14</text>
	</g>
	<g id="Kreis13" transform="translate(-1099.4425,-1468.408)">
		
			<path id="path3841-8-9-2-0-6-5-2_13_" sodipodi:ry="67.680222" sodipodi:rx="67.680222" sodipodi:cy="1106.1483" sodipodi:cx="328.29956" sodipodi:type="arc" fill="#FFFFFF" stroke="#000000" d="
			M1943.436,2091.492c0,6.186-5.021,11.205-11.211,11.205c-6.188,0-11.206-5.021-11.206-11.205c0-6.191,5.017-11.207,11.206-11.207
			C1938.415,2080.285,1943.436,2085.301,1943.436,2091.492z"/>
		<text transform="matrix(1 0 0 1 1923.9681 2096.4421)" font-family="'ArialMT'" font-size="13.7481">13</text>
	</g>
	<g id="Kreis12" transform="translate(-1099.4425,-1468.408)">
		
			<path id="path3841-8-9-2-0-6-5-2_14_" sodipodi:ry="67.680222" sodipodi:rx="67.680222" sodipodi:cy="1106.1483" sodipodi:cx="328.29956" sodipodi:type="arc" fill="#FFFFFF" stroke="#000000" d="
			M1497.744,1714.809c0,6.186-5.021,11.205-11.213,11.205c-6.188,0-11.205-5.021-11.205-11.205c0-6.191,5.02-11.206,11.205-11.206
			C1492.723,1703.603,1497.744,1708.618,1497.744,1714.809z"/>
		<text transform="matrix(1 0 0 1 1478.2709 1719.7585)" font-family="'ArialMT'" font-size="13.7481">12</text>
	</g>
	<g id="Kreis11" transform="translate(-1099.4425,-1468.408)">
		
			<path id="path3841-8-9-2-0-6-5-2_3_" sodipodi:ry="67.680222" sodipodi:rx="67.680222" sodipodi:cy="1106.1483" sodipodi:cx="328.29956" sodipodi:type="arc" fill="#FFFFFF" stroke="#000000" d="
			M1671.931,1649.384c0,6.188-5.021,11.205-11.21,11.205c-6.188,0-11.208-5.02-11.208-11.205c0-6.188,5.018-11.209,11.208-11.209
			C1666.913,1638.175,1671.931,1643.193,1671.931,1649.384z"/>
		<text transform="matrix(1 0 0 1 1653.1674 1654.3357)" font-family="'ArialMT'" font-size="13.7481">11</text>
	</g>
	<g id="Kreis10" transform="translate(-1099.4425,-1468.408)">
		
			<path id="path3841-8-9-2-0-6-5-2_2_" sodipodi:ry="67.680222" sodipodi:rx="67.680222" sodipodi:cy="1106.1483" sodipodi:cx="328.29956" sodipodi:type="arc" fill="#FFFFFF" stroke="#000000" d="
			M1456.934,1862.603c0,6.186-5.021,11.206-11.21,11.206c-6.188,0-11.207-5.021-11.207-11.206c0-6.19,5.021-11.209,11.207-11.209
			C1451.917,1851.394,1456.934,1856.412,1456.934,1862.603z"/>
		<text transform="matrix(1 0 0 1 1437.8168 1867.5544)" font-family="'ArialMT'" font-size="13.7481">10</text>
	</g>
	<g id="Kreis09" transform="translate(-1099.4425,-1468.408)">
		
			<path id="path3841-8-9-2-0-6-5-2_23_" sodipodi:ry="67.680222" sodipodi:rx="67.680222" sodipodi:cy="1106.1483" sodipodi:cx="328.29956" sodipodi:type="arc" fill="#FFFFFF" stroke="#000000" d="
			M2027.323,1828.351c0,6.186-5.017,11.206-11.211,11.206c-6.188,0-11.206-5.021-11.206-11.206c0-6.191,5.018-11.206,11.206-11.206
			C2022.306,1817.145,2027.323,1822.16,2027.323,1828.351z"/>
		<text transform="matrix(1 0 0 1 2012.4291 1833.3025)" font-family="'ArialMT'" font-size="13.7481">9</text>
	</g>
	<g id="Kreis08" transform="translate(-1099.4425,-1468.408)">
		
			<path id="path3841-8-9-2-0-6-5-2_22_" sodipodi:ry="67.680222" sodipodi:rx="67.680222" sodipodi:cy="1106.1483" sodipodi:cx="328.29956" sodipodi:type="arc" fill="#FFFFFF" stroke="#000000" d="
			M1835.494,1829.914c0,6.188-5.018,11.205-11.211,11.205c-6.188,0-11.206-5.02-11.206-11.205c0-6.188,5.021-11.202,11.206-11.202
			C1830.48,1818.709,1835.494,1823.722,1835.494,1829.914z"/>
		<text transform="matrix(1 0 0 1 1820.6 1834.865)" font-family="'ArialMT'" font-size="13.7481">8</text>
	</g>
	<g id="Kreis07" transform="translate(-1099.4425,-1468.408)">
		
			<path id="path3841-8-9-2-0-6-5-2_21_" sodipodi:ry="67.680222" sodipodi:rx="67.680222" sodipodi:cy="1106.1483" sodipodi:cx="328.29956" sodipodi:type="arc" fill="#FFFFFF" stroke="#000000" d="
			M1804.716,1895.641c0,6.186-5.02,11.204-11.214,11.204c-6.188,0-11.206-5.021-11.206-11.204c0-6.191,5.021-11.208,11.206-11.208
			C1799.7,1884.435,1804.716,1889.449,1804.716,1895.641z"/>
		<text transform="matrix(1 0 0 1 1789.8226 1900.5916)" font-family="'ArialMT'" font-size="13.7481">7</text>
	</g>
	<g id="Kreis06" transform="translate(-1099.4425,-1468.408)">
		
			<path id="path3841-8-9-2-0-6-5-2_20_" sodipodi:ry="67.680222" sodipodi:rx="67.680222" sodipodi:cy="1106.1483" sodipodi:cx="328.29956" sodipodi:type="arc" fill="#FFFFFF" stroke="#000000" d="
			M1802.237,2137.467c0,6.188-5.018,11.207-11.212,11.207c-6.188,0-11.206-5.021-11.206-11.207c0-6.188,5.018-11.205,11.206-11.205
			C1797.219,2126.261,1802.237,2131.276,1802.237,2137.467z"/>
		<text transform="matrix(1 0 0 1 1787.3431 2142.4177)" font-family="'ArialMT'" font-size="13.7481">6</text>
	</g>
	<g id="Kreis05" transform="translate(-1099.4425,-1468.408)">
		
			<path id="path3841-8-9-2-0-6-5-2_19_" sodipodi:ry="67.680222" sodipodi:rx="67.680222" sodipodi:cy="1106.1483" sodipodi:cx="328.29956" sodipodi:type="arc" fill="#FFFFFF" stroke="#000000" d="
			M1585.474,1845.432c0,6.186-5.02,11.206-11.212,11.206c-6.188,0-11.206-5.021-11.206-11.206c0-6.191,5.018-11.206,11.206-11.206
			C1580.454,1834.226,1585.474,1839.241,1585.474,1845.432z"/>
		<text transform="matrix(1 0 0 1 1570.5804 1850.3835)" font-family="'ArialMT'" font-size="13.7481">5</text>
	</g>
	<g id="Kreis04" transform="translate(-1099.4425,-1468.408)">
		
			<path id="path3841-8-9-2-0-6-5-2_18_" sodipodi:ry="67.680222" sodipodi:rx="67.680222" sodipodi:cy="1106.1483" sodipodi:cx="328.29956" sodipodi:type="arc" fill="#FFFFFF" stroke="#000000" d="
			M1612.98,2114.784c0,6.187-5.018,11.207-11.211,11.207c-6.188,0-11.206-5.021-11.206-11.207c0-6.19,5.021-11.207,11.206-11.207
			C1607.962,2103.578,1612.98,2108.594,1612.98,2114.784z"/>
		<text transform="matrix(1 0 0 1 1598.0863 2119.3835)" font-family="'ArialMT'" font-size="13.7481">4</text>
	</g>
	<g id="Kreis03" transform="translate(-1099.4425,-1468.408)">
		
			<path id="path3841-8-9-2-0-6-5-2_15_" sodipodi:ry="67.680222" sodipodi:rx="67.680222" sodipodi:cy="1106.1483" sodipodi:cx="328.29956" sodipodi:type="arc" fill="#FFFFFF" stroke="#000000" d="
			M1969.271,1697.277c0,6.186-5.021,11.206-11.211,11.206c-6.188,0-11.206-5.021-11.206-11.206c0-6.189,5.018-11.206,11.206-11.206
			C1964.249,1686.071,1969.271,1691.087,1969.271,1697.277z"/>
		<text transform="matrix(1 0 0 1 1954.3763 1701.8767)" font-family="'ArialMT'" font-size="13.7481">3</text>
	</g>
	<g id="Kreis02" transform="translate(-1099.4425,-1468.408)">
		
			<path id="path3841-8-9-2-0-6-5-2_16_" sodipodi:ry="67.680222" sodipodi:rx="67.680222" sodipodi:cy="1106.1483" sodipodi:cx="328.29956" sodipodi:type="arc" fill="#FFFFFF" stroke="#000000" d="
			M1686.87,1801.567c0,6.188-5.021,11.206-11.212,11.206c-6.188,0-11.206-5.02-11.206-11.206c0-6.191,5.02-11.206,11.206-11.206
			C1681.851,1790.361,1686.87,1795.375,1686.87,1801.567z"/>
		<text transform="matrix(1 0 0 1 1671.975 1806.1658)" font-family="'ArialMT'" font-size="13.7481">2</text>
	</g>
	<g id="Kreis01" transform="translate(-1099.4425,-1468.408)">
		
			<path id="path3841-8-9-2-0-6-5-2_17_" sodipodi:ry="67.680222" sodipodi:rx="67.680222" sodipodi:cy="1106.1483" sodipodi:cx="328.29956" sodipodi:type="arc" fill="#FFFFFF" stroke="#000000" d="
			M1290.069,1921.376c0,6.188-5.017,11.206-11.211,11.206c-6.188,0-11.207-5.021-11.207-11.206c0-6.188,5.018-11.207,11.207-11.207
			C1285.052,1910.169,1290.069,1915.184,1290.069,1921.376z"/>
		<text transform="matrix(1 0 0 1 1274.8236 1926.6785)" font-family="'ArialMT'" font-size="13.7481">1</text>
	</g>
	<text transform="matrix(0.7878 0 0 1 940.0569 571.5801)" font-family="'MyriadPro-Regular'" font-size="15.6804">1. Braunau</text>
	<text transform="matrix(0.7878 0 0 1 940.0569 590.3965)" font-family="'MyriadPro-Regular'" font-size="15.6804">2. Eferding</text>
	<text transform="matrix(0.7878 0 0 1 940.0569 609.2129)" font-family="'MyriadPro-Regular'" font-size="15.6804">3. Freistadt</text>
	<text transform="matrix(0.7878 0 0 1 940.0569 628.0293)" font-family="'MyriadPro-Regular'" font-size="15.6804">4. Gmunden</text>
	<text transform="matrix(0.7878 0 0 1 940.0569 646.8457)" font-family="'MyriadPro-Regular'" font-size="15.6804">5. Grießkirchen</text>
	<text transform="matrix(0.7878 0 0 1 940.0569 665.6621)" font-family="'MyriadPro-Regular'" font-size="15.6804">6. Kirchdorf</text>
	<text transform="matrix(0.7878 0 0 1 940.0569 684.4785)" font-family="'MyriadPro-Regular'" font-size="15.6804">7. Linz Land</text>
	<text transform="matrix(0.7878 0 0 1 940.0569 703.2959)" font-family="'MyriadPro-Regular'" font-size="15.6804">8. Linz Stadt</text>
	<text transform="matrix(0.7878 0 0 1 940.0569 722.1123)" font-family="'MyriadPro-Regular'" font-size="15.6804">9. Perg</text>
	<text transform="matrix(0.7878 0 0 1 940.0569 740.9287)" font-family="'MyriadPro-Regular'" font-size="15.6804">10. Ried</text>
	<text transform="matrix(0.7878 0 0 1 940.0569 759.7451)" font-family="'MyriadPro-Regular'" font-size="15.6804">11. Rohrbach</text>
	<text transform="matrix(0.7878 0 0 1 940.0569 778.5615)" font-family="'MyriadPro-Regular'" font-size="15.6804">12. Schärding</text>
	<text transform="matrix(0.7878 0 0 1 940.0569 797.3779)" font-family="'MyriadPro-Regular'" font-size="15.6804">13. Steyr Land</text>
	<text transform="matrix(0.7878 0 0 1 940.0569 816.1943)" font-family="'MyriadPro-Regular'" font-size="15.6804">14. Steyr Stadt</text>
	<text transform="matrix(0.7878 0 0 1 940.0569 835.0107)" font-family="'MyriadPro-Regular'" font-size="15.6804">15. Urfahr Umg.</text>
	<text transform="matrix(0.7878 0 0 1 940.0569 853.8271)" font-family="'MyriadPro-Regular'" font-size="15.6804">16. Vöcklabruck</text>
	<text transform="matrix(0.7878 0 0 1 940.0569 872.6426)" font-family="'MyriadPro-Regular'" font-size="15.6804">17. Wels Land</text>
	<text transform="matrix(0.7878 0 0 1 940.0569 891.46)" font-family="'MyriadPro-Regular'" font-size="15.6804">18. Wels Stadt</text>
</g>
<text transform="matrix(1 0 0 1 528.6135 822.6504)" font-family="'MyriadPro-Regular'" font-size="14.2709">Visualisierung erstellt mit</text>
<text transform="matrix(1 0 0 1 565.4026 839.7754)" font-family="'MyriadPro-Regular'" font-size="14.2709">DataMaps.eu</text>
<text transform="matrix(1 0 0 1 540.5081 856.9004)" font-family="'MyriadPro-Regular'" font-size="14.2709">provided by open3.at</text>
<g id="open3-logo">
	<path fill="#007CC1" d="M618.204,886.838c0-3.04-1.449-4.771-3.251-5.729c1.66-0.884,2.896-2.438,2.896-5.16
		c0-4.235-3.221-7.211-7.668-7.211c-4.241,0-7.604,2.688-7.704,7.178h4.594c0.106-1.904,1.378-3.036,3.11-3.036
		c1.656,0,3.069,1.096,3.069,3.217c0,1.767-0.954,3.145-3.182,3.145h-0.671v3.994h0.671c2.263,0,3.535,1.378,3.535,3.464
		c0,2.265-1.414,3.498-3.396,3.498c-1.803,0-3.354-1.021-3.429-3.286h-4.588c0.07,5.271,3.922,7.421,8.021,7.421
		C614.531,894.329,618.204,891.856,618.204,886.838z"/>
	<path fill="#9C9D9F" d="M536.144,881.994c0,5.833-2.326,9.688-6.076,9.688c-3.61,0-6.284-3.854-6.284-10.381
		c0-5.694,2.152-9.549,6.076-9.549C533.678,871.751,536.144,875.641,536.144,881.994z M540.657,881.718
		c0-7.813-4.479-12.645-10.729-12.645s-10.692,4.829-10.692,12.645c0,8.331,4.756,12.914,10.689,12.914
		C535.866,894.632,540.657,890.05,540.657,881.718z"/>
	<path fill="#9C9D9F" d="M555.774,884.841c0,4.375-1.84,7.321-4.757,7.321c-1.354,0-2.152-0.416-2.708-0.862v-11.526
		c0-1.251,0.863-1.91,2.604-1.91C553.309,877.862,555.774,880.085,555.774,884.841z M559.801,884.634
		c0-4.86-2.356-8.959-8.779-8.959c-2.188,0-4.409,0.557-5.352,1.182c-0.973,0.66-1.314,1.284-1.314,2.535v20.105
		c0,0.417,0.208,0.597,0.625,0.597h2.738c0.417,0,0.595-0.18,0.595-0.597v-5.903c0.446,0.313,1.667,0.937,3.398,0.937
		C557.162,894.527,559.801,889.46,559.801,884.634z"/>
	<path fill="#9C9D9F" d="M573.995,882.063l-7.534,1.285c0.144-2.709,1.318-5.486,4.102-5.486
		C573.024,877.862,573.892,879.911,573.995,882.063z M577.884,888.695c0-0.451-0.347-0.868-0.798-0.868
		c-0.417,0-0.729,0.313-0.898,0.625c-0.729,1.284-2.188,2.951-4.409,2.951c-3.333,0-4.936-2.813-5.144-6.076l10.104-1.666
		c0.729-0.104,1.042-0.348,1.042-1.105c0-3.51-2.465-6.875-6.805-6.875c-4.137,0-7.951,2.882-7.951,9.34
		c0,6.806,3.75,9.549,7.951,9.549C575.418,894.563,577.884,890.778,577.884,888.695z"/>
	<path fill="#9C9D9F" d="M596.382,893.521v-12.5c0-4.166-3.75-5.347-7.431-5.347c-2.568,0-4.687,0.48-5.833,1.041
		c-1.042,0.521-1.389,1.008-1.389,2.147v14.652c0,0.416,0.208,0.59,0.625,0.59h2.743c0.416,0,0.625-0.174,0.625-0.59v-13.4
		c0-1.106,0.273-2.291,3.09-2.291c2.773,0,3.605,1.666,3.605,3.367v12.326c0,0.416,0.179,0.59,0.595,0.59h2.773
		C596.208,894.111,596.382,893.938,596.382,893.521z"/>
	<path fill="#007CC1" d="M624.353,892.548c0-2.474-3.48-2.002-3.48-3.61c0-0.688,0.454-1.104,1.169-1.104
		c0.701,0,1,0.48,1.169,0.857c0.091,0.195,0.247,0.363,0.48,0.363c0.286,0,0.494-0.156,0.494-0.479c0-0.438-0.642-1.378-2.117-1.378
		c-1.299,0-2.233,0.688-2.233,1.871c0,2.246,3.441,1.779,3.441,3.597c0,0.624-0.416,1.131-1.221,1.131
		c-0.758,0-1.174-0.624-1.343-1.063c-0.073-0.223-0.229-0.391-0.52-0.391c-0.313,0-0.521,0.189-0.521,0.52
		c0,0.546,0.849,1.638,2.343,1.638C623.522,894.496,624.353,893.664,624.353,892.548z"/>
	<path fill="#007CC1" d="M630.923,890.898c0,1.701-0.714,2.87-1.937,2.87c-1.169,0-2.025-1.169-2.025-3.092
		c0-1.649,0.702-2.812,1.961-2.812C630.145,887.871,630.923,889.041,630.923,890.898z M632.067,890.807
		c0-2.223-1.272-3.611-3.117-3.611s-3.131,1.39-3.131,3.611c0,2.377,1.377,3.688,3.131,3.688
		C630.704,894.494,632.067,893.184,632.067,890.807z"/>
	<path fill="#007CC1" d="M639.052,893.169c0-0.172-0.09-0.271-0.242-0.271c-0.095,0-0.168,0.052-0.265,0.129
		c-0.286,0.286-0.767,0.676-1.605,0.676c-1.325,0-2.208-1.299-2.208-3.104c0-1.754,0.793-2.753,1.923-2.753
		c0.948,0,1.271,0.597,1.429,0.922c0.091,0.182,0.233,0.364,0.48,0.364c0.286,0,0.488-0.171,0.488-0.481
		c0-0.468-0.752-1.455-2.338-1.455c-1.982,0-3.112,1.649-3.112,3.586c0,2.019,1.04,3.715,3.19,3.715
		C638.156,894.496,639.052,893.573,639.052,893.169z"/>
	<path fill="#007CC1" d="M641.808,894.197v-6.702c0-0.104-0.057-0.15-0.156-0.15h-0.778c-0.104,0-0.156,0.052-0.156,0.15v6.702
		c0,0.104,0.057,0.156,0.156,0.156h0.778C641.755,894.354,641.808,894.3,641.808,894.197z"/>
	<path fill="#007CC1" d="M647.832,894.197v-0.403c0-0.104-0.053-0.15-0.156-0.15h-2.606v-2.585h2.223
		c0.104,0,0.155-0.056,0.155-0.154v-0.377c0-0.104-0.052-0.156-0.155-0.156h-2.223v-2.313h2.606c0.104,0,0.156-0.056,0.156-0.155
		v-0.405c0-0.104-0.053-0.151-0.156-0.151h-3.546c-0.104,0-0.151,0.053-0.151,0.151v6.702c0,0.104,0.052,0.156,0.151,0.156h3.546
		C647.781,894.354,647.832,894.3,647.832,894.197z"/>
	<path fill="#007CC1" d="M653.65,887.897v-0.402c0-0.104-0.064-0.15-0.169-0.15H649c-0.104,0-0.168,0.052-0.168,0.15v0.402
		c0,0.104,0.063,0.155,0.168,0.155h1.7v6.131c0,0.116,0.053,0.17,0.17,0.17h0.753c0.116,0,0.169-0.055,0.169-0.17v-6.131h1.688
		C653.584,888.053,653.65,888.001,653.65,887.897z"/>
	<path fill="#007CC1" d="M659.609,887.495c0-0.104-0.064-0.15-0.168-0.15h-0.585c-0.117,0-0.169,0.039-0.233,0.143l-1.56,2.779
		h-0.025l-1.521-2.779c-0.065-0.104-0.118-0.143-0.234-0.143h-0.792c-0.104,0-0.155,0.052-0.155,0.15
		c0,0.038,0.018,0.096,0.039,0.146l2.053,3.455v3.104c0,0.104,0.057,0.156,0.156,0.156h0.778c0.104,0,0.156-0.054,0.156-0.156
		v-3.104l2.052-3.455C659.596,887.599,659.609,887.533,659.609,887.495z"/>
	<path fill="#007CC1" d="M624.533,881.466c0,1.807-0.792,2.925-2.57,2.925c-0.338,0-0.638-0.04-0.807-0.066v-5.715
		c0.131-0.026,0.455-0.052,0.807-0.052C623.677,878.557,624.533,879.66,624.533,881.466z M625.664,881.479
		c0-2.155-1.183-3.572-3.768-3.572c-0.811,0-1.507,0.092-1.676,0.146c-0.135,0.038-0.155,0.104-0.155,0.221v6.441
		c0,0.112,0.021,0.184,0.155,0.222c0.182,0.053,1.001,0.143,1.676,0.143C624.483,885.076,625.664,883.739,625.664,881.479z"/>
	<path fill="#007CC1" d="M630.911,882.142h-2.234l0.779-2.195c0.208-0.585,0.323-1.271,0.323-1.271h0.026
		c0,0,0.13,0.688,0.338,1.271L630.911,882.142z M632.976,884.856c0-0.04-0.026-0.117-0.039-0.156l-2.521-6.559
		c-0.039-0.104-0.078-0.156-0.19-0.156h-0.719c-0.13,0-0.169,0.052-0.208,0.156l-2.507,6.559c-0.021,0.053-0.039,0.116-0.039,0.156
		c0,0.091,0.057,0.143,0.155,0.143h0.61c0.111,0,0.168-0.052,0.208-0.149l0.735-2.079h2.648l0.729,2.079
		c0.039,0.104,0.096,0.149,0.194,0.149h0.778C632.923,884.999,632.976,884.947,632.976,884.856z"/>
	<path fill="#007CC1" d="M638.091,878.544v-0.401c0-0.104-0.063-0.156-0.169-0.156h-4.479c-0.104,0-0.169,0.052-0.169,0.156v0.401
		c0,0.104,0.063,0.15,0.169,0.15h1.701v6.131c0,0.117,0.052,0.169,0.169,0.169h0.753c0.117,0,0.169-0.052,0.169-0.169v-6.13h1.688
		C638.027,878.699,638.091,878.647,638.091,878.544z"/>
	<path fill="#007CC1" d="M642.544,882.142h-2.229l0.774-2.195c0.208-0.585,0.325-1.271,0.325-1.271h0.025
		c0,0,0.13,0.688,0.338,1.271L642.544,882.142z M644.61,884.856c0-0.04-0.025-0.117-0.039-0.156l-2.521-6.559
		c-0.04-0.104-0.074-0.156-0.191-0.156h-0.714c-0.135,0-0.169,0.052-0.208,0.156l-2.512,6.559c-0.021,0.053-0.039,0.116-0.039,0.156
		c0,0.091,0.057,0.143,0.156,0.143h0.609c0.117,0,0.169-0.052,0.208-0.149l0.74-2.079h2.646l0.729,2.079
		c0.039,0.104,0.091,0.149,0.19,0.149h0.778C644.558,884.999,644.61,884.947,644.61,884.856z"/>
	<path fill="#007CC1" d="M625.561,874.749v-2.624c0-0.104-0.078-0.15-0.187-0.15h-2.141c-0.104,0-0.154,0.053-0.154,0.15v0.354
		c0,0.104,0.051,0.168,0.154,0.168h1.299v1.715c0,0.416-0.624,0.701-1.467,0.701c-1.221,0-2.146-1.26-2.146-3.117
		c0-1.688,0.753-2.806,2.079-2.806c1.025,0,1.401,0.604,1.563,0.922c0.091,0.195,0.221,0.352,0.479,0.352
		c0.313,0,0.48-0.183,0.48-0.479c0-0.431-0.649-1.442-2.434-1.442c-2.021,0-3.313,1.469-3.313,3.611
		c0,2.312,1.376,3.688,3.337,3.688C624.508,875.788,625.561,875.256,625.561,874.749z"/>
	<path fill="#007CC1" d="M632.442,872.19c0,1.701-0.714,2.87-1.938,2.87c-1.169,0-2.021-1.169-2.021-3.092
		c0-1.649,0.701-2.811,1.961-2.811C631.662,869.164,632.442,870.333,632.442,872.19z M633.584,872.1
		c0-2.222-1.271-3.611-3.118-3.611c-1.844,0-3.13,1.396-3.13,3.611c0,2.377,1.376,3.688,3.13,3.688
		C632.221,875.788,633.584,874.477,633.584,872.1z"/>
	<path fill="#007CC1" d="M640.519,868.787c0-0.104-0.063-0.149-0.168-0.149h-0.663c-0.117,0-0.169,0.052-0.208,0.149l-1.642,4.729
		c-0.144,0.43-0.242,0.947-0.242,0.947h-0.026c0,0-0.078-0.521-0.221-0.947l-1.61-4.729c-0.04-0.104-0.104-0.149-0.208-0.149h-0.832
		c-0.104,0-0.155,0.052-0.155,0.149c0,0.039,0.019,0.104,0.04,0.156l2.455,6.546c0.038,0.104,0.091,0.156,0.208,0.156h0.545
		c0.13,0,0.187-0.052,0.227-0.156l2.467-6.546C640.506,868.892,640.519,868.826,640.519,868.787z"/>
	<path fill="#007CC1" d="M645.751,875.489v-0.396c0-0.104-0.053-0.155-0.151-0.155h-2.611v-2.586h2.222
		c0.104,0,0.155-0.054,0.155-0.155v-0.377c0-0.104-0.052-0.156-0.155-0.156h-2.222v-2.312h2.61c0.104,0,0.152-0.058,0.152-0.156
		v-0.402c0-0.104-0.053-0.149-0.152-0.149h-3.549c-0.104,0-0.151,0.052-0.151,0.149v6.702c0,0.104,0.052,0.156,0.151,0.156h3.549
		C645.699,875.646,645.751,875.593,645.751,875.489z"/>
	<path fill="#007CC1" d="M650.893,870.632c0,0.854-0.624,1.43-1.792,1.43c-0.265,0-0.473,0-0.585-0.014v-2.83
		c0.169-0.027,0.416-0.065,0.832-0.065C650.425,869.151,650.893,869.671,650.893,870.632z M652.27,875.489
		c0-0.038-0.026-0.09-0.056-0.143l-1.145-2.093c-0.208-0.394-0.558-0.738-0.805-0.855v-0.025c0.832-0.19,1.7-0.793,1.7-1.813
		c0-1.188-0.738-2-2.608-2c-0.845,0-1.546,0.091-1.741,0.143c-0.13,0.039-0.155,0.091-0.155,0.208v6.585
		c0,0.104,0.057,0.156,0.155,0.156h0.74c0.104,0,0.156-0.052,0.156-0.156v-2.922h0.468c0.467,0,0.792,0.416,0.975,0.779l1.092,2.17
		c0.039,0.077,0.135,0.129,0.265,0.129h0.805C652.218,875.646,652.27,875.593,652.27,875.489z"/>
	<path fill="#007CC1" d="M659.592,875.489v-6.702c0-0.104-0.052-0.149-0.151-0.149h-0.563c-0.104,0-0.151,0.052-0.151,0.149v4.248
		c0,0.584,0.073,1.272,0.073,1.272h-0.038c0,0-0.3-0.643-0.638-1.131l-3-4.396c-0.063-0.104-0.117-0.15-0.229-0.15h-0.85
		c-0.104,0-0.151,0.053-0.151,0.15v6.702c0,0.104,0.053,0.156,0.151,0.156h0.57c0.104,0,0.156-0.053,0.156-0.156v-4.585
		c0-0.521-0.064-1.208-0.064-1.208h0.025c0,0,0.299,0.637,0.605,1.104l3.194,4.688c0.065,0.104,0.104,0.156,0.234,0.156h0.662
		C659.54,875.646,659.592,875.593,659.592,875.489z"/>
	<path fill="#007CC1" d="M669.123,875.517c0-0.04-0.676-6.729-0.676-6.729c-0.013-0.104-0.052-0.149-0.154-0.149h-0.846
		c-0.104,0-0.155,0.063-0.194,0.149l-1.701,4.521c-0.169,0.456-0.271,1.015-0.271,1.015h-0.025c0,0-0.114-0.559-0.286-1.015
		l-1.688-4.521c-0.039-0.091-0.091-0.149-0.194-0.149h-0.854c-0.104,0-0.146,0.052-0.156,0.149c0,0-0.675,6.689-0.675,6.729
		c0,0.09,0.063,0.129,0.154,0.129h0.638c0.104,0,0.144-0.052,0.154-0.156l0.36-4.546c0.04-0.56,0.04-1.338,0.04-1.338h0.025
		c0,0,0.183,0.778,0.391,1.338l1.688,4.563c0.039,0.104,0.078,0.144,0.19,0.144h0.324c0.117,0,0.156-0.039,0.194-0.144l1.688-4.563
		c0.208-0.571,0.395-1.338,0.395-1.338h0.021c0,0,0,0.778,0.038,1.338l0.364,4.546c0.014,0.104,0.052,0.156,0.156,0.156h0.754
		C669.085,875.646,669.123,875.606,669.123,875.517z"/>
	<path fill="#007CC1" d="M674.787,875.489v-0.396c0-0.104-0.053-0.155-0.156-0.155h-2.606v-2.586h2.222
		c0.104,0,0.155-0.054,0.155-0.155v-0.377c0-0.104-0.052-0.156-0.155-0.156h-2.222v-2.312h2.606c0.104,0,0.156-0.058,0.156-0.156
		v-0.402c0-0.104-0.053-0.149-0.156-0.149h-3.547c-0.104,0-0.156,0.052-0.156,0.149v6.702c0,0.104,0.057,0.156,0.156,0.156h3.547
		C674.736,875.646,674.787,875.593,674.787,875.489z"/>
	<path fill="#007CC1" d="M682.176,875.489v-6.702c0-0.104-0.052-0.149-0.151-0.149h-0.563c-0.104,0-0.151,0.052-0.151,0.149v4.248
		c0,0.584,0.073,1.272,0.073,1.272h-0.038c0,0-0.3-0.643-0.637-1.131l-3-4.396c-0.063-0.104-0.117-0.15-0.229-0.15h-0.849
		c-0.104,0-0.151,0.053-0.151,0.15v6.702c0,0.104,0.052,0.156,0.151,0.156h0.572c0.104,0,0.154-0.053,0.154-0.156v-4.585
		c0-0.521-0.064-1.208-0.064-1.208h0.025c0,0,0.299,0.637,0.61,1.104l3.19,4.688c0.064,0.104,0.104,0.156,0.233,0.156h0.663
		C682.123,875.646,682.176,875.593,682.176,875.489z"/>
	<path fill="#007CC1" d="M688.408,869.189v-0.402c0-0.104-0.064-0.149-0.169-0.149h-4.48c-0.104,0-0.169,0.052-0.169,0.149v0.402
		c0,0.104,0.064,0.156,0.169,0.156h1.702v6.131c0,0.116,0.057,0.169,0.168,0.169h0.753c0.117,0,0.169-0.053,0.169-0.169v-6.131
		h1.688C688.343,869.346,688.408,869.294,688.408,869.189z"/>
</g>
</svg>
