<?xml version="1.0" encoding="utf-8"?>
<!-- Generator: Adobe Illustrator 13.0.0, SVG Export Plug-In . SVG Version: 6.00 Build 14948)  -->
<!DOCTYPE svg PUBLIC "-//W3C//DTD SVG 1.1//EN" "http://www.w3.org/Graphics/SVG/1.1/DTD/svg11.dtd">
<svg version="1.1"
	 id="Bundesländer_1_" xmlns:rdf="http://www.w3.org/1999/02/22-rdf-syntax-ns#" xmlns:svg="http://www.w3.org/2000/svg" xmlns:sodipodi="http://sodipodi.sourceforge.net/DTD/sodipodi-0.dtd" xmlns:inkscape="http://www.inkscape.org/namespaces/inkscape" xmlns:dc="http://purl.org/dc/elements/1.1/" xmlns:cc="http://creativecommons.org/ns#" inkscape:version="0.48.0 r9654" sodipodi:docname="kaernten.svg"
	 xmlns="http://www.w3.org/2000/svg" xmlns:xlink="http://www.w3.org/1999/xlink" x="0px" y="0px" width="1307.33px"
	 height="787.48px" viewBox="0 200.48 1307.33 787.48" enable-background="new 0 200.48 1307.33 787.48" xml:space="preserve">
<g id="Bezirke" transform="matrix(1.7317682,0,0,1.7317682,-36.457818,191.00902)">
	
		<path id="Feldkirchen" inkscape:connector-curvature="0" fill="#123456" stroke="#7B7979" stroke-width="1.7378" stroke-linecap="round" stroke-linejoin="round" stroke-miterlimit="10" d="
		M435.405,179.153l1.527,19.088l4.581,3.818l6.109,3.817l4.581-1.527l11.454,3.054l4.581,5.345l9.162-9.163h0.764l-3.818,4.581
		l2.291,1.528l-1.528,4.581l-5.344,7.635l8.399,2.291l2.291-3.054l9.162,6.108l-3.818,2.291v3.818l6.109,3.054l4.581-3.818
		l3.818,3.054v5.345l-7.635,4.581l1.527,3.055l4.581-1.527l-0.764,5.345h17.562l0.763,3.82l-3.817,1.528l-4.581,11.452h-13.744
		l-6.872,9.926l-6.871-3.817l-3.818,5.344h-4.581l-7.636-0.762l-10.69,6.871l-11.452-1.526l-13.744,5.344l-12.217,3.055l5.345-2.291
		l2.291-5.345v-0.763l2.291-4.582l-12.216-8.399l12.216-9.162l-6.108-16.801l-4.581-0.764l-3.818-6.108l-9.926,4.581l-6.872-8.399
		l-8.399-0.765l4.582-6.871l0.763-14.507l-3.817-2.29l1.527-5.345l-8.399-2.291l1.527-6.108l-8.399-5.345l1.527-13.743l3.818-3.054
		h2.291l9.926,3.818l3.054-3.054l6.872-0.764l5.345-6.872l10.69-4.585l3.817,1.527l-0.763,9.166l11.452,0.764L435.405,179.153"/>
	
		<path id="Hermagor" inkscape:connector-curvature="0" fill="#123456" stroke="#7B7979" stroke-width="1.7378" stroke-linecap="round" stroke-linejoin="round" stroke-miterlimit="10" d="
		M81.888,246.343l0.764,3.054h8.399l0.763,3.054l9.927,2.29l-2.291,4.585l6.108,3.817l2.29-4.581l4.581,3.054l16.034-2.29
		l9.162,6.871l19.852,4.581h6.108l5.344,6.873h5.345l3.818,0.763l16.797-4.581h5.345l6.872-7.636h6.872l10.689,9.164l7.636-3.055
		l4.581,6.108l9.926,4.581l6.109,0.765l7.635,6.871l7.636-0.763l9.926,0.763v-3.054l4.581-3.055l7.635,6.873l19.855-1.527
		l0.763,6.871l-6.111,4.582l-3.054-1.527v5.344l6.111,9.162l-2.294,4.582l-3.054,5.344l-12.98,5.346l-9.162,3.817l-15.27-0.764
		l-4.582-0.762v-4.582l-10.689-3.818v5.344l-7.635-0.764l-7.636,6.872l-15.27-3.054l-9.163,3.054l-6.108-7.635l-7.635-0.764
		l-7.636-6.871L164.35,314.3l-3.818,0.764h-25.96l-17.562-5.344l-11.452,1.527l-16.034-0.764v-8.399l-8.399-1.527l-9.926-6.871
		h-6.108l-7.635,5.344l-4.581-6.872l-6.872-3.053l0.764-19.852h8.398l-3.817-5.344l0.764-9.166l11.452-4.581l13.743-3.818
		L81.888,246.343"/>
	
		<path id="Klagenfurt" inkscape:connector-curvature="0" fill="#123456" stroke="#7B7979" stroke-width="1.7378" stroke-linecap="round" stroke-linejoin="round" stroke-miterlimit="10" d="
		M527.793,278.414l-1.527,5.346l17.561-4.582v6.109l3.818,1.526l3.054,2.291v6.108l5.344-2.291l6.108,1.527l-0.763,5.345
		l-6.108,0.762l0.764,3.818l-10.69,0.764l-4.581,7.635l-6.108,1.527l0.763,3.055l-1.526,5.344l-9.162,0.764l-0.763-3.055
		l-10.69,2.291l-3.818-3.818l0.764-8.399l3.817-3.054l-3.054-3.817l-5.345-9.163l6.108-4.581h-6.871l-3.055-7.636l6.109-11.454
		l12.215-4.581l9.163-0.764l0.763,4.582l-3.054,0.762l-3.818,4.582L527.793,278.414"/>
	
		<path id="Klagenfurt_Land" inkscape:connector-curvature="0" fill="#123456" stroke="#7B7979" stroke-width="1.7378" stroke-linecap="round" stroke-linejoin="round" stroke-miterlimit="10" d="
		M565.968,253.978l3.054,5.348l2.291-3.055l0.764,3.818l5.345,1.527l-4.581,2.291l6.108,3.818l-0.764,6.108l9.163,0.762
		l13.743,12.981l-10.689,3.054l6.872,9.163l-0.764,9.162l-2.291,3.054l-9.162,16.034l-3.817,1.528l-3.055-3.055l-2.29,1.527
		l3.818,8.399l-5.345,11.457l10.689,5.344l-6.108,5.345l-0.764,15.271l-7.634,6.871l-10.69-0.762l-27.488,6.871l-7.635-6.108
		l-14.507,5.344l-5.344-4.58h-8.399l-4.581,3.818l-6.109-0.764l-9.925-17.561l-3.054-0.765l3.054-24.434l-5.345-2.291l-3.054,1.527
		l-3.055-5.344l2.291-4.582l-13.744-13.743l9.162-3.818l-3.054-6.872l0.764-3.054l-4.582-1.528l-1.527-15.27l10.69-6.871
		l7.636,0.762h4.581l3.818-5.344l6.871,3.817l6.872-9.926h13.744v1.527l-6.109,11.454l3.055,7.636h6.871l-6.108,4.581l5.345,9.163
		l3.054,3.817l-3.817,3.054l-0.764,8.399l3.818,3.818l10.689-2.291l0.764,3.055l9.162-0.764l1.526-5.344l-0.763-3.055l6.108-1.526
		l4.581-7.635l10.69-0.764l-0.764-3.818l6.108-0.762l0.762-5.345l-6.108-1.527l-5.344,2.291v-6.108l-3.054-2.291l-3.818-1.526
		v-6.109l-17.561,4.582l1.526-5.346l-4.582-3.054l3.818-4.582l1.527,1.528l9.927-6.108l2.29,3.054l4.581-4.581v-6.108l5.345,3.054
		l2.289-3.817l2.291,3.817l8.399-6.875L565.968,253.978"/>
	
		<path id="Spittal_a.d._Drau" inkscape:connector-curvature="0" fill="#123456" stroke="#7B7979" stroke-width="1.7378" stroke-linecap="round" stroke-linejoin="round" stroke-miterlimit="10" d="
		M58.982,82.945l3.054,13.744l9.162-0.764l3.818,3.818l10.69-2.291l5.344,6.108l9.162-1.527l19.852,4.581l5.345,12.216l9.163,6.108
		l5.344-3.817l5.345,2.29v3.818l15.271,7.635l2.29-6.109h13.744l4.581-3.817l32.068-6.872l-2.291-9.162l3.054-6.872l7.635-3.054
		l8.399,3.818l14.506-4.581l7.636,2.29l0.764,4.581l6.872,5.344l6.872-5.344l9.162,0.763l35.886,11.453l4.584-1.527l12.98,0.763
		l3.054,6.872l11.452-0.763l2.291,1.527l-1.527,9.926l3.054,4.581l6.108,4.581l11.453,1.527l7.635,19.855l9.162,10.689h-2.291
		l-3.818,3.054l-1.527,13.743l8.399,5.345l-1.527,6.108l8.399,2.291l-1.527,5.345l3.817,2.29l-0.763,14.507l-4.582,6.871h-1.526
		l-14.507-4.581l-5.344,3.054l-22.142-3.054l-9.926,11.453l-9.162-4.581l-4.581,5.345l3.817,3.053l-7.636,3.055l-0.763,3.055
		l-14.51-5.345l-9.926,4.581l-3.818-3.817l-9.162-0.764l-2.29-6.108l-8.399,9.926l3.054,5.348l-4.581,3.054l6.107,11.454
		l-8.398-1.528l-1.528,3.818l8.399,6.872l-2.291,2.291l0.764,8.399l-7.636,0.763l-7.635-6.871l-6.109-0.765l-9.926-4.581
		l-4.581-6.108l-7.636,3.055l-10.689-9.163h-6.872l-6.872,7.636h-5.345l-16.797,4.581l-3.818-0.763h-5.345l-5.344-6.873h-6.108
		l-19.852-4.581l-9.162-6.871l-16.034,2.29l-4.581-3.054l-2.29,4.581l-6.108-3.817l2.291-4.585l-9.927-2.29l-0.763-3.054
		l4.581-4.581l12.98-7.636l9.926,5.345l9.926-9.927l-0.763-4.581L110.9,217.328h-0.764l-2.291-1.527l-3.054-6.872l-13.743-8.399
		l0.763-13.743l-3.054-3.818l1.527-3.817l-4.581-3.054l-3.818-2.29l-4.581-2.291l-2.291-5.344l-7.635-6.875l-4.581-2.29
		l-0.764-3.818l-3.818-12.217l8.399-16.034l4.581-2.292l-3.817-3.054l-12.217,1.527l-5.344-12.98l-12.98-12.217l5.344-3.817
		l-2.29-6.109l11.453,0.764L58.982,82.945"/>
	
		<path id="St._Veit_a.d._Glan" inkscape:connector-curvature="0" fill="#123456" stroke="#7B7979" stroke-width="1.7378" stroke-linecap="round" stroke-linejoin="round" stroke-miterlimit="10" d="
		M497.251,105.85l9.925,22.143l0.765-1.527l3.054-3.054l4.581,3.818l19.851-1.527l9.926,2.29l5.345,4.581l-1.528,8.399l3.054,6.108
		l12.98-9.163l6.872,2.291l1.527-7.636l3.818,2.291l1.526-5.345l8.399-3.054l3.817,6.872l20.615-1.527l2.291,4.581l6.108,1.527
		l6.108,9.163l15.271,9.162v1.527l-3.819,3.054l1.528,10.693l-9.162,14.507l-1.526,6.872l3.054,12.98l0.763,6.872l1.527,4.581
		l-3.054,6.108l-3.818,9.926l0.763,12.98l-12.216-5.345l3.055,9.162l-8.399,3.818l-2.291,6.111l-9.162-9.929l-4.582,9.929
		l2.291,3.054l-5.345,3.818l-3.817,7.635l-9.163-0.762l0.764-6.108l-6.108-3.818l4.581-2.291l-5.345-1.527l-0.764-3.818
		l-2.291,3.055l-3.054-5.348l-2.29,0.763l-8.399,6.875l-2.291-3.817l-2.289,3.817l-5.345-3.054v6.108l-4.581,4.581l-2.29-3.054
		l-9.927,6.108l-1.527-1.528l3.054-0.762l-0.763-4.582l-9.163,0.764l-12.215,4.581v-1.527l4.581-11.452l3.817-1.528l-0.763-3.82
		h-17.562l0.764-5.345l-4.581,1.527l-1.527-3.055l7.635-4.581v-5.345l-3.818-3.054l-4.581,3.818l-6.109-3.054v-3.818l3.818-2.291
		l-9.162-6.108l-2.291,3.054l-8.399-2.291l5.344-7.635l1.528-4.581l-2.291-1.528l3.818-4.581h-0.764l-9.162,9.163l-4.581-5.345
		l-11.454-3.054l-4.581,1.527l-6.109-3.817l-4.581-3.818l-1.527-19.088l-3.055-3.818l-11.452-0.764l0.763-9.166l0.764-7.635
		l5.345-2.291l9.927-3.817l4.581-6.872l-0.764-6.872H452.2l15.271-15.27l6.108-2.291l3.054-8.399l8.399,4.581L497.251,105.85"/>
	
		<path id="Villach" inkscape:connector-curvature="0" fill="#123456" stroke="#7B7979" stroke-width="1.7378" stroke-linecap="round" stroke-linejoin="round" stroke-miterlimit="10" d="
		M394.175,292.922h7.635l22.143-7.635v0.763l-2.291,5.345l-5.345,2.291v14.506l9.164,8.399h6.871l-5.344,4.582l-3.818-0.764
		l-2.289,3.818l-19.09-3.818l-10.689,3.055v3.054l-13.744,1.527l-6.108,3.819l-7.636-1.528l-1.527-11.452l-9.163-0.764l-6.108-6.871
		l10.689-2.291l-0.763-3.818l10.689-6.108l8.399,0.764l5.345-15.272L394.175,292.922"/>
	
		<path id="Villach_Land" inkscape:connector-curvature="0" fill="#123456" stroke="#7B7979" stroke-width="1.7378" stroke-linecap="round" stroke-linejoin="round" stroke-miterlimit="10" d="
		M370.505,230.309l14.507,4.581h1.526l8.399,0.764l6.872,8.399l9.926-4.581l3.818,6.108l4.581,0.764l6.108,16.801l-12.216,9.162
		l12.216,8.399l-2.291,4.582l-22.143,7.635h-7.635l-12.98-8.399l-5.345,15.272l-8.399-0.764l-10.689,6.108l0.763,3.818
		l-10.689,2.291l6.108,6.871l9.163,0.764l1.527,11.452l7.636,1.528l6.108-3.819l13.744-1.527v-3.054l10.689-3.055l19.089,3.818
		l2.29-3.818l3.818,0.764l5.344-4.582h-6.871l-9.164-8.399v-14.506l12.217-3.055l13.744-5.344l11.452,1.526l1.527,15.27l4.582,1.528
		l-0.764,3.054l3.054,6.872l-9.162,3.818l13.744,13.743l-2.291,4.582l3.055,5.344l3.054-1.527l5.345,2.291l-3.054,24.434
		l-21.379-6.108l-10.689,5.345l-9.162-6.872L412.5,348.66l-16.798,3.055l-7.635-2.29l-4.582,5.344h-5.344l-6.872-4.582
		l-30.542-2.289l-15.271-8.402l-9.162-1.528l-4.583,3.819l-3.815-6.108l-15.274,0.762l-3.054-6.871l12.98-5.346l3.054-5.344
		l2.294-4.582l-6.111-9.162v-5.344l3.054,1.527l6.111-4.582l-0.763-6.871l-19.855,1.527l-7.635-6.873l-4.581,3.055v3.054
		l-9.926-0.764l-0.764-8.399l2.291-2.291l-8.399-6.872l1.528-3.818l8.398,1.528l-6.107-11.454l4.581-3.054l-3.054-5.348l8.399-9.926
		l2.29,6.108l9.162,0.764l3.818,3.817l9.926-4.581l14.51,5.345l0.763-3.055l7.636-3.055l-3.817-3.053l4.581-5.345l9.162,4.581
		l9.927-11.453l22.143,3.054L370.505,230.309"/>
	
		<path id="Völkermarkt" inkscape:connector-curvature="0" fill="#123456" stroke="#7B7979" stroke-width="1.7378" stroke-linecap="round" stroke-linejoin="round" stroke-miterlimit="10" d="
		M663.703,240.998l0.763,13.743l4.581,6.112l9.163,9.925l1.527,6.873l16.034-1.528l-1.527,4.581l9.162,8.399l10.689-3.055
		l11.453,9.162l-7.635,7.635l-2.29-2.291l-1.528,7.635l-11.452-3.054l-11.453,16.798l-5.344,16.797l-0.765,11.455l-9.925,4.582
		l-7.635-2.291h-6.108l-3.054,6.109l-4.585-3.818l-3.817,16.034l-5.345-2.291l-6.872,10.69l-19.087,3.818l-3.818,7.635v16.034
		l-5.344,4.581l-12.98-22.905l-12.98,5.345l-0.763-3.055l-9.927-1.527l-3.818-5.344l1.528-3.055l7.634-6.871l0.764-15.271
		l6.108-5.345l-10.689-5.344l5.345-11.457l-3.818-8.399l2.29-1.527l3.055,3.055l3.817-1.528l9.162-16.034l2.291-3.054l0.764-9.162
		l-6.872-9.163l10.689-3.054l-13.743-12.981l3.817-7.635l5.345-3.818l-2.291-3.054l4.582-9.929l9.162,9.929l2.291-6.111l8.399-3.818
		l-3.055-9.162l12.216,5.345l-0.763-12.98l3.818-9.926l3.054-6.108l-1.527-4.581l11.452,7.635l15.274,19.851L663.703,240.998"/>
	
		<path id="Wolfsberg" inkscape:connector-curvature="0" fill="#123456" stroke="#7B7979" stroke-width="1.7378" stroke-linecap="round" stroke-linejoin="round" stroke-miterlimit="10" d="
		M688.136,115.013l0.765,6.872l11.452,9.162l6.872,4.581l12.217,3.054l6.108,4.581l7.635,19.088l10.689,11.456v2.29l-3.053,10.689
		l-2.291,0.763l0.764,9.926l3.054,5.345l-1.526,5.344l-5.345,2.291l-2.291,7.636l-3.054,10.689l6.108,1.527l9.926,4.581
		l0.763,10.689l3.818,5.345l-2.291,2.291l1.526,3.057l-5.344,22.143l3.817,2.291l4.581-2.291l4.581,7.635l-6.872,0.764l-7.636,4.582
		l-10.689,16.797l-2.291-9.162l-4.581-3.818l-11.453-9.162l-10.689,3.055l-9.162-8.399l1.526-4.581l-16.034,1.528l-1.526-6.873
		l-9.164-9.925l-4.581-6.112l-0.763-13.743l-4.581-0.764l-15.274-19.851l-11.452-7.635l-0.764-6.872l-3.054-12.98l1.526-6.872
		l9.162-14.507l-1.528-10.693l3.819-3.054v-1.527l-15.271-9.162l-6.108-9.163l3.818-6.872l29.018-3.054l1.526-2.292l12.217-6.108
		h9.927l6.871-4.581H688.136"/>
</g>
<g id="Skala" transform="translate(0,202)">
	<rect id="rect4459" x="29.573" y="558.727" fill="#111101" width="16.976" height="16.16"/>
	<text id="text16" transform="matrix(1.0506 0 0 1 55.1379 572.7578)" font-family="'ArialMT'" font-size="17.6301">%legende1%</text>
	<rect id="rect4459-1" x="29.573" y="580.991" fill="#111102" width="16.976" height="16.163"/>
	<text id="text19" transform="matrix(1.0506 0 0 1 55.1379 595.0254)" font-family="'ArialMT'" font-size="17.6301">%legende2%</text>
	<rect id="rect4459-2" x="29.573" y="603.259" fill="#111103" width="16.976" height="16.162"/>
	<text id="text22" transform="matrix(1.0506 0 0 1 55.1379 617.292)" font-family="'ArialMT'" font-size="17.6301">%legende3%</text>
	<rect id="rect4459-6" x="29.573" y="625.529" fill="#111104" width="16.976" height="16.161"/>
	<text id="text25" transform="matrix(1.0506 0 0 1 55.1379 639.5605)" font-family="'ArialMT'" font-size="17.6301">%legende4%</text>
	<rect id="rect4459-29" x="29.573" y="647.794" fill="#111105" width="16.976" height="16.163"/>
	<text id="text28" transform="matrix(1.0506 0 0 1 55.1379 661.8291)" font-family="'ArialMT'" font-size="17.6301">%legende5%</text>
	<rect id="rect4459-3" x="29.573" y="670.063" fill="#111106" width="16.976" height="16.164"/>
	<text id="text31" transform="matrix(1.0506 0 0 1 55.1379 684.0967)" font-family="'ArialMT'" font-size="17.6301">%legende6%</text>
	<rect id="rect4459-8" x="29.573" y="692.333" fill="#111107" width="16.976" height="16.16"/>
	<text id="text34" transform="matrix(1.0506 0 0 1 55.1379 706.3633)" font-family="'ArialMT'" font-size="17.6301">%legende7%</text>
	<rect id="rect4459-9" x="29.573" y="714.598" fill="#111108" width="16.976" height="16.163"/>
	<text id="text37" transform="matrix(1.0506 0 0 1 55.1379 728.6309)" font-family="'ArialMT'" font-size="17.6301">%legende8%</text>
	<rect id="rect4459-18" x="29.573" y="736.865" fill="#111109" width="16.976" height="16.162"/>
	<text id="text40" transform="matrix(1.0506 0 0 1 55.1379 750.8994)" font-family="'ArialMT'" font-size="17.6301">%legende9%</text>
	<rect id="rect4459-18-6" x="29.573" y="759.134" fill="#111110" width="16.976" height="16.163"/>
	<text id="text43" transform="matrix(1.0506 0 0 1 55.1379 773.1641)" font-family="'ArialMT'" font-size="17.6301">%legende10%</text>
</g>
<g id="Kreise">
	<g id="Kreis10" transform="translate(-1099.4425,-1468.408)">
		
			<path id="path3841-8-9-2-0-6-5-2_2_" sodipodi:type="arc" sodipodi:cx="328.29956" sodipodi:cy="1106.1483" sodipodi:rx="67.680222" sodipodi:ry="67.680222" fill="#FFFFFF" stroke="#000000" d="
			M2259.901,2002.937c0,6.186-5.021,11.206-11.21,11.206c-6.188,0-11.207-5.021-11.207-11.206c0-6.19,5.021-11.209,11.207-11.209
			C2254.89,1991.728,2259.901,1996.747,2259.901,2002.937z"/>
		<text transform="matrix(1 0 0 1 2240.7852 2007.8894)" font-family="'ArialMT'" font-size="13.7481">10</text>
	</g>
	<g id="Kreis09" transform="translate(-1099.4425,-1468.408)">
		
			<path id="path3841-8-9-2-0-6-5-2_23_" sodipodi:type="arc" sodipodi:cx="328.29956" sodipodi:cy="1106.1483" sodipodi:rx="67.680222" sodipodi:ry="67.680222" fill="#FFFFFF" stroke="#000000" d="
			M2182.322,2205.674c0,6.188-5.018,11.207-11.211,11.207c-6.188,0-11.207-5.021-11.207-11.207c0-6.188,5.021-11.205,11.207-11.205
			C2177.308,2194.469,2182.322,2199.482,2182.322,2205.674z"/>
		<text transform="matrix(1 0 0 1 2167.4277 2210.6248)" font-family="'ArialMT'" font-size="13.7481">9</text>
	</g>
	<g id="Kreis08" transform="translate(-1099.4425,-1468.408)">
		
			<path id="path3841-8-9-2-0-6-5-2_22_" sodipodi:type="arc" sodipodi:cx="328.29956" sodipodi:cy="1106.1483" sodipodi:rx="67.680222" sodipodi:ry="67.680222" fill="#FFFFFF" stroke="#000000" d="
			M1666.306,2136.22c0,6.188-5.021,11.202-11.213,11.202c-6.188,0-11.204-5.02-11.204-11.202c0-6.188,5.018-11.201,11.204-11.201
			C1661.289,2125.015,1666.306,2130.029,1666.306,2136.22z"/>
		<text transform="matrix(1 0 0 1 1651.41 2141.1716)" font-family="'ArialMT'" font-size="13.7481">8</text>
	</g>
	<g id="Kreis07" transform="translate(-1099.4425,-1468.408)">
		
			<path id="path3841-8-9-2-0-6-5-2_21_" sodipodi:type="arc" sodipodi:cx="328.29956" sodipodi:cy="1106.1483" sodipodi:rx="67.680222" sodipodi:ry="67.680222" fill="#FFFFFF" stroke="#000000" d="
			M1743.725,2196.467c0,6.188-5.02,11.205-11.211,11.205c-6.188,0-11.206-5.021-11.206-11.205c0-6.188,5.021-11.203,11.206-11.203
			C1738.709,2185.26,1743.725,2190.275,1743.725,2196.467z"/>
		<text transform="matrix(1 0 0 1 1728.8319 2201.4167)" font-family="'ArialMT'" font-size="13.7481">7</text>
	</g>
	<g id="Kreis06" transform="translate(-1099.4425,-1468.408)">
		
			<path id="path3841-8-9-2-0-6-5-2_20_" sodipodi:type="arc" sodipodi:cx="328.29956" sodipodi:cy="1106.1483" sodipodi:rx="67.680222" sodipodi:ry="67.680222" fill="#FFFFFF" stroke="#000000" d="
			M2017.265,1997.047c0,6.188-5.021,11.207-11.213,11.207c-6.188,0-11.207-5.021-11.207-11.207c0-6.189,5.02-11.205,11.207-11.205
			C2012.244,1985.842,2017.265,1990.856,2017.265,1997.047z"/>
		<text transform="matrix(1 0 0 1 2002.368 2001.9978)" font-family="'ArialMT'" font-size="13.7481">6</text>
	</g>
	<g id="Kreis05" transform="translate(-1099.4425,-1468.408)">
		
			<path id="path3841-8-9-2-0-6-5-2_19_" sodipodi:type="arc" sodipodi:cx="328.29956" sodipodi:cy="1106.1483" sodipodi:rx="67.680222" sodipodi:ry="67.680222" fill="#FFFFFF" stroke="#000000" d="
			M1451.789,1988.819c0,6.187-5.017,11.206-11.212,11.206c-6.188,0-11.206-5.021-11.206-11.206c0-6.191,5.018-11.206,11.206-11.206
			C1446.772,1977.613,1451.789,1982.627,1451.789,1988.819z"/>
		<text transform="matrix(1 0 0 1 1436.8964 1993.7693)" font-family="'ArialMT'" font-size="13.7481">5</text>
	</g>
	<g id="Kreis04" transform="translate(-1099.4425,-1468.408)">
		
			<path id="path3841-8-9-2-0-6-5-2_18_" sodipodi:type="arc" sodipodi:cx="328.29956" sodipodi:cy="1106.1483" sodipodi:rx="67.680222" sodipodi:ry="67.680222" fill="#FFFFFF" stroke="#000000" d="
			M1977.971,2274.617c0,6.188-5.021,11.207-11.213,11.207c-6.188,0-11.207-5.021-11.207-11.207c0-6.189,5.021-11.207,11.207-11.207
			C1972.95,2263.411,1977.971,2268.427,1977.971,2274.617z"/>
		<text transform="matrix(1 0 0 1 1963.0741 2279.2166)" font-family="'ArialMT'" font-size="13.7481">4</text>
	</g>
	<g id="Kreis03" transform="translate(-1099.4425,-1468.408)">
		
			<path id="path3841-8-9-2-0-6-5-2_15_" sodipodi:type="arc" sodipodi:cx="328.29956" sodipodi:cy="1106.1483" sodipodi:rx="67.680222" sodipodi:ry="67.680222" fill="#FFFFFF" stroke="#000000" d="
			M1988.021,2176.842c0,6.188-5.021,11.205-11.211,11.205c-6.188,0-11.206-5.021-11.206-11.205c0-6.188,5.018-11.207,11.206-11.207
			C1983.004,2165.635,1988.021,2170.65,1988.021,2176.842z"/>
		<text transform="matrix(1 0 0 1 1973.1268 2181.4402)" font-family="'ArialMT'" font-size="13.7481">3</text>
	</g>
	<g id="Kreis02" transform="translate(-1099.4425,-1468.408)">
		
			<path id="path3841-8-9-2-0-6-5-2_16_" sodipodi:type="arc" sodipodi:cx="328.29956" sodipodi:cy="1106.1483" sodipodi:rx="67.680222" sodipodi:ry="67.680222" fill="#FFFFFF" stroke="#000000" d="
			M1370.115,2175.635c0,6.188-5.021,11.205-11.212,11.205c-6.188,0-11.206-5.02-11.206-11.205c0-6.189,5.018-11.207,11.206-11.207
			C1365.094,2164.427,1370.115,2169.442,1370.115,2175.635z"/>
		<text transform="matrix(1 0 0 1 1355.2186 2180.2322)" font-family="'ArialMT'" font-size="13.7481">2</text>
	</g>
	<g id="Kreis01" transform="translate(-1099.4425,-1468.408)">
		
			<path id="path3841-8-9-2-0-6-5-2_17_" sodipodi:type="arc" sodipodi:cx="328.29956" sodipodi:cy="1106.1483" sodipodi:rx="67.680222" sodipodi:ry="67.680222" fill="#FFFFFF" stroke="#000000" d="
			M1833.94,2056.435c0,6.186-5.017,11.206-11.211,11.206c-6.188,0-11.207-5.021-11.207-11.206c0-6.191,5.018-11.207,11.207-11.207
			C1828.924,2045.228,1833.94,2050.244,1833.94,2056.435z"/>
		<text transform="matrix(1 0 0 1 1818.6952 2061.738)" font-family="'ArialMT'" font-size="13.7481">1</text>
	</g>
</g>
<g id="Legende">
	<text id="text45" transform="matrix(1.3612 0 0 1 390.24 976.709)" font-family="'MyriadPro-Regular'" font-size="14.5682">10. Wolfsberg</text>
	<text id="text47" transform="matrix(1.3612 0 0 1 390.24 959.2266)" font-family="'MyriadPro-Regular'" font-size="14.5682">9. Völkermarkt</text>
	<text id="text49" transform="matrix(1.3612 0 0 1 390.24 941.7451)" font-family="'MyriadPro-Regular'" font-size="14.5682">8. Villach-Stadt</text>
	<text id="text51" transform="matrix(1.3612 0 0 1 390.24 924.2637)" font-family="'MyriadPro-Regular'" font-size="14.5682">7. Villach</text>
	<text id="text53" transform="matrix(1.3612 0 0 1 390.24 906.7832)" font-family="'MyriadPro-Regular'" font-size="14.5682">6. St. Veit a.d. Glan</text>
	<text id="text55" transform="matrix(1.3612 0 0 1 390.24 889.3018)" font-family="'MyriadPro-Regular'" font-size="14.5682">5. Spittal a.d. Drau</text>
	<text id="text57" transform="matrix(1.3612 0 0 1 390.24 871.8193)" font-family="'MyriadPro-Regular'" font-size="14.5682">4. Klagenfurt-Land</text>
	<text id="text59" transform="matrix(1.3612 0 0 1 390.24 854.3369)" font-family="'MyriadPro-Regular'" font-size="14.5682">3. Klagenfurt</text>
	<text id="text61" transform="matrix(1.3612 0 0 1 390.24 836.8555)" font-family="'MyriadPro-Regular'" font-size="14.5682">2. Hermagor</text>
	<text id="text63" transform="matrix(1.3612 0 0 1 390.24 819.374)" font-family="'MyriadPro-Regular'" font-size="14.5682">1. Feldkirchen</text>
	<text id="text65" transform="matrix(1 0 0 1 1101.1101 913.8545)" font-family="'MyriadPro-Regular'" font-size="14.2709">--&gt; Eigene Visualisierung auf  </text>
	<text id="text67" transform="matrix(1 0 0 1 1101.1101 930.9795)" font-family="'MyriadPro-Regular'" font-size="14.2709"> datenlandkarten.at erstellen</text>
	<text id="Titel2" transform="matrix(1 0 0 1 30.6638 303.2686)" font-family="'MyriadPro-Regular'" font-size="30">%titel2%</text>
	<text id="Titel1" transform="matrix(0.6758 0 0 1 26.6394 263.6543)" font-family="'ArialMT'" font-size="61.9146">%titel1%</text>
</g>
<path fill="#AAB2AB" d="M1181.782,856.749l83.127,0.148c1.161,0,2.198-0.173,2.198,2.333l-0.102,27.552h-87.321v-27.654
	C1179.684,857.893,1179.803,856.749,1181.782,856.749z"/>
<path fill="#FFFFFF" d="M1204.598,870.847c0.004,5.557-4.471,10.064-9.992,10.068c-5.522,0.004-10.002-4.5-10.006-10.057
	c0-0.004,0-0.008,0-0.012c-0.002-5.559,4.472-10.066,9.994-10.069c5.522-0.004,10.002,4.5,10.006,10.058
	C1204.598,870.837,1204.598,870.841,1204.598,870.847z M1225.747,859.704c4.349,0,7.875,3.547,7.875,7.924s-3.526,7.927-7.875,7.927
	c-4.35,0-7.875-3.548-7.875-7.927C1217.871,863.251,1221.397,859.704,1225.747,859.704z M1254.379,867.454
	c0.004,4.314-3.47,7.814-7.757,7.818c-4.286,0.003-7.765-3.492-7.769-7.807c0-0.004,0-0.008,0-0.012
	c-0.002-4.313,3.471-7.813,7.758-7.816c4.287-0.004,7.766,3.492,7.768,7.806C1254.379,867.447,1254.379,867.45,1254.379,867.454z"/>
<path d="M1202.729,862.649c2.217,2.232,3.326,4.964,3.326,8.197c0,3.232-1.09,5.936-3.27,8.109
	c-2.313,2.289-5.046,3.435-8.199,3.435c-3.117,0-5.803-1.136-8.058-3.405c-2.256-2.271-3.384-4.982-3.384-8.138
	c0-3.156,1.128-5.89,3.384-8.198c2.198-2.232,4.884-3.348,8.058-3.348C1197.798,859.302,1200.512,860.417,1202.729,862.649z
	 M1188.022,864.15c-1.875,1.905-2.813,4.138-2.813,6.698s0.928,4.773,2.783,6.64c1.855,1.867,4.064,2.802,6.627,2.802
	s4.791-0.942,6.684-2.83c1.797-1.752,2.697-3.955,2.697-6.61c0-2.636-0.914-4.874-2.74-6.712s-4.039-2.758-6.641-2.758
	S1189.819,862.304,1188.022,864.15z M1192.955,869.723c-0.287-0.628-0.715-0.942-1.287-0.942c-1.011,0-1.516,0.686-1.516,2.055
	s0.505,2.055,1.516,2.055c0.667,0,1.146-0.333,1.431-1.002l1.401,0.751c-0.668,1.194-1.67,1.792-3.006,1.792
	c-1.03,0-1.856-0.317-2.476-0.954c-0.621-0.636-0.932-1.513-0.932-2.629c0-1.099,0.32-1.97,0.959-2.616s1.437-0.968,2.391-0.968
	c1.412,0,2.424,0.56,3.035,1.679L1192.955,869.723z M1199.548,869.723c-0.287-0.628-0.707-0.942-1.261-0.942
	c-1.03,0-1.547,0.686-1.547,2.055s0.517,2.055,1.547,2.055c0.669,0,1.138-0.333,1.404-1.002l1.433,0.751
	c-0.667,1.194-1.667,1.792-3.001,1.792c-1.028,0-1.853-0.317-2.473-0.954c-0.619-0.636-0.929-1.513-0.929-2.629
	c0-1.099,0.314-1.97,0.943-2.616s1.428-0.968,2.4-0.968c1.41,0,2.42,0.56,3.029,1.679L1199.548,869.723z M1265.636,856.397h-84.706
	c-0.908,0-1.647,0.744-1.647,1.658v28.967c0,0.207,0.167,0.375,0.372,0.375h87.256c0.205,0,0.372-0.168,0.372-0.375v-28.967
	C1267.283,857.142,1266.545,856.397,1265.636,856.397z M1180.93,857.146h84.704c0.498,0,0.903,0.408,0.903,0.909
	c0,0,0,11.676,0,20.109h-60.541c-2.219,4.037-6.494,6.778-11.4,6.778c-4.908,0-9.184-2.737-11.4-6.778h-3.169
	c0-8.435,0-20.109,0-20.109C1180.027,857.555,1180.432,857.146,1180.93,857.146z M1246.56,858.897c-2.355,0-4.35,0.827-5.98,2.48
	c-1.675,1.713-2.512,3.737-2.512,6.078c0,2.34,0.837,4.351,2.512,6.033c1.674,1.684,3.668,2.524,5.98,2.524
	c2.342,0,4.371-0.849,6.089-2.546c1.616-1.611,2.427-3.616,2.427-6.012c0-2.396-0.824-4.423-2.471-6.078
	C1250.961,859.725,1248.945,858.897,1246.56,858.897z M1246.582,860.438c1.93,0,3.569,0.685,4.918,2.054
	c1.361,1.355,2.043,3.01,2.043,4.965c0,1.967-0.666,3.602-2.001,4.899c-1.405,1.397-3.058,2.097-4.96,2.097
	c-1.9,0-3.541-0.691-4.917-2.074c-1.376-1.385-2.063-3.024-2.063-4.922c0-1.896,0.695-3.552,2.086-4.963
	C1243.019,861.122,1244.652,860.438,1246.582,860.438z M1242.791,866.247c0.34-2.154,1.846-3.305,3.733-3.305
	c2.716,0,4.368,1.982,4.368,4.626c0,2.58-1.76,4.584-4.41,4.584c-1.824,0-3.457-1.13-3.756-3.347h2.144
	c0.063,1.15,0.806,1.556,1.866,1.556c1.209,0,1.994-1.13,1.994-2.856c0-1.813-0.68-2.771-1.951-2.771
	c-0.934,0-1.739,0.341-1.909,1.514l0.623-0.004l-1.687,1.697l-1.687-1.697L1242.791,866.247z M1228.026,865.335
	c0-0.306-0.246-0.553-0.55-0.553h-3.479c-0.303,0-0.55,0.247-0.55,0.553v3.5h0.972v4.146h2.635v-4.146h0.972V865.335
	L1228.026,865.335z M1225.738,861.928c0.656,0,1.189,0.536,1.189,1.196c0,0.662-0.533,1.197-1.189,1.197
	c-0.657,0-1.189-0.535-1.189-1.197C1224.549,862.464,1225.081,861.928,1225.738,861.928z M1225.726,858.897
	c-2.355,0-4.349,0.827-5.981,2.48c-1.675,1.711-2.512,3.737-2.512,6.076c0,2.34,0.837,4.352,2.512,6.034
	c1.674,1.683,3.668,2.524,5.981,2.524c2.342,0,4.371-0.85,6.088-2.547c1.619-1.611,2.428-3.615,2.428-6.012
	c0-2.397-0.822-4.422-2.471-6.076C1230.127,859.724,1228.111,858.897,1225.726,858.897z M1225.748,860.437
	c1.93,0,3.569,0.686,4.917,2.054c1.363,1.355,2.044,3.011,2.044,4.964c0,1.967-0.666,3.602-2.001,4.899
	c-1.405,1.397-3.058,2.096-4.96,2.096c-1.9,0-3.541-0.69-4.917-2.075c-1.377-1.383-2.064-3.022-2.064-4.92
	c0-1.896,0.695-3.552,2.086-4.964C1222.186,861.122,1223.818,860.437,1225.748,860.437z"/>
<path fill="#FFFFFF" d="M1248.56,880.568l1.816,4.888h-1.109l-0.367-1.089h-1.816l-0.381,1.089h-1.074l1.836-4.888H1248.56z
	 M1248.622,883.565l-0.612-1.793h-0.014l-0.633,1.793H1248.622z M1242.543,884.247c0.059,0.115,0.137,0.207,0.234,0.277
	c0.098,0.071,0.211,0.124,0.342,0.158c0.133,0.033,0.268,0.051,0.408,0.051c0.095,0,0.197-0.008,0.306-0.023
	c0.109-0.015,0.21-0.047,0.306-0.093c0.095-0.046,0.174-0.108,0.236-0.188c0.064-0.08,0.096-0.181,0.096-0.306
	c0-0.132-0.041-0.237-0.125-0.32s-0.194-0.15-0.33-0.206c-0.135-0.056-0.289-0.103-0.461-0.144s-0.348-0.088-0.522-0.138
	c-0.183-0.046-0.358-0.103-0.531-0.167c-0.171-0.066-0.325-0.152-0.461-0.258c-0.137-0.104-0.245-0.235-0.329-0.393
	c-0.084-0.158-0.125-0.35-0.125-0.572c0-0.252,0.053-0.469,0.159-0.654c0.104-0.184,0.246-0.338,0.418-0.462
	c0.173-0.123,0.366-0.214,0.584-0.274c0.218-0.059,0.437-0.088,0.652-0.088c0.254,0,0.497,0.028,0.729,0.086
	c0.232,0.057,0.44,0.149,0.621,0.277c0.182,0.127,0.326,0.291,0.432,0.49c0.107,0.197,0.16,0.438,0.16,0.723h-1.035
	c-0.01-0.146-0.041-0.268-0.092-0.363c-0.053-0.096-0.121-0.172-0.207-0.227s-0.184-0.094-0.295-0.115
	c-0.109-0.023-0.229-0.035-0.361-0.035c-0.086,0-0.172,0.01-0.258,0.027c-0.086,0.02-0.162,0.051-0.231,0.096
	c-0.07,0.047-0.129,0.104-0.175,0.172c-0.045,0.068-0.066,0.155-0.066,0.26c0,0.097,0.02,0.175,0.055,0.232
	c0.037,0.061,0.108,0.115,0.215,0.165c0.105,0.05,0.254,0.101,0.44,0.151c0.188,0.049,0.435,0.113,0.736,0.191
	c0.092,0.018,0.217,0.051,0.377,0.1c0.161,0.047,0.319,0.123,0.479,0.229c0.158,0.105,0.295,0.246,0.412,0.422
	c0.114,0.176,0.172,0.4,0.172,0.674c0,0.226-0.043,0.433-0.129,0.623c-0.087,0.192-0.215,0.357-0.385,0.496
	c-0.171,0.142-0.381,0.248-0.632,0.326c-0.252,0.078-0.544,0.116-0.874,0.116c-0.268,0-0.527-0.033-0.779-0.101
	c-0.251-0.064-0.474-0.17-0.667-0.312c-0.192-0.144-0.346-0.323-0.459-0.543c-0.112-0.219-0.168-0.479-0.163-0.78h1.036
	C1242.455,883.995,1242.484,884.134,1242.543,884.247z M1225.256,880.568h1.198l1.138,1.931l1.131-1.931h1.189l-1.803,3.013v1.875
	h-1.07v-1.902L1225.256,880.568z M1223.281,880.568c0.231,0,0.442,0.021,0.633,0.062c0.191,0.041,0.354,0.108,0.491,0.201
	c0.136,0.094,0.241,0.219,0.315,0.373c0.076,0.155,0.112,0.349,0.112,0.575c0,0.247-0.055,0.451-0.167,0.616
	c-0.109,0.164-0.275,0.298-0.492,0.402c0.299,0.088,0.522,0.238,0.672,0.455c0.147,0.219,0.223,0.479,0.223,0.785
	c0,0.245-0.049,0.459-0.145,0.641c-0.095,0.18-0.224,0.326-0.386,0.441c-0.161,0.113-0.346,0.198-0.552,0.254
	c-0.207,0.055-0.419,0.082-0.638,0.082h-2.358v-4.889L1223.281,880.568L1223.281,880.568z M1223.143,882.544
	c0.191,0,0.348-0.045,0.471-0.136c0.123-0.092,0.185-0.239,0.185-0.444c0-0.113-0.021-0.207-0.062-0.279s-0.096-0.129-0.164-0.17
	s-0.146-0.07-0.234-0.086c-0.09-0.016-0.182-0.023-0.277-0.023h-1v1.141h1.082V882.544z M1223.206,884.62
	c0.105,0,0.205-0.011,0.301-0.031c0.094-0.021,0.18-0.055,0.252-0.104c0.072-0.047,0.13-0.111,0.173-0.193
	c0.045-0.082,0.065-0.188,0.065-0.315c0-0.25-0.071-0.431-0.212-0.536c-0.142-0.107-0.328-0.161-0.56-0.161h-1.166v1.341H1223.206
	L1223.206,884.62z"/>
</svg>
