<?xml version="1.0" encoding="UTF-8" standalone="no"?>
<!-- Generator: Adobe Illustrator 13.0.2, SVG Export Plug-In . SVG Version: 6.00 Build 14948)  -->

<svg
   xmlns:dc="http://purl.org/dc/elements/1.1/"
   xmlns:cc="http://creativecommons.org/ns#"
   xmlns:rdf="http://www.w3.org/1999/02/22-rdf-syntax-ns#"
   xmlns:svg="http://www.w3.org/2000/svg"
   xmlns="http://www.w3.org/2000/svg"
   xmlns:sodipodi="http://sodipodi.sourceforge.net/DTD/sodipodi-0.dtd"
   xmlns:inkscape="http://www.inkscape.org/namespaces/inkscape"
   version="1.0"
   id="Afrika"
   x="0px"
   y="0px"
   width="1200px"
   height="1230px"
   viewBox="0 0 1200 1230"
   enable-background="new 0 0 1200 1230"
   xml:space="preserve"
   inkscape:version="0.48.0 r9654"
   sodipodi:docname="continents_africa.svg"><metadata
   id="metadata504"><rdf:RDF><cc:Work
       rdf:about=""><dc:format>image/svg+xml</dc:format><dc:type
         rdf:resource="http://purl.org/dc/dcmitype/StillImage" /><dc:title></dc:title></cc:Work></rdf:RDF></metadata><defs
   id="defs502" /><sodipodi:namedview
   pagecolor="#ffffff"
   bordercolor="#666666"
   borderopacity="1"
   objecttolerance="10"
   gridtolerance="10"
   guidetolerance="10"
   inkscape:pageopacity="0"
   inkscape:pageshadow="2"
   inkscape:window-width="640"
   inkscape:window-height="480"
   id="namedview500"
   showgrid="false"
   inkscape:zoom="0.2097561"
   inkscape:cx="600"
   inkscape:cy="615"
   inkscape:window-x="0"
   inkscape:window-y="0"
   inkscape:window-maximized="0"
   inkscape:current-layer="Afrika" />
<g
   id="Afrika_1_">
	<path
   id="Ägypten"
   fill="#123456"
   stroke="#000000"
   stroke-linecap="round"
   d="M666.93,346.634l120.661-3.6l3.888,3.842   l7.966-1.005l0.822-6.724l8.837-2.44l1.87-8.276l3.879,1.277l4.88-5.093l-2.639-13.035l4.222,0.149l-10.271-9.144l-28.173-46.529   l-0.125-5.647c-6.667-4.372-11.6-9.899-14.575-16.729l-0.262-4.336l-4.251-3.094l1.108-6.882l12.629,16.878   c1.132,1.301-0.139,2.238,0.881,3.651c3.3,4.572,8.985,9.181,12.333,11.857c1.712-0.575,3.718-0.167,4.567-3.618l3.294-21.919   l-14.811-30.172c-9.999,6.997-19.997,9.794-29.996-0.621l-12.222,0.936c-2.793,1.201-5.765,3.029-7.375,0.098l-19.719,11.521   l-32.651-7.274c-4.906-1.008-10.141-2.669-14.189-1.962c-4.154,2.535-7.108,0.575-10.064-1.391c-1.68,2.919-3.451,5.872-1.84,7.595   l1.321,11.89c-2.891,4.658-5.558,9.433,3.575,20.404L666.93,346.634z" />
	<path
   id="Algerien"
   fill="#123456"
   stroke="#000000"
   stroke-linecap="round"
   d="M186.462,230.472l14.656-7.302l3.026,1.082   l5.02-4.361l8.427,0.772l0.456-3.895c17.445,0.852,21.067-3.813,24.146-8.49l14.606-6.018l5.392,0.168l-2.823-3.736l0.742-2.953   l-0.117-4.89c5.711-0.748,12.756,0.169,12.798-5.806l23.628,0.328l3.279-6.794c-4.527-1.663-5.339-8.211-4.733-15.17   c0.451-5.167,0.042-16.922,0.042-16.922c-1.563-1.886-3.511-3.664-3.96-6.373c1.262-0.561,7.192,0.41,10.794-4.411   c1.855-2.485,4.226-7.502,7.321-6.522c3.612,1.144,10.533,1.867,10.956-0.426c0.452-2.453,7.159-7.85,16.843-7.818   c17.737,0.057,40.656-6.691,48.145-4.497c7.489,2.193,17.243-2.915,21.573-2.636c4.36,0.279,5.675,5.035,11.623,0.989   c2.223-1.513,10.252,4.777,17.904,2.551c0,0-4.569,2.028-4.826,6.718c-0.397,7.224-1.067,29.709-1.067,29.709   c-0.759-1.216-6.198-0.303-7.053,3.367c-1.162,4.987-6.774,3.696-7.219,6.215c-0.896,5.071,3.529,9.728,8.741,14.276   c1.335,1.167-0.493,7.625,0.831,8.806c4.037,3.602,11.191,6.053,11.191,6.053c1.662,16.524,4.604,27.936,4.604,27.936   c-7.573,0.506-3.525,7.536,1.574,15.038l0.318,42.981c0,0-6.84,1.387-6.367,3.15c1.059,3.958,1.308,6.884,6.305,11.333   c3.209,2.855,3.269,7.673,2.992,10.837c-0.319,3.652,3.366,5.308,4.328,5.283c7.504-0.181,13.848-3.834,20.958,15.767   l-89.901,59.08c-13.343,5.746-35.318,9.184-36.074,8.852c-5.012-2.206,0.797-7.725-0.884-11.415   c-1.684-3.696-3.714-6.476-9.426-5.858c-3.039,0.33-4.633-3.579-5.837-3.379c-4.864,0.806-6.103-4.721-7.178-5.705   c-4.266-3.903-8.501-5.037-7.531-8.585l-131.38-100.15L186.462,230.472z" />
	<path
   id="Angola"
   fill="#123456"
   stroke="#000000"
   stroke-linecap="round"
   d="M468.2,952.668c3.283-0.871,6.833-5.227,9.777-1.729   c2.925-3.616,11.047-10.773,24.175,2.628l65.964-0.902l7.067,6.159l41.58,5.379l26.302-5.923l-17.777-15.863l1.359-56.188   l31.721,0.938l-3.446-3.676l3.734-29.715c-0.426,0.107-0.917-0.109-1.331,0.042c-7.646,2.784-15.776,2.141-23.979,2.304   l-2.851,5.59l-5.2-4.382l5.799-7.723l-7.828-15.86l-1.196-35.593l-13.552,0.963l0.006-6.429l-6.021-0.88l-1.582,2.857   l-11.066-0.567l-4.204,16.111c-5.494-0.989-10.567-2.342-18.797,1.817c-7.271-2.338-13.852,3.112-24.144-33.398l-3.895-2.326   l-41.676-0.671l-18.96,6.509c4.748,13.66,14.78,21.416,14.44,41.617l-3.261,3.126c2.692,9.124,5.092,18.666,11.084,23.021   c0.591,2.556-0.703,4.411-0.87,6.33c-0.614,7.021-4.305,26.92-5.924,23.373c0,0-6.684,1.46-7.282,6.839   c-0.291,2.622-3.527,2.994-4.729,6.226c-3.361,9.03-6.902,23.358-9.455,36.382c-0.296,1.51-2.265,0.849-2.507,2.287   c-0.702,4.147,0.079,7.092-0.182,11.494c-0.079,1.315-1.75-0.891-2.075,0.739C467.023,945.589,468.643,951.289,468.2,952.668z    M472.946,764.494l7.357-4.447c3.081-7.237,5.597-5.137,8.042-1.884c-3.127,2.823-6.375,5.553-6.681,10.573   c0.74,6.953-2.489,6.373-4.782,7.564c-1.019-1.888-2.466-3.691-1.963-5.883C474.858,768.344,474.888,766.256,472.946,764.494z" />
	<path
   id="Äquatorialguinea"
   fill="#123456"
   stroke="#000000"
   stroke-linecap="round"
   d="M460.969,669.702l-24.81,1.197   l-4.964-3.251l7.445-14.289l22.157-0.256L460.969,669.702z M392.494,682.717c0.001,1.485-1.202,2.691-2.688,2.691   s-2.691-1.206-2.688-2.691c-0.002-1.482,1.203-2.688,2.688-2.688S392.495,681.234,392.494,682.717z M402.919,661.318   c0,1.183-0.958,2.142-2.139,2.142c-1.182,0-2.141-0.959-2.141-2.142c0-1.182,0.959-2.139,2.141-2.139   C401.962,659.18,402.919,660.137,402.919,661.318L402.919,661.318z" />
	<path
   id="Äthopien"
   fill="#123456"
   stroke="#000000"
   stroke-linecap="round"
   d="M1026.721,556.445l-44.073,50.291l-17.218-0.309   c-2.126,0.591-10.096,5.493-14.673,9.522c-3.754,3.306-9.537,5.231-15.457,7.926c-3.512,0.021-7.773,1.294-10.232-0.44   c-5.762-5.586-12.356-2.851-18.881-0.817c-2.156,3.971-5.1,7.152-10.002,8.376l-23.554-3.661   c-5.333-4.525-11.207-8.726-18.502-12.073l-13.09-0.907l0.008-10.639l-10.297-3.768l-7.442-16.993l-10.679-8.544   c1.99-3.188-3.237-5.822-5.895-8.652c-3.616,0.814-7.23,0.077-10.846-1.866l3.182-3.824l-0.194-4.92l9.383,0.169   c2.049-1.287,4.314-1.779,5.815-5.078l-0.269-27.575l4.465-7.023l4.693,0.173l2.143-11.767c5.649-6.951,7.649-15.436,16.969-20.839   l2.444-20.398l7.463-0.214l1.036-2.43l3.623,0.064l3.104,5.159l4.47-11.857c2.954,1.9,6.813,1.973,8.541,6.15l7.532-1.473   l1.273-2.411l1.352-0.289l1.817,3.203c2.388-1.42,5.357-2.933,9.188-0.453c1.109,0.473,2.401,0.722,5.257-0.94   c3.02,1.63,4.851,4.955,9.124,4.793c9.646,8.423,18.995,17.185,27.272,27.173c-0.747,0.706-1.084,3.373-1.634,9.396l-3.571,6.408   c-2.877,4.726,0.606,8.896,6.085,6.931l4.813-1.851l4.832,1.979c-5.833,6.724,8.052,18.432,20.565,30.123l45.18,14.436   L1026.721,556.445z" />
	<path
   id="Benin"
   fill="#123456"
   stroke="#000000"
   stroke-linecap="round"
   d="M331.266,588.413l-13.999,1.874l-7.23-56.681   c-0.924-4.322-5.215-6.236-8.491-8.877l1.736-9.265l9.071-7.141l9.456,0.387l6.948-11.194l15.632,2.508l0.097,12.395   c4.435,4.765,3.628,11.159,0.286,13.163c0.305,5.967-0.784,10.917-4.75,10.782c-2.402,6.455-4.451,14.205-7.873,16.917   L331.266,588.413z" />
	<path
   id="Botsuana"
   fill="#123456"
   stroke="#000000"
   stroke-linecap="round"
   d="M670.123,959.587l-9.717,5.46   c-9.594,0.056-10.186,5.701-13.778,8.737l-2.702-7.598l-36.324,3.183l-2.07,56.266l-14.878-0.351l-1.002,40.61   c4.063,4.986,9.553,10.419,12.304,14.053c2.679,3.538,0.967,10.448-1.636,16.903c7.198,3.043,14.18,3.193,21.108,1.394   c1.031-2.735,2.443-4.705,4.312-5.766c3.002-1.726,5.478-3.926,6.4-7.523l9.051-7.548c5.577,0.485,9.868,2.7,14.225,5.893   c9.224,0.127,14.712-1.552,18.54-3.499l1.789-8.504l53.114-42.445c-6.688-4.86-10.022-3.754-13.841-4.646   c-3.847-0.9-8.592-7.735-7.315-19.486c-3.681-0.727-6.04-2.778-8.063-5.162c-2.313-3.874-5.331-3.501-8.019-5.133   c-4.163-5.787-11.817-13.22-12.407-17.69c-0.285-2.168-1.427-2.05-3.051-4.467C674.287,969.482,671.819,963.009,670.123,959.587z" />
	<path
   id="Burkina_Faso"
   fill="#123456"
   stroke="#000000"
   stroke-linecap="round"
   d="M249.299,538.473   c-2.91-0.393-3.938-4.305-6.316-6.56c-4.694-4.448-13.557-1.143-20.625,3.218c-8.609-4.302-9.775-8.175-11.362-11.748   c1.723-4.646,0.55-10.75,2.885-15.687c2.086-4.409,5.714-8.49,12.08-11.991l7.771-16.296c6.67-2.206,12.73-3.045,17.951-4.884   c5.023-1.77,9.546-4.665,12.3-8.362c9.95-6.146,22.304-14.026,29.934-12.075c-0.105,2.502-0.117,4.987,1.426,7.162   c2.589,1.756,2.039,4.669,1.509,7.574l15.378,20.676l5.856,1.948c0.857-0.979,5.037-6.139,7.1,5.241l3.486,0.747l-6.728,11.347   l-9.532-0.504l-9.175,7.163l-13.813-1.641c-7.941-0.137-8.667,1.408-12.048,2.334l-30.657-0.875L249.299,538.473z" />
	<path
   id="Burundi"
   fill="#123456"
   stroke="#000000"
   stroke-linecap="round"
   d="M737.479,727.702l2.224-2.086l2.691,0.133   l1.348,3.771l7.542-1.48l0.404-4.714l9.428-0.539c-3.117,5.417,1.527,8.371,3.501,11.111   c-6.314,14.753-11.691,19.938-16.575,20.179c-6.467,0.028-5.621,2.396-6.319,4.466c-0.47-6.559-0.13-12.678,0.283-18.048   C742.51,733.928,740.323,729.09,737.479,727.702z" />
	<path
   id="Demokratische_Republik_Kongo"
   fill="#123456"
   stroke="#000000"
   stroke-linecap="round"
   d="M576.887,631.199   c-2.674,7.974-5.861,13.631-9.192,22.303c-4.367,11.371-3.397,28.906-5.624,44.415c-11.554,5.235-15.21,13.633-21.124,21.125   l-4.61,22.06c-8.34,8.162-16.099,18.646-26.148,19.98c-0.611-12.304-11.27-6.391-12.442-1.547   c-5.076,3.354-6.732-0.131-9.602-1.194c-3.667,2.641-6.325,5.786-6.363,10.241c0.518,7.116-2.716,6.731-5.055,8.136l1.367,5.426   l19.057-6.519l41.674,0.748l3.867,2.261c9.473,35.122,17.157,31.661,23.953,33.374c10.587-4.433,13.419-1.968,19.048-1.992   l4.093-15.975l11.125,0.627l1.424-2.915l6.179,0.963l0.093,6.459l13.413-0.983l1.393,35.367l7.649,15.918l-5.834,7.907l5.314,4.494   l2.843-5.688l17.59-0.313l6.378-2.138l5.518-0.101l1.998,7.865l10.255-3.39c0.553,2.36,1.565,4.089,2.919,5.353   c3.328,3.112,9.551,7.394,15.098,7.479c3.909,0.061,7.057-3.957,10.481-3.237c4.67,6.478,10.203,8.354,15.997,8.834   c4.308,6.681,7.201,14.773,19.449,13.517l4.798,3.334l-0.342-17.098c-8.507,2.735-13.667-1.222-18.063-6.711   c0.867-6.745,3.598-12.873,6.704-18.873c0.271-6.941-0.664-13.331-2.366-20.28c-0.373-1.521,1.61-7.189,4.144-10.51l27.581-6.754   c-2.854-15.457-12.898-18.597-15.78-29.538c-3.526-13.395-5.252-29.451-3.374-45.117c-0.52-7.334-3.879-11.218-8.73-13.281   l8.23-11.79l6.667-7.317l1.033-25.627l9.351-14.195l15.045-13.541l-9.072-5.9l0.045-16.164l-18.794-15.937   c-1.678,0.157-2.454,1.816-3.63,2.809c-3.784,1.179-7.271-0.643-10.89-1.138c-1.949,4.359-9.974,2.071-10.921-0.417   c-0.278-0.724,0.353-2.186-0.744-2.595c-2.368-3.195-4.808-5.357-7.177-7.373l-7.826,0.38l-2.547,2.932l-2.878-2.385l-1.794,2.8   l-3.744-4.896l-16.896,1.467l0.006,2.724l-7.52,1.385l-1.19-2.892l-19.163,6.791c-5.367-3.893-7.339-1.778-10.481-1.908   l-3.373,7.343c-15.919-0.603-22.568-0.609-25.192-4.156c-5.042,5.552-6.267-1.29-9.354-2.082c-1.744-8.115-6.357-5.709-9.568-8.447   c-5.941,3.988-9.185,7.978-11.964,11.966C579.335,622.618,578.452,627.251,576.887,631.199z" />
	<path
   id="Dschibuti"
   fill="#123456"
   stroke="#000000"
   stroke-linecap="round"
   d="M944.3,482.701l-9,6.716   c-1.56,4.533-0.705,8.181-1.979,10.334c-5.163,8.732-4.51,9.41-2.905,11.347c2.159,2.607,7.848,0.747,10.795-0.995l4.7,2.015   l5.238-7.926c-3.223-2.737-6.447-1.32-9.672-1.477c0.88-3.948,5.313-4.851,8.463-6.85   C952.265,488.674,947.325,484.086,944.3,482.701z" />
	<path
   id="Elfenbeinkueste"
   fill="#123456"
   stroke="#000000"
   stroke-linecap="round"
   d="M171.652,617.726l5.85,0.552l46.487-13.158   l16.679,1.87l2.417-9.883c-0.505-7.904-7.216-15.991,1.86-23.614c0.846-5.766,0.377-12.039,6.587-15.717l-2.122-19.441   c-2.554,0.055-3.622-2.598-4.961-4.897c-2.978-5.119-12.96-4.515-22.185,1.782c-4.391-3.107-9.508-5.246-11.228-11.916   c-6.163-2.273-10.962-1.038-14.929,2.339l0.717-6.65c-0.967-2.527-4.436-1.801-8.518-0.277c-1.028,0.115-0.307,1.73,0.846,3.715   c-1.496,0.565-2.991,0.647-4.487,0.933c-1.042,1.282-2.543,2.639-4.207,2.987c-4.18-7.325-6.604-5.946-11.571-1.919   c-1.702,1.379-2.815,4.715-3.51,7.628c-0.785,3.283,0.62,6.45,4.201,5.991l-0.333,4.421c2.556,1.143,2.005,1.599-0.373,4.102   c-1.075,1.129,3.012,6.307,2.527,7.529l-7.848-1.562c-0.209,1.237-0.486,3.018-0.6,4.385l3.694,1.58l-2.885,7.68   c0.376,0.603-3.488,0.214-4.436,0.343l0.057,4.809c4.01,1.08,1.819,10.473-1.946,12.002l5.521,3.465   c1.215-0.952,4.625-0.119,6.837,5.92c0,0,5.504,3.459,5.385,7.816c-0.094,3.455-2.429,4.006-3.061,6.683L171.652,617.726z" />
	<path
   id="Eritrea"
   fill="#123456"
   stroke="#000000"
   stroke-linecap="round"
   d="M864.376,453.553   c2.809,1.922,5.618,1.678,8.426,6.078l7.461-1.494l1.452-2.34l1.23-0.327l1.653,3.077c3.768-1.997,7.165-2.079,9.557-0.191   c1.456,1.15,3.604-0.448,5.166-1.03c2.911,2.358,5.799,4.941,8.95,4.851c10.242,8.464,19.073,17.633,27.297,27.105l8.865-6.178   c-1.277-3.386-2.97-6.486-8.981-6.63c-0.298-2.725-1.45-5.143-5.273-6.608c-0.811-3.272-3.624-3.208-5.84-4.14   c-1.868-5.201-6.423-8.049-10.163-11.612c-4.215,0.99-6.16-1.803-8.155-4.513l-3.204-0.625l-2.294,1.408   c-2.397-1.971-3.051-4.69-3.719-7.403l-3.434-0.916l0.872,4.761c-2.078,1.271-3.216-2.161-4.301-5.859l-6.993-10.153   c-4.56-21.254-8.538-23.859-12.615-29.664c-1.125,2.644-1.319,5.858-3.168,7.3l-10.289,5.356c-1.663,2.886-4.237,3.741-6.974,3.713   c-3.854,18.393-5.889,30.266-5.705,45.198l7.932-0.011l0.769-2.566l3.663,0.207l3.021,4.78L864.376,453.553z" />
	<path
   id="Gabun"
   fill="#123456"
   stroke="#000000"
   stroke-linecap="round"
   d="M457.726,744.643l-27.527-28.483l-6.563-16.768   l6.05-5.809l1.693-9.438l7.744,1.695c0.445-0.463,1.14-0.8,0.726-1.695l-6.719-3.442l2.122-9.623l25.776-1.322l0.115-16.585h31.942   l-2.476,3.487l-0.286,10.818c2.883,1.103,4.808-1.279,6.676-4.697c4.91-0.767,13.923,3.671,11.474,12.139   c-4.091,4.601-5.951,8.886-4.493,12.799c1.076,2.879,2.368,5.677,3.196,9.949l-2.476,22.534l-5.138,3.714   c-2.309-3.815-6.569-5.188-12.527-4.44c-1.832-2.295-3.63-5.227-7.103-0.596l-13.323,8.197l1.153,11.017L457.726,744.643z" />
	<path
   id="Gambia"
   fill="#123456"
   stroke="#000000"
   stroke-linecap="round"
   d="M40.649,466.724h16.777   c3.62-4.833,8.95-3.251,15.021,1.113l9.689,0.717l2.134,2.746l-7.015,2.44c-4.803-1.026-9.136-2.874-13.118-5.334   c-2.813,1.667-6.027,2.663-10.067,2.284l-1.831,3.05l-14.579,0.61L40.649,466.724z" />
	<path
   id="Ghana"
   fill="#123456"
   stroke="#000000"
   stroke-linecap="round"
   d="M306.17,593.312c-1.462,1.953-1.646,6.038-5.697,3.676   c-20.117,2.443-28.056,10.976-42.084,16.462l-17.742-6.492l2.417-9.882c-0.504-7.906-7.215-15.993,1.861-23.616   c0.844-5.766,0.377-12.038,6.586-15.718l-4.716-42.545l30.637,0.949c4.077-2.159,8.416-2.479,12.804-2.462   c-2.405,4.806-1.123,9.381,4.705,13.672c4.708,19.202,4.123,37.648,5.599,56.387L306.17,593.312z" />
	<path
   id="Guinea"
   fill="#123456"
   stroke="#000000"
   stroke-linecap="round"
   d="M60.899,510.939   c-0.527,1.644-0.393,2.459,1.745,2.463c0.863,1.034,3.905-6.271,3.437,1.101l2.721,0.292c-0.922,4.095,1.867,9.125,4.528,10.033   c3.424,1.167,5.318,5.133,7.2,6.884l4.648,8.551c3.199,2.182,7.609,0.596,14.495-8.691c-0.75-3.094,3.527-4.742,16.308-3.941   c10.469,7.544,13.608,16.345,9.705,26.352c4.682-1.13,7.303-4.324,15.109-2.329c3.892,4.904,6.3,10.317,3.064,17.666   c4.311,1.609,5.867,6.343,11.885-1.631c-0.41-1.828,1.077-2.486,2.969-1.082c1.146,0.851,3.06-0.441,4.866,0.007l3.18-8.191   l-3.896-1.573l0.742-4.306l7.966,1.62c-0.61-2.936-4.579-6.757-1.638-8.758c1.318-1.356,0.708-2.417-0.63-3.365l0.166-3.755   c-7.725-0.924-3.315-9.47-0.649-13.805l-4.735-4.304l-0.543-9.47l-3.906,2.878l-1.46-2.181l5.215-4.77l-7.041-5.35   c1.163-3.745-0.407-8.237-1.682-12.911l-4.957-1.077c0.076,2.133-0.664,3.75-2.842,4.449c-1.859-0.558-2.997,0.631-3.418,3.562   l-8.785-3.635l-6.975,5.057c0.883-2.268-1.382-3.61-2.807-5.301l-3.846,2.583c-3.005,1.012-3.382-0.604-3.346-2.633   c0.618-0.66,1.39-1.165,1.626-2.206c-10.851-1.685-22.214-1.009-32.134-6.979l-3.111-0.017l-1.351,16.837l-8.471,0.226   C65.975,502.24,61.9,509.949,60.899,510.939z" />
	<path
   id="Guinea-Bissau"
   fill="#123456"
   stroke="#000000"
   stroke-linecap="round"
   d="M36.915,486.386l1.028,2.823   c2.125,1.455,6.13-1.422,5.889,5.495c1.935,1.01,4.326-1.031,5.714,3.623c2.375,1.2,8.385-9.97,6.209,6.698l5.335,5.849   c3.165-4.935,7.923-9.88,12.848-11.646l8.712-0.212l1.464-16.786l-22.484-0.077c-4.569,2.223-9.266,3.438-14.244,2.387   C44.214,485.675,40.907,486.276,36.915,486.386z" />
	<path
   id="Kamerun"
   fill="#123456"
   stroke="#000000"
   stroke-linecap="round"
   d="M535.695,661.316   c-4.093-1.801-8.99-5.882-11.878-4.271l-10.321-3.685l-20.653-0.188h-32.425l-22.084,0.242l2.241-16.938l-5.807-7.501l2.178-2.664   l-1.452-2.178l-3.872,1.21c-4.783-0.593-6.495-3.979-7.618-7.9c-2.582-0.972-6.196-0.622-6.175-4.925   c5.432-9.403,6.612-22.24,17.215-27.467l0.369-4.146l15.139-0.716c5.654,3.631,3.848,7.802,13.45,6.584   c6.648-12.001,11.471-34.046,20.13-34.992c5.242-12.906,6.797-31.22,15.728-38.718c4.4-1.572,8.155-3.439,9.783-6.271   c0.95-1.654,1.176-7.001,0.385-9.446c-0.57-1.757-1.664-0.388-3.393-2.673l-2.6-9.912l2.105-1.704l7.996,6.776   c1.135,5.545,3.899,10.684,3.362,16.648c-0.58,8.672-4.16,9.914,4.49,19.811c1.472,2.454,1.808,5.049,1.49,7.728l-16.118-1.599   c-1.799,4.398-5.783,14.391,10.1,17.917l7.49,22.503l-13.96,23.219l1.946,16.949c5.892,10.861,12.718,22.175,22.252,30.965   L535.695,661.316z" />
	<path
   id="Kenia"
   fill="#123456"
   stroke="#000000"
   stroke-linecap="round"
   d="M931.239,711.896   c-2.008,3.139-4.209,6.036-8.626,6.167c-1.644,4.354-3.768,8.332-9.237,9.67c-6.021,10.879-10.603,23.378-18.124,32.568   l-21.04-14.099l-3.307-12.261l-64.097-40.249l21.098-32.255l0.449-18.072l-7.247-5.972c-0.899-6.977-2.53-13.28-8.269-15.818   l7.46-6.523l20.857-0.942l12.974,1.111c4.449,2.297,6.811,2.378,18.578,12.19l23.627,3.553c3.771-1.298,7.273-3.228,9.898-8.478   c5.706-0.824,11.755-5.76,19.159,1.28c2.425,0.861,6.305,0.495,10.148-0.063c-4.408,7.043-9.041,12.726-13.643,18.596l0.39,58.618   L931.239,711.896z" />
	<path
   id="Lesotho"
   fill="#123456"
   stroke="#000000"
   stroke-linecap="round"
   d="M714.117,1153.764   c-1.103,0.104-3.028,0.429-4.411,0.979c-1.018,0.407-1.938,0.834-2.695,1.594c-0.616,0.615-0.782,1.528-0.98,2.329   c-0.21,0.834-1.902,1.915-2.574,2.083c-0.938,0.234-2.206,0-3.186,0c-1.962,0-2.896-0.428-4.046-1.961   c-1.402-1.873-3.164-3.312-4.411-5.394c-0.883-1.472-1.688-2.369-2.205-3.921c-0.39-1.165-0.246-2.457-0.246-3.676   c0-1.567,0.721-2.996,2.083-3.678c0.164-0.081,0.325-0.164,0.49-0.246c1.603-0.799,1.999-2.613,3.186-3.798   c1.307-1.307,3-2.467,4.413-3.678c0.896-0.769,2.177-1.457,3.187-1.961c1.547-0.772,3.023-1.186,4.657-1.593   c1.226-0.307,2.653-0.726,3.676-0.98c0.203-0.052,0.408-0.082,0.614-0.123c0.203-0.041,0.407-0.081,0.611-0.123   c1.445-0.288,3.266,0.434,4.044,1.473c1.067,1.421,2.403,2.793,3.434,4.165c0.538,0.719,0.506,2.483,0.98,3.432   c0.677,1.356,1.481,2.367,1.959,3.801c0.49,1.466-0.213,3.005-0.856,4.289c-0.763,1.529-1.798,2.412-2.94,3.554   c-0.937,0.935-1.935,1.695-2.942,2.453C715.425,1153.184,714.708,1153.409,714.117,1153.764z" />
	<path
   id="Liberia"
   fill="#123456"
   stroke="#000000"
   stroke-linecap="round"
   d="M171.573,617.681l-13.096-4.606l-46.139-37.801   l14.603-12.22l-0.255-4.368l7.156-6.917c2.13-1.437,4.719-0.434,7.169-0.167c6.146,8.955,4.498,13.166,2.82,17.708   c3.488,0.886,6.124,6.691,11.894-1.597c-0.161-2.305,1.247-2.327,3.625-0.94v4.398c1.879,0.788,3.254,4.525,1.431,7.942   c-0.967,1.814-1.631,3.674-3.705,4.045l6.028,3.694c1.712-0.291,3.189-1.563,6.792,6.044c0.776,1.065,9.78,4.842,2.308,13.807   L171.573,617.681z" />
	<path
   id="Libyen"
   fill="#123456"
   stroke="#000000"
   stroke-linecap="round"
   d="M469.386,176.537c0,0,2.284,8.844-4.547,13.694   c-3.435,2.439-14.668,10.677-14.668,10.677c0.953,5.029,2.129,17.604-8.781,19.317c-7.499,1.178-3.568,7.239,1.446,15.46   l0.319,42.812c0,0-6.672,1.303-6.2,3.066c1.062,3.959,1.141,6.799,6.139,11.248c3.209,2.856,3.268,8.012,2.991,11.176   c-0.318,3.652,3.791,5.222,4.752,5.199c7.504-0.181,13.426-3.749,20.535,15.852l35.26,1.085c4.109,0.87,8.459,7.165,8.459,7.165   l20.195-5.737l118.899,58.789l-0.214-9.549c13.145,1.07,14.654-0.442,14.654-0.442L660.5,237.442   c-4.773-6.553-9.482-12.978-3.741-20.245c0,0,0.039-7.708-1.398-12.08c-1.496-4.551,2.607-7.646,2.607-7.646   c-0.063-5.89-11.369-5.441-17.317-5.747c-7.803-0.401-13.048-1.471-11.688-7.317c0,0-20.405-7.327-28.302-2.495   c-4.195,2.565-13.042,6.666-14.652,11.921c-1.083,3.535-0.114,5.931,1.992,9.521c3.689,6.284-8.766,27.859-23.001,10.593   c0,0-18.698-5.148-29.261-7.457c-10.336-2.259-17.468-11.323-13.18-16.81c0.42-0.536-28.055-8.773-28.055-8.773   C481.354,182.943,471.725,179.097,469.386,176.537z" />
	<path
   id="Madagaskar"
   fill="#123456"
   stroke="#000000"
   stroke-linecap="round"
   d="M980.991,1090.752l43.88-93.386   c3.355-10.536,5.345-21.074,10.296-31.612c3.361-4.441,7.622-8.562,4.939-15.161l0.953-9.058c0.492-2.738,2-2.683,4.291-0.477   l1.344,5.47c1.629-0.516,3.23-1.071,3.104-3.787l-4.448-48.401l-8.39-9.094l-4.849,4.018l-1.261,12.424l-2.803,2.466   c-1.471-0.449-3.626-2.669-2.991,2.363l-4.16,4.566c-4.733-8.777-5.433-0.991-4.15,2.802c-0.126,1.657,0.339,4.494-1.906,1.906   l-3.391,5.47l4.818,3.59h-2.86l-6.196,4.485l0.953-5.438l-6.198,6.196l1.432,7.628l-4.18,0.169l0.819-3.419   c-3.861-2.538-7.001,2.837-10.464,4.68l3.813,6.198l-4.769,0.475l-1.905-5.721l-7.685,1.262c0.24,2.703-2.868,3.493-5.664,4.459   l-0.477-3.813l-4.291,4.29l-7.487,0.365l-1.459,6.447l-10.122,14.64c7.732,6.796,4.6,22.131,6.675,33.371   c-2.847,9.069-8.376,15.993-13.349,23.361c-5.783,3.818-8.395,7.639-9.273,11.457c-0.846,3.663-2.623,10.868-1.549,14.533   c1.252,4.276,3.616,2.821,3.724,7.097l1.406,7.014c-7.074,27.24,10.532,26.833,14.325,33.485c1.726-0.786,3.918,0.548,5.604-0.361   c3.742-2.018,8.526-7.004,13.526-5.349C974.803,1093.751,977.94,1092.163,980.991,1090.752z" />
	<path
   id="Malawi"
   fill="#123456"
   stroke="#000000"
   stroke-linecap="round"
   d="M809.816,837.713l9.105,30.018l-2.689,26.647   c5.406,4.87,10.78,8.817,18.364,21.47c0.952,1.588,1.949,5.559,1.614,8.742l-3.301,14.091l-8.243,3.588l0.64,12.323l-4.379,0.067   c2.258-5.786,0.098-4.704-0.874-5.058c-5.976-3.774-8.215-9.328-9.314-14.31c4.89-7.525,4.598-13.573,4.04-19.39l-8.088-1.496   c-6.245,1.526-7.46-0.764-8.061-2.849c-3.389-7.937-4.945-4.876-6.189-5.414l-4.825-6.641l8.462-15.687l6.601-0.739l-4.491-5.854   l3.932-20.398l3.745-2.762l-10.816-21.375C798.193,835.445,801.669,836.386,809.816,837.713z" />
	<path
   id="Mali"
   fill="#123456"
   stroke="#000000"
   stroke-linecap="round"
   d="M230.24,293.204l-23.298,0.627l1.101,134.449   l6.145,2.17l-4.308,13.145l-68.666-3.885l-7.903,5.54l-4.318-1.595l-2.991-8.876l-3.925-1.048   c-7.733,16.903-8.919,14.938-11.79,17.828c0.468,1.729-0.66,3.378-0.104,4.961c1.74,4.955,2.832,9.981,0.212,12.125   c3.576,3.183,8.191,5.72,9.519,10.309c0.254,5.855-0.065,10.369-1.639,11.955c-1.562,1.563,0.292,5.21,3.537,2.479l3.154-1.918   c1.039,1.653,3.326,2.555,2.992,5.03l6.953-4.754l8.49,3.527c0.863-1.302-0.22-3.251,3.084-3.739   c1.733,0.048,2.953-1.192,3.465-4.203l4.662,1.131c1.253,4.392,2.783,8.82,1.977,12.918l6.878,5.194l-5.252,4.809l1.455,2.195   l3.832-2.554l0.568,9.2l4.841,4.448c1.984-1.97,5.152-4.454,7.55-3.208c2.259,1.173,3.313,5.768,5.444,4.334   c2.229-1.5,2.647-2.904,6.101-2.899c2.602,0.002-2.23-4.495,1.009-4.401c1.505,0.044,3.855-1.728,6.457-1.044   c2.494,0.655-0.606,9.944,1.221,7.949c4.531-4.944,13.561-3.029,14.433-1.923c2.527-9.052-2.413-17.398,14.929-27.847l7.652-16.122   c10.203-4.28,21.155-2.333,30.535-13.466c11.794-7.877,23.581-13.803,29.948-12.035l11.907,0.011l6.691-5.709l32.027,0.4   c0.811-1.573,1.257-2.729,5.682-4.903c0.034-3.868,3.502-4.08,5.913-5.299l1.257-47.461l-12.022,1.735   c-4.749-3.087-0.755-4.071-0.711-10.937c-2.707-6.095-6.15-7.012-9.529-6.412c-2.97,0.529-4.307-3.683-5.866-3.365   c-2.684,0.546-5.623-2.029-7.403-5.817c-0.603-1.288-2.266-1.876-3.39-2.648c-2.498-1.714-4.776-3.033-4.129-5.708   C314.618,357.898,257.429,314.217,230.24,293.204z" />
	<path
   id="Mauretanien"
   fill="#123456"
   stroke="#000000"
   stroke-linecap="round"
   d="M109.223,344.834   c1.877-13.438-6.477-32.322,19.625-32.86l5.477-40.62l46.552,4.107l2.521-18.254l46.916,36.028l-23.369,0.568l1.185,134.545   l5.915,2.107l-3.986,13.069l-68.876-3.794l-7.852,5.551l-4.239-1.391l-2.993-9.123l-4.166-1.03c0,0-7.6,18.751-12.439,16.855   c0,0-2.151-2.335-4.585-4.85c-2.145-2.216-4.481-4.411-6.14-7.538c-2.304-4.346-3.9-11.327-7.076-10.827   c-6.759,1.061-11.909-7.9-11.909-7.9s-7.876-2.186-13.52-0.62c-7.297,2.027-15.538-0.076-17.009,0.878l6.697-18.606l0.683-21.688   l-4.08-6.514c2.182-3.855,8.844-7.41,4.49-18.953c-0.499-1.322-2.87-0.609-2.87-0.609l-2.813-8.486l3.457-3.464L109.223,344.834z" />
	<path
   id="Marokko"
   fill="#123456"
   stroke="#000000"
   stroke-linecap="round"
   d="M184.588,248.658l2.356-18.051l14.148-7.303   l3.195,0.913l5.02-4.108l8.342,0.604l0.456-3.979c17.445,0.852,20.981-3.813,24.062-8.49l14.604-5.933h5.477l-2.738-3.651   l0.912-3.377l-0.456-4.383c5.712-0.748,12.756,0.169,12.799-5.806l23.713,0.33l3.195-7.302c-4.529-1.663-5.34-8.211-4.733-15.17   c0.449-5.167,0.042-16.922,0.042-16.922c-1.563-1.887-3.511-3.663-3.961-6.372c-3.803-0.702-8.471-0.786-10.061-3.066   c-5.52-0.95-10.99-1.452-15.925-0.956c-9.037,0.911-12.758-2.346-16.478-10.911c-8.703-0.568-17.931,18.137-24.645,27.385   c-16.236,4.515-27.984,11.833-36.056,21.449c1.078,3.91-0.818,5.416-4.756,7.998c-2.547,1.669-11.504,15.968-8.479,23.951   c0.038,6.238-4.823,16.633-18.795,23.549c0,0-6.513,6.09-16.816,9.451c-4.348,1.418-14.424,2.549-17.474,5.361L184.588,248.658z" />
	<path
   id="Mosambik"
   fill="#123456"
   stroke="#000000"
   stroke-linecap="round"
   d="M746.271,921.171l3.23,8.448l-0.249,4.226   l11.183,0.841l26.196,10.192c2.682,14.643,0.965,26.882-3.289,37.739c-0.115,2.127-0.823,4.157-0.566,6.105   c0.484,3.651,2.283,8.685,0.241,12.876c-5.265,10.788-10.179,21.588-11.446,22.287c-4.346,2.407-9.745,9.437-9.895,15.067   l2.615,64.679l9.905,0.637l2.637-9.158l-3.975,1.491c0.607-3.623-0.228-7.246,3.578-10.87l31.782-12.563   c3.937-2.89,6.382-7.27,9.118-11.355l-3.71-1.283l6.579-24.839l-3.381-1.147l-2.733-20.905c-9.004-5.522-3.795-14.104-0.162-16.111   l19.212-16.324l1.584,3.253l7.128-7.872l-1.574-2.428l4.634-0.847l1.374-3.987l23.543-11.585l5.88,0.061   c4.459-3.377,8.04-7.004,14.537-9.798l-0.414-3.489l7.843-6.068c1.883-1.931,3.499-4.793,5.962-4.693l0.344-3.89l-1.491-1.652   l4.291-6.437l1.087-4.294l-0.685-2.81l-2.63-3.997l0.911-15.739c-2.006-1.947-0.899-3.272,0.174-4.605l-0.518-17.373l6.31-10.632   c0.164-2.913,0.399-5.826-0.663-8.737c-9.686,5.762-25.889,15.793-34.078,10.646c-3.589,0.438-7.614,0.433-11.086,4.947   c-2.947-0.276-5.611-0.836-9.135-0.534l-11.592,2.099c-2.104-2.514-4.216-5.008-9.095-2.281l-16.909-0.552l-2.643,26.434   c8.341,6.711,15.684,15.347,19.35,24.191c2.231,5.387-1.81,13.153-2.591,20.03l-8.391,3.63l0.439,11.777l-4.133,0.626   c1.007-2.46,2.118-4.971-1.488-5.277c-4.565-3.87-8.062-8.232-8.544-13.986c3.494-5.685,4.901-12.116,3.976-19.38l-8.135-1.491   c-3.166,0.769-6.839,0.703-7.666-1.82c-2.194-6.703-4.322-7.058-6.81-6.38L746.271,921.171z" />
	<path
   id="Namibia"
   fill="#123456"
   stroke="#000000"
   stroke-linecap="round"
   d="M468.253,952.666   c0.65,8.519,1.445,16.989,9.258,23.003l32.271,57.468l0.822,26.371l5.758,12.207c0.323,4.753-1.43,9.505,1.491,14.26l4.009,22.446   l17.525,19.515c10.887-11.691,14.849-2.248,17.578,5.241c6.663-0.631,13.325-1.246,19.989-0.088   c3.122-2.82,6.313-5.614,11.229-7.717l2.563-100.165l14.818,0.481l2.129-56.408l36.186-3.19l2.78,7.563   c2.604-2.857,6.168-8.125,11.493-8.366c4.809-0.219,7.162-3.338,11.896-5.856l-3.467-5.048l-23.297,3.88l-26.014,6.053l-42.1-5.618   l-7.049-5.928l-66.305,0.768c-3.167-4.195-15.162-13.744-23.833-2.484C475.05,947.549,471.511,951.937,468.253,952.666z" />
	<path
   id="Niger"
   fill="#123456"
   stroke="#000000"
   stroke-linecap="round"
   d="M357.641,391.188l-1.312,47.498   c-2.1,1.219-5.02-0.023-5.818,5.099c-2.336,1.354-5.212,2.303-5.73,5.021l-32.1-0.31l-6.522,5.481l-12.143,0.065   c-0.352,2.615-0.289,5.886,1.777,7.505c1.835,1.436,1.564,4.458,1.1,7.121l15.357,20.489l5.57,2.082   c3.088-2.708,5.903-3.506,7.303,5.604l19.02,2.699c1.326-3.041,1.008-7.257,4.453-8.783c5.175-2.927,4.329-8.041,6.174-12.177   c4.225-2.014,1.523-4.878,23.844-4.671c5.772,3.628,11.343,4.844,17.421,12.14l4.478,0.183c0.127-1.531,4.643-4.677,7.403-5.202   c2.99-1.626,8.307,1.205,15.393,7.428l12.624,1.13l12.123-8.695l21.192-0.542c3.197,1.249,5.565,4.106,10.282,2.924   c3.388-3.814,9.87-7.455,17.315-10.593c-1.156-3.375-2.456-6.668-1.378-11c1.816-1.526,4.05-1.768,4.269-7.448l25.604-28.412   l4.749-45.309l3.616-9.111c-7.319-2.997-12.333-5.838-13.939-15.941c-0.876-5.504,0.373-12.608-0.171-22.885l-4.559,0.782   c-2.503-2.946-4.926-6.104-8.127-7.188l-35.901-1.308l-90.956,59.967L357.641,391.188z" />
	<path
   id="Nigeria"
   fill="#123456"
   stroke="#000000"
   stroke-linecap="round"
   d="M417.798,612.689l-3.076-0.143l-1.009,5.383   c-5.272,0.129-10.544-0.429-15.818-2.354c-12.592,7.841-22.569,6.558-27.715-11.537c-3.913-10.101-10.247-13.379-16.954-15.604   l-21.915,0.126l0.959-34.976c3.479-4.424,5.642-10.602,7.595-17.059c5.859-1.442,4.609-6.594,4.877-10.953   c5.857-3.88,2.018-9.967-0.393-14.045l0.376-11.377c0.499-3.226-0.235-6.715,4.393-9.677c1.801-2.214,3.602-1.136,5.404-11.965   c3.211-2.467,6.602-4.896,23.895-4.346c6.044,3.161,13.74,5.726,17.936,12.24l3.892-0.188c2.512-1.77,3.288-4.888,7.854-5.059   c2.603-0.054,2.756-2.56,15.113,7.137l12.879,1.204l11.963-8.624l21.443-0.418c3.128,1.303,5.691,4.162,9.748,2.916   c5.359-5.336,11.861-8.096,17.974-10.67c2.443,3.916,5.844,7.744,8.894,10.187l-2.036,1.627l2.578,10.373   c1.198,0.906,3.378,1.223,3.434,2.815c2.303,10.175-3.4,13.322-10.145,15.569c-8.589,6.684-10.746,25.021-15.681,38.328   c-9.595,2.834-12.791,20.578-20.126,35.166c-7.08,1.382-8.87-2.063-13.313-6.857l-15.42,1L435,585.032   C425.153,590.174,422.886,601.836,417.798,612.689z" />
	<path
   id="Republik_Kongo"
   fill="#123456"
   stroke="#000000"
   stroke-linecap="round"
   d="M473,764.479l-15.366-19.836l10.284-6.533   l-1.209-11.132l12.584-7.622c2.148-1.688,3.759-5.784,7.622,0.242c6.685-0.793,10.578,0.925,12.705,4.235l5.323-3.63l2.177-22.141   c-0.101-7.63-8.638-12.61,1.575-23.476c1.717-7.138-4.671-12.027-11.738-11.735c-1.728,2.21-2.377,5.771-6.636,4.817l0.223-10.623   l2.541-3.872l20.569,0.241l9.937,3.534c3.708-1.895,8.671,3.732,12.122,4.31l-0.522-17.039   c7.794-9.929,13.538-12.895,19.963-14.397l9.8,4.477l12.1-3.388c-2.971,7.948-6.21,14.475-9.219,22.274   c-5.157,13.367-3.435,29.66-5.784,44.633c-11.17,4.896-15.222,13.499-21.051,21.174l-4.82,22.177   c-10.516,11.268-19.797,20.299-25.791,19.806c-0.04-6.334-6.915-11.95-12.527-1.537c-3.913,2.592-6.728,1.246-9.734-1.61   c-4.351-5.743-5.781-0.874-7.744,2.058L473,764.479z" />
	<path
   id="Ruanda"
   fill="#123456"
   stroke="#000000"
   stroke-linecap="round"
   d="M759.027,702.518l-6.734,5.389h-2.289l-1.347-1.887   c-5.972,5.959-10.436,12.672-15.018,19.326c1.652,0.395,2.973,1.2,3.905,2.493l2.223-2.088l2.558,0.203l1.28,3.435l7.744-1.548   l0.338-4.647l9.629-0.54c1.413-1.928,2.669-3.858,4.779-5.791L759.027,702.518z" />
	<path
   id="Sambia"
   fill="#123456"
   stroke="#000000"
   stroke-linecap="round"
   d="M761.606,813.195l-27.832,6.862   c-1.81,3.308-3.091,5.218-3.794,8.968c-0.183,0.973,0.657,2.971,0.952,5.702c0.586,5.411,2.419,14.898,0.759,17.457   c-3.886,6.002-6.515,17.078-6.294,17.396c2.219,3.18,6.725,6.422,9.378,7.125c3.662,0.968,7.773,0.51,8.664-0.864l0.438,17.568   c-1.427-1.175-3.474-2-4.485-3.282c-5.841-0.498-11.109,2.628-19.697-13.619c-5.646-0.486-11.225-2.132-16.048-8.846   c-2.339-0.612-6.242,2.586-9.761,3.375c-10.064-0.963-12.957-5.734-15.525-7.205c-1.746-1.614-2.849-3.498-3.188-5.7l-10.359,3.438   l-1.861-8.014l-4.285,0.141l-3.683,30.009l3.391,3.419l-31.598-0.819l-1.523,56.241l17.601,15.554l23.851-3.741l3.49,5.241   l1.51,3.531l18.666,0.196l2.548,2.24l3.487-0.92c10.063-13.16,19.236-16.522,28.501-20.9l0.381-8.74   c7.31-4.524,15.193-7.069,24.319-5.319l-3.419-8.656l46.362-14.525l-4.94-7.22l8.36-15.582l6.461-0.76l-4.181-5.699l3.8-20.521   l3.801-2.659l-7.602-14.82l-3.462-6.865l-17.774-5.963c-6.045-8.593-7.462-6.977-9.346-6.475L761.606,813.195z" />
	<path
   id="Senegal"
   fill="#123456"
   stroke="#000000"
   stroke-linecap="round"
   d="M49.473,419.261   c-2.734,4.699-4.592,7.153-4.671,10.967c-0.18,8.72-8.883,11.499-13.239,17.837c4.053,5.909,8.465,11.71,9.152,18.608h16.777   c3.62-4.833,8.951-3.25,15.022,1.113l9.689,0.718l2.135,2.746l-7.017,2.44c-4.803-1.026-9.134-2.874-13.117-5.334   c-2.813,1.666-6.026,2.663-10.067,2.285l-1.83,3.049L37.664,474.3c-0.863,3.966-1.659,7.932-0.916,11.897   c3.525-0.324,6.956,0.191,10.668-1.821c5.004,1.281,9.753,0.162,14.345-2.449l25.303,0.303c9.51,5.439,21.371,6,32.351,6.714   c0.518-5.731,3.722-11.431-8.765-20.134c1.917-2.467,1.2-8.142-0.477-12.241c-0.949-2.32,0.871-3.048,0.009-5.524   c-1.186-0.661-2.616-2.536-4.613-4.421c-2.236-2.109-6.773-8.17-6.773-8.17c-2.654-7.966-6.079-11.224-6.079-11.224   c-8.151,1.333-13.186-7.842-13.186-7.842c-6.958-1.88-10.596-0.496-13.624-0.337C58.002,419.465,56.394,420.44,49.473,419.261z" />
	<path
   id="Sierra_Leone"
   fill="#123456"
   stroke="#000000"
   stroke-linecap="round"
   d="M112.315,575.349l-12.002-6.097   c-1.336-3.714-5.036-5.74-8.812-7.713c0.355-5.247-3.126-6.442-5.452-8.338l-0.792-12.529c5.264,2.048,9.922-3.263,14.507-9.183   c-1.142-4.613,9.31-4.14,16.289-4.004c6.951,6.051,14.229,11.854,9.745,26.567c2.974-1.12,5.779-2.408,9.079-3.204l-8.277,7.743   l0.267,4.407L112.315,575.349z" />
	<path
   id="Simbabwe"
   fill="#123456"
   stroke="#000000"
   stroke-linecap="round"
   d="M671.63,963.17l4.628,9.375   c1.52,1.766,3.501,3.414,3.364,6.283c3.611,6.176,8.117,10.564,12.235,15.723c3.159,0.991,5.955,2.419,7.875,4.959   c1.938,2.34,4.146,4.7,8.038,5.302c-1.643,9.529,2.635,17.734,7.109,19.445c5.303,0.24,10.32,1.228,14.121,4.853   c10.786,1.287,12.048,2.786,14.6,4.254c8.836-2.953,12.956,1.978,17.979,5.378c1.201-7.203,5.445-11.236,10.249-15.032   c3.792-5.522,7.272-14.174,10.896-21.391c2.685-4.475,0.52-9.204-0.129-13.854l0.712-5.932c6.528-16.37,4.524-26.142,3.466-37.659   l-26.504-10.229l-11.135-0.795l0.367-3.772c-9.44-3.061-17.124,1.064-24.166,4.948l-0.317,8.691   c-21.682,9.672-22.833,14.93-28.803,21.009l-3.234,1.002l-2.635-2.331L671.63,963.17z" />
	<path
   id="Somalia"
   fill="#123456"
   stroke="#000000"
   stroke-linecap="round"
   d="M951.228,503.874l-5.37,8.371   c-5.218,7.525,9.095,19.029,20.867,30.018l45.49,14.594l14.666-0.61l-44.183,50.552l-17.856-0.353   c-5.676,3.186-11.226,6.451-15.293,10.605c-4.643,2.892-9.839,4.685-14.776,6.993c-3.061,6.688-8.161,12.152-12.759,17.918   l0.143,58.665l8.946,11.256l20.585-23.055l34.498-32.563l3.969-0.474l14.455-13.676l0.591-2.736   c7.936-6.027,17.814-16.14,20.277-21.135c4.36-8.834,9.98-16.317,16.247-23.487l13.583-39.228c2.642-2.547,4.622-5.977,6.286-9.832   c0.685-4.114,3.146-5.569,5.035-7.88l1.547-19.644c4.402,0.618,2.278-8.084,2.528-13.4c-1.699-1.516-3.596-4.015-0.04-6.021   l-0.033-4.897c-3.194,0.265-6.412-3.386-9.553-0.919c-3.933,3.699-9.179,6.345-15.158,6.84c-6.654,0.55-12.075,4.398-14.862,3.454   c-4.509,3.739-10.251,5.007-17.704,2.85c-4.977,4.427-8.239,10.177-24.217,6.114l-10.187,7.284   C963.235,523.736,959.141,511.015,951.228,503.874z" />
	<path
   id="Südafrika_2_"
   fill="#123456"
   stroke="#000000"
   stroke-linecap="round"
   d="M714.117,1153.764   c-1.103,0.104-3.028,0.429-4.411,0.979c-1.018,0.407-1.938,0.834-2.695,1.594c-0.616,0.615-0.782,1.528-0.98,2.329   c-0.21,0.834-1.902,1.915-2.574,2.083c-0.938,0.234-2.206,0-3.186,0c-1.962,0-2.896-0.428-4.046-1.961   c-1.402-1.873-3.164-3.312-4.411-5.394c-0.883-1.472-1.688-2.369-2.205-3.921c-0.39-1.165-0.246-2.457-0.246-3.676   c0-1.567,0.721-2.996,2.083-3.678c0.164-0.081,0.325-0.164,0.49-0.246c1.603-0.799,1.999-2.613,3.186-3.798   c1.307-1.307,3-2.467,4.413-3.678c0.896-0.769,2.177-1.457,3.187-1.961c1.547-0.772,3.023-1.186,4.657-1.593   c1.226-0.307,2.653-0.726,3.676-0.98c0.203-0.052,0.408-0.082,0.614-0.123c0.203-0.041,0.407-0.081,0.611-0.123   c1.445-0.288,3.266,0.434,4.044,1.473c1.067,1.421,2.403,2.793,3.434,4.165c0.538,0.719,0.506,2.483,0.98,3.432   c0.677,1.356,1.481,2.367,1.959,3.801c0.49,1.466-0.213,3.005-0.856,4.289c-0.763,1.529-1.798,2.412-2.94,3.554   c-0.937,0.935-1.935,1.695-2.942,2.453C715.425,1153.184,714.708,1153.409,714.117,1153.764z M539.386,1127.945l24.543,49.386   l0.322,11.292c-1.241,2.716-3.275,2.796-5.551,2.356c-0.921,1.295-1.785,2.973,0.236,4.235c3.042,5.397,5.242,11.965,9.117,16.591   c3.182,3.802,7.904,5.79,11.649,9.07l9.745,0.78c2.006-1.409,0.182-3.332,7.452-4.038l14.276-0.092   c4.506-1.771-0.565-6.229,14.134-5.135c2.413,0.304,3.46,2.954,7.246,0.906c6.824-1.101,13.34,1.502,19.987,2.501   c1.97-1.572,1.236-4.251,12.307-2.111l1.132-4.307l12.974,0.204l76.902-71.468c12.198-5.063,14.895-19.832,18.312-33.863   l-9.655-0.647c-0.1-1.169-9.271,5.389-10.433,5.521c-4.959,0.551-7.82-1.051-7.107-9.738c0.531-6.473,7.466-11.629,9.301-12.827   c2.444-1.598,4.885,4.425,7.319,2.833c0,0-0.86-27.541-1.892-50.58c-5.176-3.148-8.891-8.563-18.113-5.46   c-4.845-3.619-9.687-3.248-14.529-4.378l-53.202,42.194l-1.953,8.816c-6.045,3.197-12.09,2.763-18.135,3.403   c-4.578-3.48-9.513-5.537-14.878-5.862l-8.876,7.769c-0.828,4.276-3.316,4.686-5.222,6.455c-3.02,1.75-4.599,3.98-5.254,6.521   c-8.944,2.211-15.218,0.752-21.044-1.325c1.123-5.229,4.486-8.625,1.682-17.067l-12.372-13.838l-1.608,59.427   c-3.744,1.618-7.485,4.08-11.227,7.671c-6.238-0.533-11.42-1.398-20.071,0.163C555.497,1126.742,549.503,1115.891,539.386,1127.945   z" />
	<path
   id="Sudan"
   fill="#123456"
   stroke="#000000"
   stroke-linecap="round"
   d="M667.107,346.607l1.447,30.277   c-5.133,0.389-10.421,0.387-14.591-0.188l0.234,9.637l1.403,57.231l-16.366,0.885l0.188,6.103l-9.367,11.855l0.604,8.431   l-3.137,1.452c-0.301,5.263-0.93,9.867-3.142,11.309l0.142,6.818l6.813-1.418c1.376,7.666,1.704,15.713,8.138,21.538l0.827,5.119   l-3.047,0.421c5.157,6.418,11.1,12.443,14.478,19.752c-5.907,18.294,2.983,15.013,7.867,17.57   c1.916,2.684,2.705,5.966,11.561,4.948l5.137,4.688c-1.105,7.763,10.363,12.032,17.085,17.62l6.284,12.337   c5.384,2.615,11.839,3.731,12.641,12.766c3.585,2.037,4.987,5.039,7.622,7.676c1.211,1.211,0.105,2.36,1.308,3.304   c3.408,2.677,9.534,3.345,10.379-0.502c0,0,5.69,2.137,9.802,1.64c2.554-0.308,2.327-2.715,4.865-3.255l18.28,15.99l3.264-2.373   c12.55,2.911,25.101,1.24,37.652-0.57l14.966-12.805l20.724-0.759l0.201-10.764l-10.65-3.685l-7.372-16.321l-10.688-9.025   c1.869-2.876-3.248-5.752-5.73-8.628c-3.363,0.915-7.001,0.17-10.847-1.811l2.748-3.506l-0.049-5.06l9.786-0.154   c1.904-1.198,3.979-1.721,5.434-4.717l-0.333-27.866l4.589-6.826l4.651,0.054l2.283-11.811c5.517-6.789,7.704-15.478,16.563-20.357   l2.778-22.306c-1.613-15.75,3.17-29.368,5.452-43.82c2.283-0.939,4.899,0.806,6.755-3.558l10.207-5.19   c2.012-1.339,2.684-4.469,3.275-7.703c-1.384-3.089-3.373-2.53-5.207-2.915c-3.01-5.783-7.998-6.294-12.336-8.544l-6.06-36.647   l-4.791-5.104c1.227-13.137-14.234-15.443-21.822-23.292l-4.982,5.055l-4.072-0.934l-1.937,8.274l-8.824,2.319l-0.782,6.707   l-7.816,0.881l-3.712-3.878L667.107,346.607z" />
	<path
   id="Swasiland"
   fill="#123456"
   stroke="#000000"
   stroke-linecap="round"
   d="M763.676,1089.891l0.691,13.452   c-4.02,2.013-7.009,4.022-10.434,6.034c-3.758-0.094-6.165-1.079-6.761-4.089c-0.946-4.791-0.406-8.055,2.252-12.083   c1.933-2.928,5.43-6.623,7.774-7.015c1.205-0.202,2.986,1.608,4.024,3.135L763.676,1089.891z" />
	<path
   id="Tasania"
   fill="#123456"
   stroke="#000000"
   stroke-linecap="round"
   d="M806.811,693.61l-5.544,8.261l-42.078,0.716   l6.897,14.171c-10.864,10.96-3.955,13.037-1.374,17.274c-4.764,8.874-8.429,19.708-17.958,20.069   c-2.396,0.603-4.151,0.003-4.6,2.948c-1.05,6.894,1.973,21.167,4.742,29.414c2.841,6.365,7.859,10.672,10.584,16.004   c2.51,3.697,3.124,7.396,4.313,11.096l5.833,6.581c2.462-0.732,5.203-0.067,9.088,6.305l17.514,5.78   c3.774,3.5,9.741,4.443,15.605,5.507l9.182,30.295l17.155,0.439c2.967-1.867,5.931-1.708,8.897,2.146   c6.385-1.007,12.093-2.69,20.491-1.688c2.657-2.85,5.959-4.973,11.461-4.621c6.591,5.254,25.392-5.43,33.487-10.66   c-1.972-3.563-5.574-5.5-8.916-7.692c0.269-4.051-1.367-8.481-2.826-12.877c-1.705-2.688-3.019-5.277-1.895-7.256l-3.978-8.696   l2.497-0.815c-0.649-6.632-0.605-12.89,3.348-17.042c-2.713-5.616-11.953-10.07-11.423-16.732l7.893-22.222l-20.942-13.869   l-3.468-12.358L806.811,693.61z" />
	<path
   id="Togo"
   fill="#123456"
   stroke="#000000"
   stroke-linecap="round"
   d="M306.142,593.362l10.897-3.144l-7.23-56.681   c-0.924-4.322-5.215-6.236-8.492-8.877l1.737-9.264l-12.849-1.662c-2.405,4.806-1.123,9.381,4.705,13.672   c4.708,19.202,4.124,37.647,5.6,56.388L306.142,593.362z" />
	<path
   id="Tschad"
   fill="#123456"
   stroke="#000000"
   stroke-linecap="round"
   d="M654.011,386.082L534.99,327.467l-15.766,4.764   c1.079,9.312,0.287,16.522,0.454,22.222c0.244,8.355,6.06,14.215,14.032,17.039l-3.528,8.589l-5.073,45.99l-24.841,27.335   c-0.788,1.551-1.227,3.102-1.133,4.653c-0.787,1.779-1.797,2.553-2.875,3.017c-1.734,1.079-0.878,2.899-1.079,4.252   c-1.444,9.689,18.813,24.04,18.813,24.04c1.042,4.377,2.585,8.267,3.359,12.886c0.833,4.981-1.605,10.994-0.904,15.312   c1.02,6.266,7.974,6.896,7.023,16.462l-15.949-1.468c-4.629,9.24-1.39,15.263,9.978,17.96l7.507,22.415   c12.063-2.753,20.557-1.289,36.314-8.41l14.336-1.42c2.645-4.508,8.24-6.91,6.32-14.679l19.837-2.166   c1.551-1.444,2.295-3.696,4.814-4.172c3.889-0.12,5.025-2.647,6.066-5.259c1.813-4.294,6.381-5.833,9.814-8.508   c0.618-14.165,11.325-10.108,17.85-12.79l-0.781-4.916c-3.733-4.071-6.953-8.691-8.122-21.647l-6.961,1.308l-0.153-6.295   c2.13-2.287,3.663-7.708,3.117-11.563l3.24-1.521l-0.798-8.187l9.581-12.248l-0.297-6l16.515-0.869L654.011,386.082z" />
	<path
   id="Tunesien"
   fill="#123456"
   stroke="#000000"
   stroke-linecap="round"
   d="M455.756,114.017   c-2.757,0.094-13.564-5.541-19.638,3.293c0,0-4.571,2.024-4.827,6.715c-0.398,7.224-1.087,29.713-1.087,29.713   c-0.759-1.215-6.173-0.297-7.029,3.373c-1.162,4.986-6.782,3.681-7.228,6.2c-0.896,5.072,3.531,9.737,8.743,14.286   c1.336,1.167-0.495,7.619,0.828,8.8c4.037,3.601,11.2,6.057,11.2,6.057c1.662,16.524,4.601,27.943,4.601,27.943   c1.089,0.682,12.634-3.283,8.653-19.516c-0.461-1.879,23.664-9.694,19.334-24.793c-0.451-1.571-4.378,0.288-5.016-2.561   c-1.431-6.392-1.246-7.966-3.676-8.925c-1.221-0.482-6.269,4.365-7.295,3.745c-2.29-1.383-5.146-4.603-3.91-6.197   c2.13-2.748,17.515-12.285,17.669-17.542c0.229-7.825-2.659-8.58-6.496-10.664c-2.18-1.184-1.396-4.891-0.691-7.005   c0.433-1.296,8.739-4.124,7.781-7.127c-0.65-2.039-1.855-2.351-2.297-3.945c-0.325-1.176-6.602,5.381-6.997,4.367   C457.329,117.562,457.016,115.927,455.756,114.017z" />
	<path
   id="Uganda"
   fill="#123456"
   stroke="#000000"
   stroke-linecap="round"
   d="M764.92,630.468l3.02-2.29   c12.145,3.098,24.8,1.325,37.455-0.438l7.582-6.271c4.304,2.535,7.523,6.884,8.169,15.953l7.292,5.832l0.004,17.709l-27.139,40.852   l-42.31,0.782l-6.475,5.245l-2.529,0.05l-1.453-1.944l0.971-25.241l9.483-14.394l15.125-13.568l-9.144-5.78L764.92,630.468z" />
	<path
   id="Westsahara"
   fill="#123456"
   stroke="#000000"
   stroke-linecap="round"
   d="M109.249,345.058   c1.878-13.438-6.474-32.322,19.626-32.861l5.475-40.619l46.553,4.108l3.539-27.422l-62.267-4.599   c-5.778,8.869-9.133,16.378-17.857,19.838c-8.231,3.264-11.453,13.424-13.781,22.223l-24.504,28.039   c-0.882,6.366-4.581,10.619-9.532,13.934c-4.477,5.856-7.211,13.133-7.9,19.602l6.244-5.661L109.249,345.058z" />
	<path
   id="Zentralafrikanische_Republik"
   fill="#123456"
   stroke="#000000"
   stroke-linecap="round"
   d="M525.098,572.817   l-14.063,23.069l1.886,16.772c6.01,11.804,13.017,22.712,22.355,31.519c5.799-6.451,8.347-11.428,19.83-14.4l9.988,4.343   l11.205-3.151c2.777-3.227,2.551-8.329,2.769-13.155c3.85-6.28,7.998-9.581,12.178-12.57c3.097,2.396,8.583,0.548,8.995,7.717   c3.671,4.129,7.131,6.589,9.806,2.759c3.102,4.583,16.281,3.121,25.347,4.125c0.526-1.7,1.487-3.948,3.344-7.318   c3.036-0.459,5.766-1.656,10.397,1.716l19.152-6.701l1.247,2.828l7.659-1.231l-0.134-2.852l16.921-1.405l3.768,4.836l1.745-2.615   l2.892,2.109l2.434-2.799l7.888-0.307c-1.613-4.471-0.926-9.77-12.877-12.585l-6.146-12.553   c-6.159-5.896-17.08-8.623-17.877-18.095l-4.721-4.563c-4.002,0.187-7.486,1.92-11.946-5.315   c-7.206-1.094-12.097-2.224-7.362-16.818c-3.703-8.938-9.359-13.169-14.267-19.993c-10.331,1.975-14.479,1.449-14.844,12.13   c-3.281,2.614-8.1,3.945-9.601,8.045c-1.3,3.028-2.373,5.362-6.97,5.754c-1.311,0.81-2.901,2.455-4.542,4.256l-19.579,2.042   c1.026,3.682,0.629,7.002-3.585,11.113c-1.124,1.098-1.932,2.443-2.98,3.624l-14.099,1.312   C545.012,571.649,536.832,570.123,525.098,572.817z" />
</g>
<g
   id="Skala">
	<path
   fill="none"
   stroke="#000000"
   stroke-width="3"
   stroke-linecap="round"
   d="M93.933,681.705h223.375v-12.396"
   id="path54" />
	<path
   fill="none"
   stroke="#000000"
   stroke-width="3"
   stroke-linecap="round"
   d="M233.298,682.049v11.707"
   id="path56" />
	<path
   fill="none"
   stroke="#000000"
   stroke-width="3"
   stroke-linecap="round"
   d="M93.917,669.063v25.351"
   id="path58" />
	<text
   transform="matrix(1 0 0 1 232.4314 713.3232)"
   font-family="'ArialMT'"
   font-size="16.6399"
   id="text60">     </text>

	
		<text
   transform="matrix(1 0 0 1 232.4314 713.3232)"
   fill="none"
   stroke="#000000"
   stroke-width="1.3321"
   stroke-linecap="round"
   font-family="'ArialMT'"
   font-size="16.6399"
   id="text62">     </text>

	<text
   transform="matrix(1 0 0 1 202.8328 713.3232)"
   font-family="'ArialMT'"
   font-size="16.6399"
   id="text64">1000 km</text>

	
		<text
   transform="matrix(1 0 0 1 202.8328 713.3232)"
   fill="none"
   stroke="#000000"
   stroke-width="1.3321"
   stroke-linecap="round"
   font-family="'ArialMT'"
   font-size="16.6399"
   id="text66">1000 km</text>

	<text
   transform="matrix(1 0 0 1 266.6541 713.3232)"
   font-family="'ArialMT'"
   font-size="16.6399"
   id="text68">    </text>

	
		<text
   transform="matrix(1 0 0 1 266.6541 713.3232)"
   fill="none"
   stroke="#000000"
   stroke-width="1.3321"
   stroke-linecap="round"
   font-family="'ArialMT'"
   font-size="16.6399"
   id="text70">    </text>

	<text
   transform="matrix(1 0 0 1 303.5891 662.8955)"
   font-family="'ArialMT'"
   font-size="16.6402"
   id="text72">     </text>

	
		<text
   transform="matrix(1 0 0 1 303.5891 662.8955)"
   fill="none"
   stroke="#000000"
   stroke-linecap="round"
   font-family="'ArialMT'"
   font-size="16.6402"
   id="text74">     </text>

	<text
   transform="matrix(1 0 0 1 276.3015 662.8955)"
   font-family="'ArialMT'"
   font-size="16.6402"
   id="text76">1000 mi</text>

	
		<text
   transform="matrix(1 0 0 1 276.3015 662.8955)"
   fill="none"
   stroke="#000000"
   stroke-linecap="round"
   font-family="'ArialMT'"
   font-size="16.6402"
   id="text78">1000 mi</text>

	<text
   transform="matrix(1 0 0 1 335.5012 662.8955)"
   font-family="'ArialMT'"
   font-size="16.6402"
   id="text80">    </text>

	
		<text
   transform="matrix(1 0 0 1 335.5012 662.8955)"
   fill="none"
   stroke="#000000"
   stroke-linecap="round"
   font-family="'ArialMT'"
   font-size="16.6402"
   id="text82">    </text>

	<text
   transform="matrix(1 0 0 1 82.4421 662.6748)"
   font-family="'ArialMT'"
   font-size="16.6402"
   id="text84">     </text>

	
		<text
   transform="matrix(1 0 0 1 82.4421 662.6748)"
   fill="none"
   stroke="#000000"
   stroke-linecap="round"
   font-family="'ArialMT'"
   font-size="16.6402"
   id="text86">     </text>

	<text
   transform="matrix(1 0 0 1 80.1257 662.6748)"
   font-family="'ArialMT'"
   font-size="16.6402"
   id="text88">0</text>

	
		<text
   transform="matrix(1 0 0 1 80.1257 662.6748)"
   fill="none"
   stroke="#000000"
   stroke-linecap="round"
   font-family="'ArialMT'"
   font-size="16.6402"
   id="text90">0</text>

	<text
   transform="matrix(1 0 0 1 89.3806 662.6748)"
   font-family="'ArialMT'"
   font-size="16.6402"
   id="text92">    </text>

	
		<text
   transform="matrix(1 0 0 1 89.3806 662.6748)"
   fill="none"
   stroke="#000000"
   stroke-linecap="round"
   font-family="'ArialMT'"
   font-size="16.6402"
   id="text94">    </text>

	<text
   transform="matrix(1 0 0 1 82.1458 712.0273)"
   font-family="'ArialMT'"
   font-size="16.6402"
   id="text96">     </text>

	
		<text
   transform="matrix(1 0 0 1 82.1458 712.0273)"
   fill="none"
   stroke="#000000"
   stroke-width="1.3868"
   stroke-linecap="round"
   font-family="'ArialMT'"
   font-size="16.6402"
   id="text98">     </text>

	<text
   transform="matrix(1 0 0 1 79.8303 712.0273)"
   font-family="'ArialMT'"
   font-size="16.6402"
   id="text100">0</text>

	
		<text
   transform="matrix(1 0 0 1 79.8303 712.0273)"
   fill="none"
   stroke="#000000"
   stroke-width="1.3868"
   stroke-linecap="round"
   font-family="'ArialMT'"
   font-size="16.6402"
   id="text102">0</text>

	<text
   transform="matrix(1 0 0 1 89.0847 712.0273)"
   font-family="'ArialMT'"
   font-size="16.6402"
   id="text104">    </text>

	
		<text
   transform="matrix(1 0 0 1 89.0847 712.0273)"
   fill="none"
   stroke="#000000"
   stroke-width="1.3868"
   stroke-linecap="round"
   font-family="'ArialMT'"
   font-size="16.6402"
   id="text106">    </text>

</g>
<g
   id="Skala_1_">
	<rect
   id="rect4459"
   x="874.798"
   y="108.835"
   fill="#111101"
   width="18.349"
   height="17.469" />
	<text
   transform="matrix(1.0506 0 0 1 902.4309 124.002)"
   font-family="'ArialMT'"
   font-size="19.0573"
   id="text110">%legende1%</text>

	<rect
   id="rect4459-1"
   x="874.798"
   y="132.904"
   fill="#111102"
   width="18.349"
   height="17.473" />
	<text
   transform="matrix(1.0506 0 0 1 902.4309 148.0728)"
   font-family="'ArialMT'"
   font-size="19.0573"
   id="text113">%legende2%</text>

	<rect
   id="rect4459-2"
   x="874.798"
   y="156.974"
   fill="#111103"
   width="18.349"
   height="17.469" />
	<text
   transform="matrix(1.0506 0 0 1 902.4309 172.1421)"
   font-family="'ArialMT'"
   font-size="19.0573"
   id="text116">%legende3%</text>

	<rect
   id="rect4459-6"
   x="874.798"
   y="181.047"
   fill="#111104"
   width="18.349"
   height="17.468" />
	<text
   transform="matrix(1.0506 0 0 1 902.4309 196.2144)"
   font-family="'ArialMT'"
   font-size="19.0573"
   id="text119">%legende4%</text>

	<rect
   id="rect4459-29"
   x="874.798"
   y="205.114"
   fill="#111105"
   width="18.349"
   height="17.474" />
	<text
   transform="matrix(1.0506 0 0 1 902.4309 220.2847)"
   font-family="'ArialMT'"
   font-size="19.0573"
   id="text122">%legende5%</text>

	<rect
   id="rect4459-3"
   x="874.798"
   y="229.186"
   fill="#111106"
   width="18.349"
   height="17.473" />
	<text
   transform="matrix(1.0506 0 0 1 902.4309 244.3555)"
   font-family="'ArialMT'"
   font-size="19.0573"
   id="text125">%legende6%</text>

	<rect
   id="rect4459-8"
   x="874.798"
   y="253.257"
   fill="#111107"
   width="18.349"
   height="17.47" />
	<text
   transform="matrix(1.0506 0 0 1 902.4309 268.4253)"
   font-family="'ArialMT'"
   font-size="19.0573"
   id="text128">%legende7%</text>

	<rect
   id="rect4459-9"
   x="874.798"
   y="277.326"
   fill="#111108"
   width="18.349"
   height="17.47" />
	<text
   transform="matrix(1.0506 0 0 1 902.4309 292.4961)"
   font-family="'ArialMT'"
   font-size="19.0573"
   id="text131">%legende8%</text>

	<rect
   id="rect4459-18"
   x="874.798"
   y="301.396"
   fill="#111109"
   width="18.349"
   height="17.473" />
	<text
   transform="matrix(1.0506 0 0 1 902.4309 316.5659)"
   font-family="'ArialMT'"
   font-size="19.0573"
   id="text134">%legende9%</text>

	<rect
   id="rect4459-18-6"
   x="874.798"
   y="325.467"
   fill="#111110"
   width="18.349"
   height="17.474" />
	<text
   transform="matrix(1.0506 0 0 1 902.4309 340.6353)"
   font-family="'ArialMT'"
   font-size="19.0573"
   id="text137">%legende10%</text>

</g>
<g
   id="Beschriftungen">
	<text
   id="Titel2"
   transform="matrix(1 0 0 1 43.5027 92.7803)"
   font-family="'MyriadPro-Regular'"
   font-size="30">%titel2%</text>

	<text
   id="Titel1"
   transform="matrix(0.6758 0 0 1 39.4792 49.6655)"
   font-family="'ArialMT'"
   font-size="61.9146">%titel1%</text>

	<text
   transform="matrix(1 0 0 1 866.1545 1142.7031)"
   font-family="'ArialMT'"
   font-size="13.5735"
   id="text142">visualisation created with</text>

	<text
   transform="matrix(1 0 0 1 901.1467 1158.9902)"
   font-family="'ArialMT'"
   font-size="13.5735"
   id="text144">DataMaps.eu</text>

	<text
   transform="matrix(1 0 0 1 877.468 1175.2773)"
   font-family="'ArialMT'"
   font-size="13.5735"
   id="text146">provided by open3.at</text>

	<g
   id="open3-logo">
		<path
   fill="#007CC1"
   d="M951.365,1203.754c0-2.895-1.375-4.54-3.093-5.45c1.582-0.84,2.757-2.317,2.757-4.905    c0-4.025-3.066-6.859-7.293-6.859c-4.034,0-7.232,2.557-7.328,6.83h4.369c0.102-1.813,1.31-2.889,2.959-2.889    c1.571,0,2.916,1.041,2.916,3.06c0,1.681-0.907,2.994-3.027,2.994h-0.63v3.796h0.638c2.15,0,3.361,1.312,3.361,3.296    c0,2.155-1.344,3.327-3.229,3.327c-1.715,0-3.19-0.971-3.262-3.125h-4.364c0.063,5.015,3.729,7.06,7.629,7.06    C947.872,1210.879,951.365,1208.525,951.365,1203.754z"
   id="path149" />
		<path
   fill="#9C9D9F"
   d="M873.318,1199.145c0,5.551-2.213,9.217-5.779,9.217c-3.435,0-5.979-3.666-5.979-9.875    c0-5.416,2.047-9.081,5.779-9.081C870.974,1189.403,873.318,1193.101,873.318,1199.145z M877.609,1198.883    c0-7.432-4.26-12.028-10.205-12.028c-5.943,0-10.17,4.595-10.17,12.028c0,7.924,4.523,12.282,10.167,12.282    C873.052,1211.165,877.609,1206.807,877.609,1198.883z"
   id="path151" />
		<path
   fill="#9C9D9F"
   d="M891.988,1201.854c0,4.162-1.75,6.965-4.523,6.965c-1.289,0-2.048-0.396-2.578-0.82v-10.966    c0-1.189,0.821-1.815,2.479-1.815C889.643,1195.215,891.988,1197.329,891.988,1201.854z M895.819,1201.656    c0-4.624-2.241-8.521-8.351-8.521c-2.081,0-4.193,0.53-5.092,1.124c-0.927,0.628-1.25,1.222-1.25,2.41v19.123    c0,0.396,0.198,0.568,0.597,0.568h2.604c0.397,0,0.566-0.173,0.566-0.568v-5.616c0.423,0.298,1.586,0.896,3.229,0.896    C893.308,1211.066,895.819,1206.246,895.819,1201.656z"
   id="path153" />
		<path
   fill="#9C9D9F"
   d="M909.316,1199.212l-7.164,1.222c0.139-2.573,1.253-5.219,3.903-5.219    C908.395,1195.215,909.223,1197.165,909.316,1199.212z M913.018,1205.52c0-0.427-0.333-0.824-0.759-0.824    c-0.399,0-0.694,0.299-0.854,0.594c-0.695,1.223-2.081,2.808-4.194,2.808c-3.17,0-4.693-2.675-4.894-5.777l9.61-1.585    c0.692-0.1,0.989-0.33,0.989-1.052c0-3.338-2.345-6.538-6.473-6.538c-3.937,0-7.563,2.741-7.563,8.885    c0,6.474,3.566,9.082,7.563,9.082C910.673,1211.101,913.018,1207.499,913.018,1205.52z"
   id="path155" />
		<path
   fill="#9C9D9F"
   d="M930.613,1210.108v-11.89c0-3.962-3.567-5.086-7.069-5.086c-2.439,0-4.458,0.455-5.55,0.989    c-0.99,0.496-1.32,0.959-1.32,2.042v13.934c0,0.397,0.198,0.564,0.597,0.564h2.607c0.396,0,0.596-0.167,0.596-0.564v-12.741    c0-1.052,0.257-2.182,2.938-2.182c2.636,0,3.427,1.586,3.427,3.203v11.724c0,0.396,0.176,0.563,0.569,0.563h2.635    C930.447,1210.67,930.613,1210.505,930.613,1210.108z"
   id="path157" />
		<path
   fill="#007CC1"
   d="M957.216,1209.183c0-2.354-3.312-1.901-3.312-3.434c0-0.653,0.435-1.051,1.112-1.051    c0.666,0,0.951,0.457,1.108,0.813c0.091,0.188,0.236,0.347,0.458,0.347c0.271,0,0.473-0.148,0.473-0.455    c0-0.416-0.612-1.313-2.017-1.313c-1.231,0-2.122,0.655-2.122,1.778c0,2.137,3.272,1.69,3.272,3.424    c0,0.594-0.397,1.077-1.161,1.077c-0.725,0-1.118-0.595-1.28-1.013c-0.065-0.212-0.217-0.369-0.494-0.369    c-0.298,0-0.493,0.177-0.493,0.491c0,0.521,0.808,1.562,2.229,1.562C956.425,1211.036,957.216,1210.245,957.216,1209.183z"
   id="path159" />
		<path
   fill="#007CC1"
   d="M963.464,1207.615c0,1.614-0.679,2.729-1.843,2.729c-1.109,0-1.924-1.111-1.924-2.938    c0-1.569,0.664-2.679,1.864-2.679C962.726,1204.735,963.464,1205.849,963.464,1207.615z M964.552,1207.526    c0-2.113-1.211-3.436-2.963-3.436c-1.756,0-2.979,1.323-2.979,3.436c0,2.261,1.311,3.507,2.979,3.507    S964.552,1209.787,964.552,1207.526z"
   id="path161" />
		<path
   fill="#007CC1"
   d="M971.196,1209.773c0-0.162-0.085-0.26-0.229-0.26c-0.092,0-0.158,0.053-0.252,0.122    c-0.271,0.273-0.729,0.646-1.524,0.646c-1.263,0-2.101-1.236-2.101-2.952c0-1.668,0.752-2.617,1.827-2.617    c0.902,0,1.209,0.57,1.358,0.878c0.089,0.175,0.222,0.345,0.458,0.345c0.271,0,0.462-0.16,0.462-0.456    c0-0.445-0.715-1.383-2.223-1.383c-1.886,0-2.961,1.565-2.961,3.41c0,1.92,0.988,3.534,3.032,3.534    C970.346,1211.036,971.196,1210.158,971.196,1209.773z"
   id="path163" />
		<path
   fill="#007CC1"
   d="M973.819,1210.754v-6.373c0-0.1-0.056-0.145-0.149-0.145h-0.737c-0.102,0-0.148,0.051-0.148,0.145v6.373    c0,0.099,0.058,0.146,0.148,0.146h0.737C973.768,1210.898,973.819,1210.849,973.819,1210.754z"
   id="path165" />
		<path
   fill="#007CC1"
   d="M979.548,1210.754v-0.384c0-0.099-0.053-0.145-0.148-0.145h-2.479v-2.459h2.114    c0.099,0,0.147-0.052,0.147-0.146v-0.357c0-0.099-0.049-0.145-0.147-0.145h-2.114v-2.202h2.479c0.1,0,0.148-0.051,0.148-0.147    v-0.382c0-0.101-0.053-0.145-0.148-0.145h-3.373c-0.099,0-0.143,0.049-0.143,0.145v6.37c0,0.102,0.051,0.149,0.143,0.149h3.373    C979.498,1210.898,979.548,1210.849,979.548,1210.754z"
   id="path167" />
		<path
   fill="#007CC1"
   d="M985.08,1204.761v-0.38c0-0.1-0.063-0.145-0.159-0.145h-4.263c-0.098,0-0.16,0.051-0.16,0.145v0.38    c0,0.102,0.062,0.146,0.16,0.146h1.617v5.831c0,0.109,0.052,0.162,0.16,0.162h0.718c0.11,0,0.16-0.053,0.16-0.162v-5.831h1.604    C985.018,1204.909,985.08,1204.859,985.08,1204.761z"
   id="path169" />
		<path
   fill="#007CC1"
   d="M990.749,1204.377c0-0.099-0.063-0.142-0.16-0.142h-0.557c-0.111,0-0.16,0.034-0.223,0.136l-1.483,2.642    h-0.022l-1.445-2.642c-0.063-0.102-0.113-0.136-0.225-0.136h-0.754c-0.099,0-0.146,0.049-0.146,0.142    c0,0.035,0.021,0.092,0.036,0.139l1.957,3.287v2.951c0,0.099,0.055,0.146,0.146,0.146h0.74c0.098,0,0.148-0.054,0.148-0.146    v-2.951l1.951-3.287C990.736,1204.476,990.749,1204.415,990.749,1204.377z"
   id="path171" />
		<path
   fill="#007CC1"
   d="M957.384,1198.644c0,1.72-0.752,2.78-2.441,2.78c-0.32,0-0.608-0.037-0.77-0.062v-5.438    c0.125-0.021,0.435-0.049,0.77-0.049C956.572,1195.876,957.384,1196.925,957.384,1198.644z M958.464,1198.653    c0-2.048-1.129-3.396-3.586-3.396c-0.772,0-1.435,0.09-1.595,0.143c-0.131,0.034-0.146,0.098-0.146,0.21v6.126    c0,0.104,0.02,0.176,0.146,0.21c0.174,0.051,0.952,0.137,1.595,0.137C957.339,1202.074,958.464,1200.806,958.464,1198.653z"
   id="path173" />
		<path
   fill="#007CC1"
   d="M963.45,1199.286h-2.123l0.739-2.089c0.198-0.556,0.308-1.209,0.308-1.209h0.024    c0,0,0.125,0.654,0.323,1.209L963.45,1199.286z M965.418,1201.868c0-0.038-0.024-0.113-0.038-0.149l-2.396-6.235    c-0.038-0.102-0.074-0.148-0.18-0.148h-0.687c-0.125,0-0.16,0.052-0.197,0.148l-2.387,6.235c-0.02,0.053-0.036,0.111-0.036,0.149    c0,0.086,0.057,0.139,0.146,0.139h0.58c0.104,0,0.161-0.052,0.198-0.145l0.694-1.978h2.521l0.69,1.978    c0.038,0.1,0.094,0.145,0.188,0.145h0.737C965.366,1202.003,965.418,1201.955,965.418,1201.868z"
   id="path175" />
		<path
   fill="#007CC1"
   d="M970.282,1195.863v-0.383c0-0.101-0.06-0.147-0.16-0.147h-4.262c-0.098,0-0.16,0.052-0.16,0.147v0.383    c0,0.1,0.062,0.14,0.16,0.14h1.619v5.835c0,0.109,0.05,0.161,0.161,0.161h0.715c0.111,0,0.16-0.052,0.16-0.161v-5.832h1.604    C970.224,1196.013,970.282,1195.963,970.282,1195.863z"
   id="path177" />
		<path
   fill="#007CC1"
   d="M974.518,1199.286h-2.12l0.734-2.089c0.196-0.556,0.307-1.209,0.307-1.209h0.025    c0,0,0.123,0.654,0.32,1.209L974.518,1199.286z M976.482,1201.868c0-0.038-0.024-0.113-0.035-0.149l-2.398-6.235    c-0.036-0.102-0.067-0.148-0.181-0.148h-0.68c-0.129,0-0.16,0.052-0.198,0.148l-2.389,6.235c-0.022,0.053-0.038,0.111-0.038,0.149    c0,0.086,0.054,0.139,0.146,0.139h0.578c0.112,0,0.161-0.052,0.198-0.145l0.704-1.978h2.517l0.694,1.978    c0.036,0.1,0.085,0.145,0.178,0.145h0.74C976.435,1202.003,976.482,1201.955,976.482,1201.868z"
   id="path179" />
		<path
   fill="#007CC1"
   d="M958.365,1192.254v-2.496c0-0.099-0.076-0.143-0.18-0.143h-2.038c-0.098,0-0.146,0.051-0.146,0.143v0.336    c0,0.103,0.054,0.161,0.146,0.161h1.236v1.631c0,0.396-0.596,0.667-1.396,0.667c-1.161,0-2.042-1.197-2.042-2.966    c0-1.604,0.717-2.669,1.979-2.669c0.976,0,1.33,0.576,1.486,0.879c0.085,0.188,0.21,0.336,0.455,0.336    c0.297,0,0.456-0.177,0.456-0.455c0-0.409-0.617-1.37-2.313-1.37c-1.922,0-3.151,1.398-3.151,3.436c0,2.2,1.309,3.509,3.175,3.509    C957.363,1193.242,958.365,1192.738,958.365,1192.254z"
   id="path181" />
		<path
   fill="#007CC1"
   d="M964.909,1189.82c0,1.616-0.68,2.729-1.843,2.729c-1.114,0-1.924-1.109-1.924-2.938    c0-1.568,0.667-2.678,1.866-2.678C964.165,1186.942,964.909,1188.054,964.909,1189.82z M965.995,1189.733    c0-2.111-1.208-3.436-2.967-3.436c-1.753,0-2.976,1.329-2.976,3.436c0,2.26,1.308,3.509,2.976,3.509    C964.699,1193.242,965.995,1191.993,965.995,1189.733z"
   id="path183" />
		<path
   fill="#007CC1"
   d="M972.591,1186.584c0-0.1-0.061-0.143-0.157-0.143h-0.632c-0.109,0-0.16,0.05-0.196,0.143l-1.563,4.497    c-0.139,0.409-0.229,0.898-0.229,0.898h-0.024c0,0-0.073-0.493-0.211-0.898l-1.53-4.497c-0.037-0.1-0.1-0.143-0.195-0.143h-0.791    c-0.102,0-0.149,0.05-0.149,0.143c0,0.036,0.021,0.099,0.038,0.146l2.334,6.229c0.038,0.099,0.087,0.145,0.198,0.145h0.52    c0.123,0,0.182-0.049,0.219-0.145l2.348-6.229C972.579,1186.683,972.591,1186.62,972.591,1186.584z"
   id="path185" />
		<path
   fill="#007CC1"
   d="M977.568,1192.959v-0.377c0-0.1-0.051-0.147-0.143-0.147h-2.484v-2.461h2.114    c0.098,0,0.146-0.05,0.146-0.146v-0.357c0-0.099-0.049-0.146-0.146-0.146h-2.114v-2.201h2.484c0.098,0,0.143-0.054,0.143-0.147    v-0.38c0-0.1-0.051-0.142-0.143-0.142h-3.377c-0.102,0-0.145,0.048-0.145,0.142v6.374c0,0.102,0.049,0.146,0.145,0.146h3.377    C977.518,1193.107,977.568,1193.059,977.568,1192.959z"
   id="path187" />
		<path
   fill="#007CC1"
   d="M982.458,1188.339c0,0.813-0.593,1.359-1.703,1.359c-0.254,0-0.45,0-0.559-0.015v-2.69    c0.162-0.026,0.396-0.063,0.793-0.063C982.016,1186.931,982.458,1187.425,982.458,1188.339z M983.768,1192.959    c0-0.033-0.024-0.087-0.054-0.136l-1.093-1.99c-0.196-0.377-0.528-0.704-0.766-0.815v-0.021c0.792-0.181,1.615-0.754,1.615-1.727    c0-1.13-0.7-1.901-2.479-1.901c-0.803,0-1.47,0.087-1.655,0.14c-0.122,0.037-0.146,0.086-0.146,0.197v6.263    c0,0.102,0.056,0.146,0.146,0.146h0.703c0.103,0,0.149-0.05,0.149-0.146v-2.775h0.443c0.443,0,0.754,0.395,0.928,0.736    l1.041,2.065c0.035,0.07,0.129,0.123,0.252,0.123h0.766C983.721,1193.107,983.768,1193.059,983.768,1192.959z"
   id="path189" />
		<path
   fill="#007CC1"
   d="M990.734,1192.959v-6.373c0-0.099-0.052-0.141-0.145-0.141h-0.535c-0.1,0-0.144,0.047-0.144,0.141v4.04    c0,0.558,0.068,1.21,0.068,1.21h-0.035c0,0-0.286-0.611-0.609-1.075l-2.852-4.181c-0.063-0.102-0.112-0.143-0.219-0.143h-0.811    c-0.1,0-0.143,0.05-0.143,0.143v6.373c0,0.099,0.049,0.146,0.143,0.146h0.539c0.103,0,0.149-0.049,0.149-0.146v-4.359    c0-0.498-0.062-1.15-0.062-1.15h0.023c0,0,0.283,0.607,0.574,1.053l3.036,4.459c0.063,0.099,0.101,0.146,0.224,0.146h0.63    C990.684,1193.107,990.734,1193.059,990.734,1192.959z"
   id="path191" />
		<path
   fill="#007CC1"
   d="M999.798,1192.984c0-0.04-0.646-6.399-0.646-6.399c-0.011-0.101-0.049-0.143-0.144-0.143h-0.81    c-0.098,0-0.146,0.062-0.184,0.143l-1.615,4.3c-0.162,0.437-0.26,0.967-0.26,0.967h-0.021c0,0-0.105-0.53-0.271-0.967l-1.606-4.3    c-0.036-0.09-0.085-0.143-0.182-0.143h-0.813c-0.098,0-0.139,0.049-0.146,0.143c0,0-0.645,6.359-0.645,6.399    c0,0.087,0.062,0.123,0.146,0.123h0.604c0.103,0,0.141-0.052,0.146-0.148l0.34-4.325c0.038-0.532,0.038-1.271,0.038-1.271h0.022    c0,0,0.176,0.738,0.373,1.271l1.604,4.342c0.036,0.1,0.074,0.137,0.178,0.137h0.311c0.109,0,0.146-0.037,0.186-0.137l1.604-4.342    c0.198-0.54,0.379-1.271,0.379-1.271h0.02c0,0,0,0.738,0.038,1.271l0.347,4.325c0.014,0.1,0.05,0.148,0.147,0.148h0.718    C999.764,1193.107,999.798,1193.071,999.798,1192.984z"
   id="path193" />
		<path
   fill="#007CC1"
   d="M1005.185,1192.959v-0.377c0-0.1-0.049-0.147-0.147-0.147h-2.479v-2.461h2.112    c0.101,0,0.147-0.05,0.147-0.146v-0.357c0-0.099-0.049-0.146-0.147-0.146h-2.112v-2.201h2.479c0.101,0,0.147-0.054,0.147-0.147    v-0.38c0-0.1-0.049-0.142-0.147-0.142h-3.372c-0.101,0-0.147,0.048-0.147,0.142v6.374c0,0.102,0.054,0.146,0.147,0.146h3.372    C1005.138,1193.107,1005.185,1193.059,1005.185,1192.959z"
   id="path195" />
		<path
   fill="#007CC1"
   d="M1012.214,1192.959v-6.373c0-0.099-0.052-0.141-0.144-0.141h-0.536c-0.099,0-0.144,0.047-0.144,0.141v4.04    c0,0.558,0.068,1.21,0.068,1.21h-0.034c0,0-0.286-0.611-0.607-1.075l-2.854-4.181c-0.063-0.102-0.109-0.143-0.22-0.143h-0.808    c-0.102,0-0.145,0.05-0.145,0.143v6.373c0,0.099,0.05,0.146,0.145,0.146h0.541c0.101,0,0.146-0.049,0.146-0.146v-4.359    c0-0.498-0.06-1.15-0.06-1.15h0.021c0,0,0.284,0.607,0.58,1.053l3.033,4.459c0.063,0.099,0.1,0.146,0.225,0.146h0.631    C1012.162,1193.107,1012.214,1193.059,1012.214,1192.959z"
   id="path197" />
		<path
   fill="#007CC1"
   d="M1018.141,1186.967v-0.381c0-0.099-0.062-0.141-0.162-0.141h-4.26c-0.101,0-0.16,0.047-0.16,0.141v0.381    c0,0.102,0.06,0.146,0.16,0.146h1.616v5.831c0,0.111,0.058,0.163,0.16,0.163h0.717c0.111,0,0.16-0.052,0.16-0.163v-5.831h1.606    C1018.079,1187.113,1018.141,1187.066,1018.141,1186.967z"
   id="path199" />
	</g>
	<text
   transform="matrix(1 0 0 1 61.6169 830.0791)"
   id="text201"><tspan
     x="0"
     y="0"
     font-family="'ArialMT'"
     font-size="12"
     id="tspan203">1. Ägypten</tspan><tspan
     x="0"
     y="14.4"
     font-family="'ArialMT'"
     font-size="12"
     id="tspan205">2. Algerien</tspan><tspan
     x="0"
     y="28.8"
     font-family="'ArialMT'"
     font-size="12"
     id="tspan207">3. Angola</tspan><tspan
     x="0"
     y="43.2"
     font-family="'ArialMT'"
     font-size="12"
     id="tspan209">4. Äquatorialguinea</tspan><tspan
     x="0"
     y="57.6"
     font-family="'ArialMT'"
     font-size="12"
     id="tspan211">5. Äthopien</tspan><tspan
     x="0"
     y="72"
     font-family="'ArialMT'"
     font-size="12"
     id="tspan213">6. Benin</tspan><tspan
     x="0"
     y="86.4"
     font-family="'ArialMT'"
     font-size="12"
     id="tspan215">7. Botsuana</tspan><tspan
     x="0"
     y="100.8"
     font-family="'ArialMT'"
     font-size="12"
     id="tspan217">8. Burkina Faso</tspan><tspan
     x="0"
     y="115.2"
     font-family="'ArialMT'"
     font-size="12"
     id="tspan219">9. Burundi</tspan><tspan
     x="0"
     y="129.6"
     font-family="'ArialMT'"
     font-size="12"
     id="tspan221">10. Demokratische Republik Kongo</tspan><tspan
     x="0"
     y="144"
     font-family="'ArialMT'"
     font-size="12"
     id="tspan223">11. Dschibuti</tspan><tspan
     x="0"
     y="158.4"
     font-family="'ArialMT'"
     font-size="12"
     id="tspan225">12. Elfenbeinküste</tspan><tspan
     x="0"
     y="172.8"
     font-family="'ArialMT'"
     font-size="12"
     id="tspan227">13. Eritrea</tspan><tspan
     x="0"
     y="187.2"
     font-family="'ArialMT'"
     font-size="12"
     id="tspan229">14. Gabun</tspan><tspan
     x="0"
     y="201.6"
     font-family="'ArialMT'"
     font-size="12"
     id="tspan231">15. Gambia</tspan><tspan
     x="0"
     y="216"
     font-family="'ArialMT'"
     font-size="12"
     id="tspan233">16. Ghana</tspan><tspan
     x="0"
     y="230.4"
     font-family="'ArialMT'"
     font-size="12"
     id="tspan235">17. Guinea</tspan><tspan
     x="0"
     y="244.8"
     font-family="'ArialMT'"
     font-size="12"
     id="tspan237">18. Guinea-Bissau</tspan><tspan
     x="0"
     y="259.2"
     font-family="'ArialMT'"
     font-size="12"
     id="tspan239">19. Kamerun</tspan><tspan
     x="0"
     y="273.6"
     font-family="'ArialMT'"
     font-size="12"
     id="tspan241">20. Kenia</tspan><tspan
     x="0"
     y="288"
     font-family="'ArialMT'"
     font-size="12"
     id="tspan243">21. Lesotho</tspan><tspan
     x="0"
     y="302.4"
     font-family="'ArialMT'"
     font-size="12"
     id="tspan245">22. Liberia</tspan><tspan
     x="0"
     y="316.8"
     font-family="'ArialMT'"
     font-size="12"
     id="tspan247">23. Libyen</tspan><tspan
     x="0"
     y="331.2"
     font-family="'ArialMT'"
     font-size="12"
     id="tspan249">24. Madagaskar</tspan><tspan
     x="0"
     y="345.6"
     font-family="'ArialMT'"
     font-size="12"
     id="tspan251">25. Malawi</tspan></text>

	<text
   transform="matrix(1 0 0 1 293.5002 829.5)"
   id="text253"><tspan
     x="0"
     y="0"
     font-family="'ArialMT'"
     font-size="12"
     id="tspan255">26. Mali</tspan><tspan
     x="0"
     y="14.4"
     font-family="'ArialMT'"
     font-size="12"
     id="tspan257">27. Mauretanien</tspan><tspan
     x="0"
     y="28.8"
     font-family="'ArialMT'"
     font-size="12"
     id="tspan259">28. Marokko</tspan><tspan
     x="0"
     y="43.2"
     font-family="'ArialMT'"
     font-size="12"
     id="tspan261">29. Mosambik</tspan><tspan
     x="0"
     y="57.6"
     font-family="'ArialMT'"
     font-size="12"
     id="tspan263">30. Namibia</tspan><tspan
     x="0"
     y="72"
     font-family="'ArialMT'"
     font-size="12"
     id="tspan265">31. Niger</tspan><tspan
     x="0"
     y="86.4"
     font-family="'ArialMT'"
     font-size="12"
     id="tspan267">32. Nigeria</tspan><tspan
     x="0"
     y="100.8"
     font-family="'ArialMT'"
     font-size="12"
     id="tspan269">33. Republik Kongo</tspan><tspan
     x="0"
     y="115.2"
     font-family="'ArialMT'"
     font-size="12"
     id="tspan271">34. Ruanda</tspan><tspan
     x="0"
     y="129.6"
     font-family="'ArialMT'"
     font-size="12"
     id="tspan273">35. Sambia</tspan><tspan
     x="0"
     y="144"
     font-family="'ArialMT'"
     font-size="12"
     id="tspan275">36. Senegal</tspan><tspan
     x="0"
     y="158.4"
     font-family="'ArialMT'"
     font-size="12"
     id="tspan277">37. Sierra Leone</tspan><tspan
     x="0"
     y="172.8"
     font-family="'ArialMT'"
     font-size="12"
     id="tspan279">38. Simbabwe</tspan><tspan
     x="0"
     y="187.2"
     font-family="'ArialMT'"
     font-size="12"
     id="tspan281">39. Somalia</tspan><tspan
     x="0"
     y="201.6"
     font-family="'ArialMT'"
     font-size="12"
     id="tspan283">40. Südafrika</tspan><tspan
     x="0"
     y="216"
     font-family="'ArialMT'"
     font-size="12"
     id="tspan285">41. Sudan</tspan><tspan
     x="0"
     y="230.4"
     font-family="'ArialMT'"
     font-size="12"
     id="tspan287">42. Swasiland</tspan><tspan
     x="0"
     y="244.8"
     font-family="'ArialMT'"
     font-size="12"
     id="tspan289">43. Tansania</tspan><tspan
     x="0"
     y="259.2"
     font-family="'ArialMT'"
     font-size="12"
     id="tspan291">44. Togo</tspan><tspan
     x="0"
     y="273.6"
     font-family="'ArialMT'"
     font-size="12"
     id="tspan293">45. Tschad</tspan><tspan
     x="0"
     y="288"
     font-family="'ArialMT'"
     font-size="12"
     id="tspan295">46. Tunesien</tspan><tspan
     x="0"
     y="302.4"
     font-family="'ArialMT'"
     font-size="12"
     id="tspan297">47. Uganda</tspan><tspan
     x="0"
     y="316.8"
     font-family="'ArialMT'"
     font-size="12"
     id="tspan299">48. Westsahara</tspan><tspan
     x="0"
     y="331.2"
     font-family="'ArialMT'"
     font-size="12"
     id="tspan301">49. Zentralafrikanische Republik</tspan></text>

</g>
<g
   id="Kreise">
	<g
   id="Kreis22_1_"
   transform="translate(-1099.4425,-1468.408)">
		
			<path
   id="path3841-8-9-2-0-6-5-2_24_"
   ry="67.680222"
   cy="1106.1483"
   cx="328.29956"
   rx="67.680222"
   type="arc"
   fill="#FFFFFF"
   stroke="#000000"
   d="    M2093.58,2475.662c0,4.999-4.056,9.055-9.06,9.055c-5,0-9.054-4.057-9.054-9.055c0-5.002,4.058-9.056,9.054-9.056    C2089.526,2466.606,2093.58,2470.66,2093.58,2475.662z" />
		<text
   transform="matrix(1 0 0 1 2078.4185 2479.6638)"
   font-family="'ArialMT'"
   font-size="11.1081"
   id="text306">24</text>

	</g>
	<g
   id="Kreis22_2_"
   transform="translate(-1099.4425,-1468.408)">
		
			<path
   id="path3841-8-9-2-0-6-5-2_25_"
   ry="67.680222"
   cy="1106.1483"
   cx="328.29956"
   rx="67.680222"
   type="arc"
   fill="#FFFFFF"
   stroke="#000000"
   d="    M1912.288,2367.342c0,4.998-4.057,9.055-9.061,9.055c-5,0-9.055-4.057-9.055-9.055c0-5.002,4.057-9.057,9.055-9.057    C1908.234,2358.285,1912.288,2362.34,1912.288,2367.342z" />
		<text
   transform="matrix(1 0 0 1 1897.1263 2371.3416)"
   font-family="'ArialMT'"
   font-size="11.1081"
   id="text310">25</text>

	</g>
	<g
   id="Kreis22_3_"
   transform="translate(-1099.4425,-1468.408)">
		
			<path
   id="path3841-8-9-2-0-6-5-2_26_"
   ry="67.680222"
   cy="1106.1483"
   cx="328.29956"
   rx="67.680222"
   type="arc"
   fill="#FFFFFF"
   stroke="#000000"
   d="    M1898.933,2138.115c0,4.998-4.055,9.055-9.059,9.055c-5,0-9.055-4.057-9.055-9.055c0-5.002,4.057-9.057,9.055-9.057    C1894.878,2129.058,1898.933,2133.113,1898.933,2138.115z" />
		<text
   transform="matrix(1 0 0 1 1883.7709 2142.115)"
   font-family="'ArialMT'"
   font-size="11.1081"
   id="text314">47</text>

	</g>
	<g
   id="Kreis22_4_"
   transform="translate(-1099.4425,-1468.408)">
		
			<path
   id="path3841-8-9-2-0-6-5-2_27_"
   ry="67.680222"
   cy="1106.1483"
   cx="328.29956"
   rx="67.680222"
   type="arc"
   fill="#FFFFFF"
   stroke="#000000"
   d="    M1544.295,1633.753c0,4.998-4.055,9.053-9.059,9.053c-5,0-9.054-4.055-9.054-9.053c0-5.002,4.056-9.059,9.054-9.059    C1540.242,1624.697,1544.295,1628.749,1544.295,1633.753z" />
		<text
   transform="matrix(1 0 0 1 1529.1346 1637.7537)"
   font-family="'ArialMT'"
   font-size="11.1081"
   id="text318">46</text>

	</g>
	<g
   id="Kreis22_5_"
   transform="translate(-1099.4425,-1468.408)">
		
			<path
   id="path3841-8-9-2-0-6-5-2_28_"
   ry="67.680222"
   cy="1106.1483"
   cx="328.29956"
   rx="67.680222"
   type="arc"
   fill="#FFFFFF"
   stroke="#000000"
   d="    M1678.407,1921.786c0,4.998-4.055,9.055-9.059,9.055c-5,0-9.055-4.057-9.055-9.055c0-5.002,4.058-9.058,9.055-9.058    C1674.352,1912.729,1678.407,1916.782,1678.407,1921.786z" />
		<text
   transform="matrix(1 0 0 1 1663.2455 1925.7864)"
   font-family="'ArialMT'"
   font-size="11.1081"
   id="text322">45</text>

	</g>
	<g
   id="Kreis22_6_"
   transform="translate(-1099.4425,-1468.408)">
		
			<path
   id="path3841-8-9-2-0-6-5-2_29_"
   ry="67.680222"
   cy="1106.1483"
   cx="328.29956"
   rx="67.680222"
   type="arc"
   fill="#FFFFFF"
   stroke="#000000"
   d="    M1414.849,2026.373c0,4.998-4.055,9.055-9.059,9.055c-5,0-9.055-4.057-9.055-9.055c0-5.002,4.057-9.057,9.055-9.057    C1410.795,2017.317,1414.849,2021.371,1414.849,2026.373z" />
		<text
   transform="matrix(1 0 0 1 1399.6888 2030.3738)"
   font-family="'ArialMT'"
   font-size="11.1081"
   id="text326">44</text>

	</g>
	<g
   id="Kreis22_7_"
   transform="translate(-1099.4425,-1468.408)">
		
			<path
   id="path3841-8-9-2-0-6-5-2_30_"
   ry="67.680222"
   cy="1106.1483"
   cx="328.29956"
   rx="67.680222"
   type="arc"
   fill="#FFFFFF"
   stroke="#000000"
   d="    M1926.816,2241.493c0,4.998-4.055,9.055-9.059,9.055c-5,0-9.053-4.057-9.053-9.055c0-5.002,4.057-9.057,9.053-9.057    C1922.763,2232.436,1926.816,2236.489,1926.816,2241.493z" />
		<text
   transform="matrix(1 0 0 1 1911.6556 2245.4939)"
   font-family="'ArialMT'"
   font-size="11.1081"
   id="text330">43</text>

	</g>
	<g
   id="Kreis22_8_"
   transform="translate(-1099.4425,-1468.408)">
		
			<path
   id="path3841-8-9-2-0-6-5-2_31_"
   ry="67.680222"
   cy="1106.1483"
   cx="328.29956"
   rx="67.680222"
   type="arc"
   fill="#FFFFFF"
   stroke="#000000"
   d="    M1866.321,2556.775c0,5-4.055,9.055-9.059,9.055c-5,0-9.055-4.057-9.055-9.055c0-5.002,4.057-9.057,9.055-9.057    C1862.267,2547.719,1866.321,2551.773,1866.321,2556.775z" />
		<text
   transform="matrix(1 0 0 1 1851.1605 2560.7771)"
   font-family="'ArialMT'"
   font-size="11.1081"
   id="text334">42</text>

	</g>
	<g
   id="Kreis22_9_"
   transform="translate(-1099.4425,-1468.408)">
		
			<path
   id="path3841-8-9-2-0-6-5-2_32_"
   ry="67.680222"
   cy="1106.1483"
   cx="328.29956"
   rx="67.680222"
   type="arc"
   fill="#FFFFFF"
   stroke="#000000"
   d="    M1841.808,1955.343c0,4.999-4.055,9.055-9.06,9.055c-5,0-9.055-4.057-9.055-9.055c0-5.002,4.058-9.057,9.055-9.057    C1837.754,1946.286,1841.808,1950.341,1841.808,1955.343z" />
		<text
   transform="matrix(1 0 0 1 1826.6469 1959.344)"
   font-family="'ArialMT'"
   font-size="11.1081"
   id="text338">41</text>

	</g>
	<g
   id="Kreis22_10_"
   transform="translate(-1099.4425,-1468.408)">
		
			<path
   id="path3841-8-9-2-0-6-5-2_33_"
   ry="67.680222"
   cy="1106.1483"
   cx="328.29956"
   rx="67.680222"
   type="arc"
   fill="#FFFFFF"
   stroke="#000000"
   d="    M1746.126,2622.561c0,5-4.055,9.057-9.059,9.057c-5,0-9.055-4.059-9.055-9.057c0-5.002,4.057-9.057,9.055-9.057    C1742.074,2613.505,1746.126,2617.559,1746.126,2622.561z" />
		<text
   transform="matrix(1 0 0 1 1730.9662 2626.5623)"
   font-family="'ArialMT'"
   font-size="11.1081"
   id="text342">40</text>

	</g>
	<g
   id="Kreis22_11_"
   transform="translate(-1099.4425,-1468.408)">
		
			<path
   id="path3841-8-9-2-0-6-5-2_34_"
   ry="67.680222"
   cy="1106.1483"
   cx="328.29956"
   rx="67.680222"
   type="arc"
   fill="#FFFFFF"
   stroke="#000000"
   d="    M2110.643,2084.967c0,4.998-4.055,9.055-9.059,9.055c-5,0-9.056-4.057-9.056-9.055c0-5.002,4.058-9.057,9.056-9.057    C2106.588,2075.91,2110.643,2079.963,2110.643,2084.967z" />
		<text
   transform="matrix(1 0 0 1 2095.4819 2088.9666)"
   font-family="'ArialMT'"
   font-size="11.1081"
   id="text346">39</text>

	</g>
	<g
   id="Kreis22_12_"
   transform="translate(-1099.4425,-1468.408)">
		
			<path
   id="path3841-8-9-2-0-6-5-2_35_"
   ry="67.680222"
   cy="1106.1483"
   cx="328.29956"
   rx="67.680222"
   type="arc"
   fill="#FFFFFF"
   stroke="#000000"
   d="    M1851.921,2448.23c0,4.998-4.057,9.055-9.061,9.055c-5,0-9.053-4.057-9.053-9.055c0-5.002,4.055-9.057,9.053-9.057    C1847.867,2439.174,1851.921,2443.226,1851.921,2448.23z" />
		<text
   transform="matrix(1 0 0 1 1836.7592 2452.2322)"
   font-family="'ArialMT'"
   font-size="11.1081"
   id="text350">38</text>

	</g>
	<g
   id="Kreis22_13_"
   transform="translate(-1099.4425,-1468.408)">
		
			<path
   id="path3841-8-9-2-0-6-5-2_36_"
   ry="67.680222"
   cy="1106.1483"
   cx="328.29956"
   rx="67.680222"
   type="arc"
   fill="#FFFFFF"
   stroke="#000000"
   d="    M1205.618,2029.058c0,4.998-4.055,9.056-9.06,9.056c-5,0-9.055-4.058-9.055-9.056c0-5.002,4.058-9.057,9.055-9.057    C1201.564,2020.002,1205.618,2024.055,1205.618,2029.058z" />
		<text
   transform="matrix(1 0 0 1 1190.4569 2033.0583)"
   font-family="'ArialMT'"
   font-size="11.1081"
   id="text354">37</text>

	</g>
	<g
   id="Kreis22_14_"
   transform="translate(-1099.4425,-1468.408)">
		
			<path
   id="path3841-8-9-2-0-6-5-2_37_"
   ry="67.680222"
   cy="1106.1483"
   cx="328.29956"
   rx="67.680222"
   type="arc"
   fill="#FFFFFF"
   stroke="#000000"
   d="    M1184.067,1913.445c0,4.998-4.056,9.055-9.06,9.055c-5,0-9.054-4.057-9.054-9.055c0-5.002,4.057-9.057,9.054-9.057    C1180.012,1904.388,1184.067,1908.443,1184.067,1913.445z" />
		<text
   transform="matrix(1 0 0 1 1168.9052 1917.4465)"
   font-family="'ArialMT'"
   font-size="11.1081"
   id="text358">36</text>

	</g>
	<g
   id="Kreis22_15_"
   transform="translate(-1099.4425,-1468.408)">
		
			<path
   id="path3841-8-9-2-0-6-5-2_38_"
   ry="67.680222"
   cy="1106.1483"
   cx="328.29956"
   rx="67.680222"
   type="arc"
   fill="#FFFFFF"
   stroke="#000000"
   d="    M1796.214,2379.594c0,5-4.055,9.055-9.059,9.055c-5,0-9.055-4.057-9.055-9.055c0-5.002,4.057-9.057,9.055-9.057    C1792.161,2370.538,1796.214,2374.593,1796.214,2379.594z" />
		<text
   transform="matrix(1 0 0 1 1781.0541 2383.5955)"
   font-family="'ArialMT'"
   font-size="11.1081"
   id="text362">35</text>

	</g>
	<g
   id="Kreis22_16_"
   transform="translate(-1099.4425,-1468.408)">
		
			<path
   id="path3841-8-9-2-0-6-5-2_39_"
   ry="67.680222"
   cy="1106.1483"
   cx="328.29956"
   rx="67.680222"
   type="arc"
   fill="#FFFFFF"
   stroke="#000000"
   d="    M1852.346,2185.973c0,4.998-4.055,9.053-9.059,9.053c-5,0-9.056-4.057-9.056-9.053c0-5.002,4.058-9.057,9.056-9.057    C1848.291,2176.917,1852.346,2180.969,1852.346,2185.973z" />
		<text
   transform="matrix(1 0 0 1 1837.184 2189.9724)"
   font-family="'ArialMT'"
   font-size="11.1081"
   id="text366">34</text>

	</g>
	<g
   id="Kreis22_17_"
   transform="translate(-1099.4425,-1468.408)">
		
			<path
   id="path3841-8-9-2-0-6-5-2_40_"
   ry="67.680222"
   cy="1106.1483"
   cx="328.29956"
   rx="67.680222"
   type="arc"
   fill="#FFFFFF"
   stroke="#000000"
   d="    M1637.039,2163.972c0,4.998-4.055,9.055-9.059,9.055c-5.001,0-9.054-4.057-9.054-9.055c0-5.002,4.056-9.059,9.054-9.059    C1632.986,2154.916,1637.039,2158.97,1637.039,2163.972z" />
		<text
   transform="matrix(1 0 0 1 1621.8788 2167.9724)"
   font-family="'ArialMT'"
   font-size="11.1081"
   id="text370">33</text>

	</g>
	<g
   id="Kreis22_18_"
   transform="translate(-1099.4425,-1468.408)">
		
			<path
   id="path3841-8-9-2-0-6-5-2_41_"
   ry="67.680222"
   cy="1106.1483"
   cx="328.29956"
   rx="67.680222"
   type="arc"
   fill="#FFFFFF"
   stroke="#000000"
   d="    M1513.536,2005.579c0,4.998-4.055,9.055-9.059,9.055c-5,0-9.056-4.058-9.056-9.055c0-5.003,4.058-9.057,9.056-9.057    C1509.481,1996.522,1513.536,2000.576,1513.536,2005.579z" />
		<text
   transform="matrix(1 0 0 1 1498.3734 2009.5789)"
   font-family="'ArialMT'"
   font-size="11.1081"
   id="text374">32</text>

	</g>
	<g
   id="Kreis22_19_"
   transform="translate(-1099.4425,-1468.408)">
		
			<path
   id="path3841-8-9-2-0-6-5-2_42_"
   ry="67.680222"
   cy="1106.1483"
   cx="328.29956"
   rx="67.680222"
   type="arc"
   fill="#FFFFFF"
   stroke="#000000"
   d="    M1551.157,1884.323c0,4.998-4.055,9.054-9.059,9.054c-5,0-9.055-4.057-9.055-9.054c0-5.003,4.058-9.057,9.055-9.057    C1547.102,1875.266,1551.157,1879.32,1551.157,1884.323z" />
		<text
   transform="matrix(1 0 0 1 1535.996 1888.323)"
   font-family="'ArialMT'"
   font-size="11.1081"
   id="text378">31</text>

	</g>
	<g
   id="Kreis22_20_"
   transform="translate(-1099.4425,-1468.408)">
		
			<path
   id="path3841-8-9-2-0-6-5-2_43_"
   ry="67.680222"
   cy="1106.1483"
   cx="328.29956"
   rx="67.680222"
   type="arc"
   fill="#FFFFFF"
   stroke="#000000"
   d="    M1659.158,2492.77c0,4.998-4.055,9.055-9.059,9.055c-5,0-9.056-4.057-9.056-9.055c0-5.002,4.058-9.057,9.056-9.057    C1655.103,2483.714,1659.158,2487.766,1659.158,2492.77z" />
		<text
   transform="matrix(1 0 0 1 1643.9969 2496.7712)"
   font-family="'ArialMT'"
   font-size="11.1081"
   id="text382">30</text>

	</g>
	<g
   id="Kreis22_21_"
   transform="translate(-1099.4425,-1468.408)">
		
			<path
   id="path3841-8-9-2-0-6-5-2_44_"
   ry="67.680222"
   cy="1106.1483"
   cx="328.29956"
   rx="67.680222"
   type="arc"
   fill="#FFFFFF"
   stroke="#000000"
   d="    M1951.449,2420.326c0,4.998-4.057,9.055-9.061,9.055c-5,0-9.054-4.057-9.054-9.055c0-5.002,4.056-9.057,9.054-9.057    C1947.394,2411.269,1951.449,2415.323,1951.449,2420.326z" />
		<text
   transform="matrix(1 0 0 1 1936.2865 2424.3259)"
   font-family="'ArialMT'"
   font-size="11.1081"
   id="text386">29</text>

	</g>
	<g
   id="Kreis22_22_"
   transform="translate(-1099.4425,-1468.408)">
		
			<path
   id="path3841-8-9-2-0-6-5-2_45_"
   ry="67.680222"
   cy="1106.1483"
   cx="328.29956"
   rx="67.680222"
   type="arc"
   fill="#FFFFFF"
   stroke="#000000"
   d="    M1321.684,1656.713c0,5-4.055,9.055-9.059,9.055c-5,0-9.056-4.057-9.056-9.055c0-5.002,4.058-9.055,9.056-9.055    C1317.63,1647.658,1321.684,1651.711,1321.684,1656.713z" />
		<text
   transform="matrix(1 0 0 1 1306.5233 1660.7141)"
   font-family="'ArialMT'"
   font-size="11.1081"
   id="text390">28</text>

	</g>
	<g
   id="Kreis22_23_"
   transform="translate(-1099.4425,-1468.408)">
		
			<path
   id="path3841-8-9-2-0-6-5-2_46_"
   ry="67.680222"
   cy="1106.1483"
   cx="328.29956"
   rx="67.680222"
   type="arc"
   fill="#FFFFFF"
   stroke="#000000"
   d="    M1245.977,1849.959c0,4.998-4.056,9.055-9.06,9.055c-5,0-9.054-4.057-9.054-9.055c0-5.002,4.056-9.057,9.054-9.057    C1241.922,1840.903,1245.977,1844.955,1245.977,1849.959z" />
		<text
   transform="matrix(1 0 0 1 1230.8148 1853.9592)"
   font-family="'ArialMT'"
   font-size="11.1081"
   id="text394">27</text>

	</g>
	<g
   id="Kreis22_24_"
   transform="translate(-1099.4425,-1468.408)">
		
			<path
   id="path3841-8-9-2-0-6-5-2_47_"
   ry="67.680222"
   cy="1106.1483"
   cx="328.29956"
   rx="67.680222"
   type="arc"
   fill="#FFFFFF"
   stroke="#000000"
   d="    M1370.629,1877.101c0,4.998-4.055,9.054-9.061,9.054c-5,0-9.054-4.057-9.054-9.054c0-5.002,4.058-9.058,9.054-9.058    C1366.574,1868.045,1370.629,1872.098,1370.629,1877.101z" />
		<text
   transform="matrix(1 0 0 1 1355.4667 1881.1008)"
   font-family="'ArialMT'"
   font-size="11.1081"
   id="text398">26</text>

	</g>
	<g
   id="Kreis23"
   transform="translate(-1099.4425,-1468.408)">
		
			<path
   id="path3841-8-9-2-0-6-5-2_1_"
   ry="67.680222"
   cy="1106.1483"
   cx="328.29956"
   rx="67.680222"
   type="arc"
   fill="#FFFFFF"
   stroke="#000000"
   d="    M1664.793,1737.853c0,4.998-4.057,9.055-9.059,9.055c-5,0-9.056-4.057-9.056-9.055c0-5.002,4.056-9.055,9.056-9.055    C1660.738,1728.799,1664.793,1732.851,1664.793,1737.853z" />
		<text
   transform="matrix(1 0 0 1 1649.6307 1741.8547)"
   font-family="'ArialMT'"
   font-size="11.1081"
   id="text402">23</text>

	</g>
	<g
   id="Kreis22"
   transform="translate(-1099.4425,-1468.408)">
		
			<path
   id="path3841-8-9-2-0-6-5-2_4_"
   ry="67.680222"
   cy="1106.1483"
   cx="328.29956"
   rx="67.680222"
   type="arc"
   fill="#FFFFFF"
   stroke="#000000"
   d="    M1244.616,2067.944c0,4.998-4.056,9.055-9.06,9.055c-5,0-9.055-4.059-9.055-9.055c0-5.004,4.057-9.057,9.055-9.057    C1240.561,2058.887,1244.616,2062.94,1244.616,2067.944z" />
		<text
   transform="matrix(1 0 0 1 1229.455 2071.9446)"
   font-family="'ArialMT'"
   font-size="11.1081"
   id="text406">22</text>

	</g>
	<g
   id="Kreis21"
   transform="translate(-1099.4425,-1468.408)">
		
			<path
   id="path3841-8-9-2-0-6-5-2_5_"
   ry="67.680222"
   cy="1106.1483"
   cx="328.29956"
   rx="67.680222"
   type="arc"
   fill="#FFFFFF"
   stroke="#000000"
   d="    M1814.531,2611.987c0,4.998-4.055,9.053-9.059,9.053c-5,0-9.056-4.055-9.056-9.053c0-5.004,4.058-9.057,9.056-9.057    C1810.476,2602.932,1814.531,2606.983,1814.531,2611.987z" />
		<text
   transform="matrix(1 0 0 1 1799.3695 2615.988)"
   font-family="'ArialMT'"
   font-size="11.1081"
   id="text410">21</text>

	</g>
	<g
   id="Kreis20"
   transform="translate(-1099.4425,-1468.408)">
		
			<path
   id="path3841-8-9-2-0-6-5-2_6_"
   ry="67.680222"
   cy="1106.1483"
   cx="328.29956"
   rx="67.680222"
   type="arc"
   fill="#FFFFFF"
   stroke="#000000"
   d="    M1978.142,2145.006c0,5-4.054,9.055-9.059,9.055c-5,0-9.053-4.057-9.053-9.055c0-5.002,4.056-9.055,9.053-9.055    C1974.089,2135.951,1978.142,2140.002,1978.142,2145.006z" />
		<text
   transform="matrix(1 0 0 1 1962.9808 2149.0095)"
   font-family="'ArialMT'"
   font-size="11.1081"
   id="text414">20</text>

	</g>
	<g
   id="Kreis19"
   transform="translate(-1099.4425,-1468.408)">
		
			<path
   id="path3841-8-9-2-0-6-5-2_7_"
   ry="67.680222"
   cy="1106.1483"
   cx="328.29956"
   rx="67.680222"
   type="arc"
   fill="#FFFFFF"
   stroke="#000000"
   d="    M1581.599,2085.453c0,4.998-4.054,9.055-9.06,9.055c-4.999,0-9.054-4.057-9.054-9.055c0-5.002,4.055-9.053,9.054-9.053    C1577.546,2076.4,1581.599,2080.451,1581.599,2085.453z" />
		<text
   transform="matrix(1 0 0 1 1566.4393 2089.4568)"
   font-family="'ArialMT'"
   font-size="11.1081"
   id="text418">19</text>

	</g>
	<g
   id="Kreis18"
   transform="translate(-1099.4425,-1468.408)">
		
			<path
   id="path3841-8-9-2-0-6-5-2_8_"
   ry="67.680222"
   cy="1106.1483"
   cx="328.29956"
   rx="67.680222"
   type="arc"
   fill="#FFFFFF"
   stroke="#000000"
   d="    M1156.189,1968.085c0,4.998-4.057,9.054-9.059,9.054c-4.999,0-9.054-4.056-9.054-9.054c0-5.004,4.054-9.056,9.054-9.056    C1152.134,1959.031,1156.189,1963.081,1156.189,1968.085z" />
		<text
   transform="matrix(1 0 0 1 1140.4584 1972.0862)"
   font-family="'ArialMT'"
   font-size="11.1081"
   id="text422">18</text>

	</g>
	<g
   id="Kreis17"
   transform="translate(-1099.4425,-1468.408)">
		
			<path
   id="path3841-8-9-2-0-6-5-2_9_"
   ry="67.680222"
   cy="1106.1483"
   cx="328.29956"
   rx="67.680222"
   type="arc"
   fill="#FFFFFF"
   stroke="#000000"
   d="    M1234.057,1982.503c0,4.998-4.058,9.055-9.064,9.055c-5,0-9.054-4.057-9.054-9.055c0-5.002,4.057-9.057,9.054-9.057    C1230.001,1973.448,1234.057,1977.503,1234.057,1982.503z" />
		<text
   transform="matrix(1 0 0 1 1218.327 1986.5056)"
   font-family="'ArialMT'"
   font-size="11.1081"
   id="text426">17</text>

	</g>
	<g
   id="Kreis16"
   transform="translate(-1099.4425,-1468.408)">
		
			<path
   id="path3841-8-9-2-0-6-5-2_10_"
   ry="67.680222"
   cy="1106.1483"
   cx="328.29956"
   rx="67.680222"
   type="arc"
   fill="#FFFFFF"
   stroke="#000000"
   d="    M1381.858,2031.245c0,4.998-4.057,9.053-9.059,9.053c-4.999,0-9.054-4.057-9.054-9.053c0-5.002,4.055-9.055,9.054-9.055    C1377.803,2022.19,1381.858,2026.241,1381.858,2031.245z" />
		<text
   transform="matrix(1 0 0 1 1366.1273 2035.2473)"
   font-family="'ArialMT'"
   font-size="11.1081"
   id="text430">16</text>

	</g>
	<g
   id="Kreis15"
   transform="translate(-1099.4425,-1468.408)">
		
			<path
   id="path3841-8-9-2-0-6-5-2_11_"
   ry="67.680222"
   cy="1106.1483"
   cx="328.29956"
   rx="67.680222"
   type="arc"
   fill="#FFFFFF"
   stroke="#000000"
   d="    M1146.166,1936.653c0,5-4.055,9.055-9.06,9.055c-5,0-9.053-4.057-9.053-9.055c0-5,4.056-9.051,9.053-9.051    C1142.112,1927.602,1146.166,1931.653,1146.166,1936.653z" />
		<text
   transform="matrix(1 0 0 1 1130.4364 1940.6565)"
   font-family="'ArialMT'"
   font-size="11.1081"
   id="text434">15</text>

	</g>
	<g
   id="Kreis14"
   transform="translate(-1099.4425,-1468.408)">
		
			<path
   id="path3841-8-9-2-0-6-5-2_12_"
   ry="67.680222"
   cy="1106.1483"
   cx="328.29956"
   rx="67.680222"
   type="arc"
   fill="#FFFFFF"
   stroke="#000000"
   d="    M1574.268,2164.403c0,5-4.056,9.055-9.06,9.055c-5,0-9.055-4.055-9.055-9.055c0-5.004,4.055-9.055,9.055-9.055    C1570.213,2155.348,1574.268,2159.399,1574.268,2164.403z" />
		<text
   transform="matrix(1 0 0 1 1558.5375 2168.4041)"
   font-family="'ArialMT'"
   font-size="11.1081"
   id="text438">14</text>

	</g>
	<g
   id="Kreis13"
   transform="translate(-1099.4425,-1468.408)">
		
			<path
   id="path3841-8-9-2-0-6-5-2_13_"
   ry="67.680222"
   cy="1106.1483"
   cx="328.29956"
   rx="67.680222"
   type="arc"
   fill="#FFFFFF"
   stroke="#000000"
   d="    M1971.186,1906.84c0,4.998-4.058,9.054-9.06,9.054c-5,0-9.055-4.058-9.055-9.054c0-5.002,4.054-9.056,9.055-9.056    C1967.131,1897.786,1971.186,1901.838,1971.186,1906.84z" />
		<text
   transform="matrix(1 0 0 1 1955.4554 1910.8401)"
   font-family="'ArialMT'"
   font-size="11.1081"
   id="text442">13</text>

	</g>
	<g
   id="Kreis12"
   transform="translate(-1099.4425,-1468.408)">
		
			<path
   id="path3841-8-9-2-0-6-5-2_14_"
   ry="67.680222"
   cy="1106.1483"
   cx="328.29956"
   rx="67.680222"
   type="arc"
   fill="#FFFFFF"
   stroke="#000000"
   d="    M1311.257,2033.455c0,4.999-4.057,9.054-9.06,9.054c-5,0-9.055-4.057-9.055-9.054c0-5.001,4.054-9.054,9.055-9.054    C1307.2,2024.401,1311.257,2028.454,1311.257,2033.455z" />
		<text
   transform="matrix(1 0 0 1 1295.5228 2037.4539)"
   font-family="'ArialMT'"
   font-size="11.1081"
   id="text446">12</text>

	</g>
	<g
   id="Kreis11"
   transform="translate(-1099.4425,-1468.408)">
		
			<path
   id="path3841-8-9-2-0-6-5-2_3_"
   ry="67.680222"
   cy="1106.1483"
   cx="328.29956"
   rx="67.680222"
   type="arc"
   fill="#FFFFFF"
   stroke="#000000"
   d="    M2059.015,1961.342c0,5-4.054,9.053-9.057,9.053c-5,0-9.056-4.055-9.056-9.053c0-5,4.055-9.057,9.056-9.057    C2054.964,1952.285,2059.015,1956.338,2059.015,1961.342z" />
		<text
   transform="matrix(1 0 0 1 2043.8549 1965.3435)"
   font-family="'ArialMT'"
   font-size="11.1081"
   id="text450">11</text>

	</g>
	<g
   id="Kreis10"
   transform="translate(-1099.4425,-1468.408)">
		
			<path
   id="path3841-8-9-2-0-6-5-2_2_"
   ry="67.680222"
   cy="1106.1483"
   cx="328.29956"
   rx="67.680222"
   type="arc"
   fill="#FFFFFF"
   stroke="#000000"
   d="    M1757.722,2193.231c0,4.998-4.054,9.055-9.058,9.055c-4.999,0-9.055-4.057-9.055-9.055c0-5.002,4.057-9.059,9.055-9.059    C1753.67,2184.175,1757.722,2188.229,1757.722,2193.231z" />
		<text
   transform="matrix(1 0 0 1 1742.2758 2197.2322)"
   font-family="'ArialMT'"
   font-size="11.1081"
   id="text454">10</text>

	</g>
	<g
   id="Kreis09"
   transform="translate(-1099.4425,-1468.408)">
		
			<path
   id="path3841-8-9-2-0-6-5-2_23_"
   ry="67.680222"
   cy="1106.1483"
   cx="328.29956"
   rx="67.680222"
   type="arc"
   fill="#FFFFFF"
   stroke="#000000"
   d="    M1858.231,2209.491c0,4.999-4.054,9.055-9.058,9.055c-5,0-9.056-4.057-9.056-9.055c0-5.002,4.056-9.054,9.056-9.054    C1854.177,2200.438,1858.231,2204.489,1858.231,2209.491z" />
		<text
   transform="matrix(1 0 0 1 1846.1967 2213.4919)"
   font-family="'ArialMT'"
   font-size="11.1081"
   id="text458">9</text>

	</g>
	<g
   id="Kreis08"
   transform="translate(-1099.4425,-1468.408)">
		
			<path
   id="path3841-8-9-2-0-6-5-2_22_"
   ry="67.680222"
   cy="1106.1483"
   cx="328.29956"
   rx="67.680222"
   type="arc"
   fill="#FFFFFF"
   stroke="#000000"
   d="    M1378.084,1960.042c0,4.999-4.055,9.053-9.059,9.053c-5,0-9.054-4.057-9.054-9.053c0-5.001,4.055-9.049,9.054-9.049    C1374.034,1950.988,1378.084,1955.039,1378.084,1960.042z" />
		<text
   transform="matrix(1 0 0 1 1366.0502 1964.0417)"
   font-family="'ArialMT'"
   font-size="11.1081"
   id="text462">8</text>

	</g>
	<g
   id="Kreis07"
   transform="translate(-1099.4425,-1468.408)">
		
			<path
   id="path3841-8-9-2-0-6-5-2_21_"
   ry="67.680222"
   cy="1106.1483"
   cx="328.29956"
   rx="67.680222"
   type="arc"
   fill="#FFFFFF"
   stroke="#000000"
   d="    M1754.564,2497.545c0,4.998-4.054,9.055-9.058,9.055c-5,0-9.054-4.057-9.054-9.055c0-5.002,4.057-9.055,9.054-9.055    C1750.511,2488.49,1754.564,2492.543,1754.564,2497.545z" />
		<text
   transform="matrix(1 0 0 1 1742.5316 2501.5447)"
   font-family="'ArialMT'"
   font-size="11.1081"
   id="text466">7</text>

	</g>
	<g
   id="Kreis06"
   transform="translate(-1099.4425,-1468.408)">
		
			<path
   id="path3841-8-9-2-0-6-5-2_20_"
   ry="67.680222"
   cy="1106.1483"
   cx="328.29956"
   rx="67.680222"
   type="arc"
   fill="#FFFFFF"
   stroke="#000000"
   d="    M1435.081,1996.503c0,4.998-4.055,9.056-9.06,9.056c-5,0-9.054-4.058-9.054-9.056c0-5.002,4.055-9.054,9.054-9.054    C1431.027,1987.447,1435.081,1991.5,1435.081,1996.503z" />
		<text
   transform="matrix(1 0 0 1 1423.0472 2000.5027)"
   font-family="'ArialMT'"
   font-size="11.1081"
   id="text470">6</text>

	</g>
	<g
   id="Kreis05"
   transform="translate(-1099.4425,-1468.408)">
		
			<path
   id="path3841-8-9-2-0-6-5-2_19_"
   ry="67.680222"
   cy="1106.1483"
   cx="328.29956"
   rx="67.680222"
   type="arc"
   fill="#FFFFFF"
   stroke="#000000"
   d="    M1999.079,2019.947c0,4.998-4.055,9.055-9.061,9.055c-4.999,0-9.054-4.057-9.054-9.055c0-5.002,4.056-9.055,9.054-9.055    C1995.027,2010.892,1999.079,2014.945,1999.079,2019.947z" />
		<text
   transform="matrix(1 0 0 1 1987.0463 2023.947)"
   font-family="'ArialMT'"
   font-size="11.1081"
   id="text474">5</text>

	</g>
	<g
   id="Kreis04"
   transform="translate(-1099.4425,-1468.408)">
		
			<path
   id="path3841-8-9-2-0-6-5-2_18_"
   ry="67.680222"
   cy="1106.1483"
   cx="328.29956"
   rx="67.680222"
   type="arc"
   fill="#FFFFFF"
   stroke="#000000"
   d="    M1539.606,2128.309c0,5-4.056,9.057-9.058,9.057s-9.056-4.059-9.056-9.057c0-5,4.058-9.055,9.056-9.055    C1535.553,2119.257,1539.606,2123.309,1539.606,2128.309z" />
		<text
   transform="matrix(1 0 0 1 1527.5721 2132.0271)"
   font-family="'ArialMT'"
   font-size="11.1081"
   id="text478">4</text>

	</g>
	<g
   id="Kreis03"
   transform="translate(-1099.4425,-1468.408)">
		
			<path
   id="path3841-8-9-2-0-6-5-2_15_"
   ry="67.680222"
   cy="1106.1483"
   cx="328.29956"
   rx="67.680222"
   type="arc"
   fill="#FFFFFF"
   stroke="#000000"
   d="    M1666.07,2346.27c0,4.998-4.059,9.053-9.06,9.053c-5,0-9.054-4.057-9.054-9.053c0-5.002,4.054-9.055,9.054-9.055    C1662.014,2337.216,1666.07,2341.268,1666.07,2346.27z" />
		<text
   transform="matrix(1 0 0 1 1654.0355 2349.9861)"
   font-family="'ArialMT'"
   font-size="11.1081"
   id="text482">3</text>

	</g>
	<g
   id="Kreis02"
   transform="translate(-1099.4425,-1468.408)">
		
			<path
   id="path3841-8-9-2-0-6-5-2_16_"
   ry="67.680222"
   cy="1106.1483"
   cx="328.29956"
   rx="67.680222"
   type="arc"
   fill="#FFFFFF"
   stroke="#000000"
   d="    M1447.083,1720.802c0,5-4.058,9.055-9.059,9.055c-5,0-9.054-4.057-9.054-9.055c0-5.002,4.054-9.055,9.054-9.055    C1443.025,1711.745,1447.083,1715.8,1447.083,1720.802z" />
		<text
   transform="matrix(1 0 0 1 1435.0468 1724.5168)"
   font-family="'ArialMT'"
   font-size="11.1081"
   id="text486">2</text>

	</g>
	<g
   id="Kreis01"
   transform="translate(-1099.4425,-1468.408)">
		
			<path
   id="path3841-8-9-2-0-6-5-2_17_"
   ry="67.680222"
   cy="1106.1483"
   cx="328.29956"
   rx="67.680222"
   type="arc"
   fill="#FFFFFF"
   stroke="#000000"
   d="    M1832.845,1747.232c0,4.998-4.053,9.053-9.059,9.053c-4.998,0-9.056-4.057-9.056-9.053c0-5.002,4.056-9.057,9.056-9.057    C1828.792,1738.175,1832.845,1742.23,1832.845,1747.232z" />
		<text
   transform="matrix(1 0 0 1 1820.5277 1751.5154)"
   font-family="'ArialMT'"
   font-size="11.1081"
   id="text490">1</text>

	</g>
	<g
   id="Kreis22_25_"
   transform="translate(-1099.4425,-1468.408)">
		
			<path
   id="path3841-8-9-2-0-6-5-2_48_"
   ry="67.680222"
   cy="1106.1483"
   cx="328.29956"
   rx="67.680222"
   type="arc"
   fill="#FFFFFF"
   stroke="#000000"
   d="    M1718.974,2048.118c0,4.998-4.055,9.055-9.059,9.055c-5,0-9.055-4.057-9.055-9.055c0-5.002,4.057-9.057,9.055-9.057    C1714.92,2039.062,1718.974,2043.116,1718.974,2048.118z" />
		<text
   transform="matrix(1 0 0 1 1703.8129 2052.1189)"
   font-family="'ArialMT'"
   font-size="11.1081"
   id="text494">49</text>

	</g>
	<g
   id="Kreis22_26_"
   transform="translate(-1099.4425,-1468.408)">
		
			<path
   id="path3841-8-9-2-0-6-5-2_49_"
   ry="67.680222"
   cy="1106.1483"
   cx="328.29956"
   rx="67.680222"
   type="arc"
   fill="#FFFFFF"
   stroke="#000000"
   d="    M1214.999,1760.133c0,4.998-4.055,9.055-9.059,9.055c-5,0-9.055-4.057-9.055-9.055c0-5.002,4.057-9.057,9.055-9.057    C1210.946,1751.076,1214.999,1755.131,1214.999,1760.133z" />
		<text
   transform="matrix(1 0 0 1 1199.8383 1764.1331)"
   font-family="'ArialMT'"
   font-size="11.1081"
   id="text498">48</text>

	</g>
</g>
</svg>