<?xml version="1.0" encoding="utf-8"?>
<!-- Generator: Adobe Illustrator 13.0.2, SVG Export Plug-In . SVG Version: 6.00 Build 14948)  -->
<!DOCTYPE svg PUBLIC "-//W3C//DTD SVG 1.1//EN" "http://www.w3.org/Graphics/SVG/1.1/DTD/svg11.dtd">
<svg version="1.1" id="Ebene_1" xmlns="http://www.w3.org/2000/svg" xmlns:xlink="http://www.w3.org/1999/xlink" x="0px" y="0px"
	 width="480px" height="640px" viewBox="0 768 480 640" enable-background="new 0 768 480 640" xml:space="preserve">
<g id="Vorarlberg_1_">
	<g id="Bludenz_1_">
		
			<polygon id="Bartholomäberg" fill="#123456" stroke="#000000" stroke-width="0.2493" stroke-linecap="round" stroke-linejoin="round" stroke-miterlimit="10" points="
			270.351,1187.688 272.891,1193.952 265.329,1207.849 252.735,1214.132 232.623,1212.893 222.516,1200.281 237.647,1183.897 
			241.439,1182.663 		"/>
		
			<polygon id="Blons" fill="#123456" stroke="#000000" stroke-width="0.2493" stroke-linecap="round" stroke-linejoin="round" stroke-miterlimit="10" points="
			225.045,1097.054 231.309,1109.596 228.83,1112.113 207.417,1117.163 203.629,1094.514 209.951,1090.726 220.023,1080.669 
			222.51,1080.669 		"/>
		
			<polygon id="Bludesch" fill="#123456" stroke="#000000" stroke-width="0.2493" stroke-linecap="round" stroke-linejoin="round" stroke-miterlimit="10" points="
			172.158,1139.817 169.672,1144.863 149.499,1129.773 158.314,1122.202 168.369,1120.966 174.692,1122.202 169.666,1123.51 
			172.158,1129.773 165.884,1134.808 172.158,1134.808 164.581,1138.589 		"/>
		
			<polygon id="Brand" fill="#123456" stroke="#000000" stroke-width="0.2493" stroke-linecap="round" stroke-linejoin="round" stroke-miterlimit="10" points="
			174.701,1183.897 173.407,1206.551 168.374,1225.418 144.469,1231.747 129.383,1225.418 135.656,1197.732 130.635,1190.23 
			155.778,1191.454 160.864,1182.649 		"/>
		
			<polygon id="Bürs" fill="#123456" stroke="#000000" stroke-width="0.2493" stroke-linecap="round" stroke-linejoin="round" stroke-miterlimit="10" points="
			194.821,1157.447 207.417,1173.842 199.845,1187.682 201.148,1195.247 187.249,1206.562 173.407,1206.562 174.701,1183.888 
			182.218,1175.085 183.521,1156.2 		"/>
		
			<polygon id="Dalaas" fill="#123456" stroke="#000000" stroke-width="0.2493" stroke-linecap="round" stroke-linejoin="round" stroke-miterlimit="10" points="
			358.496,1167.514 349.685,1171.29 337.08,1166.279 322.001,1176.388 318.215,1185.146 322.001,1200.286 315.669,1197.746 
			300.586,1202.773 272.906,1193.958 270.358,1187.682 277.931,1183.888 279.183,1172.588 270.358,1166.286 267.875,1153.68 
			284.204,1142.377 300.593,1137.348 300.593,1128.535 309.406,1127.232 314.44,1137.348 347.154,1136.036 342.121,1143.623 
			352.185,1149.945 		"/>
		
			<polygon id="Fontanella" fill="#123456" stroke="#000000" stroke-width="0.2493" stroke-linecap="round" stroke-linejoin="round" stroke-miterlimit="10" points="
			280.421,1083.213 257.755,1099.545 252.725,1095.76 233.847,1104.582 225.037,1097.069 222.494,1080.685 223.793,1075.65 
			243.896,1074.401 260.287,1066.828 265.306,1063.066 267.857,1074.401 280.389,1075.65 		"/>
		
			<polygon id="Gaschurn" fill="#123456" stroke="#000000" stroke-width="0.2493" stroke-linecap="round" stroke-linejoin="round" stroke-miterlimit="10" points="
			353.474,1258.203 347.141,1263.232 362.281,1275.822 363.537,1290.919 357.271,1290.919 345.909,1321.147 332.065,1331.198 
			335.853,1353.859 350.936,1368.993 353.474,1386.621 333.294,1392.896 327.017,1379.047 309.396,1376.506 306.864,1365.214 
			295.558,1351.373 277.924,1346.34 272.906,1336.23 276.693,1323.688 270.358,1309.793 275.394,1312.335 286.757,1295.95 
			282.968,1285.887 300.586,1268.266 320.698,1259.442 325.778,1254.427 		"/>
		
			<polygon id="Innerbraz" fill="#123456" stroke="#000000" stroke-width="0.2493" stroke-linecap="round" stroke-linejoin="round" stroke-miterlimit="10" points="
			267.868,1153.68 270.351,1166.279 279.177,1172.594 277.924,1183.888 270.351,1187.675 241.439,1182.649 242.67,1171.29 
			253.972,1152.424 		"/>
		
			<polygon id="Klösterle" fill="#123456" stroke="#000000" stroke-width="0.2493" stroke-linecap="round" stroke-linejoin="round" stroke-miterlimit="10" points="
			358.496,1167.514 377.374,1173.842 394.999,1167.514 398.776,1173.842 389.968,1177.624 392.504,1186.442 381.15,1187.675 
			381.15,1193.967 367.311,1197.73 353.46,1222.948 328.264,1221.696 329.504,1200.281 321.997,1200.281 318.211,1185.146 
			321.997,1176.381 337.073,1166.273 349.68,1171.285 		"/>
		
			<polygon id="Lech" fill="#123456" stroke="#000000" stroke-width="0.2493" stroke-linecap="round" stroke-linejoin="round" stroke-miterlimit="10" points="
			389.979,1110.898 397.541,1119.711 397.541,1132.313 388.729,1142.388 394.999,1157.447 394.999,1167.514 377.374,1173.842 
			358.496,1167.514 352.171,1149.932 342.115,1143.623 347.141,1136.036 314.421,1137.334 309.396,1127.232 316.972,1114.691 
			324.492,1113.381 342.115,1115.93 345.907,1107.111 354.719,1107.111 360.991,1098.295 387.426,1105.876 		"/>
		
			<polygon id="Lorüns" fill="#123456" stroke="#000000" stroke-width="0.2493" stroke-linecap="round" stroke-linejoin="round" stroke-miterlimit="10" points="
			211.203,1175.085 227.531,1176.388 232.617,1181.411 218.724,1187.688 201.153,1195.261 199.845,1187.688 207.417,1173.842 		"/>
		
			<polygon id="Ludesch" fill="#123456" stroke="#000000" stroke-width="0.2493" stroke-linecap="round" stroke-linejoin="round" stroke-miterlimit="10" points="
			206.171,1132.313 180.988,1146.146 172.165,1144.844 169.677,1144.844 172.165,1139.83 184.768,1128.521 197.363,1119.711 
			203.633,1119.711 197.363,1127.232 		"/>
		
			<polygon id="Nenzing" fill="#123456" stroke="#000000" stroke-width="0.2493" stroke-linecap="round" stroke-linejoin="round" stroke-miterlimit="10" points="
			130.64,1120.966 149.509,1129.773 169.627,1144.844 172.165,1144.844 169.627,1156.22 163.348,1157.447 159.563,1171.295 
			160.803,1182.656 155.784,1191.478 130.64,1190.252 135.663,1197.752 129.331,1225.425 114.256,1225.425 107.97,1231.764 
			95.375,1224.199 97.858,1211.597 109.219,1207.872 110.457,1202.781 104.181,1188.948 110.457,1176.4 105.427,1158.77 
			116.784,1117.196 120.519,1123.519 119.276,1129.787 126.839,1129.787 123.048,1118.484 120.502,1123.519 115.474,1115.944 
			125.592,1113.403 		"/>
		
			<polygon id="Nüziders" fill="#123456" stroke="#000000" stroke-width="0.2493" stroke-linecap="round" stroke-linejoin="round" stroke-miterlimit="10" points="
			241.439,1149.927 230.08,1153.674 221.254,1146.146 194.821,1157.447 183.514,1156.2 169.677,1156.2 172.165,1144.844 
			180.988,1146.146 206.171,1132.313 228.83,1136.042 		"/>
		
			<polygon id="Raggal" fill="#123456" stroke="#000000" stroke-width="0.2493" stroke-linecap="round" stroke-linejoin="round" stroke-miterlimit="10" points="
			284.199,1142.388 267.868,1153.68 253.972,1152.441 241.439,1149.953 228.83,1136.031 206.171,1132.313 197.363,1127.227 
			203.633,1119.711 207.417,1117.163 228.83,1112.13 235.105,1122.202 262.799,1124.743 		"/>
		
			<polygon id="Sankt_Gallenkirch" fill="#123456" stroke="#000000" stroke-width="0.2493" stroke-linecap="round" stroke-linejoin="round" stroke-miterlimit="10" points="
			320.698,1259.438 300.581,1268.25 282.957,1285.877 286.753,1295.938 275.388,1312.335 270.351,1309.788 276.62,1323.688 
			272.906,1336.228 252.732,1337.519 223.798,1321.138 225.045,1304.743 221.254,1299.727 232.617,1282.095 231.303,1273.263 
			240.136,1251.872 260.301,1244.345 279.173,1232.989 285.503,1239.32 290.52,1238.017 290.52,1246.85 316.966,1253.151 		"/>
		
			<polygon id="Sankt_Gerold" fill="#123456" stroke="#000000" stroke-width="0.2493" stroke-linecap="round" stroke-linejoin="round" stroke-miterlimit="10" points="
			209.951,1090.726 203.629,1094.519 207.413,1117.163 203.629,1119.711 197.356,1119.711 187.236,1098.295 196.049,1095.76 
			187.236,1086.933 194.816,1083.198 203.629,1084.428 		"/>
		
			<polygon id="Schruns" fill="#123456" stroke="#000000" stroke-width="0.2493" stroke-linecap="round" stroke-linejoin="round" stroke-miterlimit="10" points="
			279.177,1232.999 260.301,1244.345 253.972,1227.955 232.617,1212.893 252.732,1214.132 265.325,1207.849 269.116,1219.149 
			276.62,1220.393 281.715,1229.218 		"/>
		
			<polygon id="Silbertal" fill="#123456" stroke="#000000" stroke-width="0.2493" stroke-linecap="round" stroke-linejoin="round" stroke-miterlimit="10" points="
			322.001,1200.281 329.523,1200.281 328.273,1221.696 353.474,1222.948 354.713,1232.999 362.289,1234.288 364.785,1244.345 
			353.481,1258.203 325.796,1254.416 320.713,1259.433 316.979,1253.157 290.535,1246.836 290.535,1238.008 285.51,1239.31 
			279.183,1232.991 281.722,1229.208 276.639,1220.375 269.133,1219.149 265.336,1207.849 272.909,1193.947 300.586,1202.764 
			315.669,1197.732 		"/>
		
			<polygon id="Sonntag" fill="#123456" stroke="#000000" stroke-width="0.2493" stroke-linecap="round" stroke-linejoin="round" stroke-miterlimit="10" points="
			314.421,1095.76 318.215,1100.843 328.273,1100.843 324.487,1113.368 316.966,1114.676 309.386,1127.225 300.577,1128.505 
			300.577,1137.325 284.19,1142.364 262.785,1124.728 235.091,1122.188 228.827,1112.113 231.303,1109.596 225.045,1097.054 
			233.847,1104.575 252.732,1095.76 257.755,1099.536 280.421,1083.205 295.549,1080.669 		"/>
		
			<polygon id="Stallehr" fill="#123456" stroke="#000000" stroke-width="0.2493" stroke-linecap="round" stroke-linejoin="round" stroke-miterlimit="10" points="
			227.531,1176.388 211.203,1175.085 225.045,1170.066 		"/>
		
			<polygon id="Thüringen" fill="#123456" stroke="#000000" stroke-width="0.2493" stroke-linecap="round" stroke-linejoin="round" stroke-miterlimit="10" points="
			184.768,1128.54 172.165,1139.817 164.586,1138.589 172.165,1134.796 165.888,1134.796 172.165,1129.773 169.677,1123.493 
			174.701,1122.202 168.381,1120.966 172.165,1117.176 184.768,1120.966 		"/>
		
			<polygon id="Thüringerberg" fill="#123456" stroke="#000000" stroke-width="0.2493" stroke-linecap="round" stroke-linejoin="round" stroke-miterlimit="10" points="
			197.363,1119.711 184.768,1128.547 184.768,1120.969 172.165,1117.182 174.701,1100.848 187.243,1098.314 		"/>
		
			<polygon id="Tschagguns" fill="#123456" stroke="#000000" stroke-width="0.2493" stroke-linecap="round" stroke-linejoin="round" stroke-miterlimit="10" points="
			260.301,1244.345 240.136,1251.872 231.309,1273.276 223.798,1265.762 226.286,1258.203 206.171,1263.221 186.003,1249.375 
			198.594,1240.569 197.363,1230.501 204.876,1224.184 232.617,1212.885 253.967,1227.955 		"/>
		
			<polygon id="Vadans" fill="#123456" stroke="#000000" stroke-width="0.2493" stroke-linecap="round" stroke-linejoin="round" stroke-miterlimit="10" points="
			222.506,1200.281 232.617,1212.885 204.883,1224.184 197.363,1230.512 198.594,1240.569 186.003,1249.382 180.988,1244.352 
			149.509,1238.04 144.478,1231.754 168.381,1225.425 173.407,1206.562 187.249,1206.562 201.153,1195.27 218.724,1187.695 		"/>
		
			<polygon id="Bludenz" fill="#123456" stroke="#000000" stroke-width="0.2493" stroke-linecap="round" stroke-linejoin="round" stroke-miterlimit="10" points="
			241.439,1149.927 253.972,1152.424 242.67,1171.29 241.428,1182.649 237.641,1183.888 232.617,1181.403 227.586,1176.381 
			225.045,1170.06 211.203,1175.078 207.417,1173.842 194.821,1157.461 221.254,1146.158 230.074,1153.68 		"/>
		
			<polygon id="Bürserberg" fill="#123456" stroke="#000000" stroke-width="0.2493" stroke-linecap="round" stroke-linejoin="round" stroke-miterlimit="10" points="
			183.514,1156.215 182.214,1175.078 174.692,1183.897 160.856,1182.663 159.545,1171.303 163.33,1157.461 169.666,1156.215 		"/>
		
			<polygon id="Sankt_Anton_im_Montafon" fill="#123456" stroke="#000000" stroke-width="0.2493" stroke-linecap="round" stroke-linejoin="round" stroke-miterlimit="10" points="
			237.641,1183.897 222.506,1200.281 218.716,1187.688 232.613,1181.411 		"/>
	</g>
	<g id="Bregenz_1_">
		
			<polygon id="Alberschwende_2_" fill="#123456" stroke="#000000" stroke-width="0.2493" stroke-linecap="round" stroke-linejoin="round" stroke-miterlimit="10" points="
			223.798,922.013 230.08,932.08 245.155,948.403 247.698,954.739 228.83,957.217 213.686,962.299 208.657,958.517 203.629,950.937 
			214.99,932.08 221.261,920.719 		"/>
		
			<polygon id="Andelsbuch_2_" fill="#123456" stroke="#000000" stroke-width="0.2493" stroke-linecap="round" stroke-linejoin="round" stroke-miterlimit="10" points="
			286.753,993.771 262.792,992.542 256.515,987.514 240.136,996.326 231.309,996.326 225.045,992.542 225.045,986.258 
			238.897,985.03 240.144,971.129 248.958,966.103 251.501,976.222 264.102,973.684 271.607,978.709 270.358,985.037 
			287.982,990.065 		"/>
		
			<polygon id="Au_2_" fill="#123456" stroke="#000000" stroke-width="0.2493" stroke-linecap="round" stroke-linejoin="round" stroke-miterlimit="10" points="
			309.396,1027.781 300.581,1039.144 295.549,1055.467 298.048,1059.26 291.774,1070.622 295.558,1080.669 280.428,1083.213 
			280.428,1075.65 267.882,1074.401 265.336,1063.039 260.309,1066.822 240.144,1049.202 260.309,1046.654 261.557,1036.593 
			277.936,1031.574 280.441,1036.593 280.441,1030.334 298.066,1027.781 301.847,1030.334 		"/>
		
			<polygon id="Bezau_2_" fill="#123456" stroke="#000000" stroke-width="0.2493" stroke-linecap="round" stroke-linejoin="round" stroke-miterlimit="10" points="
			286.753,993.771 299.342,993.771 304.372,1000.094 320.698,997.568 315.669,1003.888 323.24,1021.519 332.06,1024 
			330.82,1029.036 340.867,1036.604 330.82,1039.144 320.698,1039.144 309.396,1027.781 304.377,1018.954 306.87,1012.686 
			299.351,1013.938 300.593,1005.114 294.271,1005.114 293.024,997.545 267.875,1006.358 252.735,1003.867 245.166,1007.655 
			240.142,996.308 256.521,987.482 262.799,992.522 		"/>
		
			<polygon id="Bildstein_2_" fill="#123456" stroke="#000000" stroke-width="0.2493" stroke-linecap="round" stroke-linejoin="round" stroke-miterlimit="10" points="
			214.99,932.08 203.629,950.958 192.335,952.198 197.356,945.915 183.514,943.372 180.98,937.116 198.594,932.08 		"/>
		
			<polygon id="Bizau_2_" fill="#123456" stroke="#000000" stroke-width="0.2493" stroke-linecap="round" stroke-linejoin="round" stroke-miterlimit="10" points="
			309.396,1027.781 301.827,1030.334 298.048,1027.781 296.805,1018.954 250.25,1017.723 252.735,1003.878 267.868,1006.371 
			293.012,997.568 294.266,1005.125 300.586,1005.125 299.351,1013.952 306.864,1012.7 304.372,1018.954 		"/>
		
			<polygon id="Bregenz_3_" fill="#123456" stroke="#000000" stroke-width="0.2493" stroke-linecap="round" stroke-linejoin="round" stroke-miterlimit="10" points="
			174.701,889.244 180.988,896.82 180.988,905.637 192.344,913.162 206.178,903.088 201.148,913.162 207.426,919.479 
			198.609,927.059 192.335,918.228 173.407,922.005 164.586,919.479 141.937,894.278 172.158,886.758 		"/>
		
			<polygon id="Buch_2_" fill="#123456" stroke="#000000" stroke-width="0.2493" stroke-linecap="round" stroke-linejoin="round" stroke-miterlimit="10" points="
			221.254,920.729 214.984,932.08 198.594,932.08 198.594,927.051 207.417,919.479 		"/>
		
			<polygon id="Damüls_2_" fill="#123456" stroke="#000000" stroke-width="0.2493" stroke-linecap="round" stroke-linejoin="round" stroke-miterlimit="10" points="
			260.301,1066.817 243.92,1074.392 223.802,1075.638 222.506,1080.669 220.011,1080.669 208.657,1071.852 212.449,1068.069 
			221.254,1063.039 220.011,1055.461 240.136,1049.202 		"/>
		
			<polygon id="Doren_2_" fill="#123456" stroke="#000000" stroke-width="0.2493" stroke-linecap="round" stroke-linejoin="round" stroke-miterlimit="10" points="
			261.547,914.507 262.792,918.3 241.428,928.351 230.074,932.13 223.798,922.021 236.34,905.68 		"/>
		
			<polygon id="Egg_2_" fill="#123456" stroke="#000000" stroke-width="0.2493" stroke-linecap="round" stroke-linejoin="round" stroke-miterlimit="10" points="
			301.827,964.804 308.162,968.583 315.669,988.689 327.03,987.454 325.778,1005.079 344.655,1020.231 345.901,1023.967 
			355.951,1032.781 348.432,1031.541 340.867,1036.565 330.814,1029 332.06,1023.967 323.24,1021.484 315.663,1003.861 
			320.698,997.526 304.366,1000.069 299.342,993.795 286.753,993.795 287.977,989.997 270.351,984.992 271.602,978.658 
			264.095,973.623 251.496,976.183 248.941,966.053 240.142,971.083 228.83,957.229 247.698,954.764 260.294,957.229 
			272.891,950.958 		"/>
		
			<polygon id="Eichenberg_2_" fill="#123456" stroke="#000000" stroke-width="0.2493" stroke-linecap="round" stroke-linejoin="round" stroke-miterlimit="10" points="
			217.48,882.976 211.203,893.029 213.694,899.308 206.178,903.093 198.609,899.308 189.792,884.238 193.575,872.874 
			206.178,872.874 211.203,882.987 217.48,882.987 		"/>
		
			<polygon id="Fußach_1_" fill="#123456" stroke="#000000" stroke-width="0.2493" stroke-linecap="round" stroke-linejoin="round" stroke-miterlimit="10" points="
			144.478,933.322 145.725,937.106 141.945,939.586 128.094,938.341 134.423,935.863 131.882,925.742 125.615,922.013 
			116.796,900.598 128.094,896.803 140.694,920.71 135.663,932.059 		"/>
		
			<polygon id="Gaißau_1_" fill="#123456" stroke="#000000" stroke-width="0.2493" stroke-linecap="round" stroke-linejoin="round" stroke-miterlimit="10" points="
			109.219,929.529 104.187,935.863 89.051,906.881 97.861,904.385 		"/>
		
			<polygon id="Hard_2_" fill="#123456" stroke="#000000" stroke-width="0.2493" stroke-linecap="round" stroke-linejoin="round" stroke-miterlimit="10" points="
			164.586,919.479 150.742,934.565 144.478,933.328 135.656,932.084 140.688,920.734 128.078,896.837 141.928,894.289 		"/>
		
			<polygon id="Hittisau_1_" fill="#123456" stroke="#000000" stroke-width="0.2493" stroke-linecap="round" stroke-linejoin="round" stroke-miterlimit="10" points="
			300.586,929.529 324.489,928.286 327.03,942.138 334.61,950.958 344.655,949.712 349.685,969.831 337.08,967.344 335.844,959.776 
			329.504,961.028 324.48,955.997 305.604,959.776 301.816,964.804 272.885,950.958 274.135,943.388 269.113,942.143 
			266.561,934.578 272.891,927.051 277.923,930.779 285.497,924.521 		"/>
		
			<polygon id="Höchst_1_" fill="#123456" stroke="#000000" stroke-width="0.2493" stroke-linecap="round" stroke-linejoin="round" stroke-miterlimit="10" points="
			141.928,939.601 134.419,944.688 116.79,939.601 109.209,929.529 97.861,904.392 116.79,900.615 125.609,922.021 131.872,925.761 
			134.419,935.876 128.082,938.358 		"/>
		
			<polygon id="Hörbranz_2_" fill="#123456" stroke="#000000" stroke-width="0.2493" stroke-linecap="round" stroke-linejoin="round" stroke-miterlimit="10" points="
			194.821,865.359 193.574,872.874 189.783,884.238 184.768,881.684 174.701,889.259 172.158,886.773 184.768,860.333 		"/>
		
			<polygon id="Hohenweiler_1_" fill="#123456" stroke="#000000" stroke-width="0.2493" stroke-linecap="round" stroke-linejoin="round" stroke-miterlimit="10" points="
			217.48,850.197 208.657,850.197 202.397,861.565 194.821,865.359 184.768,860.318 191.044,848.966 197.368,845.178 
			207.417,843.942 		"/>
		
			<polygon id="Kennelbach_1_" fill="#123456" stroke="#000000" stroke-width="0.2493" stroke-linecap="round" stroke-linejoin="round" stroke-miterlimit="10" points="
			198.594,927.038 188.536,930.768 173.407,922.013 192.344,918.228 		"/>
		
			<polygon id="Krumbach_1_" fill="#123456" stroke="#000000" stroke-width="0.2493" stroke-linecap="round" stroke-linejoin="round" stroke-miterlimit="10" points="
			272.891,927.038 266.561,934.565 247.69,933.328 241.421,928.286 262.785,918.239 261.54,914.454 262.785,913.162 
			271.597,916.939 		"/>
		
			<polygon id="Langen_bei_Bregenz_1_" fill="#123456" stroke="#000000" stroke-width="0.2493" stroke-linecap="round" stroke-linejoin="round" stroke-miterlimit="10" points="
			241.439,894.278 236.344,905.637 223.802,922.013 221.261,920.729 207.417,919.479 201.148,913.162 206.178,903.093 
			213.694,899.317 211.203,893.043 217.48,882.987 220.03,881.68 		"/>
		
			<polygon id="Langenegg_1_" fill="#123456" stroke="#000000" stroke-width="0.2493" stroke-linecap="round" stroke-linejoin="round" stroke-miterlimit="10" points="
			266.565,934.611 269.116,942.18 245.155,948.469 230.08,932.13 241.439,928.351 247.716,933.38 		"/>
		
			<polygon id="Lauterach_2_" fill="#123456" stroke="#000000" stroke-width="0.2493" stroke-linecap="round" stroke-linejoin="round" stroke-miterlimit="10" points="
			173.407,922.013 174.708,935.863 159.563,947.157 153.289,947.157 145.72,937.116 144.469,933.322 150.742,934.565 
			164.586,919.479 		"/>
		
			<polygon id="Lingenau_2_" fill="#123456" stroke="#000000" stroke-width="0.2493" stroke-linecap="round" stroke-linejoin="round" stroke-miterlimit="10" points="
			272.891,950.991 260.294,957.281 247.698,954.795 245.155,948.469 269.116,942.18 274.146,943.429 		"/>
		
			<polygon id="Lochau_2_" fill="#123456" stroke="#000000" stroke-width="0.2493" stroke-linecap="round" stroke-linejoin="round" stroke-miterlimit="10" points="
			189.783,884.238 198.594,899.308 206.171,903.093 192.335,913.148 180.98,905.626 180.98,896.82 174.692,889.259 184.763,881.68 
					"/>
		
			<polygon id="Mellau_2_" fill="#123456" stroke="#000000" stroke-width="0.2493" stroke-linecap="round" stroke-linejoin="round" stroke-miterlimit="10" points="
			247.707,1017.728 255.27,1035.351 261.553,1036.593 260.301,1046.654 240.136,1049.202 220.011,1055.461 206.165,1047.954 
			211.197,1040.373 207.412,1034.109 211.197,1032.798 204.87,1023.988 221.25,1013.938 238.878,1007.665 238.878,1015.182 		"/>
		
			<polygon id="Mittelberg_2_" fill="#123456" stroke="#000000" stroke-width="0.2493" stroke-linecap="round" stroke-linejoin="round" stroke-miterlimit="10" points="
			378.611,1079.426 366.06,1080.669 358.482,1074.392 357.261,1083.198 352.163,1081.916 338.312,1075.65 333.282,1064.29 
			337.073,1049.211 330.814,1039.144 340.864,1036.604 348.432,1031.568 355.945,1032.818 345.901,1024 355.945,1008.907 
			366.06,1015.192 378.606,1015.192 381.143,1002.648 388.721,1000.107 401.263,1007.684 408.835,1001.352 412.622,1007.684 
			393.751,1046.654 398.78,1051.753 398.78,1060.566 387.426,1069.381 382.406,1066.834 		"/>
		
			<polygon id="Möggers_2_" fill="#123456" stroke="#000000" stroke-width="0.2493" stroke-linecap="round" stroke-linejoin="round" stroke-miterlimit="10" points="
			217.48,850.197 218.724,870.369 213.694,877.96 220.03,881.68 217.485,882.987 211.207,882.987 206.186,872.874 193.583,872.874 
			194.836,865.353 202.416,861.57 208.681,850.21 217.493,850.21 217.493,850.197 		"/>
		
			<polygon id="Reuthe_2_" fill="#123456" stroke="#000000" stroke-width="0.2493" stroke-linecap="round" stroke-linejoin="round" stroke-miterlimit="10" points="
			252.735,1003.837 250.25,1017.674 247.698,1017.674 238.889,1015.145 238.889,1007.621 221.254,1013.892 218.716,1001.287 
			232.613,1001.287 231.303,996.268 240.127,996.268 245.151,1007.621 		"/>
		
			<polygon id="Riefensberg_2_" fill="#123456" stroke="#000000" stroke-width="0.2493" stroke-linecap="round" stroke-linejoin="round" stroke-miterlimit="10" points="
			300.586,929.529 285.505,924.51 277.924,930.779 272.909,927.051 271.602,916.919 262.792,913.143 285.503,900.615 
			299.342,915.685 295.549,918.228 		"/>
		
			<polygon id="Schnepfau_2_" fill="#123456" stroke="#000000" stroke-width="0.2493" stroke-linecap="round" stroke-linejoin="round" stroke-miterlimit="10" points="
			250.25,1017.728 296.805,1018.954 298.048,1027.794 280.421,1030.334 280.421,1036.593 277.923,1031.574 261.547,1036.593 
			255.258,1035.351 247.698,1017.739 250.25,1017.739 		"/>
		
			<polygon id="Schoppernau_2_" fill="#123456" stroke="#000000" stroke-width="0.2493" stroke-linecap="round" stroke-linejoin="round" stroke-miterlimit="10" points="
			330.814,1039.155 337.08,1049.211 333.282,1064.29 338.317,1075.65 328.273,1078.137 327.017,1086.953 314.421,1095.771 
			295.558,1080.685 291.774,1070.632 298.054,1059.273 295.558,1055.485 300.581,1039.16 309.396,1027.802 320.698,1039.16 
			330.814,1039.16 		"/>
		
			<polygon id="Schröcken_2_" fill="#123456" stroke="#000000" stroke-width="0.2493" stroke-linecap="round" stroke-linejoin="round" stroke-miterlimit="10" points="
			352.171,1081.916 350.927,1094.514 360.986,1098.306 354.708,1107.111 345.901,1107.111 342.11,1115.944 324.487,1113.389 
			328.273,1100.861 318.215,1100.861 314.421,1095.771 327.017,1086.953 328.268,1078.137 338.312,1075.665 		"/>
		
			<polygon id="Schwarzach_2_" fill="#123456" stroke="#000000" stroke-width="0.2493" stroke-linecap="round" stroke-linejoin="round" stroke-miterlimit="10" points="
			192.335,952.198 183.508,958.517 170.909,950.937 183.508,943.378 197.356,945.915 		"/>
		
			<polygon id="Schwarzenberg_2_" fill="#123456" stroke="#000000" stroke-width="0.2493" stroke-linecap="round" stroke-linejoin="round" stroke-miterlimit="10" points="
			240.136,971.123 238.881,985.026 225.037,986.258 225.037,992.533 231.297,996.316 232.613,1001.337 218.712,1001.337 
			207.413,990.044 202.388,973.67 208.652,958.577 213.681,962.299 228.827,957.281 		"/>
		
			<polygon id="Sibratsgfäll_2_" fill="#123456" stroke="#000000" stroke-width="0.2493" stroke-linecap="round" stroke-linejoin="round" stroke-miterlimit="10" points="
			349.685,969.82 345.901,978.633 332.051,983.666 339.632,991.247 344.655,1020.228 325.778,1005.085 327.03,987.448 
			315.669,988.7 308.162,968.583 301.827,964.794 305.619,959.758 324.489,955.997 329.523,961.01 335.853,959.758 337.097,967.335 
					"/>
		
			<polygon id="Sulzberg_2_" fill="#123456" stroke="#000000" stroke-width="0.2493" stroke-linecap="round" stroke-linejoin="round" stroke-miterlimit="10" points="
			285.446,900.61 262.792,913.148 261.547,914.432 236.344,905.615 241.428,894.253 245.155,880.411 257.762,885.451 
			265.325,894.253 272.891,890.485 285.446,891.78 287.968,882.964 		"/>
		
			<polygon id="Warth_2_" fill="#123456" stroke="#000000" stroke-width="0.2493" stroke-linecap="round" stroke-linejoin="round" stroke-miterlimit="10" points="
			378.611,1079.426 381.143,1085.707 379.905,1090.726 402.571,1099.554 389.968,1110.898 387.42,1105.886 360.986,1098.306 
			350.927,1094.514 352.171,1081.937 357.271,1083.213 358.486,1074.401 366.06,1080.685 		"/>
		
			<polygon id="Wolfurt_2_" fill="#123456" stroke="#000000" stroke-width="0.2493" stroke-linecap="round" stroke-linejoin="round" stroke-miterlimit="10" points="
			198.594,927.038 198.594,932.08 180.98,937.106 183.514,943.372 170.909,950.937 159.563,947.149 174.701,935.852 
			173.407,922.005 188.536,930.76 		"/>
	</g>
	<g id="Dornbirn_1_">
		
			<polygon id="Dornbirn" fill="#123456" stroke="#000000" stroke-width="0.2493" stroke-linecap="round" stroke-linejoin="round" stroke-miterlimit="10" points="
			170.915,950.991 183.521,958.577 192.344,952.234 203.633,951.002 208.669,958.577 202.401,973.665 207.417,990.055 
			218.724,1001.352 221.261,1013.952 204.887,1024 211.207,1032.818 207.426,1034.116 211.207,1040.399 206.186,1047.965 
			220.036,1055.491 221.276,1063.066 212.463,1068.083 194.839,1063.066 187.262,1051.699 174.722,1050.453 164.602,1035.351 
			162.124,1022.768 164.602,1015.201 181.003,1011.422 182.243,1002.66 150.76,987.52 153.312,947.227 159.583,947.227 		"/>
		
			<polygon id="Hohenems" fill="#123456" stroke="#000000" stroke-width="0.2493" stroke-linecap="round" stroke-linejoin="round" stroke-miterlimit="10" points="
			162.111,1022.757 157.074,1027.781 149.509,1021.505 136.912,1022.757 134.419,1010.147 126.846,1005.131 136.903,997.554 
			139.442,988.735 150.739,987.502 182.214,1002.638 180.974,1011.388 164.581,1015.182 		"/>
		
			<polygon id="Lustenau" fill="#123456" stroke="#000000" stroke-width="0.2493" stroke-linecap="round" stroke-linejoin="round" stroke-miterlimit="10" points="
			153.282,947.157 150.742,987.448 139.442,988.689 129.383,978.633 126.851,957.217 134.423,944.688 145.725,937.116 		"/>
	</g>
	<g id="Feldkirch_1_">
		
			<polygon id="Altach_2_" fill="#123456" stroke="#000000" stroke-width="0.2493" stroke-linecap="round" stroke-linejoin="round" stroke-miterlimit="10" points="
			136.912,1022.757 131.872,1016.479 116.79,1017.728 119.28,1012.686 111.757,1007.665 126.846,1005.131 134.419,1010.147 		"/>
		
			<polygon id="Düns_2_" fill="#123456" stroke="#000000" stroke-width="0.2493" stroke-linecap="round" stroke-linejoin="round" stroke-miterlimit="10" points="
			162.111,1110.898 150.742,1114.691 141.928,1108.355 150.742,1099.545 150.742,1104.569 		"/>
		
			<polygon id="Dünserberg_2_" fill="#123456" stroke="#000000" stroke-width="0.2493" stroke-linecap="round" stroke-linejoin="round" stroke-miterlimit="10" points="
			169.677,1099.545 169.677,1112.13 162.111,1110.898 150.746,1104.582 150.746,1098.306 155.784,1095.771 159.563,1098.306 
			167.143,1094.514 		"/>
		
			<polygon id="Feldkirch_3_" fill="#123456" stroke="#000000" stroke-width="0.2493" stroke-linecap="round" stroke-linejoin="round" stroke-miterlimit="10" points="
			89.038,1063.053 111.704,1075.638 111.704,1086.941 99.158,1102.075 92.824,1102.075 95.38,1112.113 89.038,1119.711 
			73.964,1105.868 81.545,1093.263 65.15,1071.852 77.752,1052.985 82.769,1060.548 81.537,1056.767 89.051,1055.461 
			89.051,1063.053 		"/>
		
			<polygon id="Frastanz_2_" fill="#123456" stroke="#000000" stroke-width="0.2493" stroke-linecap="round" stroke-linejoin="round" stroke-miterlimit="10" points="
			116.79,1105.876 125.609,1113.389 115.487,1115.938 120.525,1123.51 123.059,1118.484 126.856,1129.773 119.28,1129.773 
			120.525,1123.51 116.79,1117.176 105.432,1158.758 97.861,1161.24 94.131,1149.953 77.76,1144.863 89.056,1119.723 
			95.386,1112.146 92.83,1102.075 99.164,1102.075 		"/>
		
			<polygon id="Fraxern_2_" fill="#123456" stroke="#000000" stroke-width="0.2493" stroke-linecap="round" stroke-linejoin="round" stroke-miterlimit="10" points="
			164.586,1035.351 135.663,1047.954 131.882,1041.636 135.663,1034.109 157.078,1027.788 162.111,1022.762 		"/>
		
			<polygon id="Göfis_2_" fill="#123456" stroke="#000000" stroke-width="0.2493" stroke-linecap="round" stroke-linejoin="round" stroke-miterlimit="10" points="
			126.851,1097.054 116.796,1105.882 99.164,1102.088 111.76,1086.946 119.285,1083.213 120.533,1088.24 125.615,1085.716 		"/>
		
			<polygon id="Götzis_2_" fill="#123456" stroke="#000000" stroke-width="0.2493" stroke-linecap="round" stroke-linejoin="round" stroke-miterlimit="10" points="
			136.912,1022.757 149.509,1021.519 157.078,1027.781 135.663,1034.116 128.094,1039.144 119.285,1036.604 110.466,1018.968 
			116.796,1017.73 131.882,1016.487 		"/>
		
			<polygon id="Klaus_2_" fill="#123456" stroke="#000000" stroke-width="0.2493" stroke-linecap="round" stroke-linejoin="round" stroke-miterlimit="10" points="
			131.872,1041.636 124.302,1050.455 110.457,1049.217 110.457,1044.188 119.28,1036.604 128.082,1039.16 135.656,1034.121 		"/>
		
			<polygon id="Koblach_2_" fill="#123456" stroke="#000000" stroke-width="0.2493" stroke-linecap="round" stroke-linejoin="round" stroke-miterlimit="10" points="
			119.28,1036.604 110.457,1044.185 106.665,1047.965 99.151,1046.671 95.37,1039.144 99.151,1025.311 110.457,1018.954 		"/>
		
			<polygon id="Laterns_2_" fill="#123456" stroke="#000000" stroke-width="0.2493" stroke-linecap="round" stroke-linejoin="round" stroke-miterlimit="10" points="
			212.449,1068.069 208.657,1071.857 220.011,1080.669 209.951,1090.726 203.629,1084.458 194.816,1083.205 187.236,1086.953 
			196.049,1095.771 187.236,1098.314 174.692,1100.848 169.672,1099.548 167.127,1094.519 159.545,1098.314 155.772,1095.771 
			155.772,1090.74 141.914,1083.219 141.914,1079.426 150.739,1073.104 175.936,1069.335 187.236,1051.699 194.816,1063.053 		"/>
		
			<polygon id="Mäder_2_" fill="#123456" stroke="#000000" stroke-width="0.2493" stroke-linecap="round" stroke-linejoin="round" stroke-miterlimit="10" points="
			116.79,1017.728 110.457,1018.954 99.151,1025.311 111.754,1007.665 119.271,1012.7 		"/>
		
			<polygon id="Meiningen_2_" fill="#123456" stroke="#000000" stroke-width="0.2493" stroke-linecap="round" stroke-linejoin="round" stroke-miterlimit="10" points="
			99.158,1046.671 89.038,1063.053 89.038,1055.472 81.537,1056.767 82.763,1060.563 77.752,1053 95.38,1039.148 		"/>
		
			<polygon id="Rankweil_2_" fill="#123456" stroke="#000000" stroke-width="0.2493" stroke-linecap="round" stroke-linejoin="round" stroke-miterlimit="10" points="
			106.684,1047.965 110.466,1054.233 124.316,1066.828 141.945,1079.426 141.945,1083.213 133.121,1078.126 129.331,1094.514 
			126.851,1097.069 125.602,1085.707 120.519,1088.235 119.276,1083.205 111.757,1086.941 111.757,1075.65 89.038,1063.066 
			99.151,1046.654 		"/>
		
			<polygon id="Röns_2_" fill="#123456" stroke="#000000" stroke-width="0.2493" stroke-linecap="round" stroke-linejoin="round" stroke-miterlimit="10" points="
			150.742,1114.691 150.742,1115.923 138.145,1113.381 141.945,1108.355 		"/>
		
			<polygon id="Röthis_2_" fill="#123456" stroke="#000000" stroke-width="0.2493" stroke-linecap="round" stroke-linejoin="round" stroke-miterlimit="10" points="
			110.466,1049.211 121.821,1055.467 133.121,1051.699 143.24,1054.229 133.121,1059.26 126.851,1060.548 111.76,1051.688 
			110.466,1054.229 106.678,1047.954 110.466,1044.178 		"/>
		
			<polygon id="Satteins_2_" fill="#123456" stroke="#000000" stroke-width="0.2493" stroke-linecap="round" stroke-linejoin="round" stroke-miterlimit="10" points="
			150.742,1098.306 150.742,1099.545 141.928,1108.355 138.14,1113.389 130.628,1120.966 125.598,1113.389 116.784,1105.876 
			126.846,1097.054 129.378,1094.514 144.464,1090.726 		"/>
		
			<polygon id="Schlins_2_" fill="#123456" stroke="#000000" stroke-width="0.2493" stroke-linecap="round" stroke-linejoin="round" stroke-miterlimit="10" points="
			150.742,1115.938 158.319,1122.202 149.499,1129.773 130.635,1120.961 138.14,1113.381 		"/>
		
			<polygon id="Schnifis_2_" fill="#123456" stroke="#000000" stroke-width="0.2493" stroke-linecap="round" stroke-linejoin="round" stroke-miterlimit="10" points="
			174.701,1100.843 172.165,1117.176 168.381,1120.966 158.323,1122.202 150.746,1115.923 150.746,1114.691 162.111,1110.898 
			169.683,1112.13 169.683,1099.545 		"/>
		
			<polygon id="Sulz_2_" fill="#123456" stroke="#000000" stroke-width="0.2493" stroke-linecap="round" stroke-linejoin="round" stroke-miterlimit="10" points="
			133.116,1059.26 124.302,1066.828 110.457,1054.233 111.757,1051.688 126.846,1060.566 		"/>
		
			<polygon id="Übersaxen_2_" fill="#123456" stroke="#000000" stroke-width="0.2493" stroke-linecap="round" stroke-linejoin="round" stroke-miterlimit="10" points="
			141.928,1083.213 155.778,1090.726 155.778,1095.771 150.742,1098.306 144.478,1090.726 129.383,1094.519 133.116,1078.137 		"/>
		
			<polygon id="Viktorsberg_2_" fill="#123456" stroke="#000000" stroke-width="0.2493" stroke-linecap="round" stroke-linejoin="round" stroke-miterlimit="10" points="
			187.243,1051.688 169.677,1060.556 159.563,1051.688 143.23,1054.233 133.116,1051.688 135.656,1047.965 164.581,1035.351 
			174.692,1050.446 		"/>
		
			<polygon id="Weiler_2_" fill="#123456" stroke="#000000" stroke-width="0.2493" stroke-linecap="round" stroke-linejoin="round" stroke-miterlimit="10" points="
			135.656,1047.965 133.116,1051.688 121.814,1055.472 110.457,1049.217 124.302,1050.446 131.872,1041.625 		"/>
		
			<polygon id="Zwischenwasser_2_" fill="#123456" stroke="#000000" stroke-width="0.2493" stroke-linecap="round" stroke-linejoin="round" stroke-miterlimit="10" points="
			141.928,1079.426 124.302,1066.817 133.116,1059.247 143.23,1054.223 159.563,1051.688 169.677,1060.556 187.243,1051.688 
			175.94,1069.311 150.742,1073.092 		"/>
	</g>
</g>
<g id="Rahmen">
	<g>
		<path fill="#CCCCCC" d="M480,768v640H0V768H480 M479,769H1v638h478V769L479,769z"/>
	</g>
</g>
<g id="Beschreibungen">
	<text id="Titel2" transform="matrix(1.0854 0 0 1 21.7566 833.2354)" font-family="'MyriadPro-Regular'" font-size="22.5385">%titel2%</text>
	<text id="Titel1" transform="matrix(0.7335 0 0 1 18.4749 806.4268)" font-family="'ArialMT'" font-size="38.9055">%titel1%</text>
</g>
<text transform="matrix(1 0 0 1 376.3538 1348.7881)" font-family="'MyriadPro-Regular'" font-size="7.6931">Visualisierung erstellt mit</text>
<text transform="matrix(1 0 0 1 396.1858 1358.0195)" font-family="'MyriadPro-Regular'" font-size="7.6931">DataMaps.eu</text>
<text transform="matrix(1 0 0 1 382.7659 1367.251)" font-family="'MyriadPro-Regular'" font-size="7.6931">provided by open3.at</text>
<g id="open3-logo">
	<path fill="#007CC1" d="M424.651,1383.391c0-1.64-0.781-2.574-1.753-3.089c0.896-0.477,1.562-1.315,1.562-2.781
		c0-2.285-1.736-3.888-4.135-3.888c-2.287,0-4.1,1.45-4.151,3.871h2.475c0.058-1.027,0.742-1.639,1.677-1.639
		c0.893,0,1.654,0.591,1.654,1.734c0,0.952-0.514,1.695-1.714,1.695h-0.36v2.152h0.361c1.219,0,1.905,0.743,1.905,1.868
		c0,1.221-0.762,1.885-1.831,1.885c-0.971,0-1.808-0.549-1.848-1.771h-2.473c0.038,2.843,2.113,4,4.323,4
		C422.669,1387.429,424.651,1386.094,424.651,1383.391z"/>
	<path fill="#9C9D9F" d="M380.413,1380.778c0,3.144-1.254,5.224-3.275,5.224c-1.948,0-3.388-2.078-3.388-5.597
		c0-3.067,1.16-5.147,3.275-5.147C379.084,1375.257,380.413,1377.354,380.413,1380.778z M382.847,1380.63
		c0-4.214-2.415-6.817-5.782-6.817c-3.37,0-5.764,2.603-5.764,6.817c0,4.49,2.563,6.962,5.762,6.962
		C380.264,1387.592,382.847,1385.122,382.847,1380.63z"/>
	<path fill="#9C9D9F" d="M390.995,1382.313c0,2.358-0.991,3.946-2.564,3.946c-0.73,0-1.161-0.224-1.461-0.465v-6.214
		c0-0.675,0.465-1.03,1.403-1.03C389.667,1378.552,390.995,1379.749,390.995,1382.313z M393.166,1382.201
		c0-2.621-1.27-4.829-4.731-4.829c-1.181,0-2.378,0.301-2.886,0.637c-0.523,0.356-0.707,0.692-0.707,1.367v10.839
		c0,0.225,0.111,0.32,0.336,0.32h1.476c0.225,0,0.319-0.096,0.319-0.32v-3.182c0.241,0.167,0.9,0.503,1.833,0.503
		C391.744,1387.535,393.166,1384.804,393.166,1382.201z"/>
	<path fill="#9C9D9F" d="M400.819,1380.815l-4.063,0.692c0.079-1.46,0.713-2.956,2.213-2.956
		C400.295,1378.552,400.763,1379.656,400.819,1380.815z M402.914,1384.392c0-0.243-0.187-0.468-0.428-0.468
		c-0.225,0-0.393,0.168-0.484,0.336c-0.394,0.693-1.179,1.592-2.377,1.592c-1.798,0-2.661-1.517-2.772-3.276l5.447-0.897
		c0.392-0.057,0.563-0.189,0.563-0.596c0-1.893-1.329-3.707-3.669-3.707c-2.23,0-4.286,1.555-4.286,5.035
		c0,3.668,2.021,5.149,4.286,5.149C401.585,1387.555,402.914,1385.514,402.914,1384.392z"/>
	<path fill="#9C9D9F" d="M412.887,1386.992v-6.739c0-2.246-2.022-2.881-4.004-2.881c-1.387,0-2.526,0.26-3.145,0.562
		c-0.562,0.281-0.748,0.543-0.748,1.158v7.899c0,0.223,0.111,0.316,0.336,0.316h1.479c0.225,0,0.337-0.094,0.337-0.316v-7.226
		c0-0.596,0.146-1.234,1.665-1.234c1.495,0,1.943,0.898,1.943,1.814v6.645c0,0.225,0.096,0.317,0.319,0.317h1.496
		C412.792,1387.311,412.887,1387.218,412.887,1386.992z"/>
	<path fill="#007CC1" d="M427.964,1386.467c0-1.332-1.878-1.078-1.878-1.946c0-0.371,0.245-0.597,0.63-0.597
		c0.379,0,0.54,0.26,0.63,0.465c0.051,0.105,0.134,0.195,0.26,0.195c0.154,0,0.268-0.084,0.268-0.258
		c0-0.236-0.348-0.743-1.141-0.743c-0.7,0-1.206,0.371-1.206,1.009c0,1.211,1.855,0.96,1.855,1.939c0,0.336-0.224,0.611-0.656,0.611
		c-0.408,0-0.635-0.338-0.726-0.575c-0.039-0.119-0.124-0.208-0.28-0.208c-0.168,0-0.28,0.1-0.28,0.278
		c0,0.295,0.458,0.883,1.264,0.883C427.516,1387.519,427.964,1387.069,427.964,1386.467z"/>
	<path fill="#007CC1" d="M431.507,1385.579c0,0.914-0.386,1.545-1.044,1.545c-0.631,0-1.093-0.631-1.093-1.664
		c0-0.89,0.379-1.517,1.058-1.517C431.086,1383.947,431.507,1384.578,431.507,1385.579z M432.123,1385.528
		c0-1.197-0.688-1.945-1.683-1.945c-0.992,0-1.688,0.749-1.688,1.945c0,1.284,0.742,1.99,1.688,1.99
		C431.388,1387.519,432.123,1386.811,432.123,1385.528z"/>
	<path fill="#007CC1" d="M435.888,1386.802c0-0.093-0.048-0.145-0.13-0.145c-0.052,0-0.091,0.026-0.142,0.069
		c-0.156,0.154-0.415,0.363-0.867,0.363c-0.715,0-1.19-0.701-1.19-1.675c0-0.945,0.428-1.482,1.037-1.482
		c0.511,0,0.687,0.321,0.77,0.498c0.049,0.096,0.126,0.196,0.26,0.196c0.154,0,0.262-0.093,0.262-0.259
		c0-0.253-0.404-0.785-1.26-0.785c-1.068,0-1.677,0.889-1.677,1.934c0,1.088,0.561,2.003,1.719,2.003
		C435.406,1387.519,435.888,1387.021,435.888,1386.802z"/>
	<path fill="#007CC1" d="M437.374,1387.357v-3.613c0-0.056-0.031-0.081-0.085-0.081h-0.422c-0.056,0-0.083,0.027-0.083,0.081v3.613
		c0,0.057,0.03,0.086,0.083,0.086h0.422C437.345,1387.441,437.374,1387.413,437.374,1387.357z"/>
	<path fill="#007CC1" d="M440.622,1387.357v-0.216c0-0.057-0.026-0.082-0.085-0.082h-1.404v-1.395h1.198
		c0.057,0,0.085-0.029,0.085-0.082v-0.205c0-0.056-0.027-0.084-0.085-0.084h-1.198v-1.246h1.404c0.056,0,0.085-0.028,0.085-0.084
		v-0.218c0-0.057-0.026-0.081-0.085-0.081h-1.911c-0.057,0-0.083,0.027-0.083,0.081v3.613c0,0.056,0.028,0.085,0.083,0.085h1.911
		C440.593,1387.441,440.622,1387.413,440.622,1387.357z"/>
	<path fill="#007CC1" d="M443.757,1383.961v-0.217c0-0.056-0.034-0.081-0.092-0.081h-2.416c-0.056,0-0.091,0.027-0.091,0.081v0.217
		c0,0.057,0.035,0.084,0.091,0.084h0.917v3.305c0,0.063,0.028,0.093,0.091,0.093h0.406c0.063,0,0.093-0.028,0.093-0.093v-3.305h0.91
		C443.723,1384.046,443.757,1384.017,443.757,1383.961z"/>
	<path fill="#007CC1" d="M446.971,1383.744c0-0.056-0.036-0.081-0.091-0.081h-0.316c-0.063,0-0.092,0.021-0.127,0.076l-0.84,1.501
		h-0.015l-0.819-1.501c-0.034-0.056-0.063-0.076-0.128-0.076h-0.427c-0.057,0-0.086,0.027-0.086,0.081
		c0,0.021,0.012,0.054,0.021,0.079l1.106,1.863v1.673c0,0.057,0.03,0.086,0.084,0.086h0.421c0.057,0,0.085-0.03,0.085-0.086v-1.673
		l1.104-1.863C446.963,1383.8,446.971,1383.765,446.971,1383.744z"/>
	<path fill="#007CC1" d="M428.062,1380.494c0,0.974-0.427,1.576-1.386,1.576c-0.182,0-0.343-0.02-0.435-0.035v-3.08
		c0.07-0.016,0.246-0.026,0.435-0.026C427.6,1378.925,428.062,1379.521,428.062,1380.494z M428.672,1380.5
		c0-1.161-0.638-1.925-2.03-1.925c-0.438,0-0.813,0.051-0.904,0.079c-0.073,0.021-0.083,0.057-0.083,0.12v3.473
		c0,0.06,0.011,0.099,0.083,0.118c0.098,0.029,0.539,0.078,0.904,0.078C428.034,1382.44,428.672,1381.72,428.672,1380.5z"/>
	<path fill="#007CC1" d="M431.5,1380.858h-1.205l0.42-1.184c0.113-0.316,0.173-0.688,0.173-0.688h0.017c0,0,0.069,0.371,0.182,0.688
		L431.5,1380.858z M432.614,1382.321c0-0.021-0.017-0.063-0.021-0.084l-1.357-3.535c-0.021-0.057-0.043-0.086-0.103-0.086h-0.388
		c-0.07,0-0.093,0.028-0.111,0.086l-1.354,3.535c-0.012,0.027-0.02,0.061-0.02,0.084c0,0.049,0.029,0.077,0.084,0.077h0.329
		c0.058,0,0.091-0.028,0.112-0.081l0.395-1.12h1.43l0.391,1.12c0.021,0.056,0.054,0.081,0.105,0.081h0.419
		C432.584,1382.398,432.614,1382.37,432.614,1382.321z"/>
	<path fill="#007CC1" d="M435.37,1378.919v-0.216c0-0.057-0.033-0.084-0.091-0.084h-2.414c-0.057,0-0.094,0.027-0.094,0.084v0.216
		c0,0.057,0.034,0.083,0.094,0.083h0.915v3.304c0,0.063,0.027,0.092,0.093,0.092h0.406c0.062,0,0.091-0.027,0.091-0.092v-3.304
		h0.911C435.336,1379.002,435.37,1378.975,435.37,1378.919z"/>
	<path fill="#007CC1" d="M437.772,1380.858h-1.204l0.417-1.184c0.112-0.316,0.176-0.688,0.176-0.688h0.016
		c0,0,0.068,0.371,0.181,0.688L437.772,1380.858z M438.884,1382.321c0-0.021-0.016-0.063-0.021-0.084l-1.359-3.535
		c-0.02-0.057-0.039-0.086-0.102-0.086h-0.386c-0.073,0-0.092,0.028-0.112,0.086l-1.354,3.535c-0.011,0.027-0.021,0.061-0.021,0.084
		c0,0.049,0.03,0.077,0.085,0.077h0.328c0.063,0,0.092-0.028,0.112-0.081l0.398-1.12h1.428l0.392,1.12
		c0.021,0.056,0.049,0.081,0.103,0.081h0.42C438.857,1382.398,438.884,1382.37,438.884,1382.321z"/>
	<path fill="#007CC1" d="M428.616,1376.874v-1.417c0-0.056-0.043-0.081-0.1-0.081h-1.154c-0.057,0-0.085,0.029-0.085,0.081v0.193
		c0,0.057,0.028,0.091,0.085,0.091h0.699v0.924c0,0.225-0.336,0.378-0.791,0.378c-0.658,0-1.157-0.679-1.157-1.68
		c0-0.911,0.406-1.513,1.121-1.513c0.553,0,0.758,0.326,0.843,0.498c0.049,0.104,0.119,0.19,0.258,0.19
		c0.168,0,0.26-0.099,0.26-0.259c0-0.233-0.353-0.776-1.313-0.776c-1.09,0-1.786,0.791-1.786,1.946c0,1.246,0.741,1.989,1.801,1.989
		C428.049,1377.432,428.616,1377.147,428.616,1376.874z"/>
	<path fill="#007CC1" d="M432.325,1375.494c0,0.917-0.385,1.547-1.045,1.547c-0.631,0-1.09-0.63-1.09-1.667
		c0-0.89,0.378-1.515,1.058-1.515C431.905,1373.862,432.325,1374.493,432.325,1375.494z M432.941,1375.444
		c0-1.197-0.687-1.946-1.683-1.946c-0.991,0-1.687,0.752-1.687,1.946c0,1.282,0.741,1.989,1.687,1.989
		C432.206,1377.432,432.941,1376.727,432.941,1375.444z"/>
	<path fill="#007CC1" d="M436.68,1373.659c0-0.057-0.035-0.081-0.091-0.081h-0.357c-0.063,0-0.092,0.028-0.112,0.081l-0.886,2.55
		c-0.076,0.231-0.13,0.509-0.13,0.509h-0.017c0,0-0.042-0.279-0.118-0.509l-0.868-2.55c-0.021-0.057-0.057-0.081-0.112-0.081h-0.449
		c-0.057,0-0.083,0.028-0.083,0.081c0,0.021,0.011,0.057,0.019,0.084l1.324,3.529c0.02,0.057,0.049,0.084,0.112,0.084h0.294
		c0.067,0,0.1-0.026,0.123-0.084l1.329-3.529C436.673,1373.715,436.68,1373.681,436.68,1373.659z"/>
	<path fill="#007CC1" d="M439.499,1377.272v-0.214c0-0.056-0.027-0.084-0.081-0.084h-1.407v-1.395h1.197
		c0.057,0,0.084-0.028,0.084-0.083v-0.204c0-0.057-0.026-0.084-0.084-0.084h-1.197v-1.247h1.407c0.057,0,0.081-0.03,0.081-0.084
		v-0.217c0-0.056-0.027-0.08-0.081-0.08h-1.915c-0.056,0-0.081,0.028-0.081,0.08v3.613c0,0.057,0.027,0.084,0.081,0.084h1.915
		C439.472,1377.357,439.499,1377.329,439.499,1377.272z"/>
	<path fill="#007CC1" d="M442.272,1374.654c0,0.46-0.336,0.77-0.967,0.77c-0.143,0-0.254,0-0.316-0.008v-1.526
		c0.093-0.015,0.225-0.035,0.448-0.035C442.02,1373.855,442.272,1374.136,442.272,1374.654z M443.014,1377.272
		c0-0.019-0.017-0.049-0.03-0.077l-0.617-1.128c-0.111-0.213-0.301-0.399-0.431-0.463v-0.014c0.447-0.103,0.914-0.428,0.914-0.978
		c0-0.643-0.397-1.078-1.406-1.078c-0.455,0-0.834,0.049-0.938,0.076c-0.07,0.02-0.084,0.049-0.084,0.112v3.55
		c0,0.057,0.031,0.086,0.084,0.086h0.399c0.056,0,0.084-0.028,0.084-0.086v-1.574h0.252c0.251,0,0.428,0.224,0.525,0.42l0.588,1.171
		c0.02,0.041,0.073,0.069,0.144,0.069h0.432C442.987,1377.357,443.014,1377.329,443.014,1377.272z"/>
	<path fill="#007CC1" d="M446.961,1377.272v-3.613c0-0.056-0.028-0.081-0.081-0.081h-0.306c-0.056,0-0.081,0.028-0.081,0.081v2.29
		c0,0.315,0.039,0.687,0.039,0.687h-0.019c0,0-0.164-0.347-0.346-0.61l-1.617-2.369c-0.033-0.057-0.063-0.08-0.123-0.08h-0.461
		c-0.056,0-0.08,0.026-0.08,0.08v3.613c0,0.057,0.028,0.084,0.08,0.084h0.31c0.056,0,0.085-0.027,0.085-0.084v-2.472
		c0-0.281-0.035-0.652-0.035-0.652h0.014c0,0,0.163,0.344,0.326,0.596l1.723,2.527c0.035,0.057,0.057,0.083,0.128,0.083h0.355
		C446.933,1377.357,446.961,1377.329,446.961,1377.272z"/>
	<path fill="#007CC1" d="M452.099,1377.287c0-0.022-0.363-3.628-0.363-3.628c-0.007-0.056-0.028-0.081-0.084-0.081h-0.455
		c-0.057,0-0.086,0.034-0.105,0.081l-0.917,2.437c-0.091,0.245-0.146,0.546-0.146,0.546h-0.015c0,0-0.062-0.301-0.154-0.546
		l-0.911-2.437c-0.02-0.05-0.05-0.081-0.105-0.081h-0.46c-0.057,0-0.079,0.028-0.084,0.081c0,0-0.364,3.605-0.364,3.628
		c0,0.048,0.033,0.068,0.083,0.068h0.345c0.057,0,0.078-0.027,0.084-0.085l0.193-2.451c0.022-0.302,0.022-0.721,0.022-0.721h0.014
		c0,0,0.099,0.419,0.211,0.721l0.91,2.461c0.021,0.056,0.041,0.078,0.102,0.078h0.174c0.063,0,0.086-0.021,0.105-0.078l0.91-2.461
		c0.112-0.308,0.212-0.721,0.212-0.721h0.013c0,0,0,0.419,0.02,0.721l0.197,2.451c0.008,0.057,0.026,0.085,0.085,0.085h0.406
		C452.079,1377.357,452.099,1377.335,452.099,1377.287z"/>
	<path fill="#007CC1" d="M455.153,1377.272v-0.214c0-0.056-0.028-0.084-0.085-0.084h-1.403v-1.395h1.196
		c0.057,0,0.085-0.028,0.085-0.083v-0.204c0-0.057-0.026-0.084-0.085-0.084h-1.196v-1.247h1.403c0.056,0,0.085-0.03,0.085-0.084
		v-0.217c0-0.056-0.028-0.08-0.085-0.08h-1.913c-0.056,0-0.084,0.028-0.084,0.08v3.613c0,0.057,0.03,0.084,0.084,0.084h1.913
		C455.124,1377.357,455.153,1377.329,455.153,1377.272z"/>
	<path fill="#007CC1" d="M459.136,1377.272v-3.613c0-0.056-0.028-0.081-0.081-0.081h-0.305c-0.057,0-0.08,0.028-0.08,0.081v2.29
		c0,0.315,0.039,0.687,0.039,0.687h-0.021c0,0-0.162-0.347-0.344-0.61l-1.618-2.369c-0.034-0.057-0.063-0.08-0.124-0.08h-0.458
		c-0.057,0-0.081,0.026-0.081,0.08v3.613c0,0.057,0.026,0.084,0.081,0.084h0.309c0.057,0,0.084-0.027,0.084-0.084v-2.472
		c0-0.281-0.036-0.652-0.036-0.652h0.016c0,0,0.161,0.344,0.33,0.596l1.719,2.527c0.036,0.057,0.056,0.083,0.127,0.083h0.357
		C459.108,1377.357,459.136,1377.329,459.136,1377.272z"/>
	<path fill="#007CC1" d="M462.495,1373.877v-0.218c0-0.057-0.035-0.081-0.093-0.081h-2.416c-0.056,0-0.091,0.028-0.091,0.081v0.218
		c0,0.056,0.035,0.083,0.091,0.083h0.918v3.305c0,0.063,0.031,0.093,0.09,0.093h0.406c0.063,0,0.093-0.027,0.093-0.093v-3.305h0.91
		C462.46,1373.96,462.495,1373.933,462.495,1373.877z"/>
</g>
<g id="Skala">
	<rect id="rect4459" x="21.124" y="1247.251" fill="#111101" width="11.078" height="10.545"/>
	<text transform="matrix(1.0506 0 0 1 37.804 1256.4053)" font-family="'ArialMT'" font-size="11.5038">%legende1%</text>
	<rect id="rect4459-1" x="21.124" y="1261.78" fill="#111102" width="11.078" height="10.548"/>
	<text transform="matrix(1.0506 0 0 1 37.804 1270.9355)" font-family="'ArialMT'" font-size="11.5038">%legende2%</text>
	<rect id="rect4459-2" x="21.124" y="1276.31" fill="#111103" width="11.078" height="10.547"/>
	<text transform="matrix(1.0506 0 0 1 37.804 1285.4648)" font-family="'ArialMT'" font-size="11.5038">%legende3%</text>
	<rect id="rect4459-6" x="21.124" y="1290.842" fill="#111104" width="11.078" height="10.545"/>
	<text transform="matrix(1.0506 0 0 1 37.804 1299.9961)" font-family="'ArialMT'" font-size="11.5038">%legende4%</text>
	<rect id="rect4459-29" x="21.124" y="1305.369" fill="#111105" width="11.078" height="10.548"/>
	<text transform="matrix(1.0506 0 0 1 37.804 1314.5254)" font-family="'ArialMT'" font-size="11.5038">%legende5%</text>
	<rect id="rect4459-3" x="21.124" y="1319.899" fill="#111106" width="11.078" height="10.548"/>
	<text transform="matrix(1.0506 0 0 1 37.804 1329.0557)" font-family="'ArialMT'" font-size="11.5038">%legende6%</text>
	<rect id="rect4459-8" x="21.124" y="1334.431" fill="#111107" width="11.078" height="10.546"/>
	<text transform="matrix(1.0506 0 0 1 37.804 1343.5859)" font-family="'ArialMT'" font-size="11.5038">%legende7%</text>
	<rect id="rect4459-9" x="21.124" y="1348.959" fill="#111108" width="11.078" height="10.546"/>
	<text transform="matrix(1.0506 0 0 1 37.804 1358.1152)" font-family="'ArialMT'" font-size="11.5038">%legende8%</text>
	<rect id="rect4459-18" x="21.124" y="1363.488" fill="#111109" width="11.078" height="10.548"/>
	<text transform="matrix(1.0506 0 0 1 37.804 1372.6445)" font-family="'ArialMT'" font-size="11.5038">%legende9%</text>
	<rect id="rect4459-18-6" x="21.124" y="1378.019" fill="#111110" width="11.078" height="10.548"/>
	<text transform="matrix(1.0506 0 0 1 37.804 1387.1738)" font-family="'ArialMT'" font-size="11.5038">%legende10%</text>
</g>
</svg>
