<?xml version="1.0" encoding="utf-8"?>
<!-- Generator: Adobe Illustrator 13.0.2, SVG Export Plug-In . SVG Version: 6.00 Build 14948)  -->
<!DOCTYPE svg PUBLIC "-//W3C//DTD SVG 1.1//EN" "http://www.w3.org/Graphics/SVG/1.1/DTD/svg11.dtd">
<svg version="1.1" id="Kärnten_1_" xmlns="http://www.w3.org/2000/svg" xmlns:xlink="http://www.w3.org/1999/xlink" x="0px"
	 y="0px" width="600px" height="400px" viewBox="0 0 600 400" enable-background="new 0 0 600 400" xml:space="preserve">
<g id="Kärnten">
	<g id="Feldkirchen">
		
			<polygon id="Albeck" fill="#123456" stroke="#000000" stroke-width="0.1" stroke-linecap="round" stroke-linejoin="round" stroke-miterlimit="10" points="
			320.106,160.893 319.512,168.118 328.547,168.744 330.948,171.733 332.133,186.797 335.758,189.828 340.573,192.827 
			344.197,191.608 353.224,194.041 356.848,198.26 364.057,191.015 364.685,191.015 361.656,194.634 363.469,195.832 
			362.281,199.453 358.062,205.475 356.25,207.879 352.031,206.07 349.616,209.689 346,207.873 343.591,212.096 339.378,213.913 
			328.535,208.479 327.323,199.453 323.726,195.832 324.318,186.208 326.132,184.389 317.693,179.583 317.693,170.559 
			309.267,172.956 304.424,168.744 308.643,163.309 317.075,159.686 		"/>
		
			<polygon id="Feldkirchen_in_Kärnten" fill="#123456" stroke="#000000" stroke-width="0.1" stroke-linecap="round" stroke-linejoin="round" stroke-miterlimit="10" points="
			372.488,232.607 373.707,241.634 377.323,242.823 371.894,250.652 366.49,247.661 363.469,251.884 359.845,251.884 
			353.847,251.256 345.41,256.688 336.362,255.477 343.004,249.479 343.004,245.26 349,239.828 346,238.021 347.82,236.828 
			346.603,234.389 351.441,227.771 348.406,227.182 349.004,221.777 350.221,224.771 355.653,224.771 363.469,219.338 
			367.686,232.613 372.49,232.613 372.49,232.607 		"/>
		
			<polygon id="Glanegg" fill="#123456" stroke="#000000" stroke-width="0.1" stroke-linecap="round" stroke-linejoin="round" stroke-miterlimit="10" points="
			380.332,229.583 394.188,229.583 394.791,232.607 391.76,233.801 388.16,242.823 377.323,242.823 373.707,241.643 
			372.485,232.607 375.515,228.984 		"/>
		
			<polygon id="Gnesau" fill="#123456" stroke="#000000" stroke-width="0.1" stroke-linecap="round" stroke-linejoin="round" stroke-miterlimit="10" points="
			323.73,195.824 327.332,199.447 328.55,208.473 339.385,213.907 343.605,212.094 344.198,213.311 326.736,223.525 
			321.927,224.145 322.517,226.557 318.893,224.745 315.302,224.148 312.275,219.313 304.432,222.934 299.029,216.311 
			300.24,208.473 302.653,206.068 306.25,206.689 314.681,194.634 		"/>
		
			<polygon id="Himmelberg" fill="#123456" stroke="#000000" stroke-width="0.1" stroke-linecap="round" stroke-linejoin="round" stroke-miterlimit="10" points="
			349.004,221.77 348.406,227.168 351.443,227.766 346.603,234.389 339.981,236.816 340.571,239.225 345.41,240.417 
			343.602,242.814 339.981,241.034 335.756,242.814 330.948,237.411 323.729,238.01 318.888,224.766 322.51,226.577 
			321.919,224.171 326.726,223.553 344.193,213.334 350.816,217.544 		"/>
		
			<polygon id="Ossiach" fill="#123456" stroke="#000000" stroke-width="0.1" stroke-linecap="round" stroke-linejoin="round" stroke-miterlimit="10" points="
			336.359,255.477 325.513,259.688 315.894,262.098 320.109,260.309 321.922,256.094 332.133,247.656 343.007,245.255 
			343.007,249.475 		"/>
		
			<polygon id="Reichenau" fill="#123456" stroke="#000000" stroke-width="0.1" stroke-linecap="round" stroke-linejoin="round" stroke-miterlimit="10" points="
			304.432,168.744 309.272,172.961 317.709,170.559 317.709,179.583 326.139,184.396 324.332,186.208 323.73,195.832 
			314.679,194.642 306.25,206.691 302.65,206.064 300.24,208.477 299.026,216.311 292.406,215.72 296.029,210.281 296.622,198.854 
			293.599,197.042 294.814,192.827 288.189,191.01 289.384,186.201 282.753,181.981 283.971,171.144 286.973,168.739 
			288.781,168.739 296.619,171.736 299.026,169.332 		"/>
		
			<polygon id="Sankt_Urban" fill="#123456" stroke="#000000" stroke-width="0.1" stroke-linecap="round" stroke-linejoin="round" stroke-miterlimit="10" points="
			379.147,213.932 382.145,216.337 382.145,220.559 376.115,224.176 377.334,226.586 380.928,225.363 380.339,229.592 
			375.521,228.992 372.492,232.619 367.689,232.619 363.472,219.348 365.865,213.348 370.714,211.532 370.714,214.535 
			375.521,216.938 		"/>
		
			<polygon id="Steindorf_am_Ossiacher_See" fill="#123456" stroke="#000000" stroke-width="0.1" stroke-linecap="round" stroke-linejoin="round" stroke-miterlimit="10" points="
			343.004,245.255 332.132,247.656 321.922,256.094 321.922,255.477 323.73,251.876 314.076,245.249 323.73,238.01 330.948,237.416 
			335.756,242.814 339.985,241.034 343.594,242.814 345.407,240.417 340.573,239.225 339.981,236.816 346.597,234.389 
			347.82,236.816 346,238.01 349,239.823 		"/>
		
			<polygon id="Steuerberg" fill="#123456" stroke="#000000" stroke-width="0.1" stroke-linecap="round" stroke-linejoin="round" stroke-miterlimit="10" points="
			373.711,209.712 370.699,211.523 365.865,213.338 363.466,219.33 355.653,224.766 350.221,224.766 349,221.77 350.819,217.541 
			344.197,213.331 343.594,212.107 346.003,207.893 349.616,209.708 352.031,206.081 356.252,207.896 358.059,205.484 
			364.685,207.298 366.49,204.896 		"/>
	</g>
	<g id="Hermagor">
		
			<polygon id="Dellach" fill="#123456" stroke="#000000" stroke-width="0.1" stroke-linecap="round" stroke-linejoin="round" stroke-miterlimit="10" points="
			116.499,244.04 120.719,249.475 124.937,249.475 120.128,257.912 121.936,263.907 116.501,273.555 118.935,275.369 
			117.125,278.37 114.1,278.966 111.693,269.934 114.1,259.688 104.478,256.688 106.881,249.475 111.693,244.04 		"/>
		
			<polygon id="Gitschtal" fill="#123456" stroke="#000000" stroke-width="0.1" stroke-linecap="round" stroke-linejoin="round" stroke-miterlimit="10" points="
			182.155,253.668 178.551,260.907 170.126,263.913 158.665,260.311 156.261,257.286 147.826,256.695 141.205,246.443 
			145.42,246.443 150.855,240.422 156.261,240.422 164.694,247.667 170.718,245.26 174.342,250.073 		"/>
		
			<polygon id="Hermagor-Pressegger_See" fill="#123456" stroke="#000000" stroke-width="0.1" stroke-linecap="round" stroke-linejoin="round" stroke-miterlimit="10" points="
			199.045,259.098 206.884,259.688 211.105,260.912 211.105,269.938 213.516,275.96 211.697,282.579 198.453,285.609 
			196.651,292.827 193.024,292.236 193.024,288.605 184.588,285.609 184.588,289.805 178.563,289.206 172.558,294.639 
			160.51,292.232 153.281,294.639 148.448,288.609 142.454,288.02 136.425,282.587 144.863,274.749 149.073,275.369 
			156.887,266.936 156.285,257.279 158.694,260.305 170.156,263.907 178.563,260.909 182.19,253.668 186.995,254.279 
			193.02,259.682 		"/>
		
			<polygon id="Kirchbach" fill="#123456" stroke="#000000" stroke-width="0.1" stroke-linecap="round" stroke-linejoin="round" stroke-miterlimit="10" points="
			156.261,257.289 156.86,266.936 149.046,275.377 144.822,274.749 136.397,282.587 117.125,278.37 118.932,275.369 
			116.501,273.555 121.936,263.913 120.125,257.912 124.937,249.475 127.961,250.063 141.208,246.441 147.829,256.695 		"/>
		
			<polygon id="Kötschach-Mauthen" fill="#123456" stroke="#000000" stroke-width="0.1" stroke-linecap="round" stroke-linejoin="round" stroke-miterlimit="10" points="
			96.041,240.422 111.691,244.046 106.88,249.475 104.473,256.695 114.097,259.688 111.691,269.938 114.097,278.966 93.637,278.966 
			79.771,274.749 70.74,275.96 70.74,263.913 74.964,253.068 71.344,248.255 73.744,245.26 70.744,238.016 72.561,234.389 
			76.153,236.825 88.804,235.01 		"/>
		
			<polygon id="Lesachtal" fill="#123456" stroke="#000000" stroke-width="0.1" stroke-linecap="round" stroke-linejoin="round" stroke-miterlimit="10" points="
			59.31,227.177 59.905,229.583 67.737,231.395 65.929,235.016 70.737,238.016 73.738,245.255 71.337,248.261 74.957,253.07 
			70.734,263.907 70.734,275.963 58.089,275.366 58.089,268.713 51.468,267.527 43.627,262.092 38.817,262.092 32.795,266.313 
			29.171,260.912 23.761,258.511 24.36,242.823 30.979,242.823 27.976,238.611 28.579,231.391 37.606,227.762 48.443,224.766 
			52.063,224.766 52.657,227.177 		"/>
		
			<polygon id="Sankt_Stefan_im_Gailtal" fill="#123456" stroke="#000000" stroke-width="0.1" stroke-linecap="round" stroke-linejoin="round" stroke-miterlimit="10" points="
			232.182,259.098 232.777,264.533 227.97,268.127 225.566,266.936 225.566,271.157 230.373,278.372 228.565,281.999 
			226.159,286.208 215.909,290.432 208.701,293.432 196.647,292.838 198.456,285.622 211.693,282.598 213.508,275.975 
			211.105,269.951 211.105,260.923 206.878,259.706 206.878,257.302 210.478,254.891 216.505,260.324 		"/>
	</g>
	<g id="Klagenfurt_1_">
		
			<polygon id="Klagenfurt_am_Wörthersee" fill="#123456" stroke="#000000" stroke-width="0.1" stroke-linecap="round" stroke-linejoin="round" stroke-miterlimit="10" points="
			403.22,244.04 400.198,247.656 403.818,250.068 402.632,254.288 416.469,250.662 416.469,255.477 419.473,256.686 
			421.905,258.506 421.905,263.309 426.115,261.506 430.93,262.715 430.311,266.939 425.493,267.536 426.115,270.527 
			417.69,271.146 414.07,277.18 409.25,278.37 409.843,280.773 408.63,284.994 401.416,285.588 400.823,283.178 392.387,284.994 
			389.365,281.999 389.982,275.377 392.982,272.963 390.573,269.938 386.357,262.727 391.17,259.098 385.764,259.098 
			383.356,253.07 388.171,244.049 397.795,240.422 405.034,239.828 405.634,243.449 		"/>
	</g>
	<g id="Klagenfurt_Land">
		
			<polygon id="Ebenthal_in_Kärnten" fill="#123456" stroke="#000000" stroke-width="0.1" stroke-linecap="round" stroke-linejoin="round" stroke-miterlimit="10" points="
			443.573,288.011 441.769,289.203 436.948,291.607 426.115,292.236 420.087,294.632 420.689,285.609 409.843,280.77 409.25,278.37 
			414.07,277.175 417.69,271.146 426.115,270.527 425.493,267.527 430.337,266.936 431.529,273.557 437.557,275.96 444.775,286.203 
					"/>
		
			<polygon id="Feistritz_im_Rosental" fill="#123456" stroke="#000000" stroke-width="0.1" stroke-linecap="round" stroke-linejoin="round" stroke-miterlimit="10" points="
			389.979,296.45 392.386,310.889 372.49,313.916 375.521,319.941 381.547,320.529 379.147,331.371 375.519,334.374 
			370.698,333.773 362.865,319.941 360.462,319.32 362.865,300.047 370.698,301.859 384.549,297.643 385.758,295.236 		"/>
		
			<polygon id="Ferlach" fill="#123456" stroke="#000000" stroke-width="0.1" stroke-linecap="round" stroke-linejoin="round" stroke-miterlimit="10" points="
			426.115,313.908 423.691,317.502 414.068,319.941 408.625,316.314 401.409,318.131 401.409,330.779 389.979,335 385.758,331.371 
			379.144,331.371 381.547,320.529 375.519,319.941 372.516,313.916 392.386,310.889 389.982,296.45 397.795,296.45 401.419,294.02 
			406.851,296.45 420.087,294.641 426.115,292.236 419.476,306.674 423.691,311.507 426.711,310.29 		"/>
		
			<polygon id="Grafenstein" fill="#123456" stroke="#000000" stroke-width="0.1" stroke-linecap="round" stroke-linejoin="round" stroke-miterlimit="10" points="
			458.041,274.152 456.235,276.551 448.982,289.203 445.983,290.417 443.573,288.011 444.775,286.203 437.554,275.96 
			431.526,273.551 430.334,266.927 434.556,263.309 453.209,259.686 458.636,266.927 		"/>
		
			<polygon id="Keutschach_am_See" fill="#123456" stroke="#000000" stroke-width="0.1" stroke-linecap="round" stroke-linejoin="round" stroke-miterlimit="10" points="
			389.979,275.369 389.364,281.993 392.386,284.994 377.926,283.801 373.115,288.611 364.06,289.208 365.866,283.801 
			362.277,280.773 365.277,278.966 363.469,277.18 366.49,273.559 371.894,274.152 371.307,279.589 374.309,280.178 379.737,275.96 
					"/>
		
			<polygon id="Köttmannsdorf" fill="#123456" stroke="#000000" stroke-width="0.1" stroke-linecap="round" stroke-linejoin="round" stroke-miterlimit="10" points="
			401.416,285.609 395.975,294.02 397.793,296.45 389.979,296.45 385.758,295.232 374.923,293.432 373.114,288.611 377.923,283.801 
			392.383,284.994 400.818,283.178 		"/>
		
			<polygon id="Krumpendorf_am_Wörther_See" fill="#123456" stroke="#000000" stroke-width="0.1" stroke-linecap="round" stroke-linejoin="round" stroke-miterlimit="10" points="
			390.573,269.938 376.11,272.348 377.926,269.938 376.11,265.715 384.549,263.913 385.762,259.098 391.166,259.098 
			386.357,262.718 		"/>
		
			<polygon id="Ludmannsdorf" fill="#123456" stroke="#000000" stroke-width="0.1" stroke-linecap="round" stroke-linejoin="round" stroke-miterlimit="10" points="
			385.762,295.232 384.549,297.641 370.699,301.857 362.865,300.042 358.656,298.234 356.25,299.448 353.839,295.229 
			355.653,291.609 364.057,289.206 373.111,288.609 374.923,293.423 		"/>
		
			<polygon id="Magdalensberg" fill="#123456" stroke="#000000" stroke-width="0.1" stroke-linecap="round" stroke-linejoin="round" stroke-miterlimit="10" points="
			442.964,236.825 439.362,238.611 444.172,241.643 443.573,246.441 435.146,251.881 435.733,253.668 440.556,252.473 
			430.93,262.727 426.114,261.506 421.902,263.313 421.902,258.511 419.47,256.695 420.084,253.07 424.901,252.475 429.115,247.052 
			425.49,236.828 432.115,231.395 433.934,230.803 436.323,235.021 438.148,232.619 438.77,235.616 		"/>
		
			<polygon id="Maria_Rain" fill="#123456" stroke="#000000" stroke-width="0.1" stroke-linecap="round" stroke-linejoin="round" stroke-miterlimit="10" points="
			420.087,294.632 406.847,296.447 401.406,294.02 397.793,296.447 395.975,294.02 401.406,285.609 408.627,284.988 409.842,280.77 
			420.685,285.609 		"/>
		
			<polygon id="Maria_Saal" fill="#123456" stroke="#000000" stroke-width="0.1" stroke-linecap="round" stroke-linejoin="round" stroke-miterlimit="10" points="
			425.49,236.825 429.115,247.046 424.901,252.473 420.082,253.068 419.468,256.688 416.463,255.471 416.463,250.667 
			402.629,254.285 403.813,250.064 400.198,247.661 403.215,244.035 404.406,245.249 412.24,240.417 414.061,242.814 
			417.676,239.225 417.676,234.384 421.902,236.814 423.685,233.79 		"/>
		
			<polygon id="Maria_Wörth" fill="#123456" stroke="#000000" stroke-width="0.1" stroke-linecap="round" stroke-linejoin="round" stroke-miterlimit="10" points="
			376.11,272.348 390.573,269.938 392.978,272.963 389.979,275.369 379.737,275.963 374.306,280.184 371.307,279.587 
			371.894,274.152 366.49,273.563 364.057,271.751 359.24,272.348 357.442,269.342 362.865,267.536 		"/>
		
			<polygon id="Moosburg" fill="#123456" stroke="#000000" stroke-width="0.1" stroke-linecap="round" stroke-linejoin="round" stroke-miterlimit="10" points="
			388.175,242.823 388.175,244.04 383.356,253.068 385.764,259.098 384.549,263.913 376.115,265.715 374.93,262.098 
			365.865,259.098 359.849,251.881 363.472,251.881 366.49,247.656 371.894,250.662 377.334,242.823 		"/>
		
			<polygon id="Pörtschach" fill="#123456" stroke="#000000" stroke-width="0.1" stroke-linecap="round" stroke-linejoin="round" stroke-miterlimit="10" points="
			376.11,265.715 377.926,269.938 376.11,272.348 362.865,267.527 361.061,261.506 365.865,259.098 374.927,262.098 		"/>
		
			<polygon id="Poggersdorf" fill="#123456" stroke="#000000" stroke-width="0.1" stroke-linecap="round" stroke-linejoin="round" stroke-miterlimit="10" points="
			450.798,247.046 461.635,257.289 453.198,259.688 434.544,263.311 430.332,266.927 430.924,262.718 440.553,252.473 
			435.733,253.659 435.146,251.87 443.573,246.439 		"/>
		
			<polygon id="Sankt_Margareten_im_Rosental" fill="#123456" stroke="#000000" stroke-width="0.1" stroke-linecap="round" stroke-linejoin="round" stroke-miterlimit="10" points="
			440.556,304.883 438.77,313.908 426.114,313.908 426.707,310.287 423.688,311.498 419.468,306.66 426.111,292.232 
			436.948,291.604 441.763,289.2 444.765,295.824 		"/>
		
			<polygon id="Schiefling_am_Wörthersee" fill="#123456" stroke="#000000" stroke-width="0.1" stroke-linecap="round" stroke-linejoin="round" stroke-miterlimit="10" points="
			366.49,273.555 363.472,277.18 365.28,278.966 362.281,280.773 365.866,283.796 364.06,289.203 355.656,291.611 344.785,280.77 
			352.031,277.771 349.627,272.348 357.446,269.336 359.241,272.348 364.066,271.743 		"/>
		
			<polygon id="Techelsberg_am_Wörther_See" fill="#123456" stroke="#000000" stroke-width="0.1" stroke-linecap="round" stroke-linejoin="round" stroke-miterlimit="10" points="
			359.849,251.881 365.865,259.098 361.065,261.506 362.866,267.527 357.442,269.342 349.619,272.348 350.221,269.938 
			346.603,268.745 345.407,256.695 353.847,251.258 		"/>
		
			<polygon id="Zell" fill="#123456" stroke="#000000" stroke-width="0.1" stroke-linecap="round" stroke-linejoin="round" stroke-miterlimit="10" points="
			448.98,309.07 444.172,313.29 443.573,325.35 437.554,330.779 429.115,330.159 407.445,335.591 401.416,330.779 401.416,318.133 
			408.627,316.316 414.07,319.936 423.695,317.508 426.115,313.91 438.775,313.91 440.563,304.885 		"/>
	</g>
	<g id="Spital_a._d._Drau">
		
			<polygon id="Bad_Kleinkirchheim" fill="#123456" stroke="#000000" stroke-width="0.1" stroke-linecap="round" stroke-linejoin="round" stroke-miterlimit="10" points="
			286.976,168.744 283.971,171.144 282.753,181.989 289.382,186.201 288.186,191.015 294.814,192.83 293.596,197.042 
			296.619,198.856 296.027,210.286 292.405,215.727 291.192,215.727 279.752,212.1 271.919,203.072 276.138,169.935 
			283.971,167.524 		"/>
		
			<polygon id="Baldramsdorf" fill="#123456" stroke="#000000" stroke-width="0.1" stroke-linecap="round" stroke-linejoin="round" stroke-miterlimit="10" points="
			192.421,203.088 196.644,202.496 207.481,206.087 206.884,211.523 217.73,217.555 213.508,225.363 206.266,224.771 
			204.474,219.959 193.61,212.717 190.611,213.335 186.988,207.311 185.205,203.693 187.608,201.286 		"/>
		
			<polygon id="Berg_im_Drautal" fill="#123456" stroke="#000000" stroke-width="0.1" stroke-linecap="round" stroke-linejoin="round" stroke-miterlimit="10" points="
			127.994,250.068 124.958,249.475 120.751,249.475 116.526,244.04 122.559,235.607 123.151,213.334 128.583,207.896 
			135.204,208.496 138.825,224.762 132.206,226.577 133.396,230.792 129.175,232.607 131.587,233.199 134.613,241.034 
			134.021,247.035 130.395,247.035 		"/>
		
			<polygon id="Dellach_im_Drautal" fill="#123456" stroke="#000000" stroke-width="0.1" stroke-linecap="round" stroke-linejoin="round" stroke-miterlimit="10" points="
			121.933,199.469 128.554,207.896 123.151,213.331 122.528,235.605 116.496,244.043 111.691,244.043 96.041,240.417 
			96.041,236.195 99.631,230.789 108.067,231.984 107.474,227.168 111.693,218.148 106.88,210.313 106.88,203.684 113.501,204.285 
			115.323,204.285 118.935,198.88 		"/>
		
			<polygon id="Flattach" fill="#123456" stroke="#000000" stroke-width="0.1" stroke-linecap="round" stroke-linejoin="round" stroke-miterlimit="10" points="
			114.126,136.82 113.525,141.035 121.367,146.447 126.173,150.07 123.769,154.285 126.768,153.069 132.204,160.31 128.58,172.965 
			125.581,171.742 123.147,175.371 108.087,160.31 99.057,163.903 94.249,161.502 97.251,150.07 94.847,144.638 98.464,138.64 
			93.655,128.987 97.87,125.988 102.09,127.769 102.09,130.794 		"/>
		
			<polygon id="Gmünd_in_Kärnten" fill="#123456" stroke="#000000" stroke-width="0.1" stroke-linecap="round" stroke-linejoin="round" stroke-miterlimit="10" points="
			226.755,145.249 229.156,148.846 227.345,163.309 230.974,171.144 229.751,178.976 232.182,183.788 229.751,188.011 
			217.728,183.788 220.724,177.764 220.135,170.549 220.135,163.903 225.566,163.304 223.132,143.442 		"/>
		
			<polygon id="Greifenburg" fill="#123456" stroke="#000000" stroke-width="0.1" stroke-linecap="round" stroke-linejoin="round" stroke-miterlimit="10" points="
			141.208,199.469 144.822,211.523 143.612,214.523 146.646,216.337 148.429,223.55 147.231,227.177 155.044,231.395 
			151.453,235.611 150.857,240.422 145.424,246.443 141.205,246.443 127.954,250.07 130.365,247.052 133.99,247.052 
			134.581,241.021 131.583,233.21 129.154,232.619 133.364,230.803 132.178,226.586 138.801,224.771 135.176,208.506 
			128.552,207.912 121.93,199.474 123.149,195.848 134.581,195.256 136.988,198.882 		"/>
		
			<polygon id="Großkirchheim" fill="#123456" stroke="#000000" stroke-width="0.1" stroke-linecap="round" stroke-linejoin="round" stroke-miterlimit="10" points="
			93.662,128.975 98.47,138.63 94.85,144.625 87.635,147.651 78.612,162.111 61.744,159.087 56.911,155.469 46.691,161.491 
			40.663,156.086 46.691,150.065 46.067,147.655 52.686,138 58.121,142.223 62.928,138.621 68.369,142.223 71.961,141.627 
			79.201,133.788 81.61,127.165 86.422,124.167 		"/>
		
			<polygon id="Heiligenblut" fill="#123456" stroke="#000000" stroke-width="0.1" stroke-linecap="round" stroke-linejoin="round" stroke-miterlimit="10" points="
			55.093,107.302 59.31,112.111 66.528,110.923 82.176,114.515 86.392,124.167 81.584,127.168 79.176,133.793 71.939,141.632 
			68.341,142.226 62.907,138.63 58.098,142.226 52.662,138.003 46.043,147.66 46.666,150.065 40.636,156.095 37.019,154.278 
			36.42,151.251 33.392,141.632 40.046,128.975 43.641,127.165 40.636,124.766 30.99,125.982 26.774,115.737 16.557,106.084 
			20.77,103.08 18.958,98.269 27.992,98.863 34.014,95.865 36.42,106.701 43.641,106.077 46.666,109.103 		"/>
		
			<polygon id="Irschen" fill="#123456" stroke="#000000" stroke-width="0.1" stroke-linecap="round" stroke-linejoin="round" stroke-miterlimit="10" points="
			96.041,236.199 93.012,224.771 94.826,224.771 99.631,215.747 98.448,210.905 100.26,207.906 106.88,203.684 106.88,210.311 
			111.691,218.15 107.472,227.168 108.067,231.984 99.63,230.795 		"/>
		
			<polygon id="Kleblach-Lind" fill="#123456" stroke="#000000" stroke-width="0.1" stroke-linecap="round" stroke-linejoin="round" stroke-miterlimit="10" points="
			186.988,207.305 190.611,213.335 193.618,212.708 204.486,219.953 197.858,227.771 200.266,231.984 196.647,234.389 
			191.834,232.604 190.617,226.577 177.968,220.555 174.344,224.171 164.125,225.965 164.125,216.337 159.912,214.523 
			159.29,209.119 163.503,210.314 166.531,206.689 182.177,210.911 182.772,207.906 		"/>
		
			<polygon id="Krems_in_Kärnten" fill="#123456" stroke="#000000" stroke-width="0.1" stroke-linecap="round" stroke-linejoin="round" stroke-miterlimit="10" points="
			261.671,139.813 266.513,143.439 275.542,144.625 281.57,160.304 288.784,168.739 286.976,168.739 283.977,167.524 
			276.138,169.929 275.542,174.764 258.085,177.769 255.053,181.395 256.865,189.828 248.432,193.418 238.187,181.989 
			231.57,189.212 229.756,188.011 232.19,183.795 229.756,178.984 230.979,171.15 227.349,163.309 229.16,148.855 226.759,145.253 
			230.979,140.414 240.622,145.253 243.628,144.039 244.221,147.665 247.848,147.665 258.68,139.825 261.671,139.825 		"/>
		
			<polygon id="Lendorf" fill="#123456" stroke="#000000" stroke-width="0.1" stroke-linecap="round" stroke-linejoin="round" stroke-miterlimit="10" points="
			207.481,192.848 209.889,196.469 206.884,198.254 206.263,201.279 209.286,204.288 207.478,206.087 196.644,202.493 
			192.421,203.093 196.042,186.819 191.826,181.415 186.397,178.976 186.99,172.359 188.8,171.17 202.04,182.009 200.85,189.846 		
			"/>
		
			<polygon id="Lurnfeld" fill="#123456" stroke="#000000" stroke-width="0.1" stroke-linecap="round" stroke-linejoin="round" stroke-miterlimit="10" points="
			192.421,203.088 187.615,201.275 179.776,197.659 183.396,192.848 179.776,187.422 179.177,180.188 186.995,172.356 
			186.402,179.008 191.837,181.415 196.048,186.814 		"/>
		
			<polygon id="Mallnitz" fill="#123456" stroke="#000000" stroke-width="0.1" stroke-linecap="round" stroke-linejoin="round" stroke-miterlimit="10" points="
			167.721,147.676 137.616,152.499 129.794,150.099 124.364,145.871 121.367,146.459 113.525,141.063 114.126,136.84 
			115.933,132.002 126.775,132.002 130.397,129 155.697,123.568 161.103,132.002 172.561,136.22 164.728,142.247 		"/>
		
			<polygon id="Malta" fill="#123456" stroke="#000000" stroke-width="0.1" stroke-linecap="round" stroke-linejoin="round" stroke-miterlimit="10" points="
			192.421,117.536 196.644,124.165 200.863,122.348 205.669,125.349 206.884,129.571 220.727,134.997 223.134,143.436 
			225.538,163.304 220.135,163.897 220.135,170.525 209.296,168.118 194.833,156.089 182.781,159.09 180.379,156.089 
			170.153,153.685 167.727,147.66 164.727,142.226 172.561,136.197 161.103,131.976 155.697,123.568 153.89,116.332 
			156.289,110.926 162.312,108.494 168.939,111.513 180.376,107.894 186.402,109.71 186.995,113.33 		"/>
		
			<polygon id="Millstatt" fill="#123456" stroke="#000000" stroke-width="0.1" stroke-linecap="round" stroke-linejoin="round" stroke-miterlimit="10" points="
			248.429,193.449 252.648,196.465 246.028,204.282 253.244,211.52 243.025,217.549 225.569,207.896 224.35,204.9 227.352,203.684 
			227.352,195.844 234.593,194.655 231.57,189.216 238.19,182.009 		"/>
		
			<polygon id="Mörtschach" fill="#123456" stroke="#000000" stroke-width="0.1" stroke-linecap="round" stroke-linejoin="round" stroke-miterlimit="10" points="
			94.261,161.523 84.605,167.551 84.019,174.788 88.23,176.577 73.77,182.596 67.147,177.789 66.552,171.162 60.524,163.93 
			48.471,165.737 46.684,161.52 56.906,155.486 61.741,159.108 78.609,162.136 87.631,147.676 94.848,144.652 97.251,150.086 		"/>
		
			<polygon id="Mühldorf" fill="#123456" stroke="#000000" stroke-width="0.1" stroke-linecap="round" stroke-linejoin="round" stroke-miterlimit="10" points="
			188.804,171.144 186.988,172.33 179.177,180.171 179.776,187.389 183.396,192.824 179.776,197.634 174.967,195.827 
			170.149,197.634 164.722,194.623 171.935,190.414 177.372,183.788 176.15,177.167 182.775,163.895 		"/>
		
			<polygon id="Oberdrauburg" fill="#123456" stroke="#000000" stroke-width="0.1" stroke-linecap="round" stroke-linejoin="round" stroke-miterlimit="10" points="
			96.041,236.199 96.041,240.422 88.799,235.016 76.146,236.828 72.553,234.389 70.734,238.016 65.929,235.016 67.737,231.395 
			59.905,229.583 59.305,227.182 62.902,223.561 73.144,217.552 80.981,221.777 88.796,213.943 88.2,210.325 100.257,203.699 
			106.88,203.699 100.257,207.92 98.445,210.915 99.63,215.754 94.823,224.786 93.01,224.786 		"/>
		
			<polygon id="Obervellach" fill="#123456" stroke="#000000" stroke-width="0.1" stroke-linecap="round" stroke-linejoin="round" stroke-miterlimit="10" points="
			167.721,147.676 170.149,153.71 160.507,157.938 161.1,164.554 147.262,180.195 140.637,180.195 134.609,177.203 132.799,181.426 
			123.776,186.23 121.37,178.989 123.182,175.392 125.586,171.776 128.583,172.983 132.206,160.336 126.775,153.092 
			123.779,154.311 126.185,150.099 121.379,146.468 124.373,145.873 129.8,150.099 137.617,152.499 		"/>
		
			<polygon id="Radenthein" fill="#123456" stroke="#000000" stroke-width="0.1" stroke-linecap="round" stroke-linejoin="round" stroke-miterlimit="10" points="
			279.754,212.121 275.535,214.523 258.082,212.121 250.236,221.15 243.017,217.549 253.24,211.52 246.025,204.282 252.648,196.465 
			248.424,193.449 256.863,189.849 255.045,181.42 258.079,177.789 275.535,174.796 271.909,203.088 		"/>
		
			<polygon id="Rangersdorf" fill="#123456" stroke="#000000" stroke-width="0.1" stroke-linecap="round" stroke-linejoin="round" stroke-miterlimit="10" points="
			113.528,204.282 106.906,203.684 100.284,203.684 88.23,210.311 74.987,201.879 74.388,195.256 77.389,190.44 73.766,188.627 
			73.766,182.602 88.23,176.582 91.229,182.015 97.258,182.602 100.284,185.008 101.474,189.849 114.128,196.466 		"/>
		
			<polygon id="Reißeck" fill="#123456" stroke="#000000" stroke-width="0.1" stroke-linecap="round" stroke-linejoin="round" stroke-miterlimit="10" points="
			182.781,159.094 182.781,163.901 176.15,177.172 177.372,183.788 171.935,190.417 164.727,194.634 157.508,193.418 
			149.676,197.634 144.237,197.042 141.241,199.439 137.028,198.848 134.62,195.232 123.189,195.829 120.754,192.221 
			123.781,186.201 132.807,181.395 134.62,177.172 140.645,180.174 147.268,180.174 161.103,164.522 160.513,157.9 170.156,153.677 
			180.382,156.081 		"/>
		
			<polygon id="Rennweg_am_Katschberg" fill="#123456" stroke="#000000" stroke-width="0.1" stroke-linecap="round" stroke-linejoin="round" stroke-miterlimit="10" points="
			236.998,121.759 247.24,122.354 249.645,127.755 258.672,127.165 260.489,128.381 259.271,136.193 261.674,139.817 
			258.672,139.817 247.837,147.655 244.221,147.655 243.625,144.029 240.619,145.246 230.974,140.403 226.75,145.246 
			223.132,143.436 220.721,135.003 206.886,129.571 205.667,125.349 200.86,122.348 196.641,124.165 192.416,117.536 
			197.85,113.323 205.069,113.921 233.369,122.942 		"/>
		
			<polygon id="Sachsenburg" fill="#123456" stroke="#000000" stroke-width="0.1" stroke-linecap="round" stroke-linejoin="round" stroke-miterlimit="10" points="
			164.722,194.627 170.149,197.628 174.969,195.82 179.776,197.628 187.615,201.25 185.212,203.659 186.995,207.282 
			182.775,207.873 182.18,210.898 166.534,206.678 163.506,210.277 159.29,209.091 149.669,197.628 157.504,193.413 		"/>
		
			<polygon id="Seeboden" fill="#123456" stroke="#000000" stroke-width="0.1" stroke-linecap="round" stroke-linejoin="round" stroke-miterlimit="10" points="
			229.754,188.036 231.567,189.221 234.593,194.66 227.349,195.848 227.349,203.684 224.346,204.902 225.569,207.906 
			226.159,213.338 209.289,204.285 206.263,201.275 206.884,198.26 209.889,196.466 207.481,192.855 209.889,191.041 
			215.326,194.061 217.725,183.819 		"/>
		
			<polygon id="Spittal_an_der_Drau" fill="#123456" stroke="#000000" stroke-width="0.1" stroke-linecap="round" stroke-linejoin="round" stroke-miterlimit="10" points="
			225.569,207.896 243.022,217.555 239.406,221.777 242.406,224.176 236.406,226.586 235.785,228.995 224.353,224.777 
			216.511,228.396 213.518,225.369 217.736,217.555 206.889,211.532 207.488,206.092 209.302,204.294 226.168,213.341 		"/>
		
			<polygon id="Stall" fill="#123456" stroke="#000000" stroke-width="0.1" stroke-linecap="round" stroke-linejoin="round" stroke-miterlimit="10" points="
			123.151,175.357 121.37,178.984 123.776,186.196 120.751,192.221 123.151,195.82 121.96,199.447 118.93,198.848 115.34,204.253 
			113.523,204.253 114.123,196.438 101.469,189.822 100.281,184.977 97.255,182.572 91.226,181.981 88.23,176.545 84.008,174.756 
			84.602,167.513 94.255,161.491 99.057,163.895 108.089,160.298 		"/>
		
			<polygon id="Steinfeld" fill="#123456" stroke="#000000" stroke-width="0.1" stroke-linecap="round" stroke-linejoin="round" stroke-miterlimit="10" points="
			149.669,197.659 159.29,209.119 159.914,214.521 164.128,216.332 164.128,225.96 174.346,224.171 177.968,220.55 190.621,226.572 
			191.837,232.604 184.588,238.005 175.554,232.604 168.346,234.389 155.076,231.391 147.259,227.168 148.448,223.55 
			146.638,216.326 143.636,214.521 144.86,211.52 141.229,199.466 144.235,197.064 		"/>
		
			<polygon id="Trebesing" fill="#123456" stroke="#000000" stroke-width="0.1" stroke-linecap="round" stroke-linejoin="round" stroke-miterlimit="10" points="
			220.135,170.549 220.727,177.789 217.725,183.822 215.322,194.064 209.889,191.043 207.481,192.848 200.86,189.849 
			202.05,182.015 188.811,171.17 182.781,163.937 182.781,159.115 194.833,156.114 209.292,168.146 		"/>
		
			<polygon id="Weißensee" fill="#123456" stroke="#000000" stroke-width="0.1" stroke-linecap="round" stroke-linejoin="round" stroke-miterlimit="10" points="
			191.802,232.607 196.617,234.389 201.428,243.449 194.798,242.232 193.618,245.255 200.237,250.652 198.427,252.475 
			199.017,259.102 192.992,259.686 186.995,254.285 182.155,253.668 174.342,250.068 170.719,245.255 164.697,247.658 
			156.258,240.417 150.857,240.417 151.453,235.605 155.044,231.389 168.323,234.389 175.535,232.604 184.563,238.01 		"/>
		
			<polygon id="Winklern" fill="#123456" stroke="#000000" stroke-width="0.1" stroke-linecap="round" stroke-linejoin="round" stroke-miterlimit="10" points="
			73.77,182.579 73.77,188.6 77.396,190.417 74.39,195.222 74.99,201.852 74.39,201.852 72.58,200.659 70.175,195.222 59.336,188.6 
			59.932,177.761 57.528,174.762 58.711,171.733 55.097,169.33 52.091,167.517 48.474,165.711 60.527,163.93 66.555,171.144 
			67.151,177.761 		"/>
	</g>
	<g id="St._Veit_a._d._Glan">
		
			<polygon id="Althofen" fill="#123456" stroke="#000000" stroke-width="0.1" stroke-linecap="round" stroke-linejoin="round" stroke-miterlimit="10" points="
			448.98,184.982 438.148,188.004 441.178,186.196 439.362,186.196 438.772,179.58 437.554,175.962 436.948,173.556 
			442.961,168.739 442.961,178.984 448.391,181.384 		"/>
		
			<polygon id="Brückl" fill="#123456" stroke="#000000" stroke-width="0.1" stroke-linecap="round" stroke-linejoin="round" stroke-miterlimit="10" points="
			456.235,218.148 456.818,222.368 458.033,218.742 461.635,222.954 466.472,223.55 470.073,218.742 473.098,220.555 475.5,227.766 
			468.885,230.795 467.073,235.611 459.824,227.766 456.23,235.611 458.041,238.021 453.819,241.04 450.798,247.038 
			443.573,246.439 444.177,241.631 439.362,238.602 442.964,236.82 448.984,224.171 447.799,221.77 453.201,220.555 
			453.201,216.923 		"/>
		
			<polygon id="Deutsch-Griffen" fill="#123456" stroke="#000000" stroke-width="0.1" stroke-linecap="round" stroke-linejoin="round" stroke-miterlimit="10" points="
			364.057,191.043 356.848,198.254 353.221,194.064 344.197,191.629 340.573,192.848 335.756,189.846 332.132,186.819 
			330.948,171.77 328.544,168.763 319.518,168.143 320.106,160.93 320.698,154.905 324.924,153.086 330.355,159.716 
			334.575,158.524 336.977,164.548 339.385,165.141 343.602,174.17 352.625,183.819 		"/>
		
			<polygon id="Eberstein" fill="#123456" stroke="#000000" stroke-width="0.1" stroke-linecap="round" stroke-linejoin="round" stroke-miterlimit="10" points="
			486.336,198.254 487.531,201.876 485.118,206.688 482.119,214.523 482.719,224.771 473.093,220.55 470.068,218.742 
			466.469,223.55 461.633,222.951 458.028,218.742 456.813,222.363 456.23,218.146 457.406,213.331 461.032,207.298 
			461.633,203.088 471.878,197.056 485.74,192.838 		"/>
		
			<polygon id="Frauenstein" fill="#123456" stroke="#000000" stroke-width="0.1" stroke-linecap="round" stroke-linejoin="round" stroke-miterlimit="10" points="
			425.49,207.896 425.49,212.121 421.902,215.119 419.459,213.939 416.463,216.332 411.056,225.363 391.757,209.716 
			379.142,213.932 375.512,216.932 370.698,214.527 370.698,211.523 373.707,209.716 376.701,209.716 386.353,200.689 
			394.791,200.073 415.25,189.849 418.867,191.043 420.084,198.26 426.707,197.064 		"/>
		
			<polygon id="Friesach" fill="#123456" stroke="#000000" stroke-width="0.1" stroke-linecap="round" stroke-linejoin="round" stroke-miterlimit="10" points="
			409.843,129.575 417.687,131.387 421.906,135.001 420.689,141.627 423.097,146.438 433.342,139.226 438.74,141.033 
			439.959,135.001 442.964,136.82 441.178,142.223 449.582,142.223 445.983,151.278 448.394,156.685 443.573,159.683 
			439.358,157.896 429.699,162.111 421.277,155.46 415.866,159.094 402.632,157.277 402.005,149.46 395.972,146.438 
			387.545,131.382 388.168,130.197 390.573,127.761 394.188,130.79 		"/>
		
			<polygon id="Glödnitz" fill="#123456" stroke="#000000" stroke-width="0.1" stroke-linecap="round" stroke-linejoin="round" stroke-miterlimit="10" points="
			365.865,164.522 370.714,191.01 364.06,191.01 352.629,183.795 343.605,174.14 339.386,165.118 336.986,164.522 334.575,158.494 
			330.362,159.708 324.924,153.064 332.759,150.065 336.362,144.625 343.602,160.893 347.216,162.111 352.031,160.304 
			356.848,163.93 361.068,162.706 		"/>
		
			<polygon id="Gurk" fill="#123456" stroke="#000000" stroke-width="0.1" stroke-linecap="round" stroke-linejoin="round" stroke-miterlimit="10" points="
			411.659,183.193 415.253,189.846 394.796,200.062 386.357,200.686 385.764,195.253 391.76,191.629 389.364,180.786 
			397.793,177.188 406.224,185 		"/>
		
			<polygon id="Guttaring" fill="#123456" stroke="#000000" stroke-width="0.1" stroke-linecap="round" stroke-linejoin="round" stroke-miterlimit="10" points="
			462.263,173.569 458.033,183.193 452.014,186.225 448.98,185.004 448.394,181.412 442.964,178.976 442.964,168.763 
			441.175,162.73 443.573,159.708 448.391,156.704 445.983,151.272 449.603,142.243 452.603,144.061 454.419,155.491 
			461.035,165.731 		"/>
		
			<polygon id="Hüttenberg" fill="#123456" stroke="#000000" stroke-width="0.1" stroke-linecap="round" stroke-linejoin="round" stroke-miterlimit="10" points="
			470.068,134.407 471.879,138.003 476.692,139.22 481.531,146.444 493.565,153.685 493.565,154.873 490.563,157.272 
			491.74,165.711 484.531,177.169 472.473,172.956 462.267,173.549 461.05,165.703 454.427,155.46 452.61,144.029 449.607,142.223 
			441.178,142.223 442.964,136.82 444.177,132.596 450.798,130.194 453.819,135.602 		"/>
		
			<polygon id="Kappel_am_Krappfeld" fill="#123456" stroke="#000000" stroke-width="0.1" stroke-linecap="round" stroke-linejoin="round" stroke-miterlimit="10" points="
			461.044,207.305 457.421,213.335 453.198,206.688 444.768,212.708 442.364,210.313 443.573,206.688 438.77,205.498 
			435.733,201.275 436.323,198.872 433.326,197.659 438.142,192.253 438.142,188.028 448.977,185.008 452.011,186.22 
			458.031,183.193 456.815,196.466 		"/>
		
			<polygon id="Klein_Sankt_Paul" fill="#123456" stroke="#000000" stroke-width="0.1" stroke-linecap="round" stroke-linejoin="round" stroke-miterlimit="10" points="
			484.531,177.172 483.316,182.579 485.744,192.82 471.882,197.04 461.635,203.064 461.047,207.287 456.818,196.444 
			458.033,183.172 462.267,173.558 472.47,172.961 		"/>
		
			<polygon id="Liebenfels" fill="#123456" stroke="#000000" stroke-width="0.1" stroke-linecap="round" stroke-linejoin="round" stroke-miterlimit="10" points="
			411.066,225.363 404.41,228.391 405.634,232.607 397.795,240.422 388.175,244.046 388.175,242.823 391.765,233.801 
			394.796,232.613 394.198,229.592 380.339,229.592 380.928,225.363 377.334,226.577 376.115,224.176 382.145,220.555 
			382.145,216.332 379.147,213.932 391.765,209.709 		"/>
		
			<polygon id="Metnitz" fill="#123456" stroke="#000000" stroke-width="0.1" stroke-linecap="round" stroke-linejoin="round" stroke-miterlimit="10" points="
			387.551,131.387 395.983,146.447 402.012,149.465 402.632,157.272 394.794,160.304 386.95,168.124 375.521,168.124 
			368.902,162.711 365.866,164.524 361.065,162.711 356.848,163.903 352.031,160.31 347.22,162.117 343.594,160.898 
			336.386,144.633 335.758,139.226 344.197,139.226 356.25,127.168 361.061,125.362 363.469,118.739 370.084,122.359 
			379.737,113.933 		"/>
		
			<polygon id="Micheldorf" fill="#123456" stroke="#000000" stroke-width="0.1" stroke-linecap="round" stroke-linejoin="round" stroke-miterlimit="10" points="
			443.573,159.683 441.178,162.706 442.966,168.739 436.959,173.543 437.559,175.956 427.906,169.327 429.715,162.114 
			439.365,157.891 		"/>
		
			<polygon id="Mölbling" fill="#123456" stroke="#000000" stroke-width="0.1" stroke-linecap="round" stroke-linejoin="round" stroke-miterlimit="10" points="
			438.772,179.583 439.362,186.201 441.178,186.201 438.148,188.006 438.148,192.227 433.326,197.634 436.334,198.854 
			435.736,201.25 425.493,207.873 426.707,197.042 420.084,198.26 418.867,191.015 415.252,189.828 411.656,183.172 
			429.115,177.175 434.551,180.77 		"/>
		
			<polygon id="Sankt_Georgen_am_Längsee" fill="#123456" stroke="#000000" stroke-width="0.1" stroke-linecap="round" stroke-linejoin="round" stroke-miterlimit="10" points="
			457.421,213.335 456.235,218.15 453.201,216.93 453.201,220.555 447.799,221.77 448.982,224.176 442.966,236.825 438.775,235.607 
			438.148,232.607 436.334,235.016 433.934,230.792 432.115,231.391 433.334,225.359 426.707,225.359 421.902,215.115 
			425.49,212.114 425.49,207.893 435.738,201.271 438.775,205.492 443.573,206.678 442.364,210.305 444.77,212.708 453.201,206.678 
					"/>
		
			<polygon id="Sankt_Veit_an_der_Glan" fill="#123456" stroke="#000000" stroke-width="0.1" stroke-linecap="round" stroke-linejoin="round" stroke-miterlimit="10" points="
			421.906,215.119 426.711,225.363 433.334,225.363 432.115,231.391 425.493,236.825 423.691,233.798 421.906,236.825 
			417.687,234.389 417.687,239.234 414.068,242.826 412.242,240.428 404.408,245.26 403.218,244.049 405.631,243.455 
			405.031,239.828 397.785,240.428 405.631,232.619 404.408,228.398 411.059,225.371 416.466,216.337 419.468,213.943 		"/>
		
			<polygon id="Straßburg" fill="#123456" stroke="#000000" stroke-width="0.1" stroke-linecap="round" stroke-linejoin="round" stroke-miterlimit="10" points="
			429.707,162.111 427.904,169.327 437.554,175.956 438.772,179.572 434.551,180.763 429.115,177.167 411.656,183.163 
			406.217,184.977 397.785,177.16 389.353,180.756 386.948,168.104 394.794,160.298 402.632,157.268 415.866,159.082 
			421.281,155.46 		"/>
		
			<polygon id="Weitensfeld_im_Gurktal" fill="#123456" stroke="#000000" stroke-width="0.1" stroke-linecap="round" stroke-linejoin="round" stroke-miterlimit="10" points="
			386.948,168.143 389.356,180.786 391.76,191.627 385.762,195.253 386.357,200.686 376.701,209.709 373.707,209.709 
			366.49,204.902 364.682,207.298 358.056,205.492 362.274,199.466 363.466,195.84 361.653,194.655 364.682,191.034 
			370.698,191.034 365.865,164.54 368.894,162.734 375.515,168.143 		"/>
	</g>
	<g id="Villach">
		
			<polygon id="Villach_1_" fill="#123456" stroke="#000000" stroke-width="0.1" stroke-linecap="round" stroke-linejoin="round" stroke-miterlimit="10" points="
			321.922,255.477 321.922,256.094 320.104,260.309 315.887,262.098 315.887,273.559 323.109,280.178 328.535,280.178 
			324.323,283.796 321.297,283.173 319.508,286.203 304.427,283.173 296.022,285.609 296.022,288.02 285.155,289.206 
			280.343,292.232 274.317,291.018 273.123,281.99 265.879,281.365 261.066,275.963 269.5,274.152 268.91,271.146 277.339,266.307 
			283.957,266.936 288.183,254.879 298.431,261.506 304.427,261.506 		"/>
	</g>
	<g id="Villach_Land">
		
			<polygon id="Afritz_am_See" fill="#123456" stroke="#000000" stroke-width="0.1" stroke-linecap="round" stroke-linejoin="round" stroke-miterlimit="10" points="
			290.595,237.422 286.371,235.605 280.947,236.82 276.132,242.814 271.321,237.416 268.917,227.168 276.132,227.168 
			280.355,230.787 279.754,222.951 291.192,215.743 289.382,221.145 289.998,229.578 286.973,231.979 		"/>
		
			<polygon id="Arnoldstein" fill="#123456" stroke="#000000" stroke-width="0.1" stroke-linecap="round" stroke-linejoin="round" stroke-miterlimit="10" points="
			285.163,289.208 288.183,303.074 285.781,310.287 280.352,306.669 256.266,304.883 244.218,298.239 249.027,294.014 
			260.489,296.447 259.893,288.605 262.297,286.799 262.893,281.99 265.887,281.37 273.132,281.99 274.327,291.018 280.352,292.232 
					"/>
		
			<polygon id="Arriach" fill="#123456" stroke="#000000" stroke-width="0.1" stroke-linecap="round" stroke-linejoin="round" stroke-miterlimit="10" points="
			299.026,216.332 304.432,222.951 312.272,219.33 315.296,224.171 318.888,224.766 323.707,238.016 314.082,245.249 
			302.65,242.814 300.24,237.416 290.595,237.416 286.973,231.984 289.994,229.583 289.375,221.15 291.192,215.747 292.401,215.747 
					"/>
		
			<polygon id="Bad_Bleiberg" fill="#123456" stroke="#000000" stroke-width="0.1" stroke-linecap="round" stroke-linejoin="round" stroke-miterlimit="10" points="
			264.103,265.715 274.327,264.533 277.347,266.307 268.917,271.154 269.509,274.158 261.076,275.969 265.889,281.37 
			262.89,281.996 259.887,277.779 255.669,277.779 251.448,273.551 242.396,271.146 241.205,275.369 227.965,268.127 
			232.77,264.525 232.179,259.091 236.99,262.715 243.609,262.715 247.235,265.713 		"/>
		
			<polygon id="Feistritz_an_der_Gail" fill="#123456" stroke="#000000" stroke-width="0.1" stroke-linecap="round" stroke-linejoin="round" stroke-miterlimit="10" points="
			249.641,286.805 243.017,289.797 236.399,288.609 218.319,295.824 215.909,290.423 226.159,286.197 228.565,281.988 
			231.561,284.393 239.999,281.367 243.615,285.604 		"/>
		
			<polygon id="Feld_am_See" fill="#123456" stroke="#000000" stroke-width="0.1" stroke-linecap="round" stroke-linejoin="round" stroke-miterlimit="10" points="
			291.192,215.743 279.754,222.951 280.352,230.792 276.132,227.177 268.917,227.177 264.103,221.77 258.082,212.114 
			275.54,214.523 279.754,212.114 		"/>
		
			<polygon id="Ferndorf" fill="#123456" stroke="#000000" stroke-width="0.1" stroke-linecap="round" stroke-linejoin="round" stroke-miterlimit="10" points="
			264.103,221.77 261.078,225.363 252.645,227.771 252.645,234.389 249.645,236.82 237.592,229.583 235.783,228.984 
			236.404,226.586 242.403,224.171 239.404,221.777 243.019,217.549 250.236,221.15 258.082,212.121 		"/>
		
			<polygon id="Finkenstein_am_Faaker_See" fill="#123456" stroke="#000000" stroke-width="0.1" stroke-linecap="round" stroke-linejoin="round" stroke-miterlimit="10" points="
			324.323,283.796 325.513,287.396 330.362,287.396 329.142,289.797 333.957,294.02 329.142,302.454 330.949,310.287 
			327.948,313.287 312.875,305.479 299.629,307.886 293.601,306.075 289.999,310.287 285.785,310.287 288.189,303.074 
			285.163,289.208 296.029,288.02 296.029,285.617 304.434,283.178 319.512,286.203 321.304,283.178 		"/>
		
			<polygon id="Fresach" fill="#123456" stroke="#000000" stroke-width="0.1" stroke-linecap="round" stroke-linejoin="round" stroke-miterlimit="10" points="
			268.92,227.177 271.323,237.422 276.135,242.823 279.162,247.67 273.132,248.266 263.48,242.229 259.885,242.823 253.236,239.229 
			249.635,236.825 252.637,234.389 252.637,227.766 261.073,225.363 264.1,221.77 		"/>
		
			<polygon id="Hohenthurn" fill="#123456" stroke="#000000" stroke-width="0.1" stroke-linecap="round" stroke-linejoin="round" stroke-miterlimit="10" points="
			259.89,288.605 260.489,296.447 249.024,294.02 244.218,298.239 236.998,297.047 233.377,300.042 230.377,295.232 218.32,295.83 
			236.404,288.609 243.022,289.797 249.645,286.805 253.874,289.208 		"/>
		
			<polygon id="Nötsch_im_Gailtal" fill="#123456" stroke="#000000" stroke-width="0.1" stroke-linecap="round" stroke-linejoin="round" stroke-miterlimit="10" points="
			227.97,268.125 241.212,275.369 242.403,271.146 251.457,273.555 255.676,277.771 259.893,277.771 262.896,281.999 
			262.298,286.805 259.897,288.609 253.877,289.206 249.649,286.802 243.625,285.609 240.001,281.367 231.57,284.396 
			228.565,281.993 230.381,278.372 225.569,271.146 225.569,266.936 		"/>
		
			<polygon id="Paternion" fill="#123456" stroke="#000000" stroke-width="0.1" stroke-linecap="round" stroke-linejoin="round" stroke-miterlimit="10" points="
			249.641,236.825 253.24,239.229 258.669,245.846 262.294,246.441 258.669,254.879 260.484,258.5 265.887,260.309 263.487,262.098 
			264.103,265.715 247.24,265.715 243.615,262.715 236.998,262.715 232.182,259.098 216.501,260.309 210.472,254.874 
			206.878,257.283 206.878,259.682 199.038,259.091 198.45,252.473 200.258,250.662 209.289,246.434 222.531,250.662 
			228.558,247.041 237.585,249.469 236.397,247.041 239.996,247.041 245.424,242.225 238.801,238.005 241.209,235.01 
			236.397,231.979 237.585,229.578 		"/>
		
			<polygon id="Rosegg" fill="#123456" stroke="#000000" stroke-width="0.1" stroke-linecap="round" stroke-linejoin="round" stroke-miterlimit="10" points="
			339.385,287.396 339.981,291.018 333.948,294.009 329.14,289.797 330.355,287.391 325.513,287.391 324.323,283.796 
			328.544,280.172 330.948,278.958 336.359,277.766 341.781,280.172 		"/>
		
			<polygon id="Sankt_Jakob_im_Rosental" fill="#123456" stroke="#000000" stroke-width="0.1" stroke-linecap="round" stroke-linejoin="round" stroke-miterlimit="10" points="
			353.836,295.232 356.25,299.451 358.656,298.239 362.865,300.047 360.462,319.32 343.602,314.507 335.17,318.725 327.947,313.295 
			330.948,310.295 329.138,302.454 333.948,294.02 339.979,291.018 339.382,287.396 347.213,287.396 347.817,291.615 		"/>
		
			<polygon id="Stockenboi" fill="#123456" stroke="#000000" stroke-width="0.1" stroke-linecap="round" stroke-linejoin="round" stroke-miterlimit="10" points="
			213.508,225.363 216.505,228.391 224.346,224.766 235.78,228.984 237.588,229.583 236.399,231.984 241.212,235.016 
			238.805,238.016 245.426,242.225 239.999,247.043 236.399,247.043 237.588,249.479 228.561,247.043 222.534,250.662 
			209.292,246.441 200.263,250.662 193.618,245.255 194.833,242.232 201.452,243.449 196.641,234.395 200.263,231.984 
			197.858,227.771 204.479,219.959 206.266,224.771 		"/>
		
			<polygon id="Treffen_am_Ossiacher_See" fill="#123456" stroke="#000000" stroke-width="0.1" stroke-linecap="round" stroke-linejoin="round" stroke-miterlimit="10" points="
			290.595,237.422 300.24,237.422 302.653,242.823 314.082,245.255 323.707,251.881 321.922,255.477 304.432,261.506 
			298.438,261.506 288.186,254.879 279.162,247.667 276.135,242.823 280.948,236.825 286.377,235.607 		"/>
		
			<polygon id="Velden_am_Wörther_See" fill="#123456" stroke="#000000" stroke-width="0.1" stroke-linecap="round" stroke-linejoin="round" stroke-miterlimit="10" points="
			345.407,256.695 346.603,268.745 350.221,269.938 349.619,272.348 352.031,277.771 344.783,280.773 355.656,291.611 
			353.85,295.232 347.823,291.611 347.22,287.396 339.387,287.396 341.784,280.178 336.365,277.779 330.957,278.966 327.948,278.37 
			333.357,266.936 327.948,265.124 325.516,259.688 336.365,255.471 		"/>
		
			<polygon id="Weißenstein" fill="#123456" stroke="#000000" stroke-width="0.1" stroke-linecap="round" stroke-linejoin="round" stroke-miterlimit="10" points="
			279.162,247.656 288.189,254.879 283.969,266.927 277.347,266.307 274.323,264.525 264.103,265.715 263.487,262.092 
			265.884,260.303 260.484,258.5 258.672,254.874 262.297,246.438 258.672,245.846 253.24,239.225 259.887,242.814 263.487,242.225 
			273.135,248.261 		"/>
		
			<polygon id="Wernberg" fill="#123456" stroke="#000000" stroke-width="0.1" stroke-linecap="round" stroke-linejoin="round" stroke-miterlimit="10" points="
			330.948,278.966 328.547,280.178 323.115,280.178 315.894,273.557 315.894,262.094 325.513,259.689 327.948,265.121 
			333.357,266.927 327.948,278.367 		"/>
	</g>
	<g id="Völkermarkt">
		
			<polygon id="Bleiburg" fill="#123456" stroke="#000000" stroke-width="0.1" stroke-linecap="round" stroke-linejoin="round" stroke-miterlimit="10" points="
			528.506,259.688 528.506,261.506 533.906,267.527 537.531,265.124 541.755,271.146 532.724,284.395 528.506,297.641 
			526.103,292.827 521.857,292.236 521.857,286.203 518.855,284.988 517.669,279.587 506.802,273.557 508.61,262.718 
			518.855,264.533 524.883,259.102 		"/>
		
			<polygon id="Diex" fill="#123456" stroke="#000000" stroke-width="0.1" stroke-linecap="round" stroke-linejoin="round" stroke-miterlimit="10" points="
			494.777,242.823 487.531,241.043 482.119,235.016 479.096,234.389 474.881,239.232 468.885,230.795 475.504,227.771 
			473.093,220.555 482.719,224.783 482.119,214.535 485.125,206.72 493.565,210.911 501.399,220.561 498.397,221.157 
			497.78,223.563 491.74,221.777 494.153,227.771 489.334,230.795 494.781,234.395 494.781,242.823 		"/>
		
			<polygon id="Eberndorf" fill="#123456" stroke="#000000" stroke-width="0.1" stroke-linecap="round" stroke-linejoin="round" stroke-miterlimit="10" points="
			507.416,263.311 508.61,262.721 506.802,273.555 503.198,278.37 503.8,280.184 489.951,289.208 490.558,291.611 485.115,286.805 
			479.09,291.018 475.49,286.205 471.875,286.205 476.692,281.996 477.906,275.369 481.531,272.96 479.713,270.525 481.531,265.121 
			476.09,263.311 485.115,258.506 488.148,259.689 488.74,266.927 		"/>
		
			<polygon id="Eisenkappel-Vellach" fill="#123456" stroke="#000000" stroke-width="0.1" stroke-linecap="round" stroke-linejoin="round" stroke-miterlimit="10" points="
			494.151,304.883 505.019,307.886 510.426,304.257 514.048,308.484 509.235,308.484 506.799,313.29 503.198,310.29 
			500.177,322.941 495.949,321.131 490.558,329.564 475.49,332.593 472.465,338.589 472.465,351.234 468.253,354.855 
			458.028,336.771 447.791,340.995 447.157,338.594 439.357,337.406 436.323,333.182 437.543,330.779 443.564,325.343 
			444.159,313.295 448.971,309.07 453.192,309.07 455.6,303.668 461.63,301.27 465.847,300.05 466.465,297.047 474.28,297.641 
			474.28,301.857 480.299,303.074 480.299,307.295 482.712,308.484 		"/>
		
			<polygon id="Feistritz_ob_Bleiburg" fill="#123456" stroke="#000000" stroke-width="0.1" stroke-linecap="round" stroke-linejoin="round" stroke-miterlimit="10" points="
			528.506,297.641 527.887,306.669 520.072,310.29 514.048,308.479 510.426,304.257 506.802,299.445 509.823,289.791 
			506.198,288.005 506.802,281.99 503.198,278.364 506.802,273.548 517.669,279.576 518.853,284.982 521.857,286.197 
			521.857,292.232 526.103,292.827 		"/>
		
			<polygon id="Gallizien" fill="#123456" stroke="#000000" stroke-width="0.1" stroke-linecap="round" stroke-linejoin="round" stroke-miterlimit="10" points="
			461.044,287.396 461.044,289.203 467.063,291.607 465.852,294.632 463.446,294.014 461.635,301.256 455.605,303.668 
			453.201,309.064 448.982,309.064 440.556,304.874 444.77,295.824 441.771,289.2 443.573,288.02 445.988,290.417 448.982,289.2 
			456.235,276.557 459.826,278.367 458.639,284.393 		"/>
		
			<polygon id="Globasnitz" fill="#123456" stroke="#000000" stroke-width="0.1" stroke-linecap="round" stroke-linejoin="round" stroke-miterlimit="10" points="
			510.426,304.262 505.016,307.886 494.146,304.883 490.558,291.611 489.948,289.208 503.798,280.184 503.198,278.37 
			506.795,281.996 506.198,288.011 509.823,289.797 506.795,299.451 		"/>
		
			<polygon id="Griffen" fill="#123456" stroke="#000000" stroke-width="0.1" stroke-linecap="round" stroke-linejoin="round" stroke-miterlimit="10" points="
			495.365,204.282 507.416,219.953 511.021,220.55 511.639,231.391 515.233,236.199 522.476,244.04 523.666,249.475 517.64,247.658 
			515.236,251.256 506.201,242.823 501.399,247.046 499.587,245.255 494.777,247.046 494.777,234.389 489.334,230.795 
			494.153,227.766 491.74,221.77 497.78,223.559 498.397,221.15 501.399,220.555 493.565,210.905 485.125,206.684 487.531,201.876 
			486.336,198.252 		"/>
		
			<polygon id="Neuhaus" fill="#123456" stroke="#000000" stroke-width="0.1" stroke-linecap="round" stroke-linejoin="round" stroke-miterlimit="10" points="
			535.125,251.881 542.343,258.506 550.778,256.1 559.81,263.313 553.804,269.342 551.99,267.527 550.781,273.555 541.759,271.146 
			537.531,265.124 533.909,267.527 528.506,261.506 528.506,259.688 531.511,258.506 532.723,251.881 		"/>
		
			<polygon id="Ruden" fill="#123456" stroke="#000000" stroke-width="0.1" stroke-linecap="round" stroke-linejoin="round" stroke-miterlimit="10" points="
			523.666,249.475 536.32,248.261 535.125,251.873 532.723,251.873 531.511,258.5 528.509,259.682 524.883,259.098 518.855,264.525 
			508.613,262.721 507.424,263.311 506.201,256.688 501.985,253.659 501.397,247.043 506.198,242.814 515.233,251.253 
			517.669,247.656 		"/>
		
			<polygon id="Sankt_Kanzian_am_Klopeiner_See" fill="#123456" stroke="#000000" stroke-width="0.1" stroke-linecap="round" stroke-linejoin="round" stroke-miterlimit="10" points="
			476.095,263.311 481.531,265.124 479.719,270.527 481.531,272.963 477.906,275.369 476.697,281.993 471.882,286.203 
			470.687,289.805 468.885,285.609 461.047,287.396 458.636,284.396 459.826,278.372 456.235,276.557 458.041,274.152 
			470.068,265.127 471.882,261.506 		"/>
		
			<polygon id="Sittersdorf" fill="#123456" stroke="#000000" stroke-width="0.1" stroke-linecap="round" stroke-linejoin="round" stroke-miterlimit="10" points="
			471.879,286.203 475.494,286.203 479.093,291.018 485.118,286.799 490.563,291.611 494.156,304.883 482.722,308.479 
			480.318,307.286 480.318,303.068 474.283,301.857 474.283,297.641 466.475,297.044 465.857,300.036 461.635,301.262 
			463.446,294.009 465.852,294.639 467.063,291.609 461.044,289.2 461.044,287.396 468.881,285.609 470.684,289.797 		"/>
		
			<polygon id="Völkermarkt_1_" fill="#123456" stroke="#000000" stroke-width="0.1" stroke-linecap="round" stroke-linejoin="round" stroke-miterlimit="10" points="
			468.881,230.792 474.877,239.229 479.093,234.389 482.119,235.01 487.531,241.043 494.771,242.823 494.771,247.046 
			499.582,245.26 501.397,247.046 501.985,253.673 506.198,256.695 507.427,263.313 488.74,266.936 488.155,259.688 
			485.118,258.506 476.095,263.313 471.882,261.506 470.068,265.127 458.041,274.152 458.634,266.939 453.198,259.691 
			461.635,257.289 450.801,247.041 453.819,241.048 458.041,238.021 456.235,235.611 459.826,227.771 467.073,235.611 		"/>
	</g>
	<g id="Wolfsberg">
		
			<polygon id="Bad_Sankt_Leonhard" fill="#123456" stroke="#000000" stroke-width="0.1" stroke-linecap="round" stroke-linejoin="round" stroke-miterlimit="10" points="
			539.932,133.783 544.156,144.625 539.344,144.625 542.346,154.873 538.719,157.896 538.132,162.711 531.511,166.927 
			523.671,168.118 518.264,160.896 504.405,162.12 493.568,154.878 493.568,153.681 498.403,148.846 509.24,149.46 514.647,146.444 
			511.644,140.409 512.823,138.626 527.303,133.194 530.923,126.568 		"/>
		
			<polygon id="Frantschach-Sankt_Gertraud" fill="#123456" stroke="#000000" stroke-width="0.1" stroke-linecap="round" stroke-linejoin="round" stroke-miterlimit="10" points="
			570.05,178.355 570.645,186.196 573.073,190.417 571.865,194.634 567.643,196.444 565.823,202.475 563.416,210.905 
			559.203,208.477 550.774,194.037 545.365,194.627 537.531,189.822 533.906,191.608 529.095,179.58 532.091,175.962 
			531.508,172.956 552.577,172.956 557.99,169.932 		"/>
		
			<polygon id="Lavamünd" fill="#123456" stroke="#000000" stroke-width="0.1" stroke-linecap="round" stroke-linejoin="round" stroke-miterlimit="10" points="
			579.073,232.607 574.858,250.064 577.885,251.876 581.509,250.064 585.106,256.094 579.696,256.688 573.668,260.309 
			565.24,273.555 563.42,266.307 559.805,263.3 550.781,256.094 542.346,258.5 535.132,251.876 536.32,248.255 540.541,248.255 
			545.377,251.876 552.588,247.038 552,243.443 553.192,245.84 554.406,239.219 563.431,236.193 562.213,231.979 567.655,230.193 		
			"/>
		
			<polygon id="Preitenegg" fill="#123456" stroke="#000000" stroke-width="0.1" stroke-linecap="round" stroke-linejoin="round" stroke-miterlimit="10" points="
			554.99,139.813 559.81,143.439 565.823,158.494 574.266,167.517 574.266,169.33 571.865,177.766 570.05,177.172 571.865,171.733 
			561.019,171.733 558.615,169.33 558.615,162.711 551.367,160.896 548.368,162.711 545.366,160.31 538.132,162.711 
			538.719,157.896 542.346,154.873 539.341,144.633 544.156,144.633 539.932,133.788 545.365,137.409 		"/>
		
			<polygon id="Reichenfels" fill="#123456" stroke="#000000" stroke-width="0.1" stroke-linecap="round" stroke-linejoin="round" stroke-miterlimit="10" points="
			530.293,121.139 530.916,126.571 527.294,133.2 512.82,138.621 511.639,140.414 514.643,146.444 509.238,149.465 498.397,148.849 
			493.561,153.685 481.531,146.447 476.692,139.226 479.713,133.788 502.61,131.387 503.8,129.579 513.448,124.766 521.263,124.766 
			526.694,121.139 		"/>
		
			<polygon id="Sankt_Andrä" fill="#123456" stroke="#000000" stroke-width="0.1" stroke-linecap="round" stroke-linejoin="round" stroke-miterlimit="10" points="
			559.213,208.5 563.423,210.905 553.804,215.121 547.156,226.586 547.156,231.395 543.557,233.801 539.341,231.984 
			536.936,234.395 532.719,228.395 528.492,231.99 523.065,231.398 515.226,236.213 511.633,231.398 511.031,220.561 
			507.407,219.964 495.365,204.294 500.793,206.092 510.426,203.693 517.043,208.5 517.669,206.092 525.473,204.288 
			530.282,206.092 533.314,215.119 		"/>
		
			<polygon id="Sankt_Georgen_im_Lavanttal" fill="#123456" stroke="#000000" stroke-width="0.1" stroke-linecap="round" stroke-linejoin="round" stroke-miterlimit="10" points="
			568.238,212.121 576.075,215.743 576.671,224.176 579.693,228.391 577.885,230.204 579.073,232.607 567.65,230.204 
			562.202,231.984 563.42,236.207 554.4,239.232 553.186,245.852 551.99,243.449 547.776,239.828 539.341,238.617 536.936,234.395 
			539.341,231.99 543.557,233.805 547.156,231.398 547.156,226.586 553.804,215.124 563.431,210.911 		"/>
		
			<polygon id="Sankt_Paul_im_Lavanttal" fill="#123456" stroke="#000000" stroke-width="0.1" stroke-linecap="round" stroke-linejoin="round" stroke-miterlimit="10" points="
			536.936,234.389 539.341,238.611 547.776,239.823 551.99,243.449 552.585,247.046 545.369,251.884 540.531,248.266 
			536.31,248.266 523.659,249.479 522.476,244.046 515.233,236.205 523.066,231.398 528.5,231.984 532.723,228.389 		"/>
		
			<polygon id="Wolfsberg_1_" fill="#123456" stroke="#000000" stroke-width="0.1" stroke-linecap="round" stroke-linejoin="round" stroke-miterlimit="10" points="
			538.128,162.73 545.366,160.33 548.368,162.73 551.367,160.925 558.615,162.73 558.615,169.353 561.019,171.77 571.865,171.77 
			570.05,177.195 571.865,177.786 570.05,178.388 557.99,169.95 552.585,172.978 531.511,172.978 532.095,175.973 529.095,179.596 
			533.906,191.627 537.531,189.833 545.342,194.647 550.778,194.029 559.211,208.492 533.317,215.109 530.285,206.081 
			525.475,204.275 517.669,206.081 517.046,208.492 510.426,203.678 500.796,206.081 495.365,204.275 486.336,198.25 
			485.741,192.841 483.313,182.593 484.531,177.188 491.74,165.727 490.563,157.29 493.555,154.897 504.398,162.131 
			518.259,160.925 523.659,168.136 531.506,166.943 		"/>
	</g>
</g>
<g id="Skala">
	<rect id="rect4459" x="29.767" y="303.482" fill="#111101" width="7.097" height="6.756"/>
	<text transform="matrix(1.0506 0 0 1 40.4529 309.3477)" font-family="'ArialMT'" font-size="7.3705">%legende1%</text>
	<rect id="rect4459-1" x="29.767" y="312.791" fill="#111102" width="7.097" height="6.758"/>
	<text transform="matrix(1.0506 0 0 1 40.4529 318.6582)" font-family="'ArialMT'" font-size="7.3705">%legende2%</text>
	<rect id="rect4459-2" x="29.767" y="322.101" fill="#111103" width="7.097" height="6.757"/>
	<text transform="matrix(1.0506 0 0 1 40.4529 327.9668)" font-family="'ArialMT'" font-size="7.3705">%legende3%</text>
	<rect id="rect4459-6" x="29.767" y="331.411" fill="#111104" width="7.097" height="6.756"/>
	<text transform="matrix(1.0506 0 0 1 40.4529 337.2773)" font-family="'ArialMT'" font-size="7.3705">%legende4%</text>
	<rect id="rect4459-29" x="29.767" y="340.72" fill="#111105" width="7.097" height="6.758"/>
	<text transform="matrix(1.0506 0 0 1 40.4529 346.5859)" font-family="'ArialMT'" font-size="7.3705">%legende5%</text>
	<rect id="rect4459-3" x="29.767" y="350.028" fill="#111106" width="7.097" height="6.757"/>
	<text transform="matrix(1.0506 0 0 1 40.4529 355.8955)" font-family="'ArialMT'" font-size="7.3705">%legende6%</text>
	<rect id="rect4459-8" x="29.767" y="359.339" fill="#111107" width="7.097" height="6.757"/>
	<text transform="matrix(1.0506 0 0 1 40.4529 365.2051)" font-family="'ArialMT'" font-size="7.3705">%legende7%</text>
	<rect id="rect4459-9" x="29.767" y="368.647" fill="#111108" width="7.097" height="6.756"/>
	<text transform="matrix(1.0506 0 0 1 40.4529 374.5146)" font-family="'ArialMT'" font-size="7.3705">%legende8%</text>
	<rect id="rect4459-18" x="29.767" y="377.957" fill="#111109" width="7.097" height="6.758"/>
	<text transform="matrix(1.0506 0 0 1 40.4529 383.8232)" font-family="'ArialMT'" font-size="7.3705">%legende9%</text>
	<rect id="rect4459-18-6" x="29.767" y="387.266" fill="#111110" width="7.097" height="6.758"/>
	<text transform="matrix(1.0506 0 0 1 40.4529 393.1328)" font-family="'ArialMT'" font-size="7.3705">%legende10%</text>
</g>
<text id="Titel2" transform="matrix(1 0 0 1 16.4963 73.0439)" font-family="'ArialMT'" font-size="17.141">%titel2%</text>
<text id="Titel1" transform="matrix(0.6758 0 0 1 16.4749 47.7119)" font-family="'ArialMT'" font-size="38.0757">%titel1%</text>
<text transform="matrix(1 0 0 1 487.0188 347.667)" font-family="'ArialMT'" font-size="7.8848">Visualisierung erstellt mit</text>
<text transform="matrix(1 0 0 1 507.3469 357.1289)" font-family="'ArialMT'" font-size="7.8848">DataMaps.eu</text>
<text transform="matrix(1 0 0 1 493.5911 366.5898)" font-family="'ArialMT'" font-size="7.8848">provided by open3.at</text>
<g id="open3-logo">
	<path fill="#007CC1" d="M536.52,383.131c0-1.679-0.8-2.636-1.796-3.165c0.918-0.488,1.6-1.347,1.6-2.851
		c0-2.341-1.778-3.984-4.235-3.984c-2.344,0-4.203,1.485-4.257,3.966h2.538c0.057-1.053,0.762-1.678,1.719-1.678
		c0.912,0,1.695,0.606,1.695,1.777c0,0.977-0.528,1.737-1.758,1.737h-0.37v2.206h0.37c1.25,0,1.954,0.761,1.954,1.914
		c0,1.251-0.782,1.932-1.876,1.932c-0.996,0-1.854-0.564-1.895-1.815h-2.536c0.039,2.913,2.167,4.1,4.431,4.1
		C534.49,387.271,536.52,385.904,536.52,383.131z"/>
	<path fill="#9C9D9F" d="M491.181,380.455c0,3.224-1.285,5.354-3.357,5.354c-1.996,0-3.472-2.129-3.472-5.736
		c0-3.146,1.188-5.274,3.355-5.274C489.819,374.797,491.181,376.945,491.181,380.455z M493.674,380.303
		c0-4.317-2.475-6.986-5.928-6.986c-3.452,0-5.907,2.668-5.907,6.986c0,4.602,2.628,7.136,5.905,7.136
		C491.028,387.438,493.674,384.904,493.674,380.303z"/>
	<path fill="#9C9D9F" d="M502.026,382.028c0,2.418-1.015,4.045-2.627,4.045c-0.748,0-1.188-0.23-1.496-0.477v-6.37
		c0-0.69,0.477-1.054,1.438-1.054C500.664,378.173,502.026,379.401,502.026,382.028z M504.252,381.913
		c0-2.687-1.304-4.949-4.851-4.949c-1.21,0-2.437,0.307-2.957,0.652c-0.536,0.365-0.726,0.709-0.726,1.401v11.108
		c0,0.23,0.115,0.329,0.347,0.329h1.513c0.229,0,0.327-0.099,0.327-0.329v-3.262c0.249,0.172,0.921,0.517,1.878,0.517
		C502.793,387.38,504.252,384.58,504.252,381.913z"/>
	<path fill="#9C9D9F" d="M512.095,380.493l-4.165,0.71c0.08-1.498,0.729-3.03,2.266-3.03
		C511.557,378.173,512.037,379.305,512.095,380.493z M514.242,384.157c0-0.248-0.191-0.479-0.441-0.479
		c-0.23,0-0.402,0.173-0.496,0.346c-0.403,0.71-1.207,1.633-2.434,1.633c-1.843,0-2.728-1.554-2.844-3.356l5.585-0.922
		c0.401-0.056,0.575-0.191,0.575-0.61c0-1.938-1.361-3.799-3.761-3.799c-2.285,0-4.393,1.593-4.393,5.161
		c0,3.76,2.072,5.275,4.393,5.275C512.88,387.4,514.242,385.309,514.242,384.157z"/>
	<path fill="#9C9D9F" d="M524.463,386.824v-6.906c0-2.302-2.072-2.954-4.105-2.954c-1.42,0-2.59,0.267-3.223,0.576
		c-0.576,0.287-0.768,0.556-0.768,1.186v8.098c0,0.229,0.116,0.324,0.347,0.324h1.516c0.229,0,0.345-0.095,0.345-0.324v-7.404
		c0-0.611,0.152-1.268,1.708-1.268c1.532,0,1.991,0.921,1.991,1.861v6.812c0,0.23,0.1,0.325,0.33,0.325h1.533
		C524.367,387.149,524.463,387.055,524.463,386.824z"/>
	<path fill="#007CC1" d="M539.916,386.287c0-1.369-1.922-1.107-1.922-1.996c0-0.381,0.25-0.611,0.644-0.611
		c0.388,0,0.553,0.267,0.646,0.475c0.05,0.108,0.136,0.201,0.267,0.201c0.157,0,0.271-0.085,0.271-0.265
		c0-0.244-0.353-0.762-1.17-0.762c-0.717,0-1.235,0.379-1.235,1.033c0,1.241,1.901,0.983,1.901,1.989
		c0,0.345-0.229,0.625-0.674,0.625c-0.418,0-0.648-0.347-0.742-0.588c-0.041-0.122-0.127-0.215-0.287-0.215
		c-0.174,0-0.287,0.105-0.287,0.287c0,0.301,0.469,0.904,1.295,0.904C539.457,387.363,539.916,386.903,539.916,386.287z"/>
	<path fill="#007CC1" d="M543.547,385.375c0,0.939-0.395,1.586-1.069,1.586c-0.646,0-1.12-0.646-1.12-1.709
		c0-0.91,0.389-1.552,1.084-1.552C543.117,383.702,543.547,384.349,543.547,385.375z M544.18,385.325
		c0-1.229-0.705-1.995-1.723-1.995c-1.02,0-1.729,0.768-1.729,1.995c0,1.313,0.761,2.037,1.729,2.037S544.18,386.638,544.18,385.325
		z"/>
	<path fill="#007CC1" d="M548.037,386.629c0-0.094-0.048-0.149-0.133-0.149c-0.051,0-0.094,0.028-0.146,0.071
		c-0.159,0.158-0.423,0.375-0.888,0.375c-0.732,0-1.22-0.718-1.22-1.715c0-0.97,0.438-1.521,1.062-1.521
		c0.524,0,0.703,0.33,0.79,0.512c0.05,0.101,0.13,0.201,0.266,0.201c0.159,0,0.269-0.095,0.269-0.267
		c0-0.258-0.414-0.806-1.291-0.806c-1.094,0-1.719,0.911-1.719,1.981c0,1.115,0.574,2.053,1.764,2.053
		C547.543,387.363,548.037,386.853,548.037,386.629z"/>
	<path fill="#007CC1" d="M549.562,387.197v-3.703c0-0.057-0.032-0.083-0.087-0.083h-0.43c-0.057,0-0.086,0.029-0.086,0.083v3.703
		c0,0.058,0.031,0.087,0.086,0.087h0.43C549.532,387.284,549.562,387.254,549.562,387.197z"/>
	<path fill="#007CC1" d="M552.89,387.197v-0.221c0-0.059-0.028-0.083-0.085-0.083h-1.44v-1.43h1.227c0.06,0,0.087-0.03,0.087-0.085
		v-0.209c0-0.056-0.029-0.085-0.087-0.085h-1.227v-1.276h1.44c0.058,0,0.085-0.031,0.085-0.085v-0.225
		c0-0.058-0.028-0.084-0.085-0.084h-1.961c-0.056,0-0.082,0.03-0.082,0.084v3.703c0,0.057,0.029,0.087,0.082,0.087h1.961
		C552.862,387.284,552.89,387.254,552.89,387.197z"/>
	<path fill="#007CC1" d="M556.104,383.717v-0.223c0-0.057-0.036-0.083-0.094-0.083h-2.476c-0.058,0-0.093,0.029-0.093,0.083v0.223
		c0,0.058,0.035,0.084,0.093,0.084h0.94v3.388c0,0.063,0.028,0.094,0.094,0.094h0.416c0.064,0,0.094-0.03,0.094-0.094v-3.388h0.932
		C556.068,383.803,556.104,383.774,556.104,383.717z"/>
	<path fill="#007CC1" d="M559.397,383.494c0-0.057-0.036-0.083-0.093-0.083h-0.324c-0.064,0-0.093,0.021-0.129,0.081l-0.86,1.534
		h-0.015l-0.841-1.534c-0.037-0.059-0.066-0.081-0.129-0.081h-0.438c-0.059,0-0.086,0.029-0.086,0.083
		c0,0.021,0.01,0.053,0.021,0.082l1.134,1.908v1.715c0,0.058,0.033,0.086,0.087,0.086h0.431c0.058,0,0.086-0.029,0.086-0.086v-1.715
		l1.134-1.908C559.388,383.552,559.397,383.516,559.397,383.494z"/>
	<path fill="#007CC1" d="M540.018,380.164c0,0.997-0.438,1.615-1.422,1.615c-0.187,0-0.352-0.022-0.445-0.037v-3.157
		c0.072-0.015,0.252-0.029,0.445-0.029C539.543,378.556,540.018,379.165,540.018,380.164z M540.642,380.171
		c0-1.191-0.653-1.974-2.081-1.974c-0.447,0-0.832,0.05-0.926,0.08c-0.074,0.021-0.086,0.058-0.086,0.122v3.56
		c0,0.062,0.014,0.101,0.086,0.122c0.1,0.028,0.553,0.079,0.926,0.079C539.989,382.158,540.642,381.419,540.642,380.171z"/>
	<path fill="#007CC1" d="M543.54,380.537h-1.235l0.432-1.213c0.114-0.323,0.178-0.702,0.178-0.702h0.016
		c0,0,0.073,0.379,0.187,0.702L543.54,380.537z M544.682,382.036c0-0.021-0.016-0.064-0.022-0.086l-1.392-3.623
		c-0.023-0.058-0.045-0.087-0.105-0.087h-0.398c-0.072,0-0.092,0.029-0.115,0.087l-1.385,3.623
		c-0.012,0.029-0.021,0.064-0.021,0.086c0,0.05,0.031,0.08,0.087,0.08h0.337c0.063,0,0.094-0.029,0.116-0.083l0.406-1.148h1.463
		l0.403,1.148c0.021,0.058,0.051,0.083,0.107,0.083h0.43C544.653,382.116,544.682,382.087,544.682,382.036z"/>
	<path fill="#007CC1" d="M547.508,378.549v-0.222c0-0.058-0.035-0.087-0.094-0.087h-2.475c-0.057,0-0.092,0.029-0.092,0.087v0.222
		c0,0.057,0.034,0.083,0.092,0.083h0.94v3.387c0,0.064,0.028,0.093,0.094,0.093h0.415c0.064,0,0.094-0.028,0.094-0.093v-3.387h0.932
		C547.471,378.635,547.508,378.605,547.508,378.549z"/>
	<path fill="#007CC1" d="M549.969,380.537h-1.231l0.428-1.213c0.115-0.323,0.18-0.702,0.18-0.702h0.015c0,0,0.072,0.379,0.187,0.702
		L549.969,380.537z M551.11,382.036c0-0.021-0.016-0.064-0.021-0.086l-1.392-3.623c-0.023-0.058-0.043-0.087-0.107-0.087h-0.395
		c-0.074,0-0.092,0.029-0.115,0.087l-1.387,3.623c-0.014,0.029-0.023,0.064-0.023,0.086c0,0.05,0.032,0.08,0.087,0.08h0.337
		c0.065,0,0.095-0.029,0.116-0.083l0.409-1.148h1.462l0.403,1.148c0.021,0.058,0.05,0.083,0.105,0.083h0.43
		C551.081,382.116,551.11,382.087,551.11,382.036z"/>
	<path fill="#007CC1" d="M540.584,376.453v-1.45c0-0.057-0.042-0.083-0.103-0.083H539.3c-0.057,0-0.085,0.029-0.085,0.083v0.196
		c0,0.057,0.028,0.092,0.085,0.092h0.718v0.948c0,0.229-0.345,0.387-0.809,0.387c-0.676,0-1.187-0.695-1.187-1.722
		c0-0.935,0.415-1.551,1.149-1.551c0.566,0,0.773,0.335,0.863,0.51c0.049,0.108,0.12,0.194,0.264,0.194
		c0.174,0,0.267-0.102,0.267-0.266c0-0.236-0.36-0.796-1.345-0.796c-1.117,0-1.83,0.811-1.83,1.995c0,1.277,0.76,2.038,1.843,2.038
		C540.002,377.026,540.584,376.732,540.584,376.453z"/>
	<path fill="#007CC1" d="M544.387,375.038c0,0.94-0.395,1.587-1.072,1.587c-0.645,0-1.118-0.646-1.118-1.709
		c0-0.911,0.388-1.552,1.084-1.552C543.956,373.366,544.387,374.014,544.387,375.038z M545.018,374.989
		c0-1.228-0.701-1.996-1.723-1.996c-1.02,0-1.73,0.772-1.73,1.996c0,1.313,0.76,2.037,1.73,2.037
		C544.264,377.026,545.018,376.302,545.018,374.989z"/>
	<path fill="#007CC1" d="M548.85,373.158c0-0.057-0.035-0.083-0.094-0.083h-0.365c-0.065,0-0.094,0.029-0.115,0.083l-0.907,2.613
		c-0.078,0.237-0.134,0.524-0.134,0.524h-0.015c0,0-0.045-0.289-0.122-0.524l-0.89-2.613c-0.022-0.057-0.058-0.083-0.116-0.083
		h-0.46c-0.055,0-0.084,0.029-0.084,0.083c0,0.021,0.01,0.057,0.021,0.084l1.357,3.617c0.02,0.058,0.049,0.086,0.113,0.086h0.303
		c0.07,0,0.102-0.028,0.125-0.086l1.362-3.617C548.842,373.217,548.85,373.18,548.85,373.158z"/>
	<path fill="#007CC1" d="M551.74,376.861v-0.22c0-0.057-0.029-0.085-0.084-0.085h-1.442v-1.43h1.229
		c0.056,0,0.085-0.028,0.085-0.085v-0.208c0-0.059-0.029-0.086-0.085-0.086h-1.229v-1.277h1.442c0.058,0,0.084-0.031,0.084-0.087
		v-0.223c0-0.055-0.029-0.082-0.084-0.082h-1.961c-0.058,0-0.084,0.029-0.084,0.082v3.705c0,0.057,0.029,0.085,0.084,0.085h1.961
		C551.711,376.948,551.74,376.919,551.74,376.861z"/>
	<path fill="#007CC1" d="M554.58,374.178c0,0.474-0.346,0.79-0.989,0.79c-0.147,0-0.262,0-0.323-0.008v-1.565
		c0.094-0.015,0.229-0.035,0.459-0.035C554.323,373.359,554.58,373.646,554.58,374.178z M555.342,376.861
		c0-0.021-0.017-0.05-0.031-0.079l-0.631-1.156c-0.117-0.217-0.31-0.409-0.447-0.474v-0.015c0.46-0.107,0.941-0.439,0.941-1.004
		c0-0.655-0.41-1.105-1.441-1.105c-0.467,0-0.854,0.051-0.962,0.08c-0.071,0.021-0.087,0.05-0.087,0.115v3.639
		c0,0.057,0.032,0.086,0.087,0.086h0.409c0.057,0,0.086-0.029,0.086-0.086v-1.614h0.259c0.258,0,0.437,0.23,0.538,0.431l0.603,1.199
		c0.022,0.044,0.077,0.071,0.147,0.071h0.445C555.313,376.948,555.342,376.919,555.342,376.861z"/>
	<path fill="#007CC1" d="M559.387,376.861v-3.703c0-0.057-0.027-0.083-0.082-0.083h-0.313c-0.055,0-0.082,0.029-0.082,0.083v2.348
		c0,0.321,0.041,0.703,0.041,0.703h-0.02c0,0-0.166-0.354-0.354-0.625l-1.658-2.427c-0.033-0.06-0.064-0.083-0.127-0.083h-0.469
		c-0.057,0-0.084,0.028-0.084,0.083v3.703c0,0.057,0.029,0.085,0.084,0.085h0.314c0.058,0,0.086-0.028,0.086-0.085v-2.533
		c0-0.288-0.036-0.669-0.036-0.669h0.014c0,0,0.165,0.353,0.335,0.61l1.766,2.59c0.036,0.057,0.056,0.087,0.129,0.087h0.367
		C559.359,376.948,559.387,376.919,559.387,376.861z"/>
	<path fill="#007CC1" d="M564.653,376.876c0-0.021-0.373-3.718-0.373-3.718c-0.006-0.056-0.029-0.082-0.085-0.082h-0.468
		c-0.058,0-0.086,0.036-0.107,0.082l-0.94,2.498c-0.095,0.252-0.148,0.562-0.148,0.562h-0.017c0,0-0.063-0.31-0.157-0.562
		l-0.933-2.498c-0.021-0.049-0.049-0.082-0.107-0.082h-0.473c-0.057,0-0.081,0.029-0.085,0.082c0,0-0.374,3.697-0.374,3.718
		c0,0.051,0.035,0.072,0.085,0.072h0.353c0.058,0,0.078-0.028,0.084-0.085l0.199-2.513c0.021-0.31,0.021-0.74,0.021-0.74h0.016
		c0,0,0.101,0.431,0.215,0.74l0.933,2.522c0.021,0.058,0.044,0.079,0.106,0.079h0.179c0.065,0,0.087-0.021,0.107-0.079l0.933-2.522
		c0.115-0.314,0.217-0.74,0.217-0.74h0.014c0,0,0,0.431,0.021,0.74l0.201,2.513c0.008,0.057,0.028,0.085,0.086,0.085h0.417
		C564.632,376.948,564.653,376.927,564.653,376.876z"/>
	<path fill="#007CC1" d="M567.783,376.861v-0.22c0-0.057-0.029-0.085-0.087-0.085h-1.438v-1.43h1.226
		c0.058,0,0.085-0.028,0.085-0.085v-0.208c0-0.059-0.027-0.086-0.085-0.086h-1.226v-1.277h1.438c0.058,0,0.087-0.031,0.087-0.087
		v-0.223c0-0.055-0.029-0.082-0.087-0.082h-1.96c-0.057,0-0.086,0.029-0.086,0.082v3.705c0,0.057,0.031,0.085,0.086,0.085h1.96
		C567.754,376.948,567.783,376.919,567.783,376.861z"/>
	<path fill="#007CC1" d="M571.865,376.861v-3.703c0-0.057-0.029-0.083-0.084-0.083h-0.311c-0.059,0-0.084,0.029-0.084,0.083v2.348
		c0,0.321,0.04,0.703,0.04,0.703h-0.021c0,0-0.165-0.354-0.352-0.625l-1.657-2.427c-0.034-0.06-0.064-0.083-0.128-0.083h-0.468
		c-0.058,0-0.085,0.028-0.085,0.083v3.703c0,0.057,0.029,0.085,0.085,0.085h0.314c0.058,0,0.086-0.028,0.086-0.085v-2.533
		c0-0.288-0.036-0.669-0.036-0.669h0.015c0,0,0.165,0.353,0.339,0.61l1.762,2.59c0.037,0.057,0.059,0.087,0.131,0.087h0.365
		C571.836,376.948,571.865,376.919,571.865,376.861z"/>
	<path fill="#007CC1" d="M575.309,373.381v-0.223c0-0.056-0.036-0.082-0.094-0.082h-2.477c-0.057,0-0.093,0.029-0.093,0.082v0.223
		c0,0.058,0.036,0.086,0.093,0.086h0.941v3.387c0,0.065,0.031,0.093,0.094,0.093h0.415c0.065,0,0.093-0.027,0.093-0.093v-3.387
		h0.934C575.273,373.467,575.309,373.438,575.309,373.381z"/>
</g>
</svg>
