<?xml version="1.0" encoding="utf-8"?>
<!-- Generator: Adobe Illustrator 14.0.0, SVG Export Plug-In . SVG Version: 6.00 Build 43363)  -->
<!DOCTYPE svg PUBLIC "-//W3C//DTD SVG 1.1//EN" "http://www.w3.org/Graphics/SVG/1.1/DTD/svg11.dtd">
<svg version="1.1" id="Ebene_1" xmlns="http://www.w3.org/2000/svg" xmlns:xlink="http://www.w3.org/1999/xlink" x="0px" y="0px"
	 width="800px" height="600px" viewBox="0 0 800 600" enable-background="new 0 0 800 600" xml:space="preserve">
<g>
	<rect x="112.264" y="40.333" fill="#CC0000" stroke="#000000" stroke-width="0.506" width="38.168" height="38.168"/>
	<rect x="112.264" y="82.241" fill="#D11919" stroke="#000000" stroke-width="0.506" width="38.168" height="38.168"/>
	<rect x="112.264" y="124.147" fill="#D63333" stroke="#000000" stroke-width="0.506" width="38.169" height="38.168"/>
	<rect x="112.264" y="166.055" fill="#DB4C4C" stroke="#000000" stroke-width="0.506" width="38.168" height="38.169"/>
	<rect x="112.264" y="207.962" fill="#E06666" stroke="#000000" stroke-width="0.506" width="38.168" height="38.169"/>
	<rect x="112.264" y="249.87" fill="#E67F7F" stroke="#000000" stroke-width="0.506" width="38.169" height="38.168"/>
	<rect x="112.264" y="291.777" fill="#EB9999" stroke="#000000" stroke-width="0.506" width="38.168" height="38.168"/>
	<rect x="112.264" y="333.684" fill="#F0B2B2" stroke="#000000" stroke-width="0.506" width="38.168" height="38.17"/>
	<rect x="112.264" y="375.592" fill="#F5CCCC" stroke="#000000" stroke-width="0.506" width="38.169" height="38.169"/>
	<rect x="112.264" y="417.499" fill="#FAE6E6" stroke="#000000" stroke-width="0.506" width="38.168" height="38.169"/>
	<rect x="112.264" y="459.406" fill="#FFFFFF" stroke="#000000" stroke-width="0.506" width="38.168" height="38.169"/>
</g>
<g>
	<rect x="170.996" y="40.333" fill="#FF9900" stroke="#000000" stroke-width="0.506" width="38.169" height="38.168"/>
	<rect x="170.997" y="82.241" fill="#FFA319" stroke="#000000" stroke-width="0.506" width="38.169" height="38.168"/>
	<rect x="170.996" y="124.147" fill="#FFAD33" stroke="#000000" stroke-width="0.506" width="38.169" height="38.168"/>
	<rect x="170.996" y="166.055" fill="#FFB84C" stroke="#000000" stroke-width="0.506" width="38.169" height="38.169"/>
	<rect x="170.996" y="207.962" fill="#FFC266" stroke="#000000" stroke-width="0.506" width="38.169" height="38.169"/>
	<rect x="170.996" y="249.87" fill="#FFCC7F" stroke="#000000" stroke-width="0.506" width="38.169" height="38.168"/>
	<rect x="170.996" y="291.777" fill="#FFD699" stroke="#000000" stroke-width="0.506" width="38.169" height="38.168"/>
	<rect x="170.996" y="333.684" fill="#FFE0B2" stroke="#000000" stroke-width="0.506" width="38.169" height="38.17"/>
	<rect x="170.996" y="375.592" fill="#FFEBCC" stroke="#000000" stroke-width="0.506" width="38.169" height="38.169"/>
	<rect x="170.996" y="417.499" fill="#FFF5E6" stroke="#000000" stroke-width="0.506" width="38.169" height="38.169"/>
	<rect x="170.996" y="459.406" fill="#FFFFFF" stroke="#000000" stroke-width="0.506" width="38.169" height="38.169"/>
</g>
<g>
	<rect x="229.729" y="40.333" fill="#FFCC00" stroke="#000000" stroke-width="0.506" width="38.168" height="38.168"/>
	<rect x="229.729" y="82.241" fill="#FFD119" stroke="#000000" stroke-width="0.506" width="38.168" height="38.168"/>
	<rect x="229.729" y="124.147" fill="#FFD633" stroke="#000000" stroke-width="0.506" width="38.168" height="38.168"/>
	<rect x="229.729" y="166.055" fill="#FFDB4C" stroke="#000000" stroke-width="0.506" width="38.168" height="38.169"/>
	<rect x="229.729" y="207.962" fill="#FFE066" stroke="#000000" stroke-width="0.506" width="38.168" height="38.169"/>
	<rect x="229.729" y="249.87" fill="#FFE67F" stroke="#000000" stroke-width="0.506" width="38.169" height="38.168"/>
	<rect x="229.729" y="291.777" fill="#FFEB99" stroke="#000000" stroke-width="0.506" width="38.168" height="38.168"/>
	<rect x="229.729" y="333.684" fill="#FFF0B2" stroke="#000000" stroke-width="0.506" width="38.169" height="38.17"/>
	<rect x="229.729" y="375.592" fill="#FFF5CC" stroke="#000000" stroke-width="0.506" width="38.168" height="38.169"/>
	<rect x="229.729" y="417.499" fill="#FFFAE6" stroke="#000000" stroke-width="0.506" width="38.169" height="38.169"/>
	<rect x="229.729" y="459.406" fill="#FFFFFF" stroke="#000000" stroke-width="0.506" width="38.168" height="38.169"/>
</g>
<g>
	<rect x="288.461" y="40.333" fill="#33CC00" stroke="#000000" stroke-width="0.506" width="38.169" height="38.168"/>
	<rect x="288.461" y="82.241" fill="#47D119" stroke="#000000" stroke-width="0.506" width="38.169" height="38.168"/>
	<rect x="288.461" y="124.147" fill="#5CD633" stroke="#000000" stroke-width="0.506" width="38.169" height="38.168"/>
	<rect x="288.461" y="166.055" fill="#70DB4C" stroke="#000000" stroke-width="0.506" width="38.169" height="38.169"/>
	<rect x="288.461" y="207.962" fill="#85E066" stroke="#000000" stroke-width="0.506" width="38.169" height="38.169"/>
	<rect x="288.461" y="249.87" fill="#99E67F" stroke="#000000" stroke-width="0.506" width="38.169" height="38.168"/>
	<rect x="288.461" y="291.777" fill="#ADEB99" stroke="#000000" stroke-width="0.506" width="38.169" height="38.168"/>
	<rect x="288.461" y="333.684" fill="#C2F0B2" stroke="#000000" stroke-width="0.506" width="38.169" height="38.17"/>
	<rect x="288.461" y="375.592" fill="#D6F5CC" stroke="#000000" stroke-width="0.506" width="38.169" height="38.169"/>
	<rect x="288.461" y="417.499" fill="#EBFAE6" stroke="#000000" stroke-width="0.506" width="38.169" height="38.169"/>
	<rect x="288.461" y="459.406" fill="#FFFFFF" stroke="#000000" stroke-width="0.506" width="38.169" height="38.169"/>
</g>
<g>
	<rect x="347.193" y="40.333" fill="#00CCCC" stroke="#000000" stroke-width="0.506" width="38.168" height="38.168"/>
	<rect x="347.194" y="82.241" fill="#19D1D1" stroke="#000000" stroke-width="0.506" width="38.168" height="38.168"/>
	<rect x="347.193" y="124.147" fill="#33D6D6" stroke="#000000" stroke-width="0.506" width="38.168" height="38.168"/>
	<rect x="347.193" y="166.055" fill="#4CDBDB" stroke="#000000" stroke-width="0.506" width="38.168" height="38.169"/>
	<rect x="347.193" y="207.962" fill="#66E0E0" stroke="#000000" stroke-width="0.506" width="38.168" height="38.169"/>
	<rect x="347.193" y="249.87" fill="#7FE6E6" stroke="#000000" stroke-width="0.506" width="38.169" height="38.168"/>
	<rect x="347.193" y="291.777" fill="#99EBEB" stroke="#000000" stroke-width="0.506" width="38.168" height="38.168"/>
	<rect x="347.193" y="333.684" fill="#B2F0F0" stroke="#000000" stroke-width="0.506" width="38.168" height="38.17"/>
	<rect x="347.193" y="375.592" fill="#CCF5F5" stroke="#000000" stroke-width="0.506" width="38.168" height="38.169"/>
	<rect x="347.193" y="417.499" fill="#E6FAFA" stroke="#000000" stroke-width="0.506" width="38.168" height="38.169"/>
	<rect x="347.193" y="459.406" fill="#FFFFFF" stroke="#000000" stroke-width="0.506" width="38.168" height="38.169"/>
</g>
<g>
	<rect x="405.926" y="40.333" fill="#0000CC" stroke="#000000" stroke-width="0.506" width="38.169" height="38.168"/>
	<rect x="405.926" y="82.241" fill="#1919D1" stroke="#000000" stroke-width="0.506" width="38.169" height="38.168"/>
	<rect x="405.926" y="124.147" fill="#3333D6" stroke="#000000" stroke-width="0.506" width="38.169" height="38.168"/>
	<rect x="405.926" y="166.055" fill="#4C4CDB" stroke="#000000" stroke-width="0.506" width="38.169" height="38.169"/>
	<rect x="405.926" y="207.962" fill="#6666E0" stroke="#000000" stroke-width="0.506" width="38.169" height="38.169"/>
	<rect x="405.926" y="249.87" fill="#7F7FE6" stroke="#000000" stroke-width="0.506" width="38.169" height="38.168"/>
	<rect x="405.926" y="291.777" fill="#9999EB" stroke="#000000" stroke-width="0.506" width="38.169" height="38.168"/>
	<rect x="405.926" y="333.684" fill="#B2B2F0" stroke="#000000" stroke-width="0.506" width="38.169" height="38.17"/>
	<rect x="405.926" y="375.592" fill="#CCCCF5" stroke="#000000" stroke-width="0.506" width="38.169" height="38.169"/>
	<rect x="405.926" y="417.499" fill="#E6E6FA" stroke="#000000" stroke-width="0.506" width="38.169" height="38.169"/>
	<rect x="405.926" y="459.406" fill="#FFFFFF" stroke="#000000" stroke-width="0.506" width="38.169" height="38.169"/>
</g>
<g>
	<rect x="464.658" y="40.333" fill="#CC00CC" stroke="#000000" stroke-width="0.506" width="38.168" height="38.168"/>
	<rect x="464.658" y="82.241" fill="#D119D1" stroke="#000000" stroke-width="0.506" width="38.168" height="38.168"/>
	<rect x="464.658" y="124.147" fill="#D633D6" stroke="#000000" stroke-width="0.506" width="38.168" height="38.168"/>
	<rect x="464.658" y="166.055" fill="#DB4CDB" stroke="#000000" stroke-width="0.506" width="38.168" height="38.169"/>
	<rect x="464.658" y="207.962" fill="#E066E0" stroke="#000000" stroke-width="0.506" width="38.168" height="38.169"/>
	<rect x="464.658" y="249.87" fill="#E67FE6" stroke="#000000" stroke-width="0.506" width="38.168" height="38.168"/>
	<rect x="464.658" y="291.777" fill="#EB99EB" stroke="#000000" stroke-width="0.506" width="38.168" height="38.168"/>
	<rect x="464.658" y="333.684" fill="#F0B2F0" stroke="#000000" stroke-width="0.506" width="38.168" height="38.17"/>
	<rect x="464.658" y="375.592" fill="#F5CCF5" stroke="#000000" stroke-width="0.506" width="38.168" height="38.169"/>
	<rect x="464.658" y="417.499" fill="#FAE6FA" stroke="#000000" stroke-width="0.506" width="38.168" height="38.169"/>
	<rect x="464.658" y="459.406" fill="#FFFFFF" stroke="#000000" stroke-width="0.506" width="38.168" height="38.169"/>
</g>
<g>
	<rect x="521.284" y="40.333" stroke="#000000" stroke-width="0.506" width="38.168" height="38.168"/>
	<rect x="521.284" y="82.241" fill="#191919" stroke="#000000" stroke-width="0.506" width="38.168" height="38.168"/>
	<rect x="521.284" y="124.147" fill="#333333" stroke="#000000" stroke-width="0.506" width="38.168" height="38.168"/>
	<rect x="521.283" y="166.055" fill="#4C4C4C" stroke="#000000" stroke-width="0.506" width="38.169" height="38.169"/>
	<rect x="521.284" y="207.962" fill="#666666" stroke="#000000" stroke-width="0.506" width="38.168" height="38.169"/>
	<rect x="521.284" y="249.87" fill="#7F7F7F" stroke="#000000" stroke-width="0.506" width="38.168" height="38.168"/>
	<rect x="521.284" y="291.777" fill="#999999" stroke="#000000" stroke-width="0.506" width="38.168" height="38.168"/>
	<rect x="521.284" y="333.684" fill="#B2B2B2" stroke="#000000" stroke-width="0.506" width="38.168" height="38.17"/>
	<rect x="521.284" y="375.592" fill="#CCCCCC" stroke="#000000" stroke-width="0.506" width="38.168" height="38.169"/>
	<rect x="521.284" y="417.499" fill="#E6E6E6" stroke="#000000" stroke-width="0.506" width="38.168" height="38.169"/>
	<rect x="521.284" y="459.406" fill="#FFFFFF" stroke="#000000" stroke-width="0.506" width="38.168" height="38.169"/>
</g>
</svg>
