<?xml version="1.0" encoding="UTF-8" standalone="no"?>
<!-- Created with Inkscape (http://www.inkscape.org/) -->

<svg
   xmlns:dc="http://purl.org/dc/elements/1.1/"
   xmlns:cc="http://creativecommons.org/ns#"
   xmlns:rdf="http://www.w3.org/1999/02/22-rdf-syntax-ns#"
   xmlns:svg="http://www.w3.org/2000/svg"
   xmlns="http://www.w3.org/2000/svg"
   xmlns:xlink="http://www.w3.org/1999/xlink"
   version="1.1"
   width="100"
   height="100"
   id="svg1332">
  <metadata
     id="metadata99">
    <rdf:RDF>
      <cc:Work
         rdf:about="">
        <dc:format>image/svg+xml</dc:format>
        <dc:type
           rdf:resource="http://purl.org/dc/dcmitype/StillImage" />
        <dc:title></dc:title>
      </cc:Work>
    </rdf:RDF>
  </metadata>
  <defs
     id="defs1334">
    <linearGradient
       x1="99.777298"
       y1="15.4238"
       x2="153.0005"
       y2="248.6311"
       id="aigrd1"
       gradientUnits="userSpaceOnUse">
      <stop
         id="stop53300"
         style="stop-color:#184375;stop-opacity:1"
         offset="0" />
      <stop
         id="stop53302"
         style="stop-color:#c8bddc;stop-opacity:1"
         offset="1" />
    </linearGradient>
    <linearGradient
       id="linearGradient3264">
      <stop
         id="stop3266"
         style="stop-color:#c9c9c9;stop-opacity:1"
         offset="0" />
      <stop
         id="stop3276"
         style="stop-color:#f8f8f8;stop-opacity:1"
         offset="0.25" />
      <stop
         id="stop3272"
         style="stop-color:#e2e2e2;stop-opacity:1"
         offset="0.5" />
      <stop
         id="stop3274"
         style="stop-color:#3b3b3b;stop-opacity:1"
         offset="0.75" />
      <stop
         id="stop3268"
         style="stop-color:#c9c9c9;stop-opacity:1"
         offset="1" />
    </linearGradient>
    <linearGradient
       x1="0.052173913"
       y1="0.9765625"
       x2="0.78260869"
       y2="0.0078125"
       id="linearGradient1506"
       xlink:href="#linearGradient1507" />
    <linearGradient
       id="linearGradient1507">
      <stop
         id="stop1508"
         style="stop-color:#000000;stop-opacity:0.09550562"
         offset="0" />
      <stop
         id="stop1510"
         style="stop-color:#000000;stop-opacity:0"
         offset="1" />
    </linearGradient>
    <linearGradient
       x1="1.5572519"
       y1="-0.55303031"
       x2="0.062992126"
       y2="0.546875"
       id="linearGradient1499"
       xlink:href="#linearGradient1501" />
    <linearGradient
       id="linearGradient1501">
      <stop
         id="stop1502"
         style="stop-color:#ffffff;stop-opacity:1"
         offset="0" />
      <stop
         id="stop1504"
         style="stop-color:#ffffff;stop-opacity:0"
         offset="1" />
    </linearGradient>
    <linearGradient
       x1="0.88034189"
       y1="0.2109375"
       x2="0.085470088"
       y2="1.1796875"
       id="linearGradient1495"
       xlink:href="#linearGradient1492" />
    <linearGradient
       id="linearGradient1492">
      <stop
         id="stop1493"
         style="stop-color:#dadada;stop-opacity:1"
         offset="0" />
      <stop
         id="stop1496"
         style="stop-color:#f1f1f1;stop-opacity:1"
         offset="0.34923077" />
      <stop
         id="stop1494"
         style="stop-color:#f0f0f0;stop-opacity:1"
         offset="1" />
    </linearGradient>
    <linearGradient
       x1="0.63247865"
       y1="0.328125"
       x2="-0.37606838"
       y2="1.328125"
       id="linearGradient1497"
       xlink:href="#linearGradient1492" />
    <linearGradient
       id="linearGradient2201">
      <stop
         id="stop2202"
         style="stop-color:#cbcbca;stop-opacity:1"
         offset="0" />
      <stop
         id="stop2203"
         style="stop-color:#ffffff;stop-opacity:1"
         offset="1" />
    </linearGradient>
    <linearGradient
       id="linearGradient259">
      <stop
         id="stop260"
         style="stop-color:#fafafa;stop-opacity:1"
         offset="0" />
      <stop
         id="stop261"
         style="stop-color:#bbbbbb;stop-opacity:1"
         offset="1" />
    </linearGradient>
    <linearGradient
       id="linearGradient269">
      <stop
         id="stop270"
         style="stop-color:#a3a3a3;stop-opacity:1"
         offset="0" />
      <stop
         id="stop271"
         style="stop-color:#4c4c4c;stop-opacity:1"
         offset="1" />
    </linearGradient>
    <linearGradient
       id="linearGradient15662">
      <stop
         id="stop15664"
         style="stop-color:#ffffff;stop-opacity:1"
         offset="0" />
      <stop
         id="stop15666"
         style="stop-color:#f8f8f8;stop-opacity:1"
         offset="1" />
    </linearGradient>
    <radialGradient
       cx="20.892099"
       cy="114.5684"
       r="5.256"
       fx="20.892099"
       fy="114.5684"
       id="aigrd2"
       gradientUnits="userSpaceOnUse">
      <stop
         id="stop15566"
         style="stop-color:#f0f0f0;stop-opacity:1"
         offset="0" />
      <stop
         id="stop15568"
         style="stop-color:#9a9a9a;stop-opacity:1"
         offset="1" />
    </radialGradient>
    <radialGradient
       cx="20.892099"
       cy="64.567902"
       r="5.257"
       fx="20.892099"
       fy="64.567902"
       id="aigrd3"
       gradientUnits="userSpaceOnUse">
      <stop
         id="stop15573"
         style="stop-color:#f0f0f0;stop-opacity:1"
         offset="0" />
      <stop
         id="stop15575"
         style="stop-color:#9a9a9a;stop-opacity:1"
         offset="1" />
    </radialGradient>
  </defs>
  <g
     transform="matrix(1.0744717,0,0,1.0744639,-88.674123,-102.5689)"
     id="g3092">
    <g
       id="g3068">
      <g
         transform="matrix(0.145923,0,0,0.145923,64.849379,70.989854)"
         id="layer1">
        <g
           transform="matrix(4.675013,0,0,4.675013,-1353.75,-678.4329)"
           id="_189263792"
           style="fill-rule:evenodd">
          <rect
             width="136.42599"
             height="136.42599"
             x="315.48599"
             y="180.991"
             id="_151141056"
             style="fill:#ff9900" />
          <rect
             width="68.215401"
             height="68.003899"
             x="383.69699"
             y="249.205"
             id="_151140504"
             style="fill:#de8500" />
          <rect
             width="68.215401"
             height="68.215401"
             x="315.487"
             y="180.99001"
             id="_151140120"
             style="fill:#ffb13b" />
          <g
             id="g107">
            <circle
               cx="340.75699"
               cy="249.099"
               r="25.0634"
               id="_151139416"
               style="fill:#ff9900" />
            <circle
               cx="0"
               cy="0"
               r="1658.51"
               transform="matrix(0.0106858,0.0106858,-0.0106858,0.0106858,353.365,218.661)"
               id="_151137016"
               style="fill:#ff9900" />
            <circle
               cx="0"
               cy="0"
               r="1658.51"
               transform="matrix(0,0.015112,-0.015112,0,383.803,206.053)"
               id="_151136448"
               style="fill:#ff9900" />
            <circle
               cx="0"
               cy="0"
               r="1658.51"
               transform="matrix(-0.0106858,0.0106858,-0.0106858,-0.0106858,414.241,218.661)"
               id="_151135880"
               style="fill:#ff9900" />
            <circle
               cx="426.849"
               cy="249.099"
               r="25.0634"
               id="_151135312"
               style="fill:#ff9900" />
            <circle
               cx="0"
               cy="0"
               r="1658.51"
               transform="matrix(-0.0106858,-0.0106858,0.0106858,-0.0106858,414.241,279.538)"
               id="_151134744"
               style="fill:#ff9900" />
            <circle
               cx="0"
               cy="0"
               r="1658.51"
               transform="matrix(0,-0.015112,0.015112,0,383.803,292.146)"
               id="_151134176"
               style="fill:#ff9900" />
            <circle
               cx="0"
               cy="0"
               r="1658.51"
               transform="matrix(0.0106858,-0.0106858,0.0106858,0.0106858,353.365,279.538)"
               id="_151038344"
               style="fill:#ff9900" />
          </g>
          <path
             d="m 401.634,206.051 c 0,-9.84433 -7.98625,-17.8306 -17.8306,-17.8306 -9.84433,0 -17.8306,7.98625 -17.8306,17.8306 -6.96405,-6.95901 -18.2536,-6.95901 -25.2176,0 -6.95901,6.96405 -6.95901,18.2536 0,25.2176 -9.84433,0 -17.8306,7.98625 -17.8306,17.8306 0,9.84433 7.98625,17.8306 17.8306,17.8306 -6.95901,6.96405 -6.95901,18.2536 0,25.2176 6.96405,6.95901 18.2536,6.95901 25.2176,0 0,9.84433 7.98625,17.8306 17.8306,17.8306 9.84433,0 17.8306,-7.98625 17.8306,-17.8306 6.96405,6.95901 18.2536,6.95901 25.2176,0 6.95901,-6.96405 6.95901,-18.2536 0,-25.2176 9.84433,0 17.8255,-7.98625 17.8255,-17.8306 0,-9.84433 -7.98121,-17.8306 -17.8255,-17.8306 6.95901,-6.96405 6.95901,-18.2536 0,-25.2176 -6.96405,-6.95901 -18.2536,-6.95901 -25.2176,0 z"
             id="_151038768"
             style="fill:#000000" />
          <path
             d="m 390.626,212.879 0,19.7441 13.9633,-13.9633 c 0,-2.46738 0.94163,-4.93979 2.8249,-6.82305 3.77156,-3.77156 9.88462,-3.77156 13.6511,0 3.77156,3.76653 3.77156,9.87958 0,13.6511 -1.88326,1.88326 -4.35568,2.8249 -6.82305,2.8249 l -13.9633,13.9633 19.7441,0 c 1.74731,-1.74731 4.15929,-2.82993 6.82809,-2.82993 5.32752,0 9.64795,4.32546 9.64795,9.65298 0,5.32752 -4.32043,9.65298 -9.64795,9.65298 -2.6688,0 -5.08078,-1.08262 -6.82809,-2.82993 l -19.7441,0 13.9633,13.9633 c 2.46738,0 4.93979,0.94163 6.82305,2.8249 3.77156,3.77156 3.77156,9.88462 0,13.6511 -3.76653,3.77156 -9.87958,3.77156 -13.6511,0 -1.88326,-1.88326 -2.8249,-4.35568 -2.8249,-6.82305 l -13.9633,-13.9633 0,19.7441 c 1.74731,1.74731 2.82993,4.15929 2.82993,6.82809 0,5.32752 -4.32546,9.64795 -9.65298,9.64795 -5.32752,0 -9.65298,-4.32043 -9.65298,-9.64795 0,-2.6688 1.08262,-5.08078 2.82993,-6.82809 l 0,-19.7441 -13.9633,13.9633 c 0,2.46738 -0.94163,4.93979 -2.8249,6.82305 -3.77156,3.77156 -9.88462,3.77156 -13.6511,0 -3.77156,-3.76653 -3.77156,-9.87958 0,-13.6511 1.88326,-1.88326 4.35568,-2.8249 6.82305,-2.8249 l 13.9633,-13.9633 -19.7441,0 c -1.74731,1.74731 -4.15929,2.82993 -6.82809,2.82993 -5.32752,0 -9.64795,-4.32546 -9.64795,-9.65298 0,-5.32752 4.32043,-9.65298 9.64795,-9.65298 2.6688,0 5.08078,1.08262 6.82809,2.82993 l 19.7441,0 -13.9633,-13.9633 c -2.46738,0 -4.93979,-0.94163 -6.82305,-2.8249 -3.77156,-3.77156 -3.77156,-9.88462 0,-13.6511 3.76653,-3.77156 9.87958,-3.77156 13.6511,0 1.88326,1.88326 2.8249,4.35568 2.8249,6.82305 l 13.9633,13.9633 0,-19.7441 c -1.74731,-1.74731 -2.82993,-4.15929 -2.82993,-6.82809 0,-5.32752 4.32546,-9.64795 9.65298,-9.64795 5.32752,0 9.65298,4.32043 9.65298,9.64795 0,2.6688 -1.08262,5.08078 -2.82993,6.82809 z"
             id="_151037224"
             style="fill:#ffffff" />
          <rect
             width="121.742"
             height="60.770401"
             x="322.92899"
             y="249.203"
             id="_151036536"
             style="fill:#000000" />
          <rect
             width="121.742"
             height="26.6689"
             x="322.92899"
             y="283.30499"
             id="_151035984"
             style="fill:#000000" />
          <path
             d="m 335.689,254.84 97.2147,0 c 3.98305,0 7.23596,3.25291 7.23596,7.23596 l 0,24.4069 c -37.5696,-4.64773 -74.8169,-11.073 -111.687,-10.4788 l 0,-13.9281 c 0,-3.98305 3.25291,-7.23596 7.23596,-7.23596 l 3.8e-4,0 z"
             id="_151164400"
             style="fill:#3f3f3f" />
          <polygon
             points="367.795,253.198 377.111,253.198 383.697,284.992 390.279,253.198 399.594,253.198 399.594,253.198 388.355,307.481 379.04,307.481 "
             id="_151164136"
             style="fill:#ffffff;stroke:#000000;stroke-width:0.503546" />
          <path
             d="m 415.496,275.682 15.902,0 0,15.897 0,0 c 0,8.78185 -7.12015,15.902 -15.897,15.902 -8.78185,0 -15.902,-7.12015 -15.902,-15.902 l 0,0 0,-22.4833 -0.005,0 c 0,-8.77681 7.12015,-15.897 15.902,-15.897 8.78185,0 15.902,7.12015 15.902,15.897 l -9.31561,0 c 0,-3.63561 -2.95078,-6.58135 -6.58639,-6.58135 -3.63561,0 -6.58135,2.94575 -6.58135,6.58135 l 0,22.4833 0,0 c 0,3.63561 2.94575,6.58639 6.58135,6.58639 3.63561,0 6.58639,-2.95078 6.58639,-6.58135 l 0,-0.005 0,-6.58135 -6.58639,0 0,-9.31561 4e-5,-4e-5 z"
             id="_151163752"
             style="fill:#ffffff;stroke:#000000;stroke-width:0.503546" />
          <path
             d="m 340.654,280.339 c -2.87525,-2.88029 -4.6578,-6.85327 -4.6578,-11.2442 0,-8.78185 7.12015,-15.897 15.902,-15.897 8.77681,0 15.897,7.11511 15.897,15.897 l -9.31057,0 c 0,-3.63561 -2.95078,-6.58639 -6.58639,-6.58639 -3.63561,0 -6.58639,2.95078 -6.58639,6.58639 0,1.8178 0.73518,3.45936 1.92355,4.65277 l 0.005,0 c 1.1934,1.1934 2.84,1.92858 4.6578,1.92858 l 0,0.005 c 4.39092,0 8.36391,1.77752 11.2392,4.6578 l 0,0 c 2.88029,2.87525 4.6578,6.85327 4.6578,11.2392 0,8.78185 -7.12015,15.902 -15.897,15.902 -8.78185,0 -15.902,-7.12015 -15.902,-15.902 l 9.31561,0 c 0,3.64064 2.95078,6.58639 6.58639,6.58639 3.63561,0 6.58639,-2.94575 6.58639,-6.58639 0,-1.81277 -0.73518,-3.45936 -1.92858,-4.65277 l 0,0 c -1.1934,-1.18837 -2.84,-1.92858 -4.6578,-1.92858 l 0,0 c -4.39092,0 -8.36391,-1.78255 -11.2442,-4.6578 l 0,0 -5e-5,-4e-5 z"
             id="_151162704"
             style="fill:#ffffff;stroke:#000000;stroke-width:0.503546" />
        </g>
      </g>
    </g>
  </g>
</svg>
